<svg width="1224" height="640" viewBox="0 0 1224 640" fill="none" xmlns="http://www.w3.org/2000/svg">
<rect x="184" y="20" width="817.908" height="520.487" rx="13.8335" fill="#EEEEEE"/>
<path d="M184 33.8335C184 26.1935 190.193 20 197.834 20H988.074C995.714 20 1001.91 26.1935 1001.91 33.8335V63.2298H184V33.8335Z" fill="#0965EE"/>
<path d="M231.718 46.918V34.692H234.251V44.824H239.519V46.918H231.718ZM251.864 40.805C251.864 44.7903 249.381 47.0868 246.156 47.0868C242.897 47.0868 240.431 44.7734 240.431 40.805C240.431 36.8198 242.897 34.5232 246.156 34.5232C249.381 34.5232 251.864 36.8198 251.864 40.805ZM249.28 40.805C249.28 38.1876 248.047 36.7691 246.156 36.7691C244.265 36.7691 243.015 38.1876 243.015 40.805C243.015 43.4224 244.265 44.8409 246.156 44.8409C248.047 44.8409 249.28 43.4224 249.28 40.805ZM261.81 38.6266C261.472 37.4783 260.543 36.7691 259.209 36.7691C257.318 36.7691 256.035 38.2213 256.035 40.7881C256.035 43.3718 257.284 44.8409 259.226 44.8409C260.974 44.8409 262.012 43.853 262.046 42.3079H259.395V40.3997H264.495V41.9195C264.495 45.128 262.3 47.0868 259.209 47.0868C255.781 47.0868 253.451 44.6889 253.451 40.8219C253.451 36.8535 255.933 34.5232 259.159 34.5232C261.911 34.5232 264.039 36.2118 264.377 38.6266H261.81ZM278.511 38.9475C278.308 37.5965 277.261 36.7691 275.843 36.7691C273.934 36.7691 272.685 38.2382 272.685 40.805C272.685 43.4393 273.951 44.8409 275.826 44.8409C277.227 44.8409 278.257 44.0641 278.511 42.747L281.077 42.7639C280.79 45.0267 278.899 47.0868 275.792 47.0868C272.516 47.0868 270.101 44.7903 270.101 40.805C270.101 36.8198 272.567 34.5232 275.792 34.5232C278.612 34.5232 280.74 36.1443 281.077 38.9475H278.511ZM284.674 46.918H281.939L286.177 34.692H289.436L293.658 46.918H290.939L290.027 44.0979H285.603L284.674 46.918ZM286.245 42.1222H289.386L287.849 37.4446H287.765L286.245 42.1222ZM293.067 36.786V34.692H303.081V36.786H299.332V46.918H296.816V36.786H293.067ZM312.284 38.9475C312.081 37.5965 311.034 36.7691 309.616 36.7691C307.708 36.7691 306.458 38.2382 306.458 40.805C306.458 43.4393 307.725 44.8409 309.599 44.8409C311.001 44.8409 312.031 44.0641 312.284 42.747L314.851 42.7639C314.564 45.0267 312.672 47.0868 309.565 47.0868C306.289 47.0868 303.874 44.7903 303.874 40.805C303.874 36.8198 306.34 34.5232 309.565 34.5232C312.385 34.5232 314.513 36.1443 314.851 38.9475H312.284ZM316.624 46.918V34.692H319.157V39.758H324.459V34.692H327.009V46.918H324.459V41.852H319.157V46.918H316.624Z" fill="white"/>
<path d="M210.825 47.1512L217.414 40.7517L220.661 44.0462L210.825 53.7165L200.894 44.0462L204.212 40.7517L210.825 47.1512Z" fill="white"/>
<path d="M214.472 42.2118L210.727 45.8856L204.091 39.4861L200.796 42.7806L200.891 29.0574L214.472 42.2118Z" fill="white"/>
<path d="M221.222 35.5237L215.06 41.615L211.718 38.3679L214.515 35.5237H221.222Z" fill="white"/>
<rect x="903.345" y="30.3757" width="22.4795" height="22.4795" rx="6.91677" fill="#D9D9D9"/>
<rect x="932.74" y="30.3757" width="22.4795" height="22.4795" rx="6.91677" fill="#D9D9D9"/>
<rect x="962.136" y="30.3757" width="22.4795" height="22.4795" rx="6.91677" fill="#D9D9D9"/>
<path d="M184 63.2319H220.313V540.489H197.834C190.193 540.489 184 534.295 184 526.655V63.2319Z" fill="#F7F7F7"/>
<rect x="190.917" y="78.7932" width="22.4795" height="22.4795" rx="6.91677" fill="#D9D9D9"/>
<rect x="190.917" y="115.107" width="22.4795" height="22.4795" rx="6.91677" fill="#D9D9D9"/>
<rect x="190.917" y="151.42" width="22.4795" height="22.4795" rx="6.91677" fill="#D9D9D9"/>
<rect x="237.606" y="78.7932" width="747.011" height="72.6261" rx="13.8335" fill="#F7F7F7"/>
<rect x="343.085" y="37.293" width="36.313" height="10.3752" rx="1.72919" fill="#D9D9D9"/>
<rect x="386.316" y="37.293" width="36.313" height="10.3752" rx="1.72919" fill="#D9D9D9"/>
<path d="M258.903 92.6901C262.212 92.6901 264.678 94.3619 264.695 96.8949C264.678 99.2084 262.727 100.77 259.966 101.083V103.7H265.961V105.473H251.895V103.7H257.822V101.066C255.069 100.77 253.127 99.1999 253.127 96.8949C253.127 94.3619 255.593 92.6901 258.903 92.6901ZM258.903 94.4126C256.758 94.4126 255.255 95.3582 255.255 96.8949C255.255 98.516 256.758 99.4279 258.903 99.4279C261.064 99.4279 262.55 98.516 262.567 96.8949C262.55 95.3582 261.064 94.4126 258.903 94.4126ZM280.906 103.65V105.406H266.839V103.65H280.906ZM270.487 92.8759V95.4258H277.191V92.8759H279.335V101.083H268.325V92.8759H270.487ZM270.487 99.3941H277.191V97.0975H270.487V99.3941ZM291.933 92.2004V101.184H289.89V97.4353H288.184V95.6959H289.89V92.2004H291.933ZM286.63 95.2062C286.63 96.8273 287.441 98.4316 289.417 99.1915L288.336 100.846C287.027 100.34 286.141 99.4279 285.617 98.3134C285.052 99.563 284.106 100.585 282.696 101.15L281.564 99.4448C283.675 98.6511 284.537 96.8949 284.537 95.1893V94.7334H282.088V93.011H288.927V94.7334H286.63V95.2062ZM294.989 91.8964V101.269H292.946V91.8964H294.989ZM294.989 101.826V107.263H292.845V103.531H284.368V101.826H294.989ZM309.259 99.8332V101.539H298.384V93.0279H309.14V94.7672H300.579V96.3883H308.786V98.077H300.579V99.8332H309.259ZM310.795 103.717V105.473H296.729V103.717H310.795Z" fill="#3F3F3F"/>
<rect x="251.439" y="120.294" width="98.5639" height="17.2919" rx="3.45838" fill="#ECECEC"/>
<rect x="360.378" y="120.294" width="98.5639" height="17.2919" rx="3.45838" fill="#ECECEC"/>
<rect x="739.071" y="120.294" width="98.5639" height="17.2919" rx="3.45838" fill="#ECECEC"/>
<rect x="239.962" y="232.369" width="744.727" height="272.636" rx="15.5627" fill="white"/>
<rect x="239.335" y="166.981" width="114.127" height="46.6882" rx="6.91677" fill="#D9D9D9"/>
<rect x="365.565" y="166.981" width="114.127" height="46.6882" rx="6.91677" fill="#D9D9D9"/>
<rect x="491.796" y="166.981" width="114.127" height="46.6882" rx="6.91677" fill="#D9D9D9"/>
<rect x="618.026" y="166.981" width="114.127" height="46.6882" rx="6.91677" fill="#D9D9D9"/>
<rect x="744.259" y="166.981" width="114.127" height="46.6882" rx="6.91677" fill="#D9D9D9"/>
<rect x="870.49" y="166.981" width="114.127" height="46.6882" rx="6.91677" fill="#D9D9D9"/>
<rect x="253.168" y="175.627" width="88.1888" height="17.2919" rx="3.45838" fill="#CCCCCC"/>
<rect x="379.399" y="175.627" width="88.1888" height="17.2919" rx="3.45838" fill="#CCCCCC"/>
<rect x="505.63" y="175.627" width="88.1888" height="17.2919" rx="3.45838" fill="#CCCCCC"/>
<rect x="631.859" y="175.627" width="88.1888" height="17.2919" rx="3.45838" fill="#CCCCCC"/>
<rect x="758.092" y="175.627" width="88.1888" height="17.2919" rx="3.45838" fill="#CCCCCC"/>
<rect x="884.324" y="175.627" width="88.1888" height="17.2919" rx="3.45838" fill="#CCCCCC"/>
<rect x="263.544" y="196.378" width="67.4385" height="8.64596" rx="3.45838" fill="#CCCCCC"/>
<rect x="389.773" y="196.378" width="67.4385" height="8.64596" rx="3.45838" fill="#CCCCCC"/>
<rect x="516.005" y="196.378" width="67.4385" height="8.64596" rx="3.45838" fill="#CCCCCC"/>
<rect x="642.236" y="196.378" width="67.4385" height="8.64596" rx="3.45838" fill="#CCCCCC"/>
<rect x="768.467" y="196.378" width="67.4385" height="8.64596" rx="3.45838" fill="#CCCCCC"/>
<rect x="894.697" y="196.378" width="67.4385" height="8.64596" rx="3.45838" fill="#CCCCCC"/>
<rect x="524.817" y="260.817" width="514.521" height="311.98" rx="16.9625" fill="#F7F7F7" stroke="#999999" stroke-width="1.6334"/>
<rect x="539.557" y="328.294" width="319.927" height="227.788" rx="10.2377" fill="white"/>
<rect x="539.557" y="282.225" width="319.927" height="43.51" rx="10.2377" fill="#0965EE"/>
<path d="M563.251 301.905C563.011 300.306 561.772 299.326 560.092 299.326C557.833 299.326 556.353 301.065 556.353 304.105C556.353 307.224 557.852 308.884 560.072 308.884C561.732 308.884 562.951 307.964 563.251 306.404L566.291 306.424C565.951 309.104 563.711 311.543 560.032 311.543C556.153 311.543 553.294 308.824 553.294 304.105C553.294 299.386 556.213 296.666 560.032 296.666C563.371 296.666 565.891 298.586 566.291 301.905H563.251ZM573.249 311.563C569.93 311.563 567.89 309.403 567.89 305.964C567.89 302.605 569.95 300.346 573.129 300.346C575.988 300.346 578.228 302.145 578.228 305.844V306.684H570.81C570.81 308.324 571.789 309.343 573.309 309.343C574.309 309.343 575.029 308.904 575.328 308.244H578.148C577.728 310.243 575.928 311.563 573.249 311.563ZM570.81 304.825H575.428C575.428 303.505 574.509 302.565 573.189 302.565C571.829 302.565 570.86 303.575 570.81 304.825ZM583.047 296.866V311.343H580.087V296.866H583.047ZM588.306 296.866V311.343H585.346V296.866H588.306ZM597.563 306.724V300.486H600.523V311.343H597.683V309.383H597.563C597.064 310.643 595.904 311.483 594.264 311.483C592.085 311.483 590.605 309.943 590.605 307.404V300.486H593.564V306.884C593.564 308.164 594.304 308.984 595.464 308.984C596.544 308.984 597.563 308.204 597.563 306.724ZM605.782 296.866V311.343H602.822V296.866H605.782ZM607.561 308.304C607.561 305.884 609.521 305.084 611.6 304.964C612.38 304.914 613.84 304.845 614.3 304.825V303.945C614.28 303.045 613.66 302.505 612.56 302.505C611.56 302.505 610.92 302.965 610.76 303.705H607.941C608.121 301.825 609.761 300.346 612.64 300.346C614.999 300.346 617.239 301.405 617.239 304.025V311.343H614.44V309.843H614.36C613.82 310.843 612.8 311.543 611.18 311.543C609.101 311.543 607.561 310.463 607.561 308.304ZM610.4 308.224C610.4 309.064 611.08 309.503 612.02 309.503C613.36 309.503 614.32 308.604 614.3 307.464V306.664C613.85 306.684 612.59 306.754 612.08 306.804C611.06 306.904 610.4 307.384 610.4 308.224ZM619.498 311.343V300.486H622.358V302.365H622.478C622.878 301.025 623.877 300.326 625.097 300.326C625.397 300.326 625.777 300.366 626.037 300.426V303.065C625.757 302.985 625.197 302.905 624.777 302.905C623.437 302.905 622.458 303.845 622.458 305.164V311.343H619.498ZM632.255 311.343V296.866H637.934C641.233 296.866 643.113 298.886 643.113 301.745C643.113 304.645 641.193 306.624 637.854 306.624H635.255V311.343H632.255ZM635.255 304.205H637.374C639.154 304.205 640.014 303.205 640.014 301.745C640.014 300.306 639.154 299.326 637.374 299.326H635.255V304.205ZM647.912 305.064V311.343H644.953V296.866H647.832V302.385H647.952C648.452 301.125 649.551 300.346 651.191 300.346C653.451 300.346 654.95 301.865 654.95 304.425V311.343H651.991V304.944C651.991 303.605 651.271 302.805 650.031 302.805C648.792 302.805 647.912 303.625 647.912 305.064ZM662.109 311.563C658.829 311.563 656.79 309.303 656.79 305.944C656.79 302.585 658.829 300.346 662.109 300.346C665.388 300.346 667.447 302.585 667.447 305.944C667.447 309.303 665.388 311.563 662.109 311.563ZM662.129 309.263C663.648 309.263 664.428 307.844 664.428 305.944C664.428 304.025 663.648 302.605 662.129 302.605C660.589 302.605 659.789 304.025 659.789 305.944C659.789 307.844 660.589 309.263 662.129 309.263ZM672.266 305.064V311.343H669.307V300.486H672.126V302.385H672.246C672.746 301.125 673.906 300.346 675.506 300.346C677.765 300.346 679.265 301.885 679.245 304.425V311.343H676.305V304.944C676.305 303.605 675.566 302.805 674.346 302.805C673.106 302.805 672.266 303.625 672.266 305.064ZM686.463 311.563C683.144 311.563 681.104 309.403 681.104 305.964C681.104 302.605 683.164 300.346 686.343 300.346C689.202 300.346 691.442 302.145 691.442 305.844V306.684H684.024C684.024 308.324 685.003 309.343 686.523 309.343C687.523 309.343 688.243 308.904 688.543 308.244H691.362C690.942 310.243 689.142 311.563 686.463 311.563ZM684.024 304.825H688.643C688.643 303.505 687.723 302.565 686.403 302.565C685.043 302.565 684.074 303.575 684.024 304.825ZM710.158 296.866V311.343H707.558L701.2 302.145H701.08V311.343H698.08V296.866H700.72L707.038 306.064H707.178V296.866H710.158ZM719.495 306.724V300.486H722.455V311.343H719.615V309.383H719.495C718.996 310.643 717.836 311.483 716.196 311.483C714.017 311.483 712.537 309.943 712.537 307.404V300.486H715.496V306.884C715.496 308.164 716.236 308.984 717.396 308.984C718.476 308.984 719.495 308.204 719.495 306.724ZM724.754 311.343V300.486H727.574V302.385H727.694C728.153 301.125 729.253 300.346 730.713 300.346C732.213 300.346 733.312 301.125 733.672 302.385H733.772C734.232 301.145 735.452 300.346 737.051 300.346C739.071 300.346 740.471 301.685 740.471 304.045V311.343H737.511V304.625C737.511 303.385 736.791 302.785 735.812 302.785C734.692 302.785 734.052 303.565 734.052 304.705V311.343H731.173V304.545C731.173 303.465 730.493 302.785 729.493 302.785C728.493 302.785 727.714 303.585 727.714 304.825V311.343H724.754ZM742.81 311.343V296.866H745.769V302.305H745.849C746.269 301.425 747.129 300.346 748.949 300.346C751.348 300.346 753.368 302.205 753.368 305.924C753.368 309.543 751.428 311.523 748.949 311.523C747.169 311.523 746.269 310.503 745.849 309.603H745.729V311.343H742.81ZM745.709 305.904C745.709 307.864 746.549 309.164 748.009 309.164C749.529 309.164 750.328 307.824 750.328 305.904C750.328 304.005 749.529 302.705 748.009 302.705C746.529 302.705 745.709 303.945 745.709 305.904ZM760.186 311.563C756.867 311.563 754.827 309.403 754.827 305.964C754.827 302.605 756.887 300.346 760.066 300.346C762.925 300.346 765.165 302.145 765.165 305.844V306.684H757.747C757.747 308.324 758.726 309.343 760.246 309.343C761.246 309.343 761.966 308.904 762.266 308.244H765.085C764.665 310.243 762.865 311.563 760.186 311.563ZM757.747 304.825H762.366C762.366 303.505 761.446 302.565 760.126 302.565C758.766 302.565 757.797 303.575 757.747 304.825ZM767.025 311.343V300.486H769.884V302.365H770.004C770.404 301.025 771.404 300.326 772.623 300.326C772.923 300.326 773.303 300.366 773.563 300.426V303.065C773.283 302.985 772.723 302.905 772.303 302.905C770.964 302.905 769.984 303.845 769.984 305.164V311.343H767.025Z" fill="white"/>
<path d="M563.831 352.614C563.411 350.614 561.692 349.535 559.792 349.535C557.173 349.535 555.133 351.554 555.133 355.293C555.133 359.033 557.173 361.052 559.792 361.052C561.692 361.052 563.391 359.972 563.831 357.993H565.631C565.111 360.952 562.731 362.732 559.792 362.732C556.073 362.732 553.394 359.872 553.394 355.293C553.394 350.714 556.073 347.855 559.792 347.855C562.711 347.855 565.091 349.615 565.631 352.614H563.831ZM567.93 362.532V351.674H569.59V353.334H569.71C570.11 352.234 571.229 351.494 572.509 351.494C572.769 351.494 573.209 351.514 573.409 351.534V353.274C573.289 353.234 572.809 353.154 572.369 353.154C570.81 353.154 569.65 354.234 569.65 355.693V362.532H567.93ZM579.288 362.752C576.148 362.752 574.209 360.532 574.209 357.193C574.209 353.854 576.168 351.534 579.128 351.534C581.407 351.534 583.807 352.934 583.807 356.953V357.673H575.928C576.008 359.972 577.348 361.232 579.288 361.232C580.587 361.232 581.407 360.672 581.807 359.992H583.647C583.127 361.632 581.527 362.752 579.288 362.752ZM575.948 356.213H582.067C582.067 354.394 580.907 353.054 579.128 353.054C577.248 353.054 576.048 354.534 575.948 356.213ZM590.145 362.752C587.446 362.752 585.526 360.572 585.526 357.133C585.526 353.694 587.446 351.534 590.165 351.534C592.265 351.534 592.944 352.814 593.304 353.394H593.424V348.055H595.164V362.532H593.484V360.872H593.304C592.924 361.472 592.225 362.752 590.145 362.752ZM590.385 361.212C592.365 361.212 593.484 359.532 593.484 357.093C593.484 354.694 592.405 353.074 590.385 353.074C588.306 353.074 587.266 354.834 587.266 357.093C587.266 359.412 588.326 361.212 590.385 361.212ZM598.143 362.532V351.674H599.863V362.532H598.143ZM599.003 349.875C598.343 349.875 597.803 349.375 597.803 348.735C597.803 348.095 598.343 347.595 599.003 347.595C599.663 347.595 600.223 348.095 600.223 348.735C600.223 349.375 599.663 349.875 599.003 349.875ZM607.341 351.674V353.114H605.062V359.412C605.062 360.812 605.742 361.032 606.481 361.032C606.801 361.032 607.241 361.012 607.501 360.992V362.592C607.241 362.632 606.801 362.672 606.301 362.672C604.862 362.672 603.322 361.772 603.322 359.852V353.114H601.682V351.674H603.322V349.075H605.062V351.674H607.341ZM624.797 352.614C624.377 350.614 622.658 349.535 620.758 349.535C618.139 349.535 616.099 351.554 616.099 355.293C616.099 359.033 618.139 361.052 620.758 361.052C622.658 361.052 624.357 359.972 624.797 357.993H626.597C626.077 360.952 623.697 362.732 620.758 362.732C617.039 362.732 614.36 359.872 614.36 355.293C614.36 350.714 617.039 347.855 620.758 347.855C623.677 347.855 626.057 349.615 626.597 352.614H624.797ZM628.376 359.452C628.376 356.953 630.576 356.393 632.455 356.253C633.145 356.203 634.905 356.113 635.395 356.093V355.213C635.395 353.834 634.575 353.034 632.935 353.034C631.556 353.034 630.736 353.674 630.496 354.494H628.696C628.916 352.754 630.616 351.534 633.015 351.534C634.435 351.534 637.094 351.954 637.094 355.373V362.532H635.395V361.052H635.315C634.955 361.792 633.955 362.792 632.075 362.792C630.016 362.792 628.376 361.572 628.376 359.452ZM630.096 359.532C630.096 360.672 631.056 361.252 632.375 361.252C634.315 361.252 635.395 359.952 635.395 358.593V357.493C634.885 357.533 633.175 357.663 632.655 357.693C631.096 357.793 630.096 358.353 630.096 359.532ZM639.854 362.532V351.674H641.513V353.334H641.633C642.033 352.234 643.153 351.494 644.433 351.494C644.693 351.494 645.132 351.514 645.332 351.534V353.274C645.212 353.234 644.733 353.154 644.293 353.154C642.733 353.154 641.573 354.234 641.573 355.693V362.532H639.854ZM650.751 362.752C648.052 362.752 646.132 360.572 646.132 357.133C646.132 353.694 648.052 351.534 650.771 351.534C652.871 351.534 653.551 352.814 653.91 353.394H654.03V348.055H655.77V362.532H654.09V360.872H653.91C653.531 361.472 652.831 362.752 650.751 362.752ZM650.991 361.212C652.971 361.212 654.09 359.532 654.09 357.093C654.09 354.694 653.011 353.074 650.991 353.074C648.912 353.074 647.872 354.834 647.872 357.093C647.872 359.412 648.932 361.212 650.991 361.212ZM675.605 348.055V362.532H673.886L666.048 351.254H665.908V362.532H664.108V348.055H665.848L673.686 359.352H673.826V348.055H675.605ZM685.443 358.073V351.674H687.143V362.532H685.443V360.692H685.323C684.803 361.792 683.744 362.672 682.104 362.672C680.044 362.672 678.585 361.332 678.585 358.573V351.674H680.304V358.453C680.304 360.012 681.284 361.012 682.664 361.012C683.884 361.012 685.443 360.092 685.443 358.073ZM689.902 362.532V351.674H691.562V353.374H691.702C692.162 352.214 693.201 351.534 694.621 351.534C696.041 351.534 697.001 352.214 697.52 353.374H697.64C698.2 352.254 699.34 351.534 700.9 351.534C702.839 351.534 704.219 352.714 704.219 355.273V362.532H702.499V355.293C702.499 353.694 701.48 353.074 700.3 353.074C698.78 353.074 697.92 354.094 697.92 355.473V362.532H696.181V355.113C696.181 353.894 695.301 353.074 694.061 353.074C692.762 353.074 691.622 354.174 691.622 355.753V362.532H689.902ZM707.198 362.532V348.055H708.918V353.394H709.058C709.438 352.814 710.078 351.534 712.197 351.534C714.916 351.534 716.836 353.694 716.836 357.133C716.836 360.572 714.916 362.752 712.217 362.752C710.138 362.752 709.438 361.472 709.058 360.872H708.858V362.532H707.198ZM708.878 357.093C708.878 359.532 709.978 361.212 711.957 361.212C714.017 361.212 715.096 359.412 715.096 357.093C715.096 354.834 714.057 353.074 711.957 353.074C709.958 353.074 708.878 354.694 708.878 357.093ZM723.634 362.752C720.495 362.752 718.556 360.532 718.556 357.193C718.556 353.854 720.515 351.534 723.475 351.534C725.754 351.534 728.153 352.934 728.153 356.953V357.673H720.275C720.355 359.972 721.695 361.232 723.634 361.232C724.934 361.232 725.754 360.672 726.154 359.992H727.993C727.474 361.632 725.874 362.752 723.634 362.752ZM720.295 356.213H726.414C726.414 354.394 725.254 353.054 723.475 353.054C721.595 353.054 720.395 354.534 720.295 356.213ZM730.393 362.532V351.674H732.053V353.334H732.173C732.572 352.234 733.692 351.494 734.972 351.494C735.232 351.494 735.672 351.514 735.872 351.534V353.274C735.752 353.234 735.272 353.154 734.832 353.154C733.272 353.154 732.113 354.234 732.113 355.693V362.532H730.393Z" fill="#999999"/>
<path d="M553.953 406.042V391.565H562.731V393.164H555.753V398.003H562.271V399.583H555.753V404.442H562.831V406.042H553.953ZM565.351 406.042V395.184H567.01V396.884H567.15C567.61 395.724 568.65 395.044 570.07 395.044C571.489 395.044 572.449 395.724 572.969 396.884H573.089C573.649 395.764 574.789 395.044 576.348 395.044C578.288 395.044 579.667 396.224 579.667 398.783V406.042H577.948V398.803C577.948 397.204 576.928 396.584 575.748 396.584C574.229 396.584 573.369 397.603 573.369 398.983V406.042H571.629V398.623C571.629 397.403 570.75 396.584 569.51 396.584C568.21 396.584 567.07 397.683 567.07 399.263V406.042H565.351ZM581.907 402.962C581.907 400.463 584.106 399.903 585.986 399.763C586.676 399.713 588.435 399.623 588.925 399.603V398.723C588.925 397.343 588.106 396.544 586.466 396.544C585.086 396.544 584.266 397.184 584.026 398.003H582.227C582.447 396.264 584.146 395.044 586.546 395.044C587.966 395.044 590.625 395.464 590.625 398.883V406.042H588.925V404.562H588.845C588.485 405.302 587.486 406.301 585.606 406.301C583.547 406.301 581.907 405.082 581.907 402.962ZM583.627 403.042C583.627 404.182 584.586 404.762 585.906 404.762C587.846 404.762 588.925 403.462 588.925 402.102V401.003C588.415 401.043 586.706 401.173 586.186 401.203C584.626 401.303 583.627 401.862 583.627 403.042ZM593.384 406.042V395.184H595.104V406.042H593.384ZM594.244 393.384C593.584 393.384 593.044 392.885 593.044 392.245C593.044 391.605 593.584 391.105 594.244 391.105C594.904 391.105 595.464 391.605 595.464 392.245C595.464 392.885 594.904 393.384 594.244 393.384ZM599.563 391.565V406.042H597.843V391.565H599.563ZM608.301 406.042H606.421L611.72 391.565H613.62L618.918 406.042H617.019L615.579 401.962H609.761L608.301 406.042ZM610.3 400.383H615.019L612.72 393.904H612.6L610.3 400.383ZM624.737 406.261C622.038 406.261 620.118 404.082 620.118 400.643C620.118 397.204 622.038 395.044 624.757 395.044C626.857 395.044 627.537 396.324 627.896 396.904H628.016V391.565H629.756V406.042H628.076V404.382H627.896C627.517 404.982 626.817 406.261 624.737 406.261ZM624.977 404.722C626.957 404.722 628.076 403.042 628.076 400.603C628.076 398.203 626.997 396.584 624.977 396.584C622.898 396.584 621.858 398.343 621.858 400.603C621.858 402.922 622.918 404.722 624.977 404.722ZM636.834 406.261C634.135 406.261 632.215 404.082 632.215 400.643C632.215 397.204 634.135 395.044 636.854 395.044C638.954 395.044 639.634 396.324 639.994 396.904H640.114V391.565H641.853V406.042H640.174V404.382H639.994C639.614 404.982 638.914 406.261 636.834 406.261ZM637.074 404.722C639.054 404.722 640.174 403.042 640.174 400.603C640.174 398.203 639.094 396.584 637.074 396.584C634.995 396.584 633.955 398.343 633.955 400.603C633.955 402.922 635.015 404.722 637.074 404.722ZM644.833 406.042V395.184H646.492V396.844H646.612C647.012 395.744 648.132 395.004 649.411 395.004C649.671 395.004 650.111 395.024 650.311 395.044V396.784C650.191 396.744 649.711 396.664 649.272 396.664C647.712 396.664 646.552 397.743 646.552 399.203V406.042H644.833ZM656.19 406.261C653.051 406.261 651.111 404.042 651.111 400.703C651.111 397.363 653.071 395.044 656.03 395.044C658.309 395.044 660.709 396.444 660.709 400.463V401.183H652.831C652.911 403.482 654.25 404.742 656.19 404.742C657.49 404.742 658.309 404.182 658.709 403.502H660.549C660.029 405.142 658.429 406.261 656.19 406.261ZM652.851 399.723H658.969C658.969 397.903 657.81 396.564 656.03 396.564C654.15 396.564 652.951 398.043 652.851 399.723ZM668.987 398.003C668.747 397.104 668.067 396.504 666.788 396.504C665.448 396.504 664.488 397.224 664.488 398.143C664.488 398.863 665.068 399.363 666.348 399.663L667.967 400.063C669.907 400.523 670.867 401.483 670.867 403.002C670.867 404.882 669.327 406.261 666.608 406.261C664.168 406.261 662.708 405.182 662.429 403.202H664.228C664.428 404.262 665.208 404.762 666.568 404.762C668.107 404.762 669.087 404.122 669.087 403.102C669.087 402.342 668.547 401.822 667.307 401.543L665.668 401.163C663.768 400.723 662.768 399.683 662.768 398.243C662.768 396.384 664.388 395.044 666.788 395.044C669.027 395.044 670.447 396.244 670.667 398.003H668.987ZM679.145 398.003C678.905 397.104 678.225 396.504 676.945 396.504C675.605 396.504 674.646 397.224 674.646 398.143C674.646 398.863 675.226 399.363 676.505 399.663L678.125 400.063C680.064 400.523 681.024 401.483 681.024 403.002C681.024 404.882 679.485 406.261 676.765 406.261C674.326 406.261 672.866 405.182 672.586 403.202H674.386C674.586 404.262 675.366 404.762 676.725 404.762C678.265 404.762 679.245 404.122 679.245 403.102C679.245 402.342 678.705 401.822 677.465 401.543L675.825 401.163C673.926 400.723 672.926 399.683 672.926 398.243C672.926 396.384 674.546 395.044 676.945 395.044C679.185 395.044 680.604 396.244 680.824 398.003H679.145Z" fill="#999999"/>
<path d="M553.953 449.552V435.075H562.671V436.674H555.753V441.513H562.012V443.093H555.753V449.552H553.953ZM568.77 449.771C565.811 449.771 563.811 447.552 563.811 444.173C563.811 440.794 565.811 438.554 568.77 438.554C571.709 438.554 573.689 440.794 573.689 444.173C573.689 447.552 571.709 449.771 568.77 449.771ZM568.77 448.252C570.949 448.252 571.969 446.332 571.969 444.173C571.969 442.013 570.949 440.074 568.77 440.074C566.551 440.074 565.531 442.013 565.531 444.173C565.531 446.332 566.551 448.252 568.77 448.252ZM575.948 449.552V438.694H577.608V440.354H577.728C578.128 439.254 579.248 438.514 580.527 438.514C580.787 438.514 581.227 438.534 581.427 438.554V440.294C581.307 440.254 580.827 440.174 580.387 440.174C578.828 440.174 577.668 441.253 577.668 442.713V449.552H575.948ZM587.306 449.771C584.166 449.771 582.227 447.552 582.227 444.213C582.227 440.874 584.186 438.554 587.146 438.554C589.425 438.554 591.825 439.954 591.825 443.973V444.693H583.947C584.026 446.992 585.366 448.252 587.306 448.252C588.605 448.252 589.425 447.692 589.825 447.012H591.665C591.145 448.652 589.545 449.771 587.306 449.771ZM583.967 443.233H590.085C590.085 441.413 588.925 440.074 587.146 440.074C585.266 440.074 584.066 441.553 583.967 443.233ZM594.064 449.552V438.694H595.784V449.552H594.064ZM594.924 436.894C594.264 436.894 593.724 436.395 593.724 435.755C593.724 435.115 594.264 434.615 594.924 434.615C595.584 434.615 596.144 435.115 596.144 435.755C596.144 436.395 595.584 436.894 594.924 436.894ZM602.922 453.851C600.303 453.851 598.523 452.711 598.323 450.691H600.123C600.363 451.791 601.383 452.351 602.922 452.351C604.782 452.351 605.921 451.551 605.921 449.751V447.552H605.782C605.422 448.152 604.722 449.392 602.622 449.392C599.983 449.392 598.003 447.392 598.003 443.973C598.003 440.634 599.923 438.554 602.642 438.554C604.742 438.554 605.422 439.834 605.821 440.414H605.961V438.694H607.641V449.851C607.641 452.651 605.562 453.851 602.922 453.851ZM602.862 447.852C604.842 447.852 605.961 446.432 605.961 444.033C605.961 441.713 604.882 440.094 602.862 440.094C600.783 440.094 599.743 441.853 599.743 444.033C599.743 446.292 600.803 447.852 602.862 447.852ZM612.1 443.033V449.552H610.38V438.694H612.04V440.394H612.18C612.7 439.294 613.7 438.554 615.359 438.554C617.559 438.554 619.018 439.894 619.018 442.653V449.552H617.299V442.773C617.299 441.093 616.379 440.094 614.839 440.094C613.26 440.094 612.1 441.153 612.1 443.033ZM626.337 449.771C623.198 449.771 621.258 447.552 621.258 444.213C621.258 440.874 623.218 438.554 626.177 438.554C628.456 438.554 630.856 439.954 630.856 443.973V444.693H622.978C623.058 446.992 624.397 448.252 626.337 448.252C627.636 448.252 628.456 447.692 628.856 447.012H630.696C630.176 448.652 628.576 449.771 626.337 449.771ZM622.998 443.233H629.116C629.116 441.413 627.956 440.074 626.177 440.074C624.297 440.074 623.098 441.553 622.998 443.233ZM633.095 449.552V438.694H634.755V440.354H634.875C635.275 439.254 636.394 438.514 637.674 438.514C637.934 438.514 638.374 438.534 638.574 438.554V440.294C638.454 440.254 637.974 440.174 637.534 440.174C635.975 440.174 634.815 441.253 634.815 442.713V449.552H633.095ZM645.612 449.552V435.075H650.531C653.93 435.075 655.47 436.954 655.47 439.534C655.47 441.443 654.61 442.953 652.771 443.593L656.03 449.552H653.93L650.911 443.913C650.791 443.933 650.671 443.933 650.551 443.933H647.412V449.552H645.612ZM647.412 442.293H650.471C652.771 442.293 653.691 441.253 653.691 439.534C653.691 437.794 652.771 436.674 650.451 436.674H647.412V442.293ZM662.289 449.771C659.149 449.771 657.21 447.552 657.21 444.213C657.21 440.874 659.169 438.554 662.129 438.554C664.408 438.554 666.808 439.954 666.808 443.973V444.693H658.929C659.009 446.992 660.349 448.252 662.289 448.252C663.588 448.252 664.408 447.692 664.808 447.012H666.648C666.128 448.652 664.528 449.771 662.289 449.771ZM658.949 443.233H665.068C665.068 441.413 663.908 440.074 662.129 440.074C660.249 440.074 659.049 441.553 658.949 443.233ZM673.446 453.851C670.827 453.851 669.047 452.711 668.847 450.691H670.647C670.887 451.791 671.906 452.351 673.446 452.351C675.306 452.351 676.445 451.551 676.445 449.751V447.552H676.305C675.945 448.152 675.246 449.392 673.146 449.392C670.507 449.392 668.527 447.392 668.527 443.973C668.527 440.634 670.447 438.554 673.166 438.554C675.266 438.554 675.945 439.834 676.345 440.414H676.485V438.694H678.165V449.851C678.165 452.651 676.085 453.851 673.446 453.851ZM673.386 447.852C675.366 447.852 676.485 446.432 676.485 444.033C676.485 441.713 675.406 440.094 673.386 440.094C671.306 440.094 670.267 441.853 670.267 444.033C670.267 446.292 671.326 447.852 673.386 447.852ZM680.904 449.552V438.694H682.624V449.552H680.904ZM681.764 436.894C681.104 436.894 680.564 436.395 680.564 435.755C680.564 435.115 681.104 434.615 681.764 434.615C682.424 434.615 682.984 435.115 682.984 435.755C682.984 436.395 682.424 436.894 681.764 436.894ZM691.402 441.513C691.162 440.614 690.482 440.014 689.202 440.014C687.863 440.014 686.903 440.734 686.903 441.653C686.903 442.373 687.483 442.873 688.762 443.173L690.382 443.573C692.322 444.033 693.281 444.993 693.281 446.512C693.281 448.392 691.742 449.771 689.022 449.771C686.583 449.771 685.123 448.692 684.843 446.712H686.643C686.843 447.772 687.623 448.272 688.982 448.272C690.522 448.272 691.502 447.632 691.502 446.612C691.502 445.852 690.962 445.332 689.722 445.053L688.083 444.673C686.183 444.233 685.183 443.193 685.183 441.753C685.183 439.894 686.803 438.554 689.202 438.554C691.442 438.554 692.862 439.754 693.081 441.513H691.402ZM700.26 438.694V440.134H697.98V446.432C697.98 447.832 698.66 448.052 699.4 448.052C699.72 448.052 700.16 448.032 700.42 448.012V449.611C700.16 449.651 699.72 449.691 699.22 449.691C697.78 449.691 696.241 448.792 696.241 446.872V440.134H694.601V438.694H696.241V436.095H697.98V438.694H700.26ZM702.479 449.552V438.694H704.139V440.354H704.259C704.659 439.254 705.779 438.514 707.058 438.514C707.318 438.514 707.758 438.534 707.958 438.554V440.294C707.838 440.254 707.358 440.174 706.918 440.174C705.359 440.174 704.199 441.253 704.199 442.713V449.552H702.479ZM709.098 446.472C709.098 443.973 711.297 443.413 713.177 443.273C713.867 443.223 715.626 443.133 716.116 443.113V442.233C716.116 440.854 715.296 440.054 713.657 440.054C712.277 440.054 711.457 440.694 711.217 441.513H709.418C709.638 439.774 711.337 438.554 713.737 438.554C715.156 438.554 717.816 438.974 717.816 442.393V449.552H716.116V448.072H716.036C715.676 448.812 714.677 449.811 712.797 449.811C710.737 449.811 709.098 448.592 709.098 446.472ZM710.817 446.552C710.817 447.692 711.777 448.272 713.097 448.272C715.036 448.272 716.116 446.972 716.116 445.612V444.513C715.606 444.553 713.897 444.683 713.377 444.713C711.817 444.813 710.817 445.372 710.817 446.552ZM725.314 438.694V440.134H723.035V446.432C723.035 447.832 723.714 448.052 724.454 448.052C724.774 448.052 725.214 448.032 725.474 448.012V449.611C725.214 449.651 724.774 449.691 724.274 449.691C722.835 449.691 721.295 448.792 721.295 446.872V440.134H719.655V438.694H721.295V436.095H723.035V438.694H725.314ZM727.534 449.552V438.694H729.253V449.552H727.534ZM728.393 436.894C727.734 436.894 727.194 436.395 727.194 435.755C727.194 435.115 727.734 434.615 728.393 434.615C729.053 434.615 729.613 435.115 729.613 435.755C729.613 436.395 729.053 436.894 728.393 436.894ZM736.432 449.771C733.472 449.771 731.473 447.552 731.473 444.173C731.473 440.794 733.472 438.554 736.432 438.554C739.371 438.554 741.35 440.794 741.35 444.173C741.35 447.552 739.371 449.771 736.432 449.771ZM736.432 448.252C738.611 448.252 739.631 446.332 739.631 444.173C739.631 442.013 738.611 440.074 736.432 440.074C734.212 440.074 733.192 442.013 733.192 444.173C733.192 446.332 734.212 448.252 736.432 448.252ZM745.329 443.033V449.552H743.61V438.694H745.27V440.394H745.409C745.929 439.294 746.929 438.554 748.589 438.554C750.788 438.554 752.248 439.894 752.248 442.653V449.552H750.528V442.773C750.528 441.093 749.609 440.094 748.069 440.094C746.489 440.094 745.329 441.153 745.329 443.033ZM771.863 435.075V449.552H770.144L762.306 438.274H762.166V449.552H760.366V435.075H762.106L769.944 446.372H770.084V435.075H771.863ZM781.701 445.093V438.694H783.401V449.552H781.701V447.712H781.581C781.061 448.812 780.002 449.691 778.362 449.691C776.302 449.691 774.843 448.352 774.843 445.592V438.694H776.562V445.472C776.562 447.032 777.542 448.032 778.922 448.032C780.142 448.032 781.701 447.112 781.701 445.093ZM786.16 449.552V438.694H787.82V440.394H787.96C788.42 439.234 789.459 438.554 790.879 438.554C792.299 438.554 793.258 439.234 793.778 440.394H793.898C794.458 439.274 795.598 438.554 797.158 438.554C799.097 438.554 800.477 439.734 800.477 442.293V449.552H798.757V442.313C798.757 440.714 797.737 440.094 796.558 440.094C795.038 440.094 794.178 441.113 794.178 442.493V449.552H792.439V442.133C792.439 440.913 791.559 440.094 790.319 440.094C789.019 440.094 787.88 441.193 787.88 442.773V449.552H786.16ZM803.456 449.552V435.075H805.176V440.414H805.316C805.696 439.834 806.336 438.554 808.455 438.554C811.174 438.554 813.094 440.714 813.094 444.153C813.094 447.592 811.174 449.771 808.475 449.771C806.395 449.771 805.696 448.492 805.316 447.892H805.116V449.552H803.456ZM805.136 444.113C805.136 446.552 806.236 448.232 808.215 448.232C810.275 448.232 811.354 446.432 811.354 444.113C811.354 441.853 810.315 440.094 808.215 440.094C806.216 440.094 805.136 441.713 805.136 444.113ZM819.892 449.771C816.753 449.771 814.814 447.552 814.814 444.213C814.814 440.874 816.773 438.554 819.732 438.554C822.012 438.554 824.411 439.954 824.411 443.973V444.693H816.533C816.613 446.992 817.953 448.252 819.892 448.252C821.192 448.252 822.012 447.692 822.412 447.012H824.251C823.732 448.652 822.132 449.771 819.892 449.771ZM816.553 443.233H822.672C822.672 441.413 821.512 440.074 819.732 440.074C817.853 440.074 816.653 441.553 816.553 443.233ZM826.651 449.552V438.694H828.31V440.354H828.43C828.83 439.254 829.95 438.514 831.23 438.514C831.49 438.514 831.93 438.534 832.13 438.554V440.294C832.01 440.254 831.53 440.174 831.09 440.174C829.53 440.174 828.37 441.253 828.37 442.713V449.552H826.651Z" fill="#999999"/>
<path d="M553.953 493.062V478.585H555.753V485.023H563.411V478.585H565.231V493.062H563.411V486.603H555.753V493.062H553.953ZM572.749 493.281C569.61 493.281 567.67 491.062 567.67 487.723C567.67 484.384 569.63 482.064 572.589 482.064C574.869 482.064 577.268 483.464 577.268 487.483V488.203H569.39C569.47 490.502 570.81 491.762 572.749 491.762C574.049 491.762 574.869 491.202 575.269 490.522H577.108C576.588 492.162 574.989 493.281 572.749 493.281ZM569.41 486.743H575.528C575.528 484.923 574.369 483.584 572.589 483.584C570.71 483.584 569.51 485.063 569.41 486.743ZM578.988 489.982C578.988 487.483 581.187 486.923 583.067 486.783C583.757 486.733 585.516 486.643 586.006 486.623V485.743C586.006 484.364 585.186 483.564 583.547 483.564C582.167 483.564 581.347 484.204 581.107 485.023H579.308C579.528 483.284 581.227 482.064 583.627 482.064C585.046 482.064 587.706 482.484 587.706 485.903V493.062H586.006V491.582H585.926C585.566 492.322 584.566 493.321 582.687 493.321C580.627 493.321 578.988 492.102 578.988 489.982ZM580.707 490.062C580.707 491.202 581.667 491.782 582.987 491.782C584.926 491.782 586.006 490.482 586.006 489.122V488.023C585.496 488.063 583.787 488.193 583.267 488.223C581.707 488.323 580.707 488.882 580.707 490.062ZM592.185 478.585V493.062H590.465V478.585H592.185ZM599.663 482.204V483.644H597.383V489.942C597.383 491.342 598.063 491.562 598.803 491.562C599.123 491.562 599.563 491.542 599.823 491.522V493.122C599.563 493.162 599.123 493.201 598.623 493.201C597.183 493.201 595.644 492.302 595.644 490.382V483.644H594.004V482.204H595.644V479.605H597.383V482.204H599.663ZM603.842 486.543V493.062H602.122V478.585H603.842V483.904H603.982C604.482 482.784 605.462 482.064 607.181 482.064C609.401 482.064 610.88 483.384 610.88 486.163V493.062H609.161V486.283C609.161 484.583 608.221 483.604 606.661 483.604C605.042 483.604 603.842 484.663 603.842 486.543ZM620.798 478.585V493.062H618.998V478.585H620.798ZM625.497 486.543V493.062H623.777V482.204H625.437V483.904H625.577C626.097 482.804 627.097 482.064 628.756 482.064C630.956 482.064 632.415 483.404 632.415 486.163V493.062H630.696V486.283C630.696 484.603 629.776 483.604 628.236 483.604C626.657 483.604 625.497 484.663 625.497 486.543ZM641.213 485.023C640.973 484.124 640.294 483.524 639.014 483.524C637.674 483.524 636.714 484.244 636.714 485.163C636.714 485.883 637.294 486.383 638.574 486.683L640.194 487.083C642.133 487.543 643.093 488.503 643.093 490.022C643.093 491.902 641.553 493.281 638.834 493.281C636.394 493.281 634.935 492.202 634.655 490.222H636.454C636.654 491.282 637.434 491.782 638.794 491.782C640.334 491.782 641.313 491.142 641.313 490.122C641.313 489.362 640.773 488.842 639.534 488.563L637.894 488.183C635.995 487.743 634.995 486.703 634.995 485.263C634.995 483.404 636.614 482.064 639.014 482.064C641.253 482.064 642.673 483.264 642.893 485.023H641.213ZM652.191 488.603V482.204H653.89V493.062H652.191V491.222H652.071C651.551 492.322 650.491 493.201 648.852 493.201C646.792 493.201 645.332 491.862 645.332 489.102V482.204H647.052V488.982C647.052 490.542 648.032 491.542 649.411 491.542C650.631 491.542 652.191 490.622 652.191 488.603ZM656.65 493.062V482.204H658.309V483.864H658.429C658.829 482.764 659.949 482.024 661.229 482.024C661.489 482.024 661.929 482.044 662.129 482.064V483.804C662.009 483.764 661.529 483.684 661.089 483.684C659.529 483.684 658.369 484.763 658.369 486.223V493.062H656.65ZM663.268 489.982C663.268 487.483 665.468 486.923 667.347 486.783C668.037 486.733 669.797 486.643 670.287 486.623V485.743C670.287 484.364 669.467 483.564 667.827 483.564C666.448 483.564 665.628 484.204 665.388 485.023H663.588C663.808 483.284 665.508 482.064 667.907 482.064C669.327 482.064 671.986 482.484 671.986 485.903V493.062H670.287V491.582H670.207C669.847 492.322 668.847 493.321 666.967 493.321C664.908 493.321 663.268 492.102 663.268 489.982ZM664.988 490.062C664.988 491.202 665.948 491.782 667.267 491.782C669.207 491.782 670.287 490.482 670.287 489.122V488.023C669.777 488.063 668.067 488.193 667.547 488.223C665.988 488.323 664.988 488.882 664.988 490.062ZM676.465 486.543V493.062H674.746V482.204H676.405V483.904H676.545C677.065 482.804 678.065 482.064 679.725 482.064C681.924 482.064 683.384 483.404 683.384 486.163V493.062H681.664V486.283C681.664 484.603 680.744 483.604 679.205 483.604C677.625 483.604 676.465 484.663 676.465 486.543ZM690.582 493.281C687.503 493.281 685.623 490.942 685.623 487.683C685.623 484.384 687.583 482.064 690.542 482.064C692.862 482.064 694.581 483.424 694.861 485.483H693.141C692.902 484.483 692.022 483.584 690.582 483.584C688.642 483.584 687.343 485.183 687.343 487.623C687.343 490.142 688.603 491.742 690.582 491.742C691.862 491.742 692.842 491.062 693.141 489.862H694.861C694.581 491.802 693.001 493.281 690.582 493.281ZM701.54 493.281C698.4 493.281 696.461 491.062 696.461 487.723C696.461 484.384 698.42 482.064 701.38 482.064C703.659 482.064 706.059 483.464 706.059 487.483V488.203H698.18C698.26 490.502 699.6 491.762 701.54 491.762C702.839 491.762 703.659 491.202 704.059 490.522H705.899C705.379 492.162 703.779 493.281 701.54 493.281ZM698.2 486.743H704.319C704.319 484.923 703.159 483.584 701.38 483.584C699.5 483.584 698.3 485.063 698.2 486.743ZM725.154 478.585V493.062H723.435L715.596 481.784H715.456V493.062H713.657V478.585H715.396L723.235 489.882H723.375V478.585H725.154ZM734.992 488.603V482.204H736.691V493.062H734.992V491.222H734.872C734.352 492.322 733.292 493.201 731.653 493.201C729.593 493.201 728.133 491.862 728.133 489.102V482.204H729.853V488.982C729.853 490.542 730.833 491.542 732.213 491.542C733.432 491.542 734.992 490.622 734.992 488.603ZM739.451 493.062V482.204H741.11V483.904H741.25C741.71 482.744 742.75 482.064 744.17 482.064C745.589 482.064 746.549 482.744 747.069 483.904H747.189C747.749 482.784 748.889 482.064 750.448 482.064C752.388 482.064 753.768 483.244 753.768 485.803V493.062H752.048V485.823C752.048 484.224 751.028 483.604 749.848 483.604C748.329 483.604 747.469 484.623 747.469 486.003V493.062H745.729V485.643C745.729 484.424 744.85 483.604 743.61 483.604C742.31 483.604 741.17 484.703 741.17 486.283V493.062H739.451ZM756.747 493.062V478.585H758.466V483.924H758.606C758.986 483.344 759.626 482.064 761.746 482.064C764.465 482.064 766.385 484.224 766.385 487.663C766.385 491.102 764.465 493.281 761.766 493.281C759.686 493.281 758.986 492.002 758.606 491.402H758.406V493.062H756.747ZM758.426 487.623C758.426 490.062 759.526 491.742 761.506 491.742C763.565 491.742 764.645 489.942 764.645 487.623C764.645 485.363 763.605 483.604 761.506 483.604C759.506 483.604 758.426 485.223 758.426 487.623ZM773.183 493.281C770.044 493.281 768.104 491.062 768.104 487.723C768.104 484.384 770.064 482.064 773.023 482.064C775.303 482.064 777.702 483.464 777.702 487.483V488.203H769.824C769.904 490.502 771.244 491.762 773.183 491.762C774.483 491.762 775.303 491.202 775.703 490.522H777.542C777.022 492.162 775.423 493.281 773.183 493.281ZM769.844 486.743H775.962C775.962 484.923 774.803 483.584 773.023 483.584C771.144 483.584 769.944 485.063 769.844 486.743ZM779.942 493.062V482.204H781.601V483.864H781.721C782.121 482.764 783.241 482.024 784.521 482.024C784.78 482.024 785.22 482.044 785.42 482.064V483.804C785.3 483.764 784.82 483.684 784.381 483.684C782.821 483.684 781.661 484.763 781.661 486.223V493.062H779.942Z" fill="#999999"/>
<path d="M559.492 522.095H561.312V532.433C561.312 535.212 559.672 536.772 557.153 536.772C554.753 536.772 553.014 535.392 553.014 533.153H554.793C554.793 534.372 555.793 535.172 557.153 535.172C558.652 535.172 559.492 534.232 559.492 532.433V522.095ZM571.149 532.113V525.714H572.849V536.572H571.149V534.732H571.029C570.51 535.832 569.45 536.712 567.81 536.712C565.751 536.712 564.291 535.372 564.291 532.613V525.714H566.011V532.493C566.011 534.052 566.99 535.052 568.37 535.052C569.59 535.052 571.149 534.132 571.149 532.113ZM575.608 536.572V525.714H577.268V527.414H577.408C577.868 526.254 578.908 525.574 580.327 525.574C581.747 525.574 582.707 526.254 583.227 527.414H583.347C583.907 526.294 585.046 525.574 586.606 525.574C588.545 525.574 589.925 526.754 589.925 529.313V536.572H588.206V529.333C588.206 527.734 587.186 527.114 586.006 527.114C584.486 527.114 583.627 528.134 583.627 529.513V536.572H581.887V529.153C581.887 527.934 581.007 527.114 579.767 527.114C578.468 527.114 577.328 528.214 577.328 529.793V536.572H575.608ZM592.685 536.572V525.714H594.404V536.572H592.685ZM593.544 523.915C592.884 523.915 592.345 523.415 592.345 522.775C592.345 522.135 592.884 521.635 593.544 521.635C594.204 521.635 594.764 522.135 594.764 522.775C594.764 523.415 594.204 523.915 593.544 523.915ZM598.863 530.053V536.572H597.143V525.714H598.803V527.414H598.943C599.463 526.314 600.463 525.574 602.122 525.574C604.322 525.574 605.782 526.914 605.782 529.673V536.572H604.062V529.793C604.062 528.114 603.142 527.114 601.602 527.114C600.023 527.114 598.863 528.174 598.863 530.053ZM625.397 522.095V536.572H623.677L615.839 525.294H615.699V536.572H613.9V522.095H615.639L623.477 533.393H623.617V522.095H625.397ZM635.235 532.113V525.714H636.934V536.572H635.235V534.732H635.115C634.595 535.832 633.535 536.712 631.896 536.712C629.836 536.712 628.376 535.372 628.376 532.613V525.714H630.096V532.493C630.096 534.052 631.076 535.052 632.455 535.052C633.675 535.052 635.235 534.132 635.235 532.113ZM639.694 536.572V525.714H641.353V527.414H641.493C641.953 526.254 642.993 525.574 644.413 525.574C645.832 525.574 646.792 526.254 647.312 527.414H647.432C647.992 526.294 649.132 525.574 650.691 525.574C652.631 525.574 654.01 526.754 654.01 529.313V536.572H652.291V529.333C652.291 527.734 651.271 527.114 650.091 527.114C648.572 527.114 647.712 528.134 647.712 529.513V536.572H645.972V529.153C645.972 527.934 645.092 527.114 643.853 527.114C642.553 527.114 641.413 528.214 641.413 529.793V536.572H639.694ZM656.99 536.572V522.095H658.709V527.434H658.849C659.229 526.854 659.869 525.574 661.989 525.574C664.708 525.574 666.628 527.734 666.628 531.173C666.628 534.612 664.708 536.792 662.009 536.792C659.929 536.792 659.229 535.512 658.849 534.912H658.649V536.572H656.99ZM658.669 531.133C658.669 533.572 659.769 535.252 661.749 535.252C663.808 535.252 664.888 533.452 664.888 531.133C664.888 528.874 663.848 527.114 661.749 527.114C659.749 527.114 658.669 528.734 658.669 531.133ZM673.426 536.792C670.287 536.792 668.347 534.572 668.347 531.233C668.347 527.894 670.307 525.574 673.266 525.574C675.546 525.574 677.945 526.974 677.945 530.993V531.713H670.067C670.147 534.012 671.486 535.272 673.426 535.272C674.726 535.272 675.546 534.712 675.945 534.032H677.785C677.265 535.672 675.665 536.792 673.426 536.792ZM670.087 530.253H676.205C676.205 528.434 675.046 527.094 673.266 527.094C671.386 527.094 670.187 528.574 670.087 530.253ZM680.184 536.572V525.714H681.844V527.374H681.964C682.364 526.274 683.484 525.534 684.763 525.534C685.023 525.534 685.463 525.554 685.663 525.574V527.314C685.543 527.274 685.063 527.194 684.623 527.194C683.064 527.194 681.904 528.274 681.904 529.733V536.572H680.184Z" fill="#999999"/>
<path d="M840.624 297.581H830.667C828.692 297.581 827.461 299.724 828.456 301.43L833.103 309.396C834.057 311.03 836.394 311.101 837.443 309.526L842.754 301.56C843.888 299.859 842.669 297.581 840.624 297.581Z" fill="white"/>
<rect x="872.352" y="287.223" width="151.256" height="36.9208" rx="8.68201" fill="#0965EE"/>
<path d="M897.77 306.596V308.291H891.734V313.124H889.597V308.291H883.645V306.596H897.77ZM887.444 298.287V300.067H893.921V298.287H896.092V305.103H885.307V298.287H887.444ZM887.444 303.374H893.921V301.763H887.444V303.374ZM912.777 305.612V307.308H906.961V309.8H904.825V307.308H898.652V305.612H912.777ZM911.217 311.123V312.853H900.314V308.58H902.451V311.123H911.217ZM902.603 298.185V299.796H908.793V298.185H910.946V304.527H900.467V298.185H902.603ZM902.603 302.814H908.793V301.407H902.603V302.814ZM925.58 299.151V309.36H918.17V299.151H925.58ZM920.306 300.847V307.647H923.426V300.847H920.306ZM929.853 297.693V303.509H932.125V305.307H929.853V313.124H927.683V297.693H929.853ZM940.807 299.728C940.807 301.983 942.808 304.408 946.302 305.002L945.352 306.799C942.664 306.265 940.663 304.756 939.671 302.763C938.645 304.739 936.644 306.256 933.974 306.799L933.041 305.002C936.466 304.391 938.484 301.966 938.501 299.728V298.609H940.807V299.728ZM946.81 309.444V311.225H932.685V309.444H946.81ZM956.035 298.609C956.018 302.882 953.966 305.714 948.76 307.206L947.98 305.493C950.193 304.9 951.635 304.069 952.542 303.052L948.252 303.374L947.946 301.695L953.457 301.508C953.585 301.127 953.669 300.728 953.729 300.321H948.726V298.609H956.035ZM960.613 297.71V306.799H958.443V297.71H960.613ZM955.374 307.036C958.612 307.036 960.664 308.156 960.664 310.089C960.664 312.022 958.612 313.107 955.374 313.107C952.084 313.107 950.032 312.022 950.032 310.089C950.032 308.156 952.084 307.036 955.374 307.036ZM955.374 308.732C953.288 308.732 952.22 309.19 952.22 310.089C952.22 310.97 953.288 311.462 955.374 311.462C957.408 311.462 958.511 310.97 958.511 310.089C958.511 309.19 957.408 308.732 955.374 308.732Z" fill="white"/>
<path d="M1010.82 300.246H1002.38C1000.7 300.246 999.657 302.063 1000.5 303.51L1004.44 310.266C1005.25 311.652 1007.23 311.711 1008.12 310.376L1012.63 303.621C1013.59 302.178 1012.55 300.246 1010.82 300.246Z" fill="white"/>
<rect x="872.352" y="336.054" width="151.256" height="36.9208" rx="8.68201" fill="white"/>
<path d="M897.77 355.426V357.122H891.734V361.955H889.597V357.122H883.645V355.426H897.77ZM887.444 347.117V348.898H893.921V347.117H896.092V353.934H885.307V347.117H887.444ZM887.444 352.205H893.921V350.594H887.444V352.205ZM912.777 354.443V356.139H906.961V358.631H904.825V356.139H898.652V354.443H912.777ZM911.217 359.954V361.684H900.314V357.41H902.451V359.954H911.217ZM902.603 347.016V348.627H908.793V347.016H910.946V353.358H900.467V347.016H902.603ZM902.603 351.645H908.793V350.238H902.603V351.645ZM925.58 347.982V358.19H918.17V347.982H925.58ZM920.306 349.678V356.478H923.426V349.678H920.306ZM929.853 346.524V352.34H932.125V354.138H929.853V361.955H927.683V346.524H929.853ZM940.807 348.559C940.807 350.814 942.808 353.239 946.302 353.832L945.352 355.63C942.664 355.096 940.663 353.587 939.671 351.594C938.645 353.57 936.644 355.087 933.974 355.63L933.041 353.832C936.466 353.222 938.484 350.797 938.501 348.559V347.44H940.807V348.559ZM946.81 358.275V360.056H932.685V358.275H946.81ZM956.035 347.44C956.018 351.713 953.966 354.545 948.76 356.037L947.98 354.324C950.193 353.731 951.635 352.9 952.542 351.882L948.252 352.205L947.946 350.526L953.457 350.339C953.585 349.958 953.669 349.559 953.729 349.152H948.726V347.44H956.035ZM960.613 346.541V355.63H958.443V346.541H960.613ZM955.374 355.867C958.612 355.867 960.664 356.986 960.664 358.92C960.664 360.853 958.612 361.938 955.374 361.938C952.084 361.938 950.032 360.853 950.032 358.92C950.032 356.986 952.084 355.867 955.374 355.867ZM955.374 357.563C953.288 357.563 952.22 358.021 952.22 358.92C952.22 359.801 953.288 360.293 955.374 360.293C957.408 360.293 958.511 359.801 958.511 358.92C958.511 358.021 957.408 357.563 955.374 357.563Z" fill="#999999"/>
<path d="M1010.82 349.077H1002.38C1000.7 349.077 999.657 350.895 1000.5 352.342L1004.44 359.097C1005.25 360.483 1007.23 360.543 1008.12 359.207L1012.63 352.452C1013.59 351.009 1012.55 349.077 1010.82 349.077Z" fill="#999999"/>
<rect x="872.352" y="384.885" width="151.256" height="36.9208" rx="8.68201" fill="white"/>
<path d="M896.668 395.371V406.631H894.515V401.103H891.988V399.356H894.515V395.371H896.668ZM897.041 408.784V410.514H886.426V405.647H888.597V408.784H897.041ZM889.495 398.39C889.495 400.17 890.581 402.086 893.039 402.883L891.971 404.596C890.258 404.045 889.088 402.917 888.41 401.51C887.732 403.07 886.502 404.308 884.68 404.918L883.577 403.155C886.121 402.358 887.274 400.34 887.291 398.373V398.135H884.188V396.406H892.565V398.135H889.495V398.39ZM903.485 400.052C903.485 402.392 904.333 404.732 906.52 405.919L905.333 407.496C903.943 406.784 903.019 405.529 902.485 404.02C901.942 405.664 901.018 407.055 899.619 407.869L898.381 406.241C900.602 404.952 901.433 402.443 901.45 400.052V399.695H898.957V397.966H901.45V395.88H903.468V397.966H905.91V399.695H903.485V400.052ZM912.014 395.354V410.785H909.963V395.354H912.014ZM908.86 395.609V410.073H906.826V402.968H905.011V401.205H906.826V395.609H908.86ZM925.58 396.813V407.021H918.17V396.813H925.58ZM920.306 398.508V405.308H923.426V398.508H920.306ZM929.853 395.354V401.171H932.125V402.968H929.853V410.785H927.683V395.354H929.853ZM940.807 397.389C940.807 399.645 942.808 402.069 946.302 402.663L945.352 404.46C942.664 403.926 940.663 402.417 939.671 400.425C938.645 402.4 936.644 403.918 933.974 404.46L933.041 402.663C936.466 402.053 938.484 399.628 938.501 397.389V396.27H940.807V397.389ZM946.81 407.106V408.886H932.685V407.106H946.81ZM956.035 396.27C956.018 400.543 953.966 403.375 948.76 404.867L947.98 403.155C950.193 402.561 951.635 401.73 952.542 400.713L948.252 401.035L947.946 399.356L953.457 399.17C953.585 398.788 953.669 398.39 953.729 397.983H948.726V396.27H956.035ZM960.613 395.371V404.46H958.443V395.371H960.613ZM955.374 404.698C958.612 404.698 960.664 405.817 960.664 407.75C960.664 409.683 958.612 410.768 955.374 410.768C952.084 410.768 950.032 409.683 950.032 407.75C950.032 405.817 952.084 404.698 955.374 404.698ZM955.374 406.394C953.288 406.394 952.22 406.851 952.22 407.75C952.22 408.632 953.288 409.124 955.374 409.124C957.408 409.124 958.511 408.632 958.511 407.75C958.511 406.851 957.408 406.394 955.374 406.394Z" fill="#999999"/>
<path d="M1010.82 397.908H1002.38C1000.7 397.908 999.657 399.725 1000.5 401.172L1004.44 407.927C1005.25 409.314 1007.23 409.373 1008.12 408.038L1012.63 401.282C1013.59 399.84 1012.55 397.908 1010.82 397.908Z" fill="#999999"/>
</svg>
