<svg width="52" height="72" viewBox="0 0 52 72" fill="none" xmlns="http://www.w3.org/2000/svg">
<path fill-rule="evenodd" clip-rule="evenodd" d="M0.550689 61.9248H4.55084L4.52132 58.5692L25.923 38.0556C31.5204 32.4766 34.4837 29.0433 34.4837 24.151C34.4837 18.6578 30.4503 15.2245 25.0175 15.2245C19.4202 15.2245 15.7984 18.9153 15.7984 24.8376H11.7984H4.02744C4.02666 24.7224 4.02666 24.6077 4.02744 24.4933C4.03605 23.224 4.14012 22.0042 4.33414 20.8376C5.97281 10.9844 14.0278 4.9248 25.1822 4.9248C37.9408 4.9248 46.4192 12.4779 46.4192 23.2927C46.4192 30.3308 43.1266 36.1673 30.8618 47.7545L25.4125 53.2818L21.8073 56.9384V57.2818H22.1555H25.8073H27.0859H43.2423H47.2423V61.2818V63.9248V67.9248H43.2423H36.9082V71.9248H47.2423H51.2423V67.9248V57.2818V53.2818H47.2423H31.0296L33.6607 50.6131C45.9472 38.998 50.4192 32.1339 50.4192 23.2927C50.4192 16.7722 47.8313 11.0661 43.2146 7.03889C38.6401 3.0485 32.3382 0.924805 25.1822 0.924805C18.0746 0.924805 11.729 3.1133 7.13103 7.37797C2.49788 11.6753 -0.0203863 17.7703 0.0275268 24.8646L0.0543591 28.8376H4.02744H15.7984H19.7984V24.8376C19.7984 22.6945 20.4401 21.3619 21.187 20.5881C21.9205 19.8281 23.1221 19.2245 25.0175 19.2245C26.8987 19.2245 28.2499 19.8119 29.0867 20.578C29.8854 21.3093 30.4837 22.4408 30.4837 24.151C30.4837 27.1258 28.9165 29.422 23.1267 35.1952L1.75344 55.6815L0.506276 56.8769L0.521475 58.6044L0.550689 61.9248Z" fill="#0965EE"/>
</svg>
