<svg width="546" height="138" viewBox="0 0 546 138" fill="none" xmlns="http://www.w3.org/2000/svg">
<rect x="0.5" y="0.5" width="545" height="137" rx="7.5" stroke="black" stroke-dasharray="4 4"/>
<rect x="12.5" y="12.5" width="521" height="50" rx="7.5" fill="#0965EE"/>
<rect x="12.5" y="12.5" width="521" height="50" rx="7.5" fill="white" fill-opacity="0.9"/>
<rect x="12.5" y="12.5" width="521" height="50" rx="7.5" stroke="#0965EE" stroke-dasharray="4 4"/>
<path d="M234.913 35.7086H232.241C232.023 34.2977 230.941 33.4399 229.462 33.4399C227.479 33.4399 226.168 34.9565 226.168 37.6354C226.168 40.3826 227.498 41.8308 229.45 41.8308C230.892 41.8308 231.979 41.0352 232.241 39.6678L234.913 39.6802C234.615 42.0297 232.638 44.174 229.406 44.174C226 44.174 223.489 41.7811 223.489 37.6354C223.489 33.4834 226.044 31.0967 229.406 31.0967C232.34 31.0967 234.553 32.7811 234.913 35.7086ZM239.299 38.4744V44H236.695V31.2707H239.224V36.1312H239.336C239.771 35.0124 240.735 34.3287 242.189 34.3287C244.178 34.3287 245.49 35.6775 245.49 37.9213V44H242.885V38.375C242.892 37.1878 242.251 36.4917 241.164 36.4917C240.07 36.4917 239.299 37.2189 239.299 38.4744ZM251.503 34.3287C253.585 34.3287 255.549 35.2673 255.549 37.567V44H253.082V42.6761H253.007C252.547 43.5587 251.633 44.1802 250.216 44.1802C248.395 44.1802 247.04 43.2169 247.04 41.3336C247.04 39.1954 248.756 38.5055 250.589 38.3874C251.267 38.3439 252.56 38.288 252.957 38.2756V37.5048C252.951 36.6968 252.404 36.2369 251.441 36.2369C250.546 36.2369 249.986 36.6409 249.843 37.2935H247.376C247.525 35.634 248.967 34.3287 251.503 34.3287ZM250.956 42.3715C252.143 42.3715 252.976 41.5946 252.97 40.5877V39.8916C252.584 39.9102 251.459 39.9724 251.012 40.0159C250.104 40.0905 249.533 40.5193 249.533 41.2528C249.533 41.9924 250.123 42.3715 250.956 42.3715ZM266.55 44H263.498L260.856 40.1215L260.129 40.9482V44H257.525V31.2707H260.129V38.1015H260.272L263.374 34.453H266.363L262.802 38.5863L266.55 44ZM270.166 44H267.562V34.453H270.085V36.1126H270.185C270.533 34.9378 271.416 34.3163 272.485 34.3163C272.752 34.3163 273.088 34.3536 273.317 34.3971V36.7217C273.075 36.6471 272.572 36.5787 272.205 36.5787C271.03 36.5787 270.166 37.3992 270.166 38.5739V44ZM278.345 34.3287C280.427 34.3287 282.391 35.2673 282.391 37.567V44H279.923V42.6761H279.849C279.389 43.5587 278.475 44.1802 277.058 44.1802C275.237 44.1802 273.882 43.2169 273.882 41.3336C273.882 39.1954 275.597 38.5055 277.431 38.3874C278.109 38.3439 279.401 38.288 279.799 38.2756V37.5048C279.793 36.6968 279.246 36.2369 278.283 36.2369C277.388 36.2369 276.828 36.6409 276.685 37.2935H274.218C274.367 35.634 275.809 34.3287 278.345 34.3287ZM277.798 42.3715C278.985 42.3715 279.818 41.5946 279.812 40.5877V39.8916C279.426 39.9102 278.301 39.9724 277.854 40.0159C276.946 40.0905 276.374 40.5193 276.374 41.2528C276.374 41.9924 276.965 42.3715 277.798 42.3715ZM288.577 44V31.2707H291.834L295.371 39.8978H295.52L299.057 31.2707H302.32V44H299.753V35.6651H299.647L296.328 43.9441H294.563L291.244 35.634H291.138V44H288.577ZM308.421 34.3287C310.503 34.3287 312.467 35.2673 312.467 37.567V44H310V42.6761H309.925C309.465 43.5587 308.551 44.1802 307.134 44.1802C305.313 44.1802 303.958 43.2169 303.958 41.3336C303.958 39.1954 305.674 38.5055 307.507 38.3874C308.185 38.3439 309.478 38.288 309.875 38.2756V37.5048C309.869 36.6968 309.322 36.2369 308.359 36.2369C307.464 36.2369 306.904 36.6409 306.761 37.2935H304.294C304.443 35.634 305.885 34.3287 308.421 34.3287ZM307.874 42.3715C309.061 42.3715 309.894 41.5946 309.888 40.5877V39.8916C309.502 39.9102 308.377 39.9724 307.93 40.0159C307.022 40.0905 306.451 40.5193 306.451 41.2528C306.451 41.9924 307.041 42.3715 307.874 42.3715ZM313.921 34.453H316.618L318.383 37.8094L320.198 34.453H322.883L320.099 39.2265L322.952 44H320.285L318.383 40.6809L316.519 44H313.821L316.668 39.2265L313.921 34.453Z" fill="black"/>
<rect x="12.5" y="75.5" width="165" height="50" rx="7.5" stroke="black" stroke-dasharray="4 4"/>
<path d="M55.3866 94.2707C59.2216 94.2707 61.5648 96.6575 61.5648 100.623C61.5648 104.601 59.2216 107 55.3431 107H50.8555V94.2707H55.3866ZM53.4971 104.731H55.2312C57.6491 104.731 58.9232 103.476 58.9232 100.623C58.9232 97.7887 57.6491 96.5394 55.2437 96.5394H53.4971V104.731ZM68.8541 107H63.4591V94.2707H68.5247C71.3278 94.2707 72.745 95.6257 72.745 97.5401C72.745 99.0442 71.7629 99.9765 70.4453 100.269V100.393C71.8872 100.461 73.2422 101.599 73.2422 103.494C73.2422 105.508 71.7256 107 68.8541 107ZM66.1006 96.4151V99.6036H68.1331C69.2457 99.6036 70.0723 98.9883 70.0723 97.9689C70.0723 97.0428 69.3886 96.4151 68.1828 96.4151H66.1006ZM66.1006 101.412V104.831H68.332C69.8486 104.831 70.5136 104.197 70.5136 103.233C70.5136 102.164 69.6994 101.412 68.3879 101.412H66.1006ZM89.7155 96.2037V92.6112H91.9469V101.369H89.7155V98.0311H87.1796V96.2037H89.7155ZM83.3882 98.1616C82.6858 99.7528 81.4117 101.033 79.5284 101.648L78.3785 99.8895C80.902 99.0504 82.114 97.1174 82.2197 95.1657H79.0187V93.3446H87.6955V95.1657H84.5132C84.6126 96.9558 85.7625 98.8018 88.1865 99.6036L87.0802 101.331C85.3088 100.747 84.0905 99.5912 83.3882 98.1616ZM83.5001 103.507H89.7155V101.997H91.9469V108.442H81.2811V101.997H83.5001V103.507ZM83.5001 106.646H89.7155V105.235H83.5001V106.646ZM106.571 99.7093H108.66V101.506H94.0284V99.7093H104.29C104.644 97.9192 104.682 96.5704 104.694 95.3087H95.8185V93.5186H106.932V94.8798C106.932 96.2286 106.932 97.7514 106.571 99.7093ZM95.893 102.898H98.0995V106.521H107.385V108.324H95.893V102.898ZM121.289 108.622V92.6112H123.408V108.622H121.289ZM115.931 98.1057H118.038V92.8785H120.139V107.876H118.038V99.9081H115.931V98.1057ZM114.644 96.0483V96.8999C114.638 99.5663 115.471 102.251 117.808 103.588L116.497 105.235C115.061 104.396 114.129 102.966 113.588 101.244C113.028 103.115 112.065 104.694 110.604 105.602L109.249 103.948C111.605 102.494 112.481 99.6222 112.481 96.8999V96.0483H109.859V94.2521H117.068V96.0483H114.644ZM136.417 98.3978V92.6112H138.635V108.66H136.417V100.194H133.657C133.427 103.265 131.774 105.154 129.548 105.154C127.118 105.154 125.384 102.954 125.39 99.4358C125.384 95.9551 127.118 93.7424 129.548 93.7424C131.705 93.7424 133.321 95.52 133.632 98.3978H136.417ZM129.548 103.122C130.754 103.122 131.556 101.829 131.562 99.4358C131.556 97.0677 130.754 95.7686 129.548 95.7686C128.355 95.7686 127.535 97.0677 127.541 99.4358C127.535 101.829 128.355 103.122 129.548 103.122Z" fill="black"/>
<rect x="190.5" y="75.5" width="165" height="50" rx="7.5" stroke="black" stroke-dasharray="4 4"/>
<path d="M228.076 108.66V92.6112H230.344V108.66H228.076ZM223.184 93.8481V96.241C223.172 99.1809 224.502 102.127 227.224 103.271L225.9 105.067C224.073 104.234 222.805 102.643 222.078 100.666C221.357 102.823 220.051 104.57 218.1 105.459L216.745 103.594C219.542 102.413 220.897 99.3488 220.909 96.241V93.8481H223.184ZM239.741 97.8819C238.691 99.9206 236.615 101.499 233.843 102.059L232.879 100.194C236.435 99.5601 238.523 97.049 238.536 94.7244V93.5746H240.929V94.7244C240.922 97.0739 242.998 99.5787 246.622 100.194L245.634 102.059C242.843 101.506 240.773 99.933 239.741 97.8819ZM232.513 106.658V104.812H247.144V106.658H232.513ZM259.686 102.164V92.6112H261.812V102.164H259.686ZM258.629 102.059H256.504V98.261H254.888V96.4648H256.504V92.866H258.629V102.059ZM255.348 99.4171L255.565 101.157C253.732 101.481 252.203 101.543 249.785 101.543H248.697V93.5684H254.795V95.3709H250.854V96.6512H254.204V98.3667H250.854V99.759C252.588 99.7403 253.862 99.6595 255.348 99.4171ZM261.812 108.442H250.891V102.792H261.812V108.442ZM259.593 104.557H253.123V106.646H259.593V104.557ZM279.018 96.2037V92.6112H281.25V101.369H279.018V98.0311H276.482V96.2037H279.018ZM272.691 98.1616C271.989 99.7528 270.714 101.033 268.831 101.648L267.681 99.8895C270.205 99.0504 271.417 97.1174 271.522 95.1657H268.321V93.3446H276.998V95.1657H273.816C273.915 96.9558 275.065 98.8018 277.489 99.6036L276.383 101.331C274.612 100.747 273.393 99.5912 272.691 98.1616ZM272.803 103.507H279.018V101.997H281.25V108.442H270.584V101.997H272.803V103.507ZM272.803 106.646H279.018V105.235H272.803V106.646ZM295.874 99.7093H297.962V101.506H283.331V99.7093H293.593C293.947 97.9192 293.984 96.5704 293.997 95.3087H285.121V93.5186H296.234V94.8798C296.234 96.2286 296.234 97.7514 295.874 99.7093ZM285.196 102.898H287.402V106.521H296.688V108.324H285.196V102.898ZM310.592 108.622V92.6112H312.711V108.622H310.592ZM305.234 98.1057H307.341V92.8785H309.442V107.876H307.341V99.9081H305.234V98.1057ZM303.947 96.0483V96.8999C303.941 99.5663 304.774 102.251 307.111 103.588L305.799 105.235C304.364 104.396 303.431 102.966 302.891 101.244C302.331 103.115 301.368 104.694 299.907 105.602L298.552 103.948C300.908 102.494 301.784 99.6222 301.784 96.8999V96.0483H299.161V94.2521H306.371V96.0483H303.947ZM325.719 98.3978V92.6112H327.938V108.66H325.719V100.194H322.96C322.73 103.265 321.076 105.154 318.851 105.154C316.421 105.154 314.687 102.954 314.693 99.4358C314.687 95.9551 316.421 93.7424 318.851 93.7424C321.008 93.7424 322.624 95.52 322.935 98.3978H325.719ZM318.851 103.122C320.057 103.122 320.859 101.829 320.865 99.4358C320.859 97.0677 320.057 95.7686 318.851 95.7686C317.658 95.7686 316.837 97.0677 316.844 99.4358C316.837 101.829 317.658 103.122 318.851 103.122Z" fill="black"/>
<rect x="368.5" y="75.5" width="165" height="50" rx="7.5" stroke="black" stroke-dasharray="4 4"/>
<path d="M413.2 99.8771V100.865H419.403V102.624H404.771V100.865H410.95V99.8771H406.605V93.0028H417.693V94.7369H408.843V95.6257H417.32V97.2541H408.843V98.1678H417.83V99.8771H413.2ZM412.075 103.352C415.605 103.345 417.637 104.296 417.65 105.981C417.637 107.709 415.605 108.622 412.075 108.616C408.501 108.622 406.474 107.709 406.474 105.981C406.474 104.296 408.501 103.345 412.075 103.352ZM412.075 106.956C414.331 106.963 415.394 106.664 415.4 105.981C415.394 105.309 414.331 105.011 412.075 105.011C409.781 105.011 408.712 105.309 408.718 105.981C408.712 106.664 409.781 106.963 412.075 106.956ZM426.233 94.0283H429.856V95.7873H420.359V94.0283H423.995V92.5055H426.233V94.0283ZM433.057 96.4772H435.208V98.3419H433.057V101.99H430.807V92.6112H433.057V96.4772ZM425.114 101.897C422.752 101.903 421.136 100.778 421.142 99.0691C421.136 97.366 422.752 96.2472 425.114 96.241C427.432 96.2472 429.048 97.366 429.048 99.0691C429.048 100.778 427.432 101.903 425.114 101.897ZM423.324 99.0691C423.324 99.846 424.039 100.262 425.114 100.262C426.183 100.262 426.916 99.846 426.923 99.0691C426.916 98.3232 426.183 97.8819 425.114 97.8881C424.039 97.8819 423.324 98.3232 423.324 99.0691ZM424.809 103.824H430.807V102.599H433.057V108.442H422.584V102.599H424.809V103.824ZM424.809 106.677H430.807V105.546H424.809V106.677ZM447.669 108.622V92.6112H449.782V108.622H447.669ZM442.722 96.8377H444.325V92.9779H446.445V107.907H444.325V102.637H442.057V100.822H444.325V98.6588H442.349C441.603 101.294 439.974 103.519 436.991 105.285L435.68 103.712C438.912 101.791 440.341 99.4606 440.652 96.3218H436.606V94.5193H442.871C442.871 95.3211 442.821 96.0919 442.722 96.8377ZM460.224 98.3419V96.5145H462.722V92.6112H464.96V102.121H462.722V98.3419H460.224ZM456.407 98.5407C455.711 100.169 454.431 101.474 452.535 102.127L451.373 100.349C453.983 99.4793 455.183 97.3971 455.233 95.3895H452.026V93.587H460.702V95.3895H457.514C457.57 97.2479 458.713 99.125 461.193 99.9454L460.087 101.711C458.322 101.133 457.11 99.9765 456.407 98.5407ZM459.49 102.475C462.909 102.475 464.997 103.619 465.003 105.558C464.997 107.497 462.909 108.635 459.49 108.641C456.084 108.635 453.99 107.497 453.996 105.558C453.99 103.619 456.084 102.475 459.49 102.475ZM459.49 106.925C461.616 106.932 462.772 106.472 462.778 105.558C462.772 104.638 461.616 104.178 459.49 104.178C457.371 104.178 456.221 104.638 456.227 105.558C456.221 106.472 457.371 106.932 459.49 106.925ZM479.914 92.6112V97.4965H481.859V99.3674H479.914V104.595H477.62V92.6112H479.914ZM475.637 99.4731L473.431 99.268C473.717 97.739 473.785 96.5704 473.804 95.607H467.762V93.7797H476.004V94.7804C475.992 95.893 475.992 97.4841 475.637 99.4731ZM476.756 100.132L476.868 101.748C473.543 102.357 469.795 102.419 467.017 102.425L466.824 100.642C467.719 100.642 468.726 100.635 469.789 100.617V97.4779H472.02V100.542C473.617 100.474 475.252 100.349 476.756 100.132ZM469.173 103.526H471.423V106.534H480.417V108.343H469.173V103.526ZM493.761 108.66V92.6112H495.992V108.66H493.761ZM485.762 100.126V103.066C488.211 103.047 490.28 102.916 492.617 102.525L492.81 104.346C490.187 104.812 487.813 104.912 484.885 104.912H483.45V98.3605H488.751V95.7686H483.437V93.9599H491.039V100.126H485.762Z" fill="black"/>
</svg>
