<svg width="57" height="81" viewBox="0 0 57 81" fill="none" xmlns="http://www.w3.org/2000/svg">
<path fill-rule="evenodd" clip-rule="evenodd" d="M4.1748 54.3442H-3.33786e-06L0.178461 58.5151C0.679368 70.2221 9.39433 78.0039 21 80.2524V76.184C12.664 74.3716 6.66402 69.3453 4.78197 62.3442C4.44037 61.0734 4.23443 59.7376 4.1748 58.3442H8.17947H12.8413C13.3174 65.0216 19.8887 69.1829 28.079 69.1829C37.1264 69.1829 43.7929 64.1506 43.7929 56.8925C43.7929 49.2474 37.793 43.828 27.0314 43.828H25.4125H21.4125V40.1829V39.828V36.1829H25.4125H27.0314C35.4121 36.1829 41.2215 31.4409 41.2215 24.1829C41.2215 17.2151 36.174 12.4732 28.3647 12.4732C21.0315 12.4732 14.2698 16.6345 13.8888 23.5054H9.60804H5.60334C5.66296 22.112 5.87338 20.7762 6.22001 19.5054C8.64182 10.6272 17.7127 4.9248 28.4599 4.9248C41.6024 4.9248 49.6022 13.6345 49.507 23.699C49.5776 29.578 47.0868 34.3415 42.8481 37.242C41.3871 38.2418 39.7183 39.0202 37.8752 39.5467L37.793 39.57V40.0538C37.8406 40.0616 37.8881 40.0694 37.9355 40.0774C39.8466 40.4 41.5996 40.9532 43.1731 41.7113C48.9008 44.4708 52.2479 49.9451 52.1736 56.8925C52.2044 60.6143 51.141 64.0228 49.2246 66.9317L53.8484 66.9777C55.3622 63.9891 56.1985 60.6017 56.1737 56.8975C56.2224 51.6001 54.5921 46.8006 51.4187 43.0822C50.1145 41.5541 48.585 40.2496 46.8688 39.1833C51.1092 35.5009 53.5726 30.0797 53.5072 23.6937C53.6023 11.1835 43.5598 0.924805 28.4599 0.924805C14.7705 0.924805 2.20334 9.39687 1.607 23.3345L1.42853 27.5054H5.60334H13.8888H17.6732L17.8827 23.7269C18.0947 19.9025 22.0816 16.4732 28.3647 16.4732C31.4634 16.4732 33.6482 17.4045 35.0152 18.6605C36.3532 19.89 37.2215 21.7115 37.2215 24.1829C37.2215 26.6568 36.2717 28.5231 34.7016 29.8375C33.0678 31.2052 30.4932 32.1829 27.0314 32.1829H21.4125H17.4125V36.1829V43.828V47.828H21.4125H27.0314C31.7803 47.828 34.9884 49.0248 36.9262 50.5985C38.7817 52.1053 39.7929 54.2031 39.7929 56.8925C39.7929 61.0488 35.9308 65.1829 28.079 65.1829C20.8329 65.1829 17.088 61.6612 16.8311 58.0596L16.5662 54.3442H12.8413H4.1748Z" fill="#0965EE"/>
</svg>
