<svg width="65" height="80" viewBox="0 0 65 80" fill="none" xmlns="http://www.w3.org/2000/svg">
<path fill-rule="evenodd" clip-rule="evenodd" d="M4.72021 55.6428V52.335L35.2796 4.9248H47.1636H51.1636V8.9248V48.0243V52.0243H55.1636H56.4523H60.4523V56.0243V58.487V62.487H56.4523H55.1636H51.1636V66.487V71.643V75.643H47.1636H46.6292V79.643H51.1636H55.1636V75.643V66.487H60.4523H64.4523V62.487V52.0243V48.0243H60.4523H55.1636V4.9248V0.924805H51.1636H35.2796H33.099L31.9175 2.75769L1.35813 50.1679L0.720215 51.1576V52.335V55.6428H4.72021ZM18.6305 52.0243H21.7727H22.1748H35.1815H39.1815V48.0243V25.6197V23.3585V19.8256V19.3585H38.4564L35.1815 24.443L19.9932 48.0243L17.7727 51.4718V52.0243H18.6305ZM35.1815 48.0243H24.7511L35.1815 31.8301V48.0243Z" fill="#0965EE"/>
</svg>
