<svg width="432" height="144" viewBox="0 0 432 144" fill="none" xmlns="http://www.w3.org/2000/svg">
<path d="M0 33.2275L33.1995 66.4224L49.8318 49.8249L0 0V33.2437" fill="#23B9D6"/>
<path d="M208.017 135.896H199.05L179 90.7734H189.481L203.46 123.155L217.57 90.7734H227.986L208.001 135.896H208.017Z" fill="#4A4A49"/>
<path d="M235.373 126.982L231.874 135.622H221.719L241.053 90.5H250.02L269.288 135.622H259.198L255.699 126.982H235.373ZM245.463 101.923L238.872 118.341H252.2L245.479 101.923H245.463Z" fill="#4A4A49"/>
<path d="M307.275 135.616H274.824V90.7539H284.394V127.106H307.291V135.616H307.275Z" fill="#4A4A49"/>
<path d="M345.584 135.616H313.133V90.7539H322.702V127.106H345.6V135.616H345.584Z" fill="#4A4A49"/>
<path d="M361.013 109.174H381.99V117.814H361.013V126.975H384.692V135.616H351.443V90.7539H384.692V99.3943H361.013V109.158V109.174Z" fill="#4A4A49"/>
<path d="M414.244 121.186V135.635H404.61V121.186L386.725 90.7734H397.287L409.362 111.553L421.438 90.7734H432L414.261 121.186H414.244Z" fill="#4A4A49"/>
<path d="M232.087 78.5012H222.795L212.965 49.9438L203.201 78.5012H193.827L179.18 33.3789H189.205L198.644 63.596L208.994 33.3789H216.969L227.319 63.596L236.758 33.3789H246.783L232.071 78.5012H232.087Z" fill="#4A4A49"/>
<path d="M256.156 69.6029L252.657 78.2434H242.502L261.836 33.1211H270.803L290.072 78.2434H279.982L276.483 69.6029H256.172H256.156ZM266.246 44.544L259.655 60.9625H272.984L266.262 44.544H266.246Z" fill="#4A4A49"/>
<path d="M305.159 64.3283V78.2408H295.59V33.3789H314.712C319.952 33.3789 324.216 34.7946 327.536 37.6422C330.856 40.4735 332.516 44.1998 332.516 48.821C332.516 51.8639 331.751 54.5325 330.238 56.8757C328.724 59.2026 326.641 61.0251 324.005 62.3594L335.413 78.2571H324.005L314.175 64.3445H305.143L305.159 64.3283ZM314.387 55.5577C316.844 55.5577 318.911 54.9393 320.587 53.7189C322.263 52.4823 323.093 50.855 323.093 48.8373C323.093 46.8196 322.263 45.1924 320.587 43.9557C318.911 42.719 316.844 42.117 314.387 42.117H305.159V55.5739H314.387V55.5577Z" fill="#4A4A49"/>
<path d="M350.011 51.7832H370.988V60.4236H350.011V69.5848H373.69V78.2252H340.441V33.3633H373.69V42.0037H350.011V51.7669V51.7832Z" fill="#4A4A49"/>
<path d="M149.463 93.4171L132.766 76.7383L99.6639 109.933L66.3992 76.7383L49.7832 93.3195L99.6313 143.096L149.463 93.4171Z" fill="#002383"/>
<path d="M0 40.4414L33.1995 73.62L66.399 40.4414L99.6311 73.62L132.766 40.539V69.6334L99.6311 102.698L66.399 69.5032L33.2483 102.714L0 69.5032V40.4414Z" fill="#FFED00"/>
</svg>
