<svg width="32" height="32" viewBox="0 0 32 32" fill="none" xmlns="http://www.w3.org/2000/svg">
<path fill-rule="evenodd" clip-rule="evenodd" d="M16 3C16 3 18.6442 3 21.0605 4.02201C21.0605 4.02201 23.3936 5.00884 25.1924 6.80761C25.1924 6.80761 26.9912 8.60638 27.978 10.9395C27.978 10.9395 29 13.3558 29 16C29 16 29 18.6442 27.978 21.0605C27.978 21.0605 26.9912 23.3936 25.1924 25.1924C25.1924 25.1924 23.3936 26.9912 21.0605 27.978C21.0605 27.978 18.6442 29 16 29C16 29 13.3558 29 10.9395 27.978C10.9395 27.978 8.60638 26.9912 6.80761 25.1924C6.80761 25.1924 5.00884 23.3936 4.02202 21.0605C4.02202 21.0605 3 18.6442 3 16C3 16 3 13.3558 4.02202 10.9395C4.02202 10.9395 5.00885 8.60638 6.80761 6.80761C6.80761 6.80761 8.60638 5.00884 10.9395 4.02201C10.9395 4.02201 13.3558 3 16 3ZM16 5C16 5 13.7614 5 11.7186 5.86402C11.7186 5.86402 9.74476 6.69889 8.22183 8.22182C8.22183 8.22182 6.6989 9.74476 5.86402 11.7186C5.86402 11.7186 5 13.7614 5 16C5 16 5 18.2386 5.86402 20.2814C5.86402 20.2814 6.69889 22.2552 8.22183 23.7782C8.22183 23.7782 9.74476 25.3011 11.7186 26.136C11.7186 26.136 13.7614 27 16 27C16 27 18.2386 27 20.2814 26.136C20.2814 26.136 22.2552 25.3011 23.7782 23.7782C23.7782 23.7782 25.3011 22.2552 26.136 20.2814C26.136 20.2814 27 18.2386 27 16C27 16 27 13.7614 26.136 11.7186C26.136 11.7186 25.3011 9.74476 23.7782 8.22183C23.7782 8.22183 22.2552 6.69889 20.2814 5.86402C20.2814 5.86402 18.2386 5 16 5Z" fill="#1C1C1C"/>
<path d="M12.331 16.7433L17.3306 21.2429C17.5142 21.4081 17.753 21.5 18 21.5C18.0175 21.5 18.0351 21.4995 18.0526 21.4986C18.3174 21.4847 18.5659 21.3661 18.7433 21.169C18.9086 20.9853 19 20.747 19 20.5L19 20.4955C18.9999 20.4795 18.9995 20.4634 18.9986 20.4474C18.9847 20.1826 18.8661 19.9341 18.669 19.7567L14.4949 16L18.669 12.2433C18.8661 12.0659 18.9847 11.8174 18.9986 11.5526C18.9995 11.5351 19 11.5175 19 11.5C19 11.4854 18.9997 11.4707 18.999 11.4561C18.9889 11.2244 18.8985 11.0034 18.7433 10.831C18.5537 10.6203 18.2835 10.5 18 10.5C17.983 10.5 17.9661 10.5004 17.9492 10.5013C17.7199 10.513 17.5017 10.6032 17.331 10.7567L12.331 15.2567C12.305 15.2802 12.2802 15.305 12.2567 15.331C11.8873 15.7415 11.9205 16.3738 12.331 16.7433Z" fill="#1C1C1C"/>
</svg>
