<svg width="32" height="32" viewBox="0 0 32 32" fill="none" xmlns="http://www.w3.org/2000/svg">
<path fill-rule="evenodd" clip-rule="evenodd" d="M16 3C16 3 18.6442 3 21.0605 4.02201C21.0605 4.02201 23.3936 5.00884 25.1924 6.80761C25.1924 6.80761 26.9912 8.60638 27.978 10.9395C27.978 10.9395 29 13.3558 29 16C29 16 29 18.6442 27.978 21.0605C27.978 21.0605 26.9912 23.3936 25.1924 25.1924C25.1924 25.1924 23.3936 26.9912 21.0605 27.978C21.0605 27.978 18.6442 29 16 29C16 29 13.3558 29 10.9395 27.978C10.9395 27.978 8.60638 26.9912 6.80761 25.1924C6.80761 25.1924 5.00884 23.3936 4.02202 21.0605C4.02202 21.0605 3 18.6442 3 16C3 16 3 13.3558 4.02202 10.9395C4.02202 10.9395 5.00885 8.60638 6.80761 6.80761C6.80761 6.80761 8.60638 5.00884 10.9395 4.02201C10.9395 4.02201 13.3558 3 16 3ZM16 5C16 5 13.7614 5 11.7186 5.86402C11.7186 5.86402 9.74476 6.69889 8.22183 8.22182C8.22183 8.22182 6.6989 9.74476 5.86402 11.7186C5.86402 11.7186 5 13.7614 5 16C5 16 5 18.2386 5.86402 20.2814C5.86402 20.2814 6.69889 22.2552 8.22183 23.7782C8.22183 23.7782 9.74476 25.3011 11.7186 26.136C11.7186 26.136 13.7614 27 16 27C16 27 18.2386 27 20.2814 26.136C20.2814 26.136 22.2552 25.3011 23.7782 23.7782C23.7782 23.7782 25.3011 22.2552 26.136 20.2814C26.136 20.2814 27 18.2386 27 16C27 16 27 13.7614 26.136 11.7186C26.136 11.7186 25.3011 9.74476 23.7782 8.22183C23.7782 8.22183 22.2552 6.69889 20.2814 5.86402C20.2814 5.86402 18.2386 5 16 5Z" fill="#1C1C1C"/>
<path d="M18.0052 16L13.8316 19.7562C13.6345 19.9336 13.5153 20.1826 13.5014 20.4474C13.5005 20.4649 13.5 20.4825 13.5 20.5C13.5 20.5146 13.5003 20.5293 13.501 20.5439C13.5112 20.7756 13.6016 20.9966 13.7567 21.169C13.9463 21.3797 14.2165 21.5 14.5 21.5C14.517 21.5 14.5339 21.4996 14.5509 21.4987C14.7801 21.487 14.9983 21.3968 15.169 21.2433L20.169 16.7433C20.5795 16.3738 20.6128 15.7415 20.2433 15.331C20.2198 15.305 20.195 15.2802 20.169 15.2567L15.1691 10.7568C14.9853 10.5914 14.747 10.5 14.5 10.5C14.4825 10.5 14.4649 10.5005 14.4474 10.5014C14.1826 10.5153 13.9341 10.6339 13.7567 10.831C13.5914 11.0147 13.5 11.253 13.5 11.5C13.5 11.5175 13.5005 11.5351 13.5014 11.5526C13.5153 11.8174 13.6339 12.0659 13.831 12.2433L18.0052 16Z" fill="#1C1C1C"/>
</svg>
