<svg width="48" height="48" viewBox="0 0 48 48" fill="none" xmlns="http://www.w3.org/2000/svg">
<path d="M6 10.5V37.5C6 38.3284 6.67157 39 7.5 39C8.32843 39 9 38.3284 9 37.5V10.5C9 9.67157 8.32843 9 7.5 9C6.67157 9 6 9.67157 6 10.5Z" fill="#0965EE"/>
<path d="M18 18V24C18 24.8284 18.6716 25.5 19.5 25.5C20.3284 25.5 21 24.8284 21 24V18C21 17.1716 20.3284 16.5 19.5 16.5C18.6716 16.5 18 17.1716 18 18Z" fill="#0965EE"/>
<path d="M13.3354 23.57L19.0354 25.4262C19.1854 25.475 19.3423 25.5 19.5 25.5C19.5311 25.5 19.5621 25.499 19.5931 25.497C20.2072 25.4588 20.7357 25.0495 20.9262 24.4644C20.975 24.3144 21 24.1577 21 24C21 23.9689 20.999 23.9378 20.997 23.9068C20.9588 23.2927 20.5495 22.7642 19.9644 22.5737L14.2644 20.7174C14.1144 20.6686 13.9577 20.6437 13.7999 20.6437C13.7689 20.6437 13.7378 20.6446 13.7068 20.6466C13.0927 20.6848 12.5642 21.0941 12.3737 21.6792C12.3248 21.8292 12.2999 21.9859 12.2999 22.1437C12.2999 22.1747 12.3009 22.2058 12.3028 22.2368C12.341 22.8509 12.7504 23.3794 13.3354 23.57Z" fill="#0965EE"/>
<path d="M20.7136 24.8816C20.728 24.8618 20.7422 24.8413 20.7555 24.8208C20.9151 24.5768 21 24.2916 21 24C21 23.5196 20.7699 23.0683 20.3812 22.7861C20.3614 22.7717 20.3413 22.7579 20.3209 22.7445C20.0768 22.585 19.7916 22.5 19.5 22.5C19.0196 22.5 18.5683 22.7301 18.2861 23.1189L14.7613 27.9749C14.5752 28.2313 14.475 28.5397 14.475 28.8563C14.475 28.8833 14.4758 28.9103 14.4772 28.9373C14.5016 29.3885 14.7282 29.8047 15.0939 30.0702C15.3501 30.2561 15.6585 30.3563 15.975 30.3563L15.9933 30.3561C16.066 30.3553 16.1385 30.3491 16.2103 30.3377C16.6032 30.2753 16.9553 30.0593 17.1889 29.7374L20.7136 24.8816Z" fill="#0965EE"/>
<path d="M20.7139 23.1189C20.698 23.097 20.6816 23.0755 20.6645 23.0546C20.3797 22.7037 19.9519 22.5 19.5 22.5C19.1835 22.5 18.875 22.6001 18.6189 22.7861C18.597 22.802 18.5755 22.8184 18.5546 22.8355C18.2037 23.1203 18 23.5481 18 24C18 24.3165 18.1001 24.625 18.2861 24.8811L21.8108 29.7369C22.0445 30.0589 22.3968 30.2753 22.7897 30.3377C22.8675 30.35 22.9462 30.3563 23.025 30.3563C23.0435 30.3563 23.0619 30.3559 23.0804 30.3552C23.3778 30.3442 23.6653 30.245 23.9061 30.0702C24.2949 29.788 24.525 29.3366 24.525 28.8563C24.525 28.8318 24.5244 28.8074 24.5232 28.783C24.509 28.4918 24.4102 28.2111 24.2389 27.9751L20.7139 23.1189Z" fill="#0965EE"/>
<path d="M24.7355 20.7174L19.0355 22.5737C18.418 22.7748 18 23.3505 18 24L18.0001 24.0175C18.0019 24.1694 18.0267 24.32 18.0737 24.4644C18.2748 25.082 18.8505 25.5 19.5 25.5L19.5176 25.4998C19.6694 25.498 19.8201 25.4732 19.9645 25.4262L25.6645 23.57C26.282 23.3688 26.7 22.7931 26.7 22.1437L26.6999 22.1261C26.6981 21.9742 26.6733 21.8236 26.6263 21.6792C26.4252 21.0617 25.8495 20.6437 25.2 20.6437L25.1824 20.6438C25.0306 20.6456 24.8799 20.6704 24.7355 20.7174Z" fill="#0965EE"/>
<path d="M36 18V24C36 24.8284 36.6716 25.5 37.5 25.5C38.3284 25.5 39 24.8284 39 24V18C39 17.1716 38.3284 16.5 37.5 16.5C36.6716 16.5 36 17.1716 36 18Z" fill="#0965EE"/>
<path d="M31.3354 23.57L37.0354 25.4262C37.1854 25.475 37.3423 25.5 37.5 25.5C37.5311 25.5 37.5621 25.499 37.5931 25.497C38.2072 25.4588 38.7357 25.0495 38.9262 24.4644C38.975 24.3144 39 24.1577 39 24C39 23.9689 38.999 23.9378 38.997 23.9068C38.9588 23.2927 38.5495 22.7642 37.9644 22.5737L32.2644 20.7174C32.1144 20.6686 31.9577 20.6437 31.7999 20.6437C31.7689 20.6437 31.7378 20.6446 31.7068 20.6466C31.0927 20.6848 30.5642 21.0941 30.3736 21.6792C30.3248 21.8292 30.2999 21.9859 30.2999 22.1437C30.2999 22.1747 30.3009 22.2058 30.3028 22.2368C30.341 22.8509 30.7504 23.3794 31.3354 23.57Z" fill="#0965EE"/>
<path d="M38.7136 24.8816C38.728 24.8618 38.7422 24.8413 38.7555 24.8208C38.9151 24.5768 39 24.2916 39 24C39 23.5196 38.7699 23.0683 38.3812 22.7861C38.3614 22.7717 38.3413 22.7579 38.3208 22.7445C38.0768 22.585 37.7916 22.5 37.5 22.5C37.0196 22.5 36.5683 22.7301 36.2861 23.1189L32.7613 27.9749C32.5752 28.2313 32.475 28.5397 32.475 28.8563C32.475 28.8833 32.4758 28.9103 32.4772 28.9373C32.5016 29.3885 32.7282 29.8047 33.0939 30.0702C33.3501 30.2561 33.6585 30.3563 33.975 30.3563L33.9933 30.3561C34.066 30.3553 34.1385 30.3491 34.2103 30.3377C34.6032 30.2753 34.9553 30.0593 35.1889 29.7374L38.7136 24.8816Z" fill="#0965EE"/>
<path d="M38.7139 23.1189C38.698 23.097 38.6816 23.0755 38.6645 23.0546C38.3797 22.7037 37.9519 22.5 37.5 22.5C37.1835 22.5 36.875 22.6001 36.6189 22.7861C36.597 22.802 36.5755 22.8184 36.5546 22.8355C36.2037 23.1203 36 23.5481 36 24C36 24.3165 36.1001 24.625 36.2861 24.8811L39.8108 29.7369C40.0444 30.0589 40.3968 30.2753 40.7897 30.3377C40.8675 30.35 40.9462 30.3563 41.025 30.3563C41.0435 30.3563 41.0619 30.3559 41.0804 30.3552C41.3778 30.3442 41.6653 30.245 41.9061 30.0702C42.2949 29.788 42.525 29.3366 42.525 28.8563C42.525 28.8318 42.5244 28.8074 42.5232 28.783C42.509 28.4918 42.4102 28.2111 42.2389 27.9751L38.7139 23.1189Z" fill="#0965EE"/>
<path d="M42.7355 20.7174L37.0355 22.5737C36.418 22.7748 36 23.3505 36 24L36.0001 24.0175C36.0019 24.1694 36.0267 24.32 36.0737 24.4644C36.2748 25.082 36.8505 25.5 37.5 25.5L37.5176 25.4998C37.6694 25.498 37.8201 25.4732 37.9645 25.4262L43.6645 23.57C44.282 23.3688 44.7 22.7931 44.7 22.1437L44.6999 22.1261C44.6981 21.9742 44.6733 21.8236 44.6263 21.6792C44.4252 21.0617 43.8495 20.6437 43.2 20.6437L43.1824 20.6438C43.0306 20.6456 42.8799 20.6704 42.7355 20.7174Z" fill="#0965EE"/>
</svg>
