<svg width="49" height="48" viewBox="0 0 49 48" fill="none" xmlns="http://www.w3.org/2000/svg">
<path d="M24.6667 40C28.9102 40 32.9799 38.3143 35.9805 35.3137C38.981 32.3131 40.6667 28.2435 40.6667 24C40.6667 19.7565 38.981 15.6869 35.9805 12.6863C32.9799 9.68571 28.9102 8 24.6667 8M24.6667 40C20.4233 40 16.3536 38.3143 13.353 35.3137C10.3525 32.3131 8.66675 28.2435 8.66675 24M24.6667 40V44M24.6667 8C20.4233 8 16.3536 9.68571 13.353 12.6863C10.3525 15.6869 8.66675 19.7565 8.66675 24M24.6667 8V4M8.66675 24H4.66675M28.6667 24C28.6667 25.0609 28.2453 26.0783 27.4952 26.8284C26.745 27.5786 25.7276 28 24.6667 28C23.6059 28 22.5885 27.5786 21.8383 26.8284C21.0882 26.0783 20.6667 25.0609 20.6667 24C20.6667 22.9391 21.0882 21.9217 21.8383 21.1716C22.5885 20.4214 23.6059 20 24.6667 20C25.7276 20 26.745 20.4214 27.4952 21.1716C28.2453 21.9217 28.6667 22.9391 28.6667 24ZM28.6667 24H44.6667M34.6667 41.3201L32.6667 37.8601M22.6667 20.5399L14.6667 6.67993M41.9871 34L38.5271 32M7.34644 14L10.8064 16M41.9871 14L38.5271 16M7.34644 34L10.8064 32M34.6667 6.67993L32.6667 10.1399M22.6667 27.46L14.6667 41.32" stroke="#0965EE" stroke-width="3" stroke-linecap="round" stroke-linejoin="round"/>
</svg>
