<svg width="49" height="48" viewBox="0 0 49 48" fill="none" xmlns="http://www.w3.org/2000/svg">
<path d="M28.3333 8C28.3333 5.8 30.1333 4 32.3333 4M40.3333 4C42.5333 4 44.3333 5.8 44.3333 8M44.3333 16C44.3333 18.2 42.5333 20 40.3333 20M32.3333 20C30.1333 20 28.3333 18.2 28.3333 16M6.33325 14L12.3333 20M12.3333 20L18.3333 14M12.3333 20V10C12.3333 6.6 14.9333 4 18.3333 4H20.3333M28.3333 28C30.5333 28 32.3333 29.8 32.3333 32V40C32.3333 42.2 30.5333 44 28.3333 44M40.3333 28C42.5333 28 44.3333 29.8 44.3333 32V40C44.3333 42.2 42.5333 44 40.3333 44M8.33325 28H16.3333C18.5424 28 20.3333 29.7909 20.3333 32V40C20.3333 42.2091 18.5424 44 16.3333 44H8.33325C6.12411 44 4.33325 42.2091 4.33325 40V32C4.33325 29.7909 6.12411 28 8.33325 28Z" stroke="#0965EE" stroke-width="3" stroke-linecap="round" stroke-linejoin="round"/>
</svg>
