<svg width="49" height="48" viewBox="0 0 49 48" fill="none" xmlns="http://www.w3.org/2000/svg">
<path d="M16.3333 9V19M16.3333 19H6.33325M16.3333 19L4.33325 7M42.3333 19V13C42.3333 10.68 40.6533 9 38.3333 9H24.3333M6.33325 27V31C6.33325 33.1 8.23325 35 10.3333 35H16.3333M28.3333 27H40.3333C42.5424 27 44.3333 28.7909 44.3333 31V37C44.3333 39.2091 42.5424 41 40.3333 41H28.3333C26.1241 41 24.3333 39.2091 24.3333 37V31C24.3333 28.7909 26.1241 27 28.3333 27Z" stroke="#0965EE" stroke-width="3" stroke-linecap="round" stroke-linejoin="round"/>
</svg>
