<svg width="49" height="48" viewBox="0 0 49 48" fill="none" xmlns="http://www.w3.org/2000/svg">
<path d="M6.66675 6V42H42.6667M16.6667 20H20.6667C21.7713 20 22.6667 20.8954 22.6667 22V32C22.6667 33.1046 21.7713 34 20.6667 34H16.6667C15.5622 34 14.6667 33.1046 14.6667 32V22C14.6667 20.8954 15.5622 20 16.6667 20ZM32.6667 10H36.6667C37.7713 10 38.6667 10.8954 38.6667 12V32C38.6667 33.1046 37.7713 34 36.6667 34H32.6667C31.5622 34 30.6667 33.1046 30.6667 32V12C30.6667 10.8954 31.5622 10 32.6667 10Z" stroke="#0965EE" stroke-width="3" stroke-linecap="round" stroke-linejoin="round"/>
</svg>
