<svg width="49" height="48" viewBox="0 0 49 48" fill="none" xmlns="http://www.w3.org/2000/svg">
<path d="M44.3333 24V30C44.3333 31.0609 43.9118 32.0783 43.1617 32.8284C42.4115 33.5786 41.3941 34 40.3333 34H8.33325C7.27239 34 6.25497 33.5786 5.50482 32.8284C4.75468 32.0783 4.33325 31.0609 4.33325 30V10C4.33325 8.93913 4.75468 7.92172 5.50482 7.17157C6.25497 6.42143 7.27239 6 8.33325 6H26.3333M24.3333 34V42M16.3333 42H32.3333M44.3333 12C44.3333 15.3137 41.647 18 38.3333 18C35.0195 18 32.3333 15.3137 32.3333 12C32.3333 8.68629 35.0195 6 38.3333 6C41.647 6 44.3333 8.68629 44.3333 12Z" stroke="#0965EE" stroke-width="3" stroke-linecap="round" stroke-linejoin="round"/>
</svg>
