<svg width="49" height="48" viewBox="0 0 49 48" fill="none" xmlns="http://www.w3.org/2000/svg">
<path d="M15.6667 9V10.5C15.6667 11.3284 16.3383 12 17.1667 12C17.9952 12 18.6667 11.3284 18.6667 10.5V9H39.6667V28.5H15.6667C14.8383 28.5 14.1667 29.1716 14.1667 30C14.1667 30.8284 14.8383 31.5 15.6667 31.5H39.6667C40.9094 31.5 41.7881 30.6213 41.7881 30.6213C42.6667 29.7426 42.6667 28.5 42.6667 28.5V9C42.6667 7.75736 41.7881 6.87868 41.7881 6.87868C40.9094 6 39.6667 6 39.6667 6H18.6667C17.4241 6 16.5454 6.87868 16.5454 6.87868C15.6667 7.75736 15.6667 9 15.6667 9Z" fill="#0965EE"/>
<path d="M14.6061 31.0607L19.1056 35.5602C19.3869 35.8415 19.7689 36 20.1667 36C20.5646 36 20.9461 35.842 21.2274 35.5607C21.5087 35.2794 21.6667 34.8978 21.6667 34.5C21.6667 34.1022 21.5087 33.7206 21.2274 33.4393L17.7881 30L21.2274 26.5607C21.5087 26.2794 21.6667 25.8978 21.6667 25.5C21.6667 25.1022 21.5087 24.7206 21.2274 24.4393C20.9461 24.158 20.5646 24 20.1667 24C19.7689 24 19.3874 24.158 19.1061 24.4393L14.6061 28.9393C14.0203 29.5251 14.0203 30.4749 14.6061 31.0607Z" fill="#0965EE"/>
<path d="M33.6667 39V37.5C33.6667 36.6716 32.9952 36 32.1667 36C31.3383 36 30.6667 36.6716 30.6667 37.5V39H9.66675V19.5H33.6667C34.4952 19.5 35.1667 18.8284 35.1667 18C35.1667 17.1716 34.4952 16.5 33.6667 16.5H9.66675C8.42411 16.5 7.54543 17.3787 7.54543 17.3787C6.66675 18.2574 6.66675 19.5 6.66675 19.5V39C6.66675 40.2426 7.54543 41.1213 7.54543 41.1213C8.42411 42 9.66675 42 9.66675 42H30.6667C31.9094 42 32.7881 41.1213 32.7881 41.1213C33.6667 40.2426 33.6667 39 33.6667 39Z" fill="#0965EE"/>
<path d="M30.2274 12.4393C29.9461 12.158 29.5646 12 29.1667 12C28.7689 12 28.3874 12.158 28.1061 12.4393C27.8248 12.7206 27.6667 13.1022 27.6667 13.5C27.6667 13.8978 27.8248 14.2794 28.1061 14.5607L31.5454 18L28.1067 21.4388C27.8253 21.7201 27.6667 22.1022 27.6667 22.5C27.6667 22.524 27.6673 22.5481 27.6685 22.5721C27.6864 22.9445 27.8424 23.297 28.1061 23.5607C28.3874 23.842 28.7689 24 29.1667 24C29.5646 24 29.9461 23.842 30.2274 23.5607L34.7274 19.0607C35.3132 18.4749 35.3132 17.5251 34.7274 16.9393L30.2274 12.4393Z" fill="#0965EE"/>
</svg>
