<svg width="48" height="48" viewBox="0 0 48 48" fill="none" xmlns="http://www.w3.org/2000/svg">
<path d="M22.9386 16.0599C23.2199 16.3412 23.6022 16.5 24 16.5C24.024 16.5 24.0481 16.4994 24.0721 16.4983C24.4445 16.4804 24.797 16.3243 25.0607 16.0607C25.342 15.7794 25.5 15.3978 25.5 15C25.5 14.9741 25.4993 14.9482 25.498 14.9224C25.4788 14.5519 25.323 14.2017 25.0607 13.9393L19.4919 8.37059C19.0684 7.94913 18.5191 7.72353 18.5191 7.72353C17.9698 7.49793 17.376 7.50001 17.376 7.50001L7.5 7.5C6.25736 7.5 5.37868 8.37868 5.37868 8.37868C4.5 9.25736 4.5 10.5 4.5 10.5V15C4.5 15.8284 5.17157 16.5 6 16.5C6.82843 16.5 7.5 15.8284 7.5 15V10.5L17.3787 10.5L22.9386 16.0599Z" fill="#0965EE"/>
<path fill-rule="evenodd" clip-rule="evenodd" d="M27 39V30.75C27 29.9216 27.6716 29.25 28.5 29.25H42C42.8284 29.25 43.5 29.9216 43.5 30.75V39C43.5 39.8284 42.8284 40.5 42 40.5H28.5C27.6716 40.5 27 39.8284 27 39ZM40.5 37.5H30V32.25H40.5V37.5Z" fill="#0965EE"/>
<path d="M7.5 16.5H40.5V19.5C40.5 20.3284 41.1716 21 42 21C42.8284 21 43.5 20.3284 43.5 19.5V16.5C43.5 15.2573 42.6213 14.3787 42.6213 14.3787C41.7426 13.5 40.5 13.5 40.5 13.5H6C5.17157 13.5 4.5 14.1716 4.5 15V37.6125C4.5 38.1868 4.7198 38.7175 4.7198 38.7175C4.93959 39.2481 5.34573 39.6543 5.34573 39.6543C5.75185 40.0604 6.2825 40.2802 6.2825 40.2802C6.81314 40.5 7.3875 40.5 7.3875 40.5H21.1125C21.9409 40.5 22.6125 39.8284 22.6125 39C22.6125 38.1716 21.9409 37.5 21.1125 37.5H7.5V16.5Z" fill="#0965EE"/>
<path d="M37.5 28.5V30.75C37.5 31.5784 38.1716 32.25 39 32.25C39.8284 32.25 40.5 31.5784 40.5 30.75V28.5C40.5 26.3254 38.9623 24.7877 38.9623 24.7877C37.4246 23.25 35.25 23.25 35.25 23.25C33.0754 23.25 31.5377 24.7877 31.5377 24.7877C30 26.3254 30 28.5 30 28.5V30.75C30 31.5784 30.6716 32.25 31.5 32.25C32.3284 32.25 33 31.5784 33 30.75V28.5C33 27.568 33.659 26.909 33.659 26.909C34.318 26.25 35.25 26.25 35.25 26.25C36.182 26.25 36.841 26.909 36.841 26.909C37.5 27.568 37.5 28.5 37.5 28.5Z" fill="#0965EE"/>
</svg>
