<svg width="49" height="48" viewBox="0 0 49 48" fill="none" xmlns="http://www.w3.org/2000/svg">
<path d="M16.6667 9V19M16.6667 19H6.66675M16.6667 19L4.66675 7M42.6667 19V13C42.6667 10.68 40.9867 9 38.6667 9H24.6667M6.66675 27V31C6.66675 33.1 8.56675 35 10.6667 35H16.6667M28.6667 27H40.6667C42.8759 27 44.6667 28.7909 44.6667 31V37C44.6667 39.2091 42.8759 41 40.6667 41H28.6667C26.4576 41 24.6667 39.2091 24.6667 37V31C24.6667 28.7909 26.4576 27 28.6667 27Z" stroke="#0965EE" stroke-width="3" stroke-linecap="round" stroke-linejoin="round"/>
</svg>
