<svg width="24" height="24" viewBox="0 0 24 24" fill="none" xmlns="http://www.w3.org/2000/svg">
<path d="M3.75 12.75H20.25C20.6642 12.75 21 12.4142 21 12C21 11.5858 20.6642 11.25 20.25 11.25H3.75C3.33579 11.25 3 11.5858 3 12C3 12.4142 3.33579 12.75 3.75 12.75Z" fill="#222222"/>
<path d="M19.1893 12L12.9697 18.2197C12.829 18.3603 12.75 18.5511 12.75 18.75C12.75 18.9489 12.829 19.1397 12.9697 19.2803C13.1103 19.421 13.3011 19.5 13.5 19.5C13.6989 19.5 13.8897 19.421 14.0303 19.2803L20.7803 12.5303C21.0732 12.2374 21.0732 11.7626 20.7803 11.4697L14.0303 4.71967C13.8897 4.57902 13.6989 4.5 13.5 4.5C13.3011 4.5 13.1103 4.57902 12.9697 4.71967C12.829 4.86032 12.75 5.05109 12.75 5.25C12.75 5.44891 12.829 5.63968 12.9697 5.78033L19.1893 12Z" fill="#222222"/>
</svg>
