<svg width="24" height="24" viewBox="0 0 24 24" fill="none" xmlns="http://www.w3.org/2000/svg">
<path d="M14.9814 8.66687C14.6601 8.66694 13.5797 8.66704 13.4259 8.66687C13.319 8.66724 12.9476 8.66652 12.8554 8.66692H9.14851C9.05636 8.66652 8.63396 8.66692 8.46622 8.66697C8.25795 8.66697 8.02872 8.66697 7.93364 8.66692C7.76315 8.66692 7.48413 8.66692 7.31692 8.66692C7.25281 8.66692 7.1526 8.66697 7 8.66697L11.6674 15.1467C11.7567 15.2665 11.8759 15.3334 12 15.3334C12.1241 15.3334 12.2433 15.2665 12.3326 15.1467L17 8.66697C16.7421 8.66709 16.3364 8.66702 16.0713 8.66724C15.7071 8.66709 15.0947 8.66694 14.9814 8.66687Z" fill="black"/>
</svg>
