<svg width="19" height="18" viewBox="0 0 19 18" fill="none" xmlns="http://www.w3.org/2000/svg">
<path d="M15.4062 14.625H8.32578L14.1195 8.83827L15.9688 6.98202C16.0738 6.87806 16.1571 6.75432 16.214 6.61794C16.2709 6.48156 16.3002 6.33526 16.3002 6.18749C16.3002 6.03972 16.2709 5.89341 16.214 5.75704C16.1571 5.62066 16.0738 5.49691 15.9688 5.39296L12.8258 2.24999C12.614 2.0413 12.3286 1.92432 12.0312 1.92432C11.7339 1.92432 11.4485 2.0413 11.2367 2.24999L2.79922 10.6875C2.69438 10.7915 2.6112 10.9153 2.55448 11.0517C2.49776 11.1881 2.46862 11.3343 2.46875 11.482V14.625C2.46875 14.9234 2.58728 15.2095 2.79826 15.4205C3.00923 15.6315 3.29538 15.75 3.59375 15.75H15.4062C15.5554 15.75 15.6985 15.6907 15.804 15.5852C15.9095 15.4797 15.9688 15.3367 15.9688 15.1875C15.9688 15.0383 15.9095 14.8952 15.804 14.7897C15.6985 14.6843 15.5554 14.625 15.4062 14.625ZM3.59375 11.482L10.3438 4.73202L13.4867 7.87499L6.73672 14.625H3.59375V11.482Z" fill="white"/>
</svg>
