<svg width="32" height="32" viewBox="0 0 32 32" fill="none" xmlns="http://www.w3.org/2000/svg">
<path d="M12.7999 24.8L7.19995 19.2L4.73743 25.9875C4.66943 26.1656 4.6543 26.3596 4.69409 26.546C4.73389 26.7325 4.82678 26.9035 4.96155 27.0383C5.09644 27.1731 5.26746 27.2661 5.45386 27.3058C5.64038 27.3456 5.83435 27.3305 6.01245 27.2625L12.7999 24.8Z" fill="black" fill-opacity="0.1"/>
<path d="M9.6001 12.6001L19.4001 22.4001L24.5251 20.5376C24.6835 20.48 24.8248 20.3833 24.9358 20.2565C25.0469 20.1297 25.124 19.9769 25.1603 19.8123C25.1964 19.6477 25.1904 19.4766 25.1427 19.3149C25.0951 19.1533 25.0073 19.0063 24.8876 18.8876L13.1125 7.11258C12.9939 6.99289 12.8469 6.90515 12.6853 6.85748C12.5236 6.80981 12.3525 6.80377 12.1879 6.83994C12.0233 6.8761 11.8705 6.95331 11.7437 7.06433C11.6168 7.17538 11.5201 7.31668 11.4626 7.4751L9.6001 12.6001Z" fill="black" fill-opacity="0.1"/>
<path fill-rule="evenodd" clip-rule="evenodd" d="M3.71616 26.7546C3.71616 26.7546 3.59452 26.1843 3.80005 25.6393L10.5227 7.13335C10.5227 7.13335 10.6982 6.6504 11.0848 6.31186C11.0848 6.31186 11.4713 5.97333 11.9732 5.86306C11.9732 5.86306 12.4751 5.7528 12.968 5.89812C12.968 5.89812 13.4609 6.04344 13.8196 6.40531L25.5916 18.1773C25.5916 18.1773 25.9565 18.5391 26.1018 19.0319C26.1018 19.0319 26.2472 19.5248 26.1369 20.0267C26.1369 20.0267 26.0266 20.5286 25.6881 20.9152C25.6881 20.9152 25.3496 21.3018 24.8665 21.4773L6.36959 28.1965C6.36959 28.1965 5.82039 28.4064 5.24535 28.2838C5.24535 28.2838 4.67032 28.1611 4.25457 27.7454C4.25457 27.7454 3.83881 27.3296 3.71616 26.7546ZM24.1835 19.5976L5.681 26.3191L12.4024 7.81648L12.4054 7.81952L24.1835 19.5976Z" fill="#1C1C1C"/>
<path d="M27.5194 4.94721C28 3.98607 28 3 28 3C28 2.44772 27.5523 2 27 2C26.4477 2 26 2.44772 26 3C26 3.51393 25.7306 4.05279 25.7306 4.05279C25.257 5 24 5 24 5C21.507 5 20.4806 7.05279 20.4806 7.05279C20 8.01393 20 9 20 9C20 9.55228 20.4477 10 21 10C21.5523 10 22 9.55228 22 9C22 8.48607 22.2694 7.94721 22.2694 7.94721C22.743 7 24 7 24 7C26.493 7 27.5194 4.94721 27.5194 4.94721Z" fill="#1C1C1C"/>
<path d="M7.90706 18.4928C7.71952 18.3053 7.46517 18.2 7.19995 18.2C6.93473 18.2 6.68038 18.3053 6.49284 18.4928C6.30531 18.6804 6.19995 18.9347 6.19995 19.2C6.19995 19.4652 6.30531 19.7195 6.49284 19.9071L12.0928 25.5071C12.2804 25.6946 12.5347 25.7999 12.8 25.7999C13.0652 25.7999 13.3195 25.6946 13.5071 25.5071C13.6946 25.3195 13.8 25.0652 13.8 24.7999C13.8 24.5347 13.6946 24.2804 13.5071 24.0928L7.90706 18.4928Z" fill="#1C1C1C"/>
<path d="M17 2V5C17 5.55228 17.4477 6 18 6C18.5523 6 19 5.55228 19 5V2C19 1.44772 18.5523 1 18 1C17.4477 1 17 1.44772 17 2Z" fill="#1C1C1C"/>
<path d="M26.293 14.7072L28.2929 16.7071C28.4804 16.8946 28.7348 17 29 17C29.2652 17 29.5196 16.8946 29.7071 16.7071C29.8946 16.5196 30 16.2652 30 16C30 15.7348 29.8946 15.4804 29.7071 15.2929L27.7072 13.293C27.5196 13.1054 27.2652 13 27 13C26.7348 13 26.4804 13.1054 26.2929 13.2929C26.1054 13.4804 26 13.7348 26 14C26 14.2652 26.1054 14.5196 26.293 14.7072Z" fill="#1C1C1C"/>
<path d="M30.3162 9.94868C30.5678 9.86481 30.7758 9.68443 30.8944 9.44721C30.9639 9.30836 31 9.15525 31 9L31 8.99639C30.9996 8.89012 30.9823 8.78459 30.9487 8.68377C30.8648 8.43217 30.6844 8.22418 30.4472 8.10557C30.3084 8.03615 30.1552 8 30 8L29.9964 8.00001C29.8901 8.00039 29.7846 8.01771 29.6838 8.05132L26.6838 9.05132C26.2754 9.18743 26 9.56957 26 10L26.0002 10.0187C26.0021 10.1199 26.0193 10.2202 26.0513 10.3162C26.1352 10.5678 26.3156 10.7758 26.5528 10.8944C26.6916 10.9639 26.8448 11 27 11L27.0036 11C27.1099 10.9996 27.2154 10.9823 27.3162 10.9487L27.3165 10.9486L30.3162 9.94868Z" fill="#1C1C1C"/>
<path d="M18.6925 23.1067L18.693 23.1072C18.8805 23.2947 19.1349 23.4001 19.4001 23.4001C19.6653 23.4001 19.9197 23.2947 20.1072 23.1072C20.2947 22.9197 20.4001 22.6653 20.4001 22.4001C20.4001 22.1349 20.2947 21.8805 20.1072 21.693L10.3072 11.893C10.1197 11.7055 9.86531 11.6001 9.6001 11.6001C9.33488 11.6001 9.08053 11.7055 8.89299 11.893C8.70545 12.0805 8.6001 12.3349 8.6001 12.6001C8.6001 12.8653 8.70545 13.1197 8.89299 13.3072L18.6925 23.1067Z" fill="#1C1C1C"/>
</svg>
