<svg width="22" height="24" viewBox="0 0 22 24" fill="none" xmlns="http://www.w3.org/2000/svg">
<path d="M17.656 17.0344L13.7081 21.5344C13.5818 21.672 13.414 21.7492 13.2393 21.75C13.152 21.7496 13.0655 21.7305 12.9843 21.6937C12.8646 21.6364 12.7624 21.5399 12.6907 21.4164C12.619 21.293 12.5809 21.1481 12.5813 21V17.25H5.34353C5.16902 17.25 5.00166 17.171 4.87827 17.0303C4.75487 16.8897 4.68555 16.6989 4.68555 16.5V3C4.68555 2.80109 4.75487 2.61032 4.87827 2.46967C5.00166 2.32902 5.16902 2.25 5.34353 2.25C5.51804 2.25 5.6854 2.32902 5.80879 2.46967C5.93219 2.61032 6.00151 2.80109 6.00151 3V15.75H12.5813V12C12.5809 11.8519 12.619 11.707 12.6907 11.5836C12.7624 11.4601 12.8646 11.3636 12.9843 11.3062C13.1059 11.2522 13.2383 11.2385 13.3664 11.2667C13.4945 11.2949 13.613 11.3639 13.7081 11.4656L17.656 15.9656C17.7796 16.1078 17.8489 16.2999 17.8489 16.5C17.8489 16.7001 17.7796 16.8922 17.656 17.0344Z" fill="#999999"/>
</svg>
