<svg width="48" height="48" viewBox="0 0 48 48" fill="none" xmlns="http://www.w3.org/2000/svg">
<path d="M35.9163 33.7049C36.1976 33.4236 36.3562 33.0415 36.3562 32.6437C36.3562 32.2459 36.1981 31.8643 35.9168 31.583C35.6355 31.3017 35.254 31.1437 34.8562 31.1437C34.4584 31.1437 34.0768 31.3017 33.7955 31.583L28.4999 36.8786L23.2045 31.5832C22.923 31.3017 22.5415 31.1437 22.1437 31.1437C21.7459 31.1437 21.3643 31.3017 21.083 31.583C20.8017 31.8643 20.6437 32.2459 20.6437 32.6437C20.6437 33.0415 20.8017 33.423 21.083 33.7043L27.4393 40.0606C28.0251 40.6464 28.9748 40.6464 29.5606 40.0606L35.9163 33.7049Z" fill="#0965EE"/>
<path d="M27 24V39C27 39.8284 27.6716 40.5 28.5 40.5C29.3284 40.5 30 39.8284 30 39V24C30 23.1716 29.3284 22.5 28.5 22.5C27.6716 22.5 27 23.1716 27 24Z" fill="#0965EE"/>
<path d="M15.7421 19.7739L15.7442 19.7744C15.8626 19.8039 15.9842 19.8188 16.1063 19.8188C16.3788 19.8188 16.6461 19.7445 16.8795 19.6041C17.2204 19.399 17.4659 19.0669 17.5619 18.6808C17.5914 18.5624 17.6063 18.4408 17.6063 18.3188C17.6063 18.3013 17.6059 18.2838 17.6053 18.2663C17.5819 17.5972 17.118 17.0247 16.4683 16.8631L16.4665 16.8627C15.0052 16.4994 13.4994 16.5 13.4994 16.5C11.1131 16.5 8.9078 17.4135 8.9078 17.4135C6.70255 18.3269 5.01472 20.0147 5.01472 20.0147C3.32689 21.7026 2.41345 23.9078 2.41345 23.9078C1.5 26.1131 1.5 28.5 1.5 28.5C1.5 30.887 2.41345 33.0922 2.41345 33.0922C3.32689 35.2975 5.01472 36.9853 5.01472 36.9853C6.70255 38.6731 8.9078 39.5866 8.9078 39.5866C11.1131 40.5 13.5 40.5 13.5 40.5H18C18.8284 40.5 19.5 39.8284 19.5 39C19.5 38.1716 18.8284 37.5 18 37.5H13.5C9.77208 37.5 7.13604 34.864 7.13604 34.864C4.5 32.2279 4.5 28.5 4.5 28.5C4.5 24.7721 7.13604 22.136 7.13604 22.136C9.77208 19.5 13.5006 19.5 13.5006 19.5C14.6379 19.4996 15.7421 19.7739 15.7421 19.7739Z" fill="#0965EE"/>
<path d="M40.8041 32.0944C40.8021 32.0971 40.8 32.0999 40.8 32.0999C40.6053 32.3595 40.5 32.6753 40.5 32.9999C40.5 33.0191 40.5004 33.0383 40.5011 33.0575C40.5185 33.5091 40.7385 33.9287 41.1 34.1999C41.3596 34.3946 41.6754 34.4999 42 34.4999C42.0192 34.4999 42.0384 34.4995 42.0576 34.4988C42.5092 34.4814 42.9289 34.2614 43.2 33.8999C45.586 30.718 46.2611 26.7973 46.2611 26.7973C46.9355 22.877 45.7495 19.0801 45.7495 19.0801C44.5634 15.2832 41.7774 12.4439 41.7774 12.4439C38.9915 9.60451 35.2178 8.3466 35.2178 8.3466C31.444 7.08869 27.5117 7.68859 27.5117 7.68859C23.5793 8.28849 20.3523 10.6144 20.3523 10.6144C17.1253 12.9403 15.3126 16.4811 15.3126 16.4811C13.5 20.022 13.5 23.9999 13.5 23.9999C13.5 24.8283 14.1716 25.4999 15 25.4999C15.8284 25.4999 16.5 24.8283 16.5 23.9999C16.5 20.7453 17.9831 17.8482 17.9831 17.8482C19.4661 14.9511 22.1064 13.0481 22.1064 13.0481C24.7467 11.1451 27.9641 10.6543 27.9641 10.6543C31.1815 10.1635 34.2691 11.1927 34.2691 11.1927C37.3567 12.2219 39.6361 14.5449 39.6361 14.5449C41.9155 16.868 42.8859 19.9746 42.8859 19.9746C43.8564 23.0812 43.3046 26.2887 43.3046 26.2887C42.7533 29.4928 40.8041 32.0944 40.8041 32.0944Z" fill="#0965EE"/>
</svg>
