<svg width="32" height="32" viewBox="0 0 32 32" fill="none" xmlns="http://www.w3.org/2000/svg">
<path d="M15 9.99993V15.9999C15 16.5522 15.4477 16.9999 16 16.9999C16.5523 16.9999 17 16.5522 17 15.9999V9.99993C17 9.44765 16.5523 8.99993 16 8.99993C15.4477 8.99993 15 9.44765 15 9.99993Z" fill="black"/>
<path d="M16.4999 15.1338L21.6997 18.1337C21.9921 18.3024 22.1796 18.6072 22.1984 18.9442C22.1995 18.9628 22.2 18.9813 22.2 18.9999C22.2 19.1754 22.1539 19.3477 22.0662 19.4997C21.8975 19.792 21.5927 19.9796 21.2557 19.9984C21.2372 19.9994 21.2186 19.9999 21.2 19.9999C21.0246 19.9999 20.8522 19.9538 20.7003 19.8661L15.5004 16.8662C15.2755 16.7365 15.11 16.5245 15.0386 16.2751L15.0342 16.2591C15.0115 16.1746 15 16.0874 15 15.9999C15 15.8401 15.0383 15.6826 15.1117 15.5406C15.1188 15.527 15.1261 15.5135 15.1338 15.5002C15.2635 15.2755 15.4754 15.1099 15.7248 15.0385L15.7409 15.0341C15.8254 15.0114 15.9125 14.9999 16 14.9999C16.1598 14.9999 16.3173 15.0382 16.4593 15.1116C16.4729 15.1187 16.4864 15.1261 16.4999 15.1338Z" fill="black"/>
<path d="M29.025 12.4625V7.46246C29.025 6.91017 28.5773 6.46246 28.025 6.46246C27.4727 6.46246 27.025 6.91017 27.025 7.46246V11.4625H23.025C22.4727 11.4625 22.025 11.9102 22.025 12.4625C22.025 13.0147 22.4727 13.4625 23.025 13.4625H28.025C28.5773 13.4625 29.025 13.0147 29.025 12.4625Z" fill="black"/>
<path d="M27.3189 13.1705C27.5064 13.3574 27.7603 13.4625 28.025 13.4625L28.0265 13.4624C28.2917 13.462 28.5459 13.3563 28.7331 13.1685C28.92 12.981 29.025 12.7272 29.025 12.4625L29.025 12.4609C29.0246 12.1957 28.9189 11.9415 28.7311 11.7542L24.4811 7.51674C21.909 4.94257 18.3383 4.23118 18.3383 4.23118C14.7677 3.5198 11.4037 4.9124 11.4037 4.9124C8.03975 6.305 6.0167 9.33203 6.0167 9.33203C3.99365 12.3591 3.99365 15.9999 3.99365 15.9999C3.99365 19.6407 6.0167 22.6678 6.0167 22.6678C8.03974 25.6948 11.4037 27.0874 11.4037 27.0874C14.7677 28.48 18.3383 27.7686 18.3383 27.7686C21.9087 27.0573 24.4819 24.4822 24.4819 24.4822C24.6693 24.2946 24.775 24.04 24.775 23.7749C24.7749 23.5097 24.6694 23.255 24.4818 23.0675C24.2943 22.8801 24.0401 22.7749 23.775 22.7749C23.5098 22.775 23.2551 22.8805 23.0676 23.0681C20.9231 25.2143 17.9476 25.8071 17.9476 25.8071C14.972 26.4 12.1687 25.2395 12.1687 25.2395C9.36539 24.079 7.67952 21.5564 7.67952 21.5564C5.99365 19.0339 5.99365 15.9999 5.99365 15.9999C5.99365 12.9659 7.67952 10.4433 7.67952 10.4433C9.36539 7.92081 12.1687 6.76031 12.1687 6.76031C14.972 5.59981 17.9476 6.19263 17.9476 6.19263C20.9231 6.78545 23.0689 8.93304 23.0689 8.93304L27.3189 13.1705Z" fill="black"/>
</svg>
