<svg width="30" height="30" viewBox="0 0 30 30" fill="none" xmlns="http://www.w3.org/2000/svg">
<g opacity="0.9">
<path d="M14.2904 15.0003L8.64444 9.3573C8.5507 9.26354 8.49805 9.13638 8.49805 9.0038C8.49805 8.87122 8.5507 8.74406 8.64444 8.6503C8.7382 8.55656 8.86536 8.50391 8.99794 8.50391C9.13052 8.50391 9.25768 8.55656 9.35144 8.6503L15.3514 14.6503C15.4452 14.7441 15.4978 14.8712 15.4978 15.0038C15.4978 15.1364 15.4452 15.2635 15.3514 15.3573L9.35144 21.3573C9.305 21.4039 9.24983 21.4408 9.18909 21.4661C9.12834 21.4913 9.06321 21.5043 8.99744 21.5043C8.86494 21.504 8.73798 21.4511 8.64444 21.3573C8.5507 21.2635 8.49805 21.1364 8.49805 21.0038C8.49805 20.8712 8.5507 20.7441 8.64444 20.6503L14.2904 15.0003Z" fill="#111111"/>
<path d="M20.2904 15.0003L14.6444 9.3573C14.5507 9.26354 14.498 9.13638 14.498 9.0038C14.498 8.87122 14.5507 8.74406 14.6444 8.6503C14.7382 8.55656 14.8654 8.50391 14.9979 8.50391C15.1305 8.50391 15.2577 8.55656 15.3514 8.6503L21.3514 14.6503C21.4452 14.7441 21.4978 14.8712 21.4978 15.0038C21.4978 15.1364 21.4452 15.2635 21.3514 15.3573L15.3514 21.3573C15.305 21.4039 15.2498 21.4408 15.1891 21.4661C15.1283 21.4913 15.0632 21.5043 14.9974 21.5043C14.8649 21.504 14.738 21.4511 14.6444 21.3573C14.5507 21.2635 14.498 21.1364 14.498 21.0038C14.498 20.8712 14.5507 20.7441 14.6444 20.6503L20.2904 15.0003Z" fill="#111111"/>
</g>
</svg>
