<svg width="24" height="24" viewBox="0 0 24 24" fill="none" xmlns="http://www.w3.org/2000/svg">
<circle opacity="0.2" cx="12" cy="12" r="12" fill="black"/>
<path d="M16.3822 14.4349L13.736 11.995L16.3865 9.5512C16.7651 9.19415 16.7565 8.62286 16.3778 8.26977L16.3692 8.26184C15.982 7.91272 15.3753 7.91272 14.9838 8.26184L12.3333 10.7057L9.68719 8.26977C9.29995 7.91272 8.67176 7.91272 8.28882 8.26977C7.90588 8.62683 7.90158 9.20605 8.28882 9.55914L10.935 11.999L8.28452 14.4428C8.0995 14.6174 7.99624 14.8475 8.00054 15.0935C8.00054 15.3315 8.10811 15.5576 8.28882 15.7282L8.29742 15.7362C8.68467 16.0853 9.29134 16.0853 9.68289 15.7362L12.3333 13.2923L14.9795 15.7322C15.3667 16.0893 15.9949 16.0893 16.3778 15.7322C16.7608 15.3752 16.7651 14.7959 16.3778 14.4428L16.3822 14.4349Z" fill="white"/>
</svg>
