<svg width="16" height="9" viewBox="0 0 16 9" fill="none" xmlns="http://www.w3.org/2000/svg">
<path fill-rule="evenodd" clip-rule="evenodd" d="M15.1765 1.89157L8.31946 8.74857C8.15887 8.90954 7.94083 9 7.71346 9C7.48608 9 7.26805 8.90954 7.10746 8.74857L0.250457 1.89157C0.089487 1.73098 -0.00097689 1.51294 -0.0009769 1.28557C-0.00097691 1.05819 0.089487 0.840156 0.250457 0.679566C0.411046 0.518597 0.62908 0.428132 0.856457 0.428132C1.08383 0.428132 1.30187 0.518597 1.46246 0.679566L7.71346 6.93057L13.9645 0.679566C14.1252 0.518841 14.3432 0.428546 14.5705 0.428546C14.7978 0.428546 15.0157 0.518841 15.1765 0.679566C15.3374 0.840164 15.4277 1.05823 15.4275 1.28557C15.4277 1.5129 15.3374 1.73097 15.1765 1.89157Z" fill="#222222"/>
</svg>
