<svg width="48" height="48" viewBox="0 0 48 48" fill="none" xmlns="http://www.w3.org/2000/svg">
<path d="M6 16.5H21C21.8284 16.5 22.5 15.8284 22.5 15C22.5 14.1716 21.8284 13.5 21 13.5H6C4.13604 13.5 2.81802 14.818 2.81802 14.818C1.5 16.136 1.5 18 1.5 18V31.5C1.5 33.364 2.81802 34.682 2.81802 34.682C4.13604 36 6 36 6 36H21C21.8284 36 22.5 35.3284 22.5 34.5C22.5 33.6716 21.8284 33 21 33H6C5.37868 33 4.93934 32.5607 4.93934 32.5607C4.5 32.1213 4.5 31.5 4.5 31.5V18C4.5 17.3787 4.93934 16.9393 4.93934 16.9393C5.37868 16.5 6 16.5 6 16.5Z" fill="#0965EE"/>
<path d="M21 39H12C11.1716 39 10.5 39.6716 10.5 40.5C10.5 41.3284 11.1716 42 12 42H21C21.8284 42 22.5 41.3284 22.5 40.5C22.5 39.6716 21.8284 39 21 39Z" fill="#0965EE"/>
<path d="M39 12H33C32.1716 12 31.5 12.6716 31.5 13.5C31.5 14.3284 32.1716 15 33 15H39C39.8284 15 40.5 14.3284 40.5 13.5C40.5 12.6716 39.8284 12 39 12Z" fill="#0965EE"/>
<path d="M39 18H33C32.1716 18 31.5 18.6716 31.5 19.5C31.5 20.3284 32.1716 21 33 21H39C39.8284 21 40.5 20.3284 40.5 19.5C40.5 18.6716 39.8284 18 39 18Z" fill="#0965EE"/>
<path fill-rule="evenodd" clip-rule="evenodd" d="M25.5 9C25.5 9 25.5 7.75736 26.3787 6.87868C26.3787 6.87868 27.2574 6 28.5 6H43.5C43.5 6 44.7426 6 45.6213 6.87868C45.6213 6.87868 46.5 7.75736 46.5 9V39C46.5 39 46.5 40.2426 45.6213 41.1213C45.6213 41.1213 44.7426 42 43.5 42H28.5C28.5 42 27.2574 42 26.3787 41.1213C26.3787 41.1213 25.5 40.2426 25.5 39V9ZM28.5 9V39H43.5V9H28.5Z" fill="#0965EE"/>
<path d="M15 34.5V40.5C15 41.3284 15.6716 42 16.5 42C17.3284 42 18 41.3284 18 40.5V34.5C18 33.6716 17.3284 33 16.5 33C15.6716 33 15 33.6716 15 34.5Z" fill="#0965EE"/>
<path d="M38.25 33.75C38.25 34.9926 37.2426 36 36 36C34.7574 36 33.75 34.9926 33.75 33.75C33.75 32.5074 34.7574 31.5 36 31.5C37.2426 31.5 38.25 32.5074 38.25 33.75Z" fill="#0965EE"/>
</svg>
