<svg width="32" height="32" viewBox="0 0 32 32" fill="none" xmlns="http://www.w3.org/2000/svg">
<path d="M24.7067 7.70748C24.8943 7.51995 25 7.26522 25 7C25 6.73478 24.8946 6.48043 24.7071 6.29289L24.6985 6.28436C24.5117 6.1024 24.2607 6 24 6C23.7348 6 23.4804 6.10536 23.2929 6.29289L9.29327 20.2925C9.10573 20.4801 9 20.7348 9 21C9 21.016 9.00038 21.032 9.00115 21.048C9.0131 21.2964 9.1171 21.5313 9.29289 21.7071C9.48043 21.8946 9.73478 22 10 22C10.2652 22 10.5196 21.8946 10.7071 21.7071L24.7067 7.70748Z" fill="#1C1C1C"/>
<path d="M24 6H11.5C10.9477 6 10.5 6.44772 10.5 7C10.5 7.55228 10.9477 8 11.5 8H23V19.5C23 20.0523 23.4477 20.5 24 20.5C24.5523 20.5 25 20.0523 25 19.5V7C25 6.44772 24.5523 6 24 6Z" fill="#1C1C1C"/>
<path d="M5 28H27C27.5523 28 28 27.5523 28 27C28 26.4477 27.5523 26 27 26H5C4.44772 26 4 26.4477 4 27C4 27.5523 4.44772 28 5 28Z" fill="#1C1C1C"/>
</svg>
