<svg width="30" height="30" viewBox="0 0 30 30" fill="none" xmlns="http://www.w3.org/2000/svg">
<g opacity="0.9">
<path d="M15.7074 15.0004L21.3534 9.35339C21.4471 9.25963 21.4998 9.13248 21.4998 8.99989C21.4998 8.86731 21.4471 8.74016 21.3534 8.64639C21.2596 8.55266 21.1325 8.5 20.9999 8.5C20.8673 8.5 20.7402 8.55266 20.6464 8.64639L14.6464 14.6464C14.5527 14.7402 14.5 14.8673 14.5 14.9999C14.5 15.1325 14.5527 15.2596 14.6464 15.3534L20.6464 21.3534C20.6928 21.4 20.748 21.4369 20.8087 21.4622C20.8695 21.4874 20.9346 21.5004 21.0004 21.5004C21.1329 21.5001 21.2599 21.4472 21.3534 21.3534C21.4471 21.2596 21.4998 21.1325 21.4998 20.9999C21.4998 20.8673 21.4471 20.7402 21.3534 20.6464L15.7074 15.0004Z" fill="#111111"/>
<path d="M9.70738 15.0004L15.3534 9.35339C15.4471 9.25963 15.4998 9.13248 15.4998 8.99989C15.4998 8.86731 15.4471 8.74016 15.3534 8.64639C15.2596 8.55266 15.1325 8.5 14.9999 8.5C14.8673 8.5 14.7402 8.55266 14.6464 8.64639L8.64639 14.6464C8.55266 14.7402 8.5 14.8673 8.5 14.9999C8.5 15.1325 8.55266 15.2596 8.64639 15.3534L14.6464 21.3534C14.6928 21.4 14.748 21.4369 14.8087 21.4622C14.8695 21.4874 14.9346 21.5004 15.0004 21.5004C15.1329 21.5001 15.2599 21.4472 15.3534 21.3534C15.4471 21.2596 15.4998 21.1325 15.4998 20.9999C15.4998 20.8673 15.4471 20.7402 15.3534 20.6464L9.70738 15.0004Z" fill="#111111"/>
</g>
</svg>
