<svg width="25" height="25" viewBox="0 0 25 25" fill="none" xmlns="http://www.w3.org/2000/svg">
<path fill-rule="evenodd" clip-rule="evenodd" d="M19.3952 11.3921L12.5382 18.2491C12.3776 18.41 12.1596 18.5005 11.9322 18.5005C11.7048 18.5005 11.4868 18.41 11.3262 18.2491L4.46921 11.3921C4.30824 11.2315 4.21777 11.0134 4.21777 10.7861C4.21777 10.5587 4.30824 10.3406 4.46921 10.1801C4.6298 10.0191 4.84783 9.92862 5.07521 9.92862C5.30258 9.92862 5.52062 10.0191 5.68121 10.1801L11.9322 16.4311L18.1832 10.1801C18.3439 10.0193 18.5619 9.92903 18.7892 9.92903C19.0165 9.92903 19.2345 10.0193 19.3952 10.1801C19.5561 10.3407 19.6464 10.5587 19.6462 10.7861C19.6464 11.0134 19.5561 11.2315 19.3952 11.3921Z" fill="#999999"/>
</svg>
