<svg width="32" height="32" viewBox="0 0 32 32" fill="none" xmlns="http://www.w3.org/2000/svg">
<path d="M16 3C13.4288 3 10.9154 3.76244 8.77759 5.1909C6.63975 6.61935 4.97351 8.64968 3.98957 11.0251C3.00563 13.4006 2.74819 16.0144 3.2498 18.5362C3.75141 21.0579 4.98953 23.3743 6.80762 25.1924C8.6257 27.0105 10.9421 28.2486 13.4638 28.7502C15.9856 29.2518 18.5995 28.9944 20.9749 28.0104C23.3503 27.0265 25.3807 25.3603 26.8091 23.2224C28.2376 21.0846 29 18.5712 29 16C28.9934 12.5542 27.6216 9.25145 25.1851 6.81491C22.7486 4.37837 19.4458 3.00661 16 3ZM20.55 16.8375L14.55 20.8375C14.3845 20.9399 14.1946 20.996 14 21C13.8351 20.9999 13.6725 20.9614 13.525 20.8875C13.3651 20.8012 13.2318 20.673 13.1393 20.5166C13.0468 20.3603 12.9986 20.1817 13 20V12C12.9986 11.8183 13.0468 11.6397 13.1393 11.4834C13.2318 11.327 13.3651 11.1988 13.525 11.1125C13.6855 11.0312 13.8644 10.9931 14.0441 11.0019C14.2238 11.0107 14.3982 11.066 14.55 11.1625L20.55 15.1625C20.6893 15.2534 20.8037 15.3775 20.8829 15.5238C20.9621 15.67 21.0036 15.8337 21.0036 16C21.0036 16.1663 20.9621 16.33 20.8829 16.4762C20.8037 16.6225 20.6893 16.7466 20.55 16.8375Z" fill="#1C1C1C"/>
</svg>
