<svg width="24" height="24" viewBox="0 0 24 24" fill="none" xmlns="http://www.w3.org/2000/svg">
<path fill-rule="evenodd" clip-rule="evenodd" d="M20.5607 20.5607C20.5607 20.5607 20.1213 21 19.5 21H4.5C4.5 21 3.87868 21 3.43934 20.5607C3.43934 20.5607 3 20.1213 3 19.5V6.75C3 6.63357 3.02711 6.51873 3.07918 6.41459L4.57918 3.41459C4.70622 3.1605 4.96592 3 5.25 3H18.75C19.0341 3 19.2938 3.1605 19.4208 3.41459L20.9208 6.41459C20.9729 6.51873 21 6.63357 21 6.75V19.5C21 19.5 21 20.1213 20.5607 20.5607ZM19.5 19.5V6.92705L18.2865 4.5H5.71353L4.5 6.92705V19.5H19.5Z" fill="#222222"/>
<path d="M15.7082 14.6024C15.8488 14.4618 15.9281 14.2708 15.9281 14.0718C15.9281 13.8729 15.8491 13.6822 15.7085 13.5415C15.5678 13.4009 15.377 13.3218 15.1781 13.3218C14.9792 13.3218 14.7885 13.4009 14.6478 13.5415L12 16.1893L9.3523 13.5416C9.21156 13.4009 9.0208 13.3218 8.82188 13.3218C8.62297 13.3218 8.43221 13.4009 8.29155 13.5415C8.1509 13.6822 8.07188 13.8729 8.07188 14.0718C8.07188 14.2708 8.1509 14.4615 8.29155 14.6022L11.4697 17.7803C11.7626 18.0732 12.2374 18.0732 12.5303 17.7803L15.7082 14.6024Z" fill="#222222"/>
<path d="M11.25 9.75V17.25C11.25 17.6642 11.5858 18 12 18C12.4142 18 12.75 17.6642 12.75 17.25V9.75C12.75 9.33579 12.4142 9 12 9C11.5858 9 11.25 9.33579 11.25 9.75Z" fill="#222222"/>
<path d="M3.75 7.5H20.25C20.6642 7.5 21 7.16421 21 6.75C21 6.33579 20.6642 6 20.25 6H3.75C3.33579 6 3 6.33579 3 6.75C3 7.16421 3.33579 7.5 3.75 7.5Z" fill="#222222"/>
</svg>
