<svg width="14" height="16" viewBox="0 0 14 16" fill="none" xmlns="http://www.w3.org/2000/svg">
<path fill-rule="evenodd" clip-rule="evenodd" d="M10 6.85352C10 9.06265 8.20914 10.8535 6 10.8535C3.79086 10.8535 2 9.06265 2 6.85352C2 4.64438 3.79086 2.85352 6 2.85352C8.20914 2.85352 10 4.64438 10 6.85352ZM9.12362 11.9773C8.21375 12.5332 7.14428 12.8535 6 12.8535C2.68629 12.8535 0 10.1672 0 6.85352C0 3.53981 2.68629 0.853516 6 0.853516C9.31371 0.853516 12 3.53981 12 6.85352C12 8.29946 11.4885 9.62593 10.6366 10.6619L13.4142 13.4395C13.8047 13.83 13.8047 14.4631 13.4142 14.8537C13.0237 15.2442 12.3905 15.2442 12 14.8537L9.12362 11.9773Z" fill="black"/>
</svg>
