<svg width="32" height="32" viewBox="0 0 32 32" fill="none" xmlns="http://www.w3.org/2000/svg">
<path fill-rule="evenodd" clip-rule="evenodd" d="M22 8H26C26.5305 8 27.0391 8.21072 27.4143 8.58578C27.7893 8.96085 28 9.46957 28 10V24C28 24.5304 27.7893 25.0392 27.4143 25.4142C27.0391 25.7893 26.5305 26 26 26H6C5.46948 26 4.96094 25.7893 4.58569 25.4142C4.21069 25.0392 4 24.5304 4 24V10C4 9.46957 4.21069 8.96085 4.58569 8.58578C4.96094 8.21072 5.46948 8 6 8H10L12 5H20L22 8ZM13.5 20.2416C14.24 20.7361 15.1099 21 16 21C17.1934 21 18.3381 20.5259 19.1819 19.682C20.0259 18.8381 20.5 17.6935 20.5 16.5C20.5 15.61 20.2361 14.74 19.7417 13.9999C19.2471 13.2599 18.5444 12.6831 17.7222 12.3425C16.8999 12.002 15.9951 11.9128 15.1221 12.0865C14.2493 12.2601 13.4473 12.6887 12.8181 13.318C12.1887 13.9474 11.76 14.7492 11.5864 15.6221C11.4128 16.495 11.502 17.3998 11.8425 18.2221C12.1831 19.0443 12.76 19.7471 13.5 20.2416Z" fill="#F4F5F7"/>
<path fill-rule="evenodd" clip-rule="evenodd" d="M28.1213 26.1213C28.1213 26.1213 27.2426 27 26 27H6C6 27 4.75736 27 3.87868 26.1213C3.87868 26.1213 3 25.2426 3 24V10C3 10 3 8.75736 3.87868 7.87868C3.87868 7.87868 4.75736 7 6 7H9.46482L11.1679 4.4453C11.3534 4.1671 11.6656 4 12 4H20C20.3344 4 20.6466 4.1671 20.8321 4.4453L22.5352 7H26C26 7 27.2426 7 28.1213 7.87868C28.1213 7.87868 29 8.75736 29 10V24C29 24 29 25.2426 28.1213 26.1213ZM26.7071 24.7071C26.7071 24.7071 27 24.4142 27 24V10C27 10 27 9.58579 26.7071 9.29289C26.7071 9.29289 26.4142 9 26 9H22C21.6656 9 21.3534 8.8329 21.1679 8.5547L19.4648 6H12.5352L10.8321 8.5547C10.6466 8.8329 10.3344 9 10 9H6C6 9 5.58579 9 5.29289 9.29289C5.29289 9.29289 5 9.58579 5 10V24C5 24 5 24.4142 5.29289 24.7071C5.29289 24.7071 5.58579 25 6 25H26C26 25 26.4142 25 26.7071 24.7071Z" fill="#2D3338"/>
<path fill-rule="evenodd" clip-rule="evenodd" d="M16 11C16 11 18.2782 11 19.8891 12.6109C19.8891 12.6109 21.5 14.2218 21.5 16.5C21.5 16.5 21.5 18.7782 19.8891 20.3891C19.8891 20.3891 18.2782 22 16 22C16 22 13.7218 22 12.1109 20.3891C12.1109 20.3891 10.5 18.7782 10.5 16.5C10.5 16.5 10.5 14.2218 12.1109 12.6109C12.1109 12.6109 13.7218 11 16 11ZM16 13C16 13 14.5503 13 13.5251 14.0251C13.5251 14.0251 12.5 15.0503 12.5 16.5C12.5 16.5 12.5 17.9497 13.5251 18.9749C13.5251 18.9749 14.5503 20 16 20C16 20 17.4497 20 18.4749 18.9749C18.4749 18.9749 19.5 17.9497 19.5 16.5C19.5 16.5 19.5 15.0503 18.4749 14.0251C18.4749 14.0251 17.4497 13 16 13Z" fill="#2D3338"/>
</svg>
