<svg width="22" height="24" viewBox="0 0 22 24" fill="none" xmlns="http://www.w3.org/2000/svg">
<path d="M17.1875 7.5H14.2266V4.875C14.2266 3.78098 13.8453 2.73177 13.1666 1.95818C12.488 1.1846 11.5675 0.75 10.6077 0.75C9.6479 0.75 8.72741 1.1846 8.04874 1.95818C7.37007 2.73177 6.98879 3.78098 6.98879 4.875V7.5H4.02788C3.67886 7.5 3.34414 7.65804 3.09735 7.93934C2.85056 8.22064 2.71191 8.60218 2.71191 9V19.5C2.71191 19.8978 2.85056 20.2794 3.09735 20.5607C3.34414 20.842 3.67886 21 4.02788 21H17.1875C17.5365 21 17.8712 20.842 18.118 20.5607C18.3648 20.2794 18.5035 19.8978 18.5035 19.5V9C18.5035 8.60218 18.3648 8.22064 18.118 7.93934C17.8712 7.65804 17.5365 7.5 17.1875 7.5ZM10.6077 15.375C10.4125 15.375 10.2217 15.309 10.0594 15.1854C9.89705 15.0618 9.77054 14.8861 9.69584 14.6805C9.62114 14.475 9.6016 14.2488 9.63968 14.0305C9.67776 13.8123 9.77176 13.6118 9.90979 13.4545C10.0478 13.2972 10.2237 13.19 10.4151 13.1466C10.6066 13.1032 10.805 13.1255 10.9854 13.2106C11.1657 13.2958 11.3199 13.44 11.4283 13.625C11.5368 13.81 11.5947 14.0275 11.5947 14.25C11.5947 14.5484 11.4907 14.8345 11.3056 15.0455C11.1205 15.2565 10.8694 15.375 10.6077 15.375ZM12.9106 7.5H8.30475V4.875C8.30475 4.17881 8.54738 3.51113 8.97927 3.01884C9.41115 2.52656 9.99691 2.25 10.6077 2.25C11.2185 2.25 11.8042 2.52656 12.2361 3.01884C12.668 3.51113 12.9106 4.17881 12.9106 4.875V7.5Z" fill="#999999"/>
</svg>
