<svg width="24" height="24" viewBox="0 0 24 24" fill="none" xmlns="http://www.w3.org/2000/svg">
<g opacity="0.9">
<path d="M15.2929 12.0003L9.64688 6.3573C9.55315 6.26354 9.50049 6.13638 9.50049 6.0038C9.50049 5.87122 9.55315 5.74406 9.64688 5.6503C9.74064 5.55656 9.8678 5.50391 10.0004 5.50391C10.133 5.50391 10.2601 5.55656 10.3539 5.6503L16.3539 11.6503C16.4476 11.7441 16.5003 11.8712 16.5003 12.0038C16.5003 12.1364 16.4476 12.2635 16.3539 12.3573L10.3539 18.3573C10.3074 18.4039 10.2523 18.4408 10.1915 18.4661C10.1308 18.4913 10.0657 18.5043 9.99988 18.5043C9.86738 18.504 9.74042 18.4511 9.64688 18.3573C9.55315 18.2635 9.50049 18.1364 9.50049 18.0038C9.50049 17.8712 9.55315 17.7441 9.64688 17.6503L15.2929 12.0003Z" fill="black"/>
</g>
</svg>
