<svg width="24" height="24" viewBox="0 0 24 24" fill="none" xmlns="http://www.w3.org/2000/svg">
<g opacity="0.9">
<path d="M8.7074 12.0004L14.3534 6.35339C14.4471 6.25963 14.4998 6.13248 14.4998 5.99989C14.4998 5.86731 14.4471 5.74016 14.3534 5.64639C14.2596 5.55266 14.1325 5.5 13.9999 5.5C13.8673 5.5 13.7402 5.55266 13.6464 5.64639L7.64641 11.6464C7.55267 11.7402 7.5 11.8673 7.5 11.9999C7.5 12.1325 7.55267 12.2596 7.64641 12.3534L13.6464 18.3534C13.6928 18.4 13.748 18.4369 13.8088 18.4622C13.8695 18.4874 13.9346 18.5004 14.0004 18.5004C14.1329 18.5001 14.2599 18.4472 14.3534 18.3534C14.4471 18.2596 14.4998 18.1325 14.4998 17.9999C14.4998 17.8673 14.4471 17.7402 14.3534 17.6464L8.7074 12.0004Z" fill="#111111"/>
</g>
</svg>
