<svg width="48" height="48" viewBox="0 0 48 48" fill="none" xmlns="http://www.w3.org/2000/svg">
<path d="M24.5062 16.5H40.5V19.5C40.5 20.3284 41.1716 21 42 21C42.8284 21 43.5 20.3284 43.5 19.5V16.5C43.5 15.2574 42.6213 14.3787 42.6213 14.3787C41.7426 13.5 40.5 13.5 40.5 13.5H24.5062L19.2924 9.59896C18.4924 9.00409 17.4999 9.00001 17.4999 9.00001L7.5 9C6.25736 9 5.37868 9.87868 5.37868 9.87868C4.5 10.7574 4.5 12 4.5 12V37.5C4.5 38.7426 5.37868 39.6213 5.37868 39.6213C6.25736 40.5 7.5 40.5 7.5 40.5H21C21.8284 40.5 22.5 39.8284 22.5 39C22.5 38.1716 21.8284 37.5 21 37.5H7.5V12L17.4876 12C17.4937 12 17.4951 12.001 17.4951 12.001L22.7112 15.9037C23.5076 16.4959 24.5062 16.5 24.5062 16.5Z" fill="#0965EE"/>
<path fill-rule="evenodd" clip-rule="evenodd" d="M27 39V30.75C27 29.9216 27.6716 29.25 28.5 29.25H42C42.8284 29.25 43.5 29.9216 43.5 30.75V39C43.5 39.8284 42.8284 40.5 42 40.5H28.5C27.6716 40.5 27 39.8284 27 39ZM40.5 37.5H30V32.25H40.5V37.5Z" fill="#0965EE"/>
<path d="M37.5 28.5V30.75C37.5 31.5784 38.1716 32.25 39 32.25C39.8284 32.25 40.5 31.5784 40.5 30.75V28.5C40.5 26.3254 38.9623 24.7877 38.9623 24.7877C37.4246 23.25 35.25 23.25 35.25 23.25C33.0754 23.25 31.5377 24.7877 31.5377 24.7877C30 26.3254 30 28.5 30 28.5V30.75C30 31.5784 30.6716 32.25 31.5 32.25C32.3284 32.25 33 31.5784 33 30.75V28.5C33 27.568 33.659 26.909 33.659 26.909C34.318 26.25 35.25 26.25 35.25 26.25C36.182 26.25 36.841 26.909 36.841 26.909C37.5 27.568 37.5 28.5 37.5 28.5Z" fill="#0965EE"/>
</svg>
