<svg width="18" height="19" viewBox="0 0 18 19" fill="none" xmlns="http://www.w3.org/2000/svg">
<path d="M15.6556 14.7732L17.03 17.1999C15.8703 18.2307 14.1523 18.875 12.649 18.875C10.5444 18.875 8.76197 17.565 7.79557 15.4604C3.30721 15.2886 0 12.0458 0 7.75072C0 3.36974 3.47902 0.126953 8.13918 0.126953C12.7993 0.126953 16.2784 3.39122 16.2784 7.75072C16.2784 11.0794 14.3026 13.7638 11.3175 14.902C11.833 15.5033 12.4128 15.8899 13.0785 15.8899C13.7657 15.8899 14.7321 15.4604 15.6556 14.7732ZM4.03738 7.7722C4.03738 10.2204 5.94869 12.1102 8.18213 12.1102C10.437 12.1102 12.241 10.2204 12.241 7.7722C12.241 5.324 10.437 3.47712 8.18213 3.47712C5.92721 3.47712 4.03738 5.324 4.03738 7.7722Z" fill="#0965EE"/>
</svg>
