<svg width="16" height="17" viewBox="0 0 16 17" fill="none" xmlns="http://www.w3.org/2000/svg">
<path d="M12.0834 14.6113C10.8747 15.4189 9.45369 15.85 8 15.85C6.05066 15.85 4.18116 15.0756 2.80276 13.6972C1.42437 12.3188 0.65 10.4493 0.65 8.5C0.65 7.04631 1.08107 5.62526 1.8887 4.41656C2.69633 3.20786 3.84424 2.26579 5.18728 1.70949C6.53031 1.15318 8.00815 1.00763 9.43391 1.29123C10.8597 1.57483 12.1693 2.27485 13.1972 3.30277C14.2251 4.33068 14.9252 5.64033 15.2088 7.06609C15.4924 8.49185 15.3468 9.96969 14.7905 11.3127C14.2342 12.6558 13.2921 13.8037 12.0834 14.6113Z" stroke="#DF0D0D" stroke-width="1.3"/>
<line x1="8.2168" y1="3.70117" x2="8.2168" y2="10.1012" stroke="#DF0D0D" stroke-width="1.5"/>
<line x1="8.2168" y1="11.166" x2="8.2168" y2="13.2993" stroke="#DF0D0D" stroke-width="1.5"/>
</svg>
