<svg width="32" height="32" viewBox="0 0 32 32" fill="none" xmlns="http://www.w3.org/2000/svg">
<path fill-rule="evenodd" clip-rule="evenodd" d="M7 5C7 5 7 3.75736 7.87868 2.87868C7.87868 2.87868 8.75736 2 10 2H22C22 2 23.2426 2 24.1213 2.87868C24.1213 2.87868 25 3.75736 25 5V27C25 27 25 28.2426 24.1213 29.1213C24.1213 29.1213 23.2426 30 22 30H10C10 30 8.75736 30 7.87868 29.1213C7.87868 29.1213 7 28.2426 7 27V5ZM9 5L9 27C9 27 9 27.4142 9.29289 27.7071C9.29289 27.7071 9.58579 28 10 28H22C22 28 22.4142 28 22.7071 27.7071C22.7071 27.7071 23 27.4142 23 27V5C23 5 23 4.58579 22.7071 4.29289C22.7071 4.29289 22.4142 4 22 4L10 4C10 4 9.58579 4 9.29289 4.29289C9.29289 4.29289 9 4.58579 9 5Z" fill="black"/>
<path d="M8 8H24C24.5523 8 25 7.55228 25 7C25 6.44772 24.5523 6 24 6H8C7.44772 6 7 6.44772 7 7C7 7.55228 7.44772 8 8 8Z" fill="black"/>
<path d="M8 26H24C24.5523 26 25 25.5523 25 25C25 24.4477 24.5523 24 24 24H8C7.44772 24 7 24.4477 7 25C7 25.5523 7.44772 26 8 26Z" fill="black"/>
</svg>
