<svg width="48" height="48" viewBox="0 0 48 48" fill="none" xmlns="http://www.w3.org/2000/svg">
<path fill-rule="evenodd" clip-rule="evenodd" d="M6 28.5C6 28.5 6 27.2574 6.87868 26.3787C6.87868 26.3787 7.75736 25.5 9 25.5H39C39 25.5 40.2426 25.5 41.1213 26.3787C41.1213 26.3787 42 27.2574 42 28.5V37.5C42 37.5 42 38.7426 41.1213 39.6213C41.1213 39.6213 40.2426 40.5 39 40.5H9C9 40.5 7.75736 40.5 6.87868 39.6213C6.87868 39.6213 6 38.7426 6 37.5V28.5ZM9 28.5V37.5L39 37.5V28.5H9Z" fill="#0965EE"/>
<path fill-rule="evenodd" clip-rule="evenodd" d="M6 10.5C6 10.5 6 9.25736 6.87868 8.37868C6.87868 8.37868 7.75736 7.5 9 7.5H39C39 7.5 40.2426 7.5 41.1213 8.37868C41.1213 8.37868 42 9.25736 42 10.5V19.5C42 19.5 42 20.7426 41.1213 21.6213C41.1213 21.6213 40.2426 22.5 39 22.5H9C9 22.5 7.75736 22.5 6.87868 21.6213C6.87868 21.6213 6 20.7426 6 19.5V10.5ZM9 10.5V19.5L39 19.5V10.5H9Z" fill="#0965EE"/>
<path d="M36 15C36 16.2426 34.9926 17.25 33.75 17.25C32.5074 17.25 31.5 16.2426 31.5 15C31.5 13.7574 32.5074 12.75 33.75 12.75C34.9926 12.75 36 13.7574 36 15Z" fill="#0965EE"/>
<path d="M36 33C36 34.2426 34.9926 35.25 33.75 35.25C32.5074 35.25 31.5 34.2426 31.5 33C31.5 31.7574 32.5074 30.75 33.75 30.75C34.9926 30.75 36 31.7574 36 33Z" fill="#0965EE"/>
</svg>
