<svg width="48" height="49" viewBox="0 0 48 49" fill="none" xmlns="http://www.w3.org/2000/svg">
<path d="M6 26.2744H15C15.8284 26.2744 16.5 25.6028 16.5 24.7744C16.5 23.946 15.8284 23.2744 15 23.2744H6C4.75736 23.2744 3.87868 24.1531 3.87868 24.1531C3 25.0318 3 26.2744 3 26.2744V38.2744C3 39.5171 3.87868 40.3957 3.87868 40.3957C4.75736 41.2744 6 41.2744 6 41.2744H42C43.2426 41.2744 44.1213 40.3957 44.1213 40.3957C45 39.5171 45 38.2744 45 38.2744V26.2744C45 25.0318 44.1213 24.1531 44.1213 24.1531C43.2426 23.2744 42 23.2744 42 23.2744H33C32.1716 23.2744 31.5 23.946 31.5 24.7744C31.5 25.6028 32.1716 26.2744 33 26.2744H42V38.2744H6V26.2744Z" fill="#0965EE"/>
<path d="M22.5 5.27441V24.7744C22.5 25.6028 23.1716 26.2744 24 26.2744C24.8284 26.2744 25.5 25.6028 25.5 24.7744V5.27441C25.5 4.44599 24.8284 3.77441 24 3.77441C23.1716 3.77441 22.5 4.44599 22.5 5.27441Z" fill="#0965EE"/>
<path d="M34.0601 16.8356C34.3414 16.5543 34.5 16.1722 34.5 15.7744C34.5 15.3766 34.342 14.9951 34.0607 14.7138C33.7794 14.4324 33.3978 14.2744 33 14.2744C32.6022 14.2744 32.2206 14.4324 31.9393 14.7138L24 22.6531L16.0608 14.7139C15.7794 14.4324 15.3978 14.2744 15 14.2744C14.6022 14.2744 14.2206 14.4324 13.9393 14.7138C13.658 14.9951 13.5 15.3766 13.5 15.7744C13.5 16.1722 13.658 16.5538 13.9393 16.8351L22.9393 25.8351C23.2206 26.1164 23.6022 26.2744 24 26.2744C24.3978 26.2744 24.7794 26.1164 25.0607 25.8351L34.0601 16.8356Z" fill="#0965EE"/>
<path d="M37.5 32.2744C37.5 33.517 36.4926 34.5244 35.25 34.5244C34.0074 34.5244 33 33.517 33 32.2744C33 31.0319 34.0074 30.0244 35.25 30.0244C36.4926 30.0244 37.5 31.0319 37.5 32.2744Z" fill="#0965EE"/>
</svg>
