<svg width="636" height="496" viewBox="0 0 636 496" fill="none" xmlns="http://www.w3.org/2000/svg">
<g filter="url(#filter0_d_1597_15795)">
<rect x="18" y="39.3359" width="260" height="305" rx="8" fill="white"/>
</g>
<path d="M42.1016 54.1523V66.5938H40.4199V60.2637H39.2852V66.0469H37.6582V54.4805H39.2852V58.8691H40.4199V54.1523H42.1016ZM36.7832 55.6836C36.7695 59.1562 35.7305 62 32.2305 64.0371L31.2188 62.834C33.7549 61.3438 34.8418 59.5186 35.0879 57.0781H31.8477V55.6836H36.7832ZM53.8867 54.166V63.1074H52.1367V54.166H53.8867ZM54.2148 64.9805V66.375H45.5469V62.2051H47.3105V64.9805H54.2148ZM47.0645 54.959C48.9785 54.959 50.4688 56.2715 50.4688 58.0898C50.4688 59.9492 48.9785 61.248 47.0645 61.248C45.1504 61.248 43.6602 59.9492 43.6602 58.0898C43.6602 56.2715 45.1504 54.959 47.0645 54.959ZM47.0645 56.4766C46.0938 56.4629 45.3555 57.0781 45.3691 58.0898C45.3555 59.1289 46.0938 59.7305 47.0645 59.7305C48.0078 59.7305 48.7461 59.1289 48.7461 58.0898C48.7461 57.0781 48.0078 56.4629 47.0645 56.4766ZM66.0547 54.1523V61.5352H64.3184V58.5957H62.377V57.1875H64.3184V54.1523H66.0547ZM61.8027 61.8086C64.4551 61.8223 66.082 62.6973 66.0957 64.2148C66.082 65.7188 64.4551 66.6074 61.8027 66.6074C59.1504 66.6074 57.5234 65.7188 57.5234 64.2148C57.5234 62.6973 59.1504 61.8223 61.8027 61.8086ZM61.8027 63.1484C60.1484 63.1484 59.2598 63.4902 59.2598 64.2148C59.2598 64.9258 60.1484 65.2812 61.8027 65.2812C63.457 65.2812 64.3594 64.9258 64.3594 64.2148C64.3594 63.4902 63.457 63.1484 61.8027 63.1484ZM62.7461 54.9043V56.2988H60.2715C60.3125 57.748 61.1875 59.2109 63.1289 59.8535L62.2676 61.2207C60.8936 60.7764 59.9502 59.874 59.4102 58.7461C58.8564 60.0176 57.8652 61.043 56.3887 61.5488L55.4863 60.168C57.5303 59.4844 58.4463 57.8574 58.4941 56.2988H55.9922V54.9043H62.7461ZM79.0566 63.7227V65.1445H67.668V63.7227H72.4668V61.4258H68.8711V54.9453H70.6211V56.873H76.0488V54.9453H77.7852V61.4258H74.2031V63.7227H79.0566ZM70.6211 60.0312H76.0488V58.2676H70.6211V60.0312ZM93.4805 54.1523V60.9609H91.7441V58.3633H89.7754V56.9414H91.7441V54.1523H93.4805ZM86.9043 61.4395V62.6152H91.7441V61.4395H93.4805V66.457H85.1816V61.4395H86.9043ZM86.9043 65.0625H91.7441V63.9551H86.9043V65.0625ZM90.1719 54.7129V56.1348H87.7109C87.7793 57.5225 88.668 58.9648 90.5547 59.5801L89.6934 60.9199C88.3125 60.4619 87.3623 59.5732 86.8223 58.4453C86.2754 59.6963 85.2842 60.7012 83.8145 61.1797L82.9258 59.8125C84.8809 59.1631 85.8174 57.6523 85.9199 56.1348H83.418V54.7129H90.1719ZM106.441 60.209V61.6035H95.0938V60.209H99.8926V58.5547H101.615V60.209H106.441ZM101.643 54.7676C101.643 56.2168 103.037 57.5977 105.84 57.9395L105.17 59.293C103.071 58.9785 101.526 58.0967 100.74 56.8457C99.9404 58.0967 98.3955 58.9854 96.2969 59.293L95.6816 57.9395C98.4297 57.5977 99.8652 56.1758 99.8652 54.7676V54.3574H101.643V54.7676ZM105.061 62.4785V66.5938H103.324V63.832H96.3516V62.4785H105.061ZM117.652 54.1523V66.5938H115.889V54.1523H117.652ZM113.92 55.4512C113.92 59.2246 112.594 62.3555 108.15 64.4609L107.234 63.0664C110.447 61.5488 111.862 59.5801 112.143 56.8184H107.904V55.4512H113.92ZM130.668 60.8242V62.2188H119.279V60.8242H124.105V59.9219H120.701V56.5039H127.537V55.7383H120.674V54.3848H129.287V57.7617H122.438V58.582H129.52V59.9219H125.842V60.8242H130.668ZM129.355 62.9297V66.5391H127.592V64.2969H120.551V62.9297H129.355ZM145.994 60.5371V61.9043H141.305V63.9141H139.582V61.9043H134.605V60.5371H145.994ZM144.736 64.9805V66.375H135.945V62.9297H137.668V64.9805H144.736ZM137.791 54.5488V55.8477H142.781V54.5488H144.518V59.6621H136.068V54.5488H137.791ZM137.791 58.2812H142.781V57.1465H137.791V58.2812ZM151.381 56.0938C151.367 57.6387 152.242 59.1426 154.211 59.7715L153.281 61.1523C151.941 60.7012 151.032 59.8057 150.506 58.6777C149.952 59.9082 148.988 60.8721 147.58 61.3711L146.637 59.9766C148.715 59.3066 149.604 57.6797 149.617 55.9844V54.7949H151.381V56.0938ZM157.205 62.123V66.5938H155.469V63.5039H148.66V62.123H157.205ZM157.205 54.1523V61.5625H155.469V57.8984H153.131V56.4629H155.469V54.1523H157.205Z" fill="black"/>
<rect x="32" y="81.3359" width="234" height="16" rx="2" fill="#0965EE"/>
<rect x="32" y="101.336" width="47" height="12" rx="2" fill="#EEEEEE"/>
<rect x="82" y="101.336" width="121" height="12" rx="2" fill="#EEEEEE"/>
<rect x="206" y="101.336" width="60" height="12" rx="2" fill="#EEEEEE"/>
<rect x="32" y="115.336" width="47" height="12" rx="2" fill="#EEEEEE"/>
<rect x="82" y="115.336" width="121" height="12" rx="2" fill="#EEEEEE"/>
<rect x="206" y="115.336" width="60" height="12" rx="2" fill="#EEEEEE"/>
<rect x="32" y="129.336" width="47" height="12" rx="2" fill="#EEEEEE"/>
<rect x="82" y="129.336" width="121" height="12" rx="2" fill="#EEEEEE"/>
<rect x="206" y="129.336" width="60" height="12" rx="2" fill="#EEEEEE"/>
<rect x="32" y="143.336" width="47" height="12" rx="2" fill="#EEEEEE"/>
<rect x="82" y="143.336" width="121" height="12" rx="2" fill="#EEEEEE"/>
<rect x="206" y="143.336" width="60" height="12" rx="2" fill="#EEEEEE"/>
<rect x="32" y="157.336" width="47" height="12" rx="2" fill="#EEEEEE"/>
<rect x="82" y="157.336" width="121" height="12" rx="2" fill="#EEEEEE"/>
<rect x="206" y="157.336" width="60" height="12" rx="2" fill="#EEEEEE"/>
<rect x="32" y="171.336" width="47" height="12" rx="2" fill="#EEEEEE"/>
<rect x="82" y="171.336" width="121" height="12" rx="2" fill="#EEEEEE"/>
<rect x="206" y="171.336" width="60" height="12" rx="2" fill="#EEEEEE"/>
<rect x="32" y="185.336" width="47" height="12" rx="2" fill="#EEEEEE"/>
<rect x="82" y="185.336" width="121" height="12" rx="2" fill="#EEEEEE"/>
<rect x="206" y="185.336" width="60" height="12" rx="2" fill="#EEEEEE"/>
<rect x="32" y="199.336" width="47" height="12" rx="2" fill="#EEEEEE"/>
<rect x="82" y="199.336" width="121" height="12" rx="2" fill="#EEEEEE"/>
<rect x="206" y="199.336" width="60" height="12" rx="2" fill="#EEEEEE"/>
<path d="M39.7539 226.357V231.475H38.5137V230.605H36.5117V229.609H38.5137V228.76H36.5996C36.0479 230.166 34.7881 231.133 32.8301 231.67L32.3418 230.684C34.3877 230.146 35.3887 229.17 35.5645 227.949H32.8203V226.953H36.9219C36.9219 227.241 36.9023 227.52 36.8633 227.783H38.5137V226.357H39.7539ZM36.7949 231.582C38.6016 231.582 39.8125 232.275 39.8223 233.379C39.8125 234.492 38.6016 235.195 36.7949 235.195C34.9688 235.195 33.748 234.492 33.7578 233.379C33.748 232.275 34.9688 231.582 36.7949 231.582ZM36.7949 232.559C35.6719 232.549 34.998 232.832 34.998 233.379C34.998 233.926 35.6719 234.209 36.7949 234.209C37.8984 234.209 38.5723 233.926 38.5723 233.379C38.5723 232.832 37.8984 232.549 36.7949 232.559ZM49.041 233.184V234.199H40.9062V233.184H44.334V231.543H41.7656V226.914H43.0156V228.291H46.8926V226.914H48.1328V231.543H45.5742V233.184H49.041ZM43.0156 230.547H46.8926V229.287H43.0156V230.547ZM59.9785 230.41V231.426H51.8535V230.41H59.9785ZM59.0508 228.799V229.785H52.8398V226.582H59.002V227.588H54.0801V228.799H59.0508ZM55.8965 231.963C57.8203 231.963 58.9824 232.549 58.9922 233.594C58.9824 234.648 57.8203 235.234 55.8965 235.234C53.9531 235.234 52.7812 234.648 52.7812 233.594C52.7812 232.549 53.9531 231.963 55.8965 231.963ZM55.8965 232.91C54.666 232.91 54.041 233.145 54.0508 233.594C54.041 234.062 54.666 234.287 55.8965 234.287C57.0977 234.287 57.7324 234.062 57.7422 233.594C57.7324 233.145 57.0977 232.91 55.8965 232.91ZM62.6934 231.406V232.354H66.3945V231.406H67.625V235.137H61.4727V231.406H62.6934ZM62.6934 234.131H66.3945V233.301H62.6934V234.131ZM67.6641 226.709V227.422C67.6641 228.096 67.6641 228.818 67.459 229.824H68.6309V230.82H60.4961V229.824H66.2188C66.3945 228.965 66.4189 228.296 66.4238 227.705H61.4922V226.709H67.6641ZM76.6289 226.348V230.918H75.3887V230.029H73.748V230.664H69.5195V226.729H70.7695V227.764H72.5176V226.729H73.748V227.48H75.3887V226.348H76.6289ZM76.6289 231.25V233.623H71.9707V234.16H76.8926V235.137H70.7207V232.715H75.3887V232.207H70.7109V231.25H76.6289ZM70.7695 229.688H72.5176V228.711H70.7695V229.688ZM73.748 229.092H75.3887V228.408H73.748V229.092ZM81.5898 226.748V227.803H83.4062V226.748H84.6562V230.625H80.3496V226.748H81.5898ZM81.5898 229.648H83.4062V228.74H81.5898V229.648ZM87.1367 226.348V228.076H88.3379V229.082H87.1367V230.869H85.8867V226.348H87.1367ZM87.1367 231.201V233.613H82.4785V234.189H87.3906V235.176H81.2578V232.725H85.8965V232.168H81.2383V231.201H87.1367ZM91.5703 227.93C91.5703 228.887 92.0684 229.844 93.25 230.293L92.5859 231.24C91.8291 230.952 91.3066 230.425 90.9844 229.766C90.6621 230.537 90.1055 231.182 89.2754 231.523L88.6016 230.566C89.8516 230.02 90.3594 228.926 90.3594 227.93V226.885H91.5703V227.93ZM96.3652 226.357V231.787H95.1836V229.531H94.4414V231.514H93.2793V226.514H94.4414V228.525H95.1836V226.357H96.3652ZM93.3281 231.914C95.2031 231.914 96.4043 232.539 96.4141 233.574C96.4043 234.609 95.2031 235.234 93.3281 235.234C91.4434 235.234 90.252 234.609 90.252 233.574C90.252 232.539 91.4434 231.914 93.3281 231.914ZM93.3281 232.842C92.166 232.842 91.4922 233.096 91.502 233.574C91.4922 234.053 92.166 234.297 93.3281 234.297C94.4805 234.297 95.1543 234.053 95.1543 233.574C95.1543 233.096 94.4805 232.842 93.3281 232.842ZM104.861 226.357V233.125H103.621V231.445H102.42V230.459H103.621V229.57H102.42V228.564H103.621V226.357H104.861ZM102.332 227.285V228.271H97.3906V227.285H99.3047V226.338H100.545V227.285H102.332ZM99.9102 228.584C101.131 228.584 102.01 229.307 102.02 230.332C102.01 231.357 101.131 232.07 99.9102 232.07C98.6992 232.07 97.8203 231.357 97.8301 230.332C97.8203 229.307 98.6992 228.584 99.9102 228.584ZM99.9102 229.551C99.3633 229.561 98.9824 229.834 98.9922 230.332C98.9824 230.84 99.3633 231.123 99.9102 231.123C100.447 231.123 100.838 230.84 100.848 230.332C100.838 229.834 100.447 229.561 99.9102 229.551ZM105.047 234.082V235.078H98.9434V232.549H100.203V234.082H105.047ZM113.123 226.357V228.877H114.256V229.902H113.123V232.354H111.873V226.357H113.123ZM110.125 232.432C112.049 232.422 113.152 232.93 113.152 233.838C113.152 234.756 112.049 235.244 110.125 235.244C108.191 235.244 107.088 234.756 107.088 233.838C107.088 232.93 108.191 232.422 110.125 232.432ZM110.125 233.33C108.895 233.33 108.328 233.496 108.338 233.838C108.328 234.17 108.895 234.336 110.125 234.336C111.336 234.336 111.893 234.17 111.902 233.838C111.893 233.496 111.336 233.33 110.125 233.33ZM105.916 231.172C106.565 231.172 107.303 231.167 108.074 231.143V230.625C107.103 230.493 106.502 230.044 106.512 229.385C106.502 228.594 107.361 228.115 108.689 228.115C110.008 228.115 110.857 228.594 110.867 229.385C110.857 230.044 110.271 230.493 109.314 230.625V231.104C110.042 231.064 110.774 231.006 111.463 230.918L111.551 231.758C109.666 232.09 107.615 232.109 106.043 232.109L105.916 231.172ZM111.238 226.982V227.9H106.15V226.982H108.074V226.279H109.314V226.982H111.238ZM108.689 228.926C108.055 228.926 107.693 229.092 107.703 229.385C107.693 229.697 108.055 229.854 108.689 229.854C109.314 229.854 109.666 229.697 109.676 229.385C109.666 229.092 109.314 228.926 108.689 228.926Z" fill="black"/>
<path d="M58 249.336H263.5" stroke="#EEEEEE" stroke-width="0.5"/>
<path d="M58 259.336H263.5" stroke="#EEEEEE" stroke-width="0.5"/>
<path d="M58 269.336H263.5" stroke="#EEEEEE" stroke-width="0.5"/>
<path d="M58 279.336H263.5" stroke="#EEEEEE" stroke-width="0.5"/>
<path d="M58 289.336H263.5" stroke="#EEEEEE" stroke-width="0.5"/>
<path d="M58 299.336H263.5" stroke="#EEEEEE" stroke-width="0.5"/>
<path d="M58 309.336H263.5" stroke="#EEEEEE" stroke-width="0.5"/>
<path d="M58 319.336H263.5" stroke="#EEEEEE" stroke-width="0.5"/>
<rect x="32" y="246.336" width="22" height="6" rx="1" fill="#EEEEEE"/>
<rect x="32" y="256.336" width="22" height="6" rx="1" fill="#EEEEEE"/>
<rect x="32" y="266.336" width="22" height="6" rx="1" fill="#EEEEEE"/>
<rect x="32" y="276.336" width="22" height="6" rx="1" fill="#EEEEEE"/>
<rect x="32" y="286.336" width="22" height="6" rx="1" fill="#EEEEEE"/>
<rect x="32" y="296.336" width="22" height="6" rx="1" fill="#EEEEEE"/>
<rect x="32" y="306.336" width="22" height="6" rx="1" fill="#EEEEEE"/>
<rect x="32" y="316.336" width="22" height="6" rx="1" fill="#EEEEEE"/>
<rect x="67" y="324.336" width="32" height="6" rx="1" fill="#EEEEEE"/>
<rect x="119" y="324.336" width="32" height="6" rx="1" fill="#EEEEEE"/>
<rect x="171" y="324.336" width="32" height="6" rx="1" fill="#EEEEEE"/>
<rect x="223" y="324.336" width="32" height="6" rx="1" fill="#EEEEEE"/>
<rect x="61" y="294.336" width="9" height="25" fill="#D9D9D9"/>
<rect x="72" y="289.336" width="10" height="30" fill="#D9D9D9"/>
<rect x="84" y="272.336" width="10" height="47" fill="#0965EE"/>
<rect x="96" y="279.336" width="9" height="40" fill="#D9D9D9"/>
<rect x="112" y="313.336" width="9" height="6" fill="#D9D9D9"/>
<rect x="123" y="312.336" width="10" height="7" fill="#D9D9D9"/>
<rect x="135" y="308.336" width="10" height="11" fill="#0965EE"/>
<rect x="147" y="310.336" width="9" height="9" fill="#D9D9D9"/>
<rect x="164" y="305.336" width="9" height="14" fill="#D9D9D9"/>
<rect x="175" y="303.336" width="10" height="16" fill="#D9D9D9"/>
<rect x="187" y="294.336" width="10" height="25" fill="#0965EE"/>
<rect x="199" y="299.336" width="9" height="20" fill="#D9D9D9"/>
<rect x="216" y="289.336" width="9" height="30" fill="#D9D9D9"/>
<rect x="227" y="284.336" width="10" height="35" fill="#D9D9D9"/>
<rect x="239" y="265.336" width="10" height="54" fill="#0965EE"/>
<rect x="251" y="276.336" width="9" height="43" fill="#D9D9D9"/>
<g filter="url(#filter1_d_1597_15795)">
<rect x="90" y="77.3359" width="260" height="355" rx="8" fill="white"/>
</g>
<path d="M114.102 92.1523V104.594H112.42V98.2637H111.285V104.047H109.658V92.4805H111.285V96.8691H112.42V92.1523H114.102ZM108.783 93.6836C108.77 97.1562 107.73 100 104.23 102.037L103.219 100.834C105.755 99.3438 106.842 97.5186 107.088 95.0781H103.848V93.6836H108.783ZM125.887 92.166V101.107H124.137V92.166H125.887ZM126.215 102.98V104.375H117.547V100.205H119.311V102.98H126.215ZM119.064 92.959C120.979 92.959 122.469 94.2715 122.469 96.0898C122.469 97.9492 120.979 99.248 119.064 99.248C117.15 99.248 115.66 97.9492 115.66 96.0898C115.66 94.2715 117.15 92.959 119.064 92.959ZM119.064 94.4766C118.094 94.4629 117.355 95.0781 117.369 96.0898C117.355 97.1289 118.094 97.7305 119.064 97.7305C120.008 97.7305 120.746 97.1289 120.746 96.0898C120.746 95.0781 120.008 94.4629 119.064 94.4766ZM138.055 92.1523V99.5352H136.318V96.5957H134.377V95.1875H136.318V92.1523H138.055ZM133.803 99.8086C136.455 99.8223 138.082 100.697 138.096 102.215C138.082 103.719 136.455 104.607 133.803 104.607C131.15 104.607 129.523 103.719 129.523 102.215C129.523 100.697 131.15 99.8223 133.803 99.8086ZM133.803 101.148C132.148 101.148 131.26 101.49 131.26 102.215C131.26 102.926 132.148 103.281 133.803 103.281C135.457 103.281 136.359 102.926 136.359 102.215C136.359 101.49 135.457 101.148 133.803 101.148ZM134.746 92.9043V94.2988H132.271C132.312 95.748 133.188 97.2109 135.129 97.8535L134.268 99.2207C132.894 98.7764 131.95 97.874 131.41 96.7461C130.856 98.0176 129.865 99.043 128.389 99.5488L127.486 98.168C129.53 97.4844 130.446 95.8574 130.494 94.2988H127.992V92.9043H134.746ZM151.057 101.723V103.145H139.668V101.723H144.467V99.4258H140.871V92.9453H142.621V94.873H148.049V92.9453H149.785V99.4258H146.203V101.723H151.057ZM142.621 98.0312H148.049V96.2676H142.621V98.0312ZM166.369 99.0703V100.479H163.703V104.594H161.926V100.479H159.383V104.594H157.592V100.479H154.98V99.0703H166.369ZM160.641 92.5625C163.307 92.5625 165.18 93.6699 165.18 95.3789C165.18 97.0605 163.307 98.1133 160.641 98.1133C157.975 98.1133 156.115 97.0605 156.129 95.3789C156.115 93.6699 157.975 92.5625 160.641 92.5625ZM160.641 93.957C158.973 93.957 157.906 94.4629 157.92 95.3789C157.906 96.2539 158.973 96.7461 160.641 96.7461C162.322 96.7461 163.375 96.2539 163.375 95.3789C163.375 94.4629 162.322 93.957 160.641 93.957ZM174.039 93.3008V94.6816H167.121V93.3008H169.801V92.043H171.537V93.3008H174.039ZM170.648 95.0918C172.357 95.1055 173.588 96.0488 173.602 97.4297C173.588 98.8242 172.357 99.7539 170.648 99.7402C168.926 99.7539 167.723 98.8242 167.736 97.4297C167.723 96.0488 168.926 95.1055 170.648 95.0918ZM170.648 96.3906C169.855 96.3906 169.35 96.7598 169.363 97.4297C169.35 98.0996 169.855 98.4551 170.648 98.4551C171.428 98.4551 171.975 98.0996 171.975 97.4297C171.975 96.7598 171.428 96.3906 170.648 96.3906ZM177.58 92.1523V100.082H175.844V98.7695H174.148V97.375H175.844V96.2812H174.176V94.8867H175.844V92.1523H177.58ZM173.355 100.232C175.994 100.232 177.648 101.039 177.648 102.42C177.648 103.773 175.994 104.594 173.355 104.594C170.703 104.594 169.062 103.773 169.062 102.42C169.062 101.039 170.703 100.232 173.355 100.232ZM173.355 101.545C171.77 101.559 170.895 101.832 170.895 102.42C170.895 102.98 171.77 103.281 173.355 103.281C174.914 103.281 175.775 102.98 175.775 102.42C175.775 101.832 174.914 101.559 173.355 101.545ZM189.68 92.1523V98.5508H187.943V97.3066H185.646V98.1953H179.727V92.6855H181.477V94.1348H183.924V92.6855H185.646V93.7383H187.943V92.1523H189.68ZM189.68 99.0156V102.338H183.158V103.09H190.049V104.457H181.408V101.066H187.943V100.355H181.395V99.0156H189.68ZM181.477 96.8281H183.924V95.4609H181.477V96.8281ZM185.646 95.9941H187.943V95.0371H185.646V95.9941ZM205.033 92.1523V104.621H203.283V98.332H201.041V96.9375H203.283V92.1523H205.033ZM199.182 96.0488C199.182 97.8535 200.166 99.8633 202.203 100.738L201.273 102.078C199.858 101.49 198.874 100.301 198.334 98.8789C197.787 100.39 196.81 101.661 195.381 102.27L194.465 100.93C196.461 100.041 197.432 97.9219 197.445 96.0488V95.5703H194.861V94.1758H197.445V92.4258H199.195V94.1758H201.711V95.5703H199.182V96.0488ZM217.051 92.1523V104.621H215.314V92.1523H217.051ZM213.195 93.1914V97.9902H209.094V100.273C210.987 100.267 212.601 100.157 214.426 99.8633L214.576 101.271C212.525 101.627 210.68 101.709 208.41 101.709H207.289V96.6094H211.418V94.5996H207.275V93.1914H213.195ZM229.205 92.166V101.641H227.469V99.2891H225.787V97.9082H227.469V96.6641H225.787V95.2559H227.469V92.166H229.205ZM225.664 93.4648V94.8457H218.746V93.4648H221.426V92.1387H223.162V93.4648H225.664ZM222.273 95.2832C223.982 95.2832 225.213 96.2949 225.227 97.7305C225.213 99.166 223.982 100.164 222.273 100.164C220.578 100.164 219.348 99.166 219.361 97.7305C219.348 96.2949 220.578 95.2832 222.273 95.2832ZM222.273 96.6367C221.508 96.6504 220.975 97.0332 220.988 97.7305C220.975 98.4414 221.508 98.8379 222.273 98.8379C223.025 98.8379 223.572 98.4414 223.586 97.7305C223.572 97.0332 223.025 96.6504 222.273 96.6367ZM229.465 102.98V104.375H220.92V100.834H222.684V102.98H229.465ZM240.771 92.166V95.6934H242.357V97.1289H240.771V100.561H239.021V92.166H240.771ZM236.574 100.67C239.268 100.656 240.812 101.367 240.812 102.639C240.812 103.924 239.268 104.607 236.574 104.607C233.867 104.607 232.322 103.924 232.322 102.639C232.322 101.367 233.867 100.656 236.574 100.67ZM236.574 101.928C234.852 101.928 234.059 102.16 234.072 102.639C234.059 103.104 234.852 103.336 236.574 103.336C238.27 103.336 239.049 103.104 239.062 102.639C239.049 102.16 238.27 101.928 236.574 101.928ZM230.682 98.9062C231.591 98.9062 232.623 98.8994 233.703 98.8652V98.1406C232.343 97.9561 231.502 97.3271 231.516 96.4043C231.502 95.2969 232.705 94.627 234.564 94.627C236.41 94.627 237.6 95.2969 237.613 96.4043C237.6 97.3271 236.779 97.9561 235.439 98.1406V98.8105C236.458 98.7559 237.483 98.6738 238.447 98.5508L238.57 99.7266C235.932 100.191 233.061 100.219 230.859 100.219L230.682 98.9062ZM238.133 93.041V94.3262H231.01V93.041H233.703V92.0566H235.439V93.041H238.133ZM234.564 95.7617C233.676 95.7617 233.17 95.9941 233.184 96.4043C233.17 96.8418 233.676 97.0605 234.564 97.0605C235.439 97.0605 235.932 96.8418 235.945 96.4043C235.932 95.9941 235.439 95.7617 234.564 95.7617ZM246.227 95.1328V93.4375H254.334V95.1328H251.299V103.336H249.262V95.1328H246.227ZM264.232 98.3867C264.232 101.613 262.223 103.473 259.611 103.473C256.973 103.473 254.977 101.6 254.977 98.3867C254.977 95.1602 256.973 93.3008 259.611 93.3008C262.223 93.3008 264.232 95.1602 264.232 98.3867ZM262.141 98.3867C262.141 96.2676 261.143 95.1191 259.611 95.1191C258.08 95.1191 257.068 96.2676 257.068 98.3867C257.068 100.506 258.08 101.654 259.611 101.654C261.143 101.654 262.141 100.506 262.141 98.3867ZM265.709 103.336V93.4375H269.592C271.848 93.4375 273.133 94.8184 273.133 96.7734C273.133 98.7559 271.82 100.109 269.537 100.109H267.76V103.336H265.709ZM267.76 98.4551H269.209C270.426 98.4551 271.014 97.7715 271.014 96.7734C271.014 95.7891 270.426 95.1191 269.209 95.1191H267.76V98.4551ZM277.604 103.336L277.59 101.846L281.145 98.5781C282.074 97.6895 282.566 97.1426 282.566 96.3633C282.566 95.4883 281.896 94.9414 280.994 94.9414C280.064 94.9414 279.463 95.5293 279.463 96.4727H277.508C277.494 94.5312 278.93 93.3008 281.021 93.3008C283.141 93.3008 284.549 94.5039 284.549 96.2266C284.549 97.3477 284.002 98.2773 281.965 100.123L280.461 101.586V101.641H284.686V103.336H277.604ZM289.99 103.473C287.516 103.473 286.012 101.627 286.012 98.3867C286.012 95.1465 287.516 93.3008 289.99 93.3008C292.465 93.3008 293.969 95.1602 293.969 98.3867C293.969 101.641 292.465 103.473 289.99 103.473ZM289.99 101.777C291.139 101.777 291.877 100.67 291.863 98.3867C291.863 96.1309 291.139 94.9824 289.99 94.9824C288.842 94.9824 288.117 96.1309 288.117 98.3867C288.104 100.67 288.842 101.777 289.99 101.777Z" fill="black"/>
<rect x="104" y="116.336" width="234" height="49" rx="2" fill="#EEEEEE"/>
<rect x="104" y="169.336" width="234" height="16" rx="2" fill="#0965EE"/>
<rect x="104" y="189.336" width="47" height="12" rx="2" fill="#EEEEEE"/>
<rect x="154" y="189.336" width="121" height="12" rx="2" fill="#EEEEEE"/>
<rect x="278" y="189.336" width="60" height="12" rx="2" fill="#EEEEEE"/>
<rect x="104" y="203.336" width="47" height="12" rx="2" fill="#EEEEEE"/>
<rect x="154" y="203.336" width="121" height="12" rx="2" fill="#EEEEEE"/>
<rect x="278" y="203.336" width="60" height="12" rx="2" fill="#EEEEEE"/>
<rect x="104" y="217.336" width="47" height="12" rx="2" fill="#EEEEEE"/>
<rect x="154" y="217.336" width="121" height="12" rx="2" fill="#EEEEEE"/>
<rect x="278" y="217.336" width="60" height="12" rx="2" fill="#EEEEEE"/>
<rect x="104" y="231.336" width="47" height="12" rx="2" fill="#EEEEEE"/>
<rect x="154" y="231.336" width="121" height="12" rx="2" fill="#EEEEEE"/>
<rect x="278" y="231.336" width="60" height="12" rx="2" fill="#EEEEEE"/>
<rect x="104" y="245.336" width="47" height="12" rx="2" fill="#EEEEEE"/>
<rect x="154" y="245.336" width="121" height="12" rx="2" fill="#EEEEEE"/>
<rect x="278" y="245.336" width="60" height="12" rx="2" fill="#EEEEEE"/>
<rect x="104" y="259.336" width="47" height="12" rx="2" fill="#EEEEEE"/>
<rect x="154" y="259.336" width="121" height="12" rx="2" fill="#EEEEEE"/>
<rect x="278" y="259.336" width="60" height="12" rx="2" fill="#EEEEEE"/>
<rect x="104" y="273.336" width="47" height="12" rx="2" fill="#EEEEEE"/>
<rect x="154" y="273.336" width="121" height="12" rx="2" fill="#EEEEEE"/>
<rect x="278" y="273.336" width="60" height="12" rx="2" fill="#EEEEEE"/>
<rect x="104" y="287.336" width="47" height="12" rx="2" fill="#EEEEEE"/>
<rect x="154" y="287.336" width="121" height="12" rx="2" fill="#EEEEEE"/>
<rect x="278" y="287.336" width="60" height="12" rx="2" fill="#EEEEEE"/>
<path d="M111.588 315.119V315.959C111.588 317.072 111.588 318.322 111.227 320.207L109.977 320.08C110.313 318.4 110.328 317.15 110.338 316.105H105.104V315.119H111.588ZM112.369 321.135V322.15H104.264V321.135H107.164V318.078H108.404V321.135H112.369ZM121.031 319.289V320.295H119.127V323.234H117.857V320.295H116.041V323.234H114.762V320.295H112.896V319.289H121.031ZM116.939 314.641C118.844 314.641 120.182 315.432 120.182 316.652C120.182 317.854 118.844 318.605 116.939 318.605C115.035 318.605 113.707 317.854 113.717 316.652C113.707 315.432 115.035 314.641 116.939 314.641ZM116.939 315.637C115.748 315.637 114.986 315.998 114.996 316.652C114.986 317.277 115.748 317.629 116.939 317.629C118.141 317.629 118.893 317.277 118.893 316.652C118.893 315.998 118.141 315.637 116.939 315.637ZM124.957 315.607C124.947 316.721 125.582 317.795 127.047 318.234L126.422 319.211C125.411 318.889 124.713 318.259 124.312 317.443C123.912 318.322 123.189 319.011 122.145 319.348L121.52 318.371C123.004 317.893 123.658 316.74 123.658 315.607V314.758H124.957V315.607ZM128.99 320.031V323.234H127.74V321.027H122.877V320.031H128.99ZM128.99 314.348V319.65H127.74V314.348H128.99ZM137.682 314.348V318.918H136.441V318.029H134.801V318.664H130.572V314.729H131.822V315.764H133.57V314.729H134.801V315.48H136.441V314.348H137.682ZM137.682 319.25V321.623H133.023V322.16H137.945V323.137H131.773V320.715H136.441V320.207H131.764V319.25H137.682ZM131.822 317.688H133.57V316.711H131.822V317.688ZM134.801 317.092H136.441V316.408H134.801V317.092ZM146.324 314.357V320.91H145.084V317.707H143.443V319.504H139.215V314.934H140.465V316.301H142.213V314.934H143.443V316.711H145.084V314.357H146.324ZM146.51 322.082V323.078H140.406V320.256H141.666V322.082H146.51ZM140.465 318.527H142.213V317.248H140.465V318.527ZM155.221 315.471V316.467H147.828V315.471H150.904V314.436H152.135V315.471H155.221ZM155.611 321.33V322.326H147.477V321.33H150.904V320.305C149.391 320.178 148.473 319.553 148.482 318.576C148.473 317.502 149.645 316.848 151.52 316.857C153.365 316.848 154.547 317.502 154.547 318.576C154.547 319.553 153.624 320.178 152.135 320.305V321.33H155.611ZM151.52 317.824C150.367 317.824 149.752 318.068 149.762 318.576C149.752 319.104 150.367 319.338 151.52 319.338C152.643 319.338 153.268 319.104 153.268 318.576C153.268 318.068 152.643 317.824 151.52 317.824ZM161.305 314.875C162.711 314.875 163.766 315.773 163.766 317.053C163.766 318.137 163.009 318.947 161.92 319.172V320.363C162.672 320.324 163.429 320.256 164.146 320.158L164.244 321.057C162.271 321.428 160.162 321.447 158.609 321.447L158.463 320.441C159.117 320.441 159.879 320.437 160.68 320.412V319.162C159.596 318.942 158.834 318.132 158.834 317.053C158.834 315.773 159.898 314.875 161.305 314.875ZM161.305 315.939C160.602 315.939 160.064 316.34 160.074 317.053C160.064 317.746 160.602 318.166 161.305 318.166C162.018 318.166 162.545 317.746 162.555 317.053C162.545 316.34 162.008 315.939 161.305 315.939ZM165.895 314.348V323.254H164.654V314.348H165.895ZM176.861 314.348V319.211H175.621V317.355H174.215V316.34H175.621V314.348H176.861ZM172.164 319.553V320.393H175.621V319.553H176.861V323.137H170.934V319.553H172.164ZM172.164 322.141H175.621V321.35H172.164V322.141ZM174.498 314.748V315.764H172.74C172.789 316.755 173.424 317.785 174.771 318.225L174.156 319.182C173.17 318.854 172.491 318.22 172.105 317.414C171.715 318.308 171.007 319.025 169.957 319.367L169.322 318.391C170.719 317.927 171.388 316.848 171.461 315.764H169.674V314.748H174.498ZM186.119 318.674V319.67H178.014V318.674H181.441V317.492H182.672V318.674H186.119ZM182.691 314.787C182.691 315.822 183.688 316.809 185.689 317.053L185.211 318.02C183.712 317.795 182.608 317.165 182.047 316.271C181.476 317.165 180.372 317.8 178.873 318.02L178.434 317.053C180.396 316.809 181.422 315.793 181.422 314.787V314.494H182.691V314.787ZM185.133 320.295V323.234H183.893V321.262H178.912V320.295H185.133ZM194.127 314.348V323.234H192.867V314.348H194.127ZM191.461 315.275C191.461 317.971 190.514 320.207 187.34 321.711L186.686 320.715C188.98 319.631 189.991 318.225 190.191 316.252H187.164V315.275H191.461ZM203.424 319.113V320.109H195.289V319.113H198.736V318.469H196.305V316.027H201.188V315.48H196.285V314.514H202.438V316.926H197.545V317.512H202.604V318.469H199.977V319.113H203.424ZM202.486 320.617V323.195H201.227V321.594H196.197V320.617H202.486ZM213.756 314.348V323.254H212.506V318.762H210.904V317.766H212.506V314.348H213.756ZM209.576 317.131C209.576 318.42 210.279 319.855 211.734 320.48L211.07 321.438C210.06 321.018 209.356 320.168 208.971 319.152C208.58 320.231 207.882 321.14 206.861 321.574L206.207 320.617C207.633 319.982 208.326 318.469 208.336 317.131V316.789H206.49V315.793H208.336V314.543H209.586V315.793H211.383V316.789H209.576V317.131ZM222.34 314.348V323.254H221.1V314.348H222.34ZM219.586 315.09V318.518H216.656V320.148C218.009 320.144 219.161 320.065 220.465 319.855L220.572 320.861C219.107 321.115 217.789 321.174 216.168 321.174H215.367V317.531H218.316V316.096H215.357V315.09H219.586ZM231.021 314.357V321.125H229.781V319.445H228.58V318.459H229.781V317.57H228.58V316.564H229.781V314.357H231.021ZM228.492 315.285V316.271H223.551V315.285H225.465V314.338H226.705V315.285H228.492ZM226.07 316.584C227.291 316.584 228.17 317.307 228.18 318.332C228.17 319.357 227.291 320.07 226.07 320.07C224.859 320.07 223.98 319.357 223.99 318.332C223.98 317.307 224.859 316.584 226.07 316.584ZM226.07 317.551C225.523 317.561 225.143 317.834 225.152 318.332C225.143 318.84 225.523 319.123 226.07 319.123C226.607 319.123 226.998 318.84 227.008 318.332C226.998 317.834 226.607 317.561 226.07 317.551ZM231.207 322.082V323.078H225.104V320.549H226.363V322.082H231.207ZM239.283 314.357V316.877H240.416V317.902H239.283V320.354H238.033V314.357H239.283ZM236.285 320.432C238.209 320.422 239.312 320.93 239.312 321.838C239.312 322.756 238.209 323.244 236.285 323.244C234.352 323.244 233.248 322.756 233.248 321.838C233.248 320.93 234.352 320.422 236.285 320.432ZM236.285 321.33C235.055 321.33 234.488 321.496 234.498 321.838C234.488 322.17 235.055 322.336 236.285 322.336C237.496 322.336 238.053 322.17 238.062 321.838C238.053 321.496 237.496 321.33 236.285 321.33ZM232.076 319.172C232.726 319.172 233.463 319.167 234.234 319.143V318.625C233.263 318.493 232.662 318.044 232.672 317.385C232.662 316.594 233.521 316.115 234.85 316.115C236.168 316.115 237.018 316.594 237.027 317.385C237.018 318.044 236.432 318.493 235.475 318.625V319.104C236.202 319.064 236.935 319.006 237.623 318.918L237.711 319.758C235.826 320.09 233.775 320.109 232.203 320.109L232.076 319.172ZM237.398 314.982V315.9H232.311V314.982H234.234V314.279H235.475V314.982H237.398ZM234.85 316.926C234.215 316.926 233.854 317.092 233.863 317.385C233.854 317.697 234.215 317.854 234.85 317.854C235.475 317.854 235.826 317.697 235.836 317.385C235.826 317.092 235.475 316.926 234.85 316.926Z" fill="black"/>
<path d="M130 337.336H335.5" stroke="#EEEEEE" stroke-width="0.5"/>
<path d="M130 347.336H335.5" stroke="#EEEEEE" stroke-width="0.5"/>
<path d="M130 357.336H335.5" stroke="#EEEEEE" stroke-width="0.5"/>
<path d="M130 367.336H335.5" stroke="#EEEEEE" stroke-width="0.5"/>
<path d="M130 377.336H335.5" stroke="#EEEEEE" stroke-width="0.5"/>
<path d="M130 387.336H335.5" stroke="#EEEEEE" stroke-width="0.5"/>
<path d="M130 397.336H335.5" stroke="#EEEEEE" stroke-width="0.5"/>
<path d="M130 407.336H335.5" stroke="#EEEEEE" stroke-width="0.5"/>
<rect x="104" y="334.336" width="22" height="6" rx="1" fill="#EEEEEE"/>
<rect x="104" y="344.336" width="22" height="6" rx="1" fill="#EEEEEE"/>
<rect x="104" y="354.336" width="22" height="6" rx="1" fill="#EEEEEE"/>
<rect x="104" y="364.336" width="22" height="6" rx="1" fill="#EEEEEE"/>
<rect x="104" y="374.336" width="22" height="6" rx="1" fill="#EEEEEE"/>
<rect x="104" y="384.336" width="22" height="6" rx="1" fill="#EEEEEE"/>
<rect x="104" y="394.336" width="22" height="6" rx="1" fill="#EEEEEE"/>
<rect x="104" y="404.336" width="22" height="6" rx="1" fill="#EEEEEE"/>
<rect x="139" y="412.336" width="32" height="6" rx="1" fill="#EEEEEE"/>
<rect x="191" y="412.336" width="32" height="6" rx="1" fill="#EEEEEE"/>
<rect x="243" y="412.336" width="32" height="6" rx="1" fill="#EEEEEE"/>
<rect x="295" y="412.336" width="32" height="6" rx="1" fill="#EEEEEE"/>
<rect x="133" y="382.336" width="9" height="25" fill="#D9D9D9"/>
<rect x="144" y="377.336" width="10" height="30" fill="#D9D9D9"/>
<rect x="156" y="360.336" width="10" height="47" fill="#0965EE"/>
<rect x="168" y="367.336" width="9" height="40" fill="#D9D9D9"/>
<rect x="184" y="401.336" width="9" height="6" fill="#D9D9D9"/>
<rect x="195" y="400.336" width="10" height="7" fill="#D9D9D9"/>
<rect x="207" y="396.336" width="10" height="11" fill="#0965EE"/>
<rect x="219" y="398.336" width="9" height="9" fill="#D9D9D9"/>
<rect x="236" y="393.336" width="9" height="14" fill="#D9D9D9"/>
<rect x="247" y="391.336" width="10" height="16" fill="#D9D9D9"/>
<rect x="259" y="382.336" width="10" height="25" fill="#0965EE"/>
<rect x="271" y="387.336" width="9" height="20" fill="#D9D9D9"/>
<rect x="288" y="377.336" width="9" height="30" fill="#D9D9D9"/>
<rect x="299" y="372.336" width="10" height="35" fill="#D9D9D9"/>
<rect x="311" y="353.336" width="10" height="54" fill="#0965EE"/>
<rect x="323" y="364.336" width="9" height="43" fill="#D9D9D9"/>
<g filter="url(#filter2_d_1597_15795)">
<rect x="282" y="14.3359" width="336" height="458.769" rx="8" fill="white"/>
</g>
<path d="M311.487 33.478V47.6968H309.565V40.4624H308.269V47.0718H306.409V33.853H308.269V38.8687H309.565V33.478H311.487ZM305.409 35.228C305.394 39.1968 304.206 42.4468 300.206 44.7749L299.05 43.3999C301.948 41.6968 303.19 39.6108 303.472 36.8218H299.769V35.228H305.409ZM324.956 33.4937V43.7124H322.956V33.4937H324.956ZM325.331 45.853V47.4468H315.425V42.6812H317.44V45.853H325.331ZM317.159 34.3999C319.347 34.3999 321.05 35.8999 321.05 37.978C321.05 40.103 319.347 41.5874 317.159 41.5874C314.972 41.5874 313.269 40.103 313.269 37.978C313.269 35.8999 314.972 34.3999 317.159 34.3999ZM317.159 36.1343C316.05 36.1187 315.206 36.8218 315.222 37.978C315.206 39.1655 316.05 39.853 317.159 39.853C318.237 39.853 319.081 39.1655 319.081 37.978C319.081 36.8218 318.237 36.1187 317.159 36.1343ZM338.862 33.478V41.9155H336.878V38.5562H334.659V36.9468H336.878V33.478H338.862ZM334.003 42.228C337.034 42.2437 338.894 43.2437 338.909 44.978C338.894 46.6968 337.034 47.7124 334.003 47.7124C330.972 47.7124 329.112 46.6968 329.112 44.978C329.112 43.2437 330.972 42.2437 334.003 42.228ZM334.003 43.7593C332.112 43.7593 331.097 44.1499 331.097 44.978C331.097 45.7905 332.112 46.1968 334.003 46.1968C335.894 46.1968 336.925 45.7905 336.925 44.978C336.925 44.1499 335.894 43.7593 334.003 43.7593ZM335.081 34.3374V35.9312H332.253C332.3 37.5874 333.3 39.2593 335.519 39.9937L334.534 41.5562C332.964 41.0483 331.886 40.0171 331.269 38.728C330.636 40.1812 329.503 41.353 327.815 41.9312L326.784 40.353C329.12 39.5718 330.167 37.7124 330.222 35.9312H327.362V34.3374H335.081ZM353.722 44.4155V46.0405H340.706V44.4155H346.19V41.7905H342.081V34.3843H344.081V36.5874H350.284V34.3843H352.269V41.7905H348.175V44.4155H353.722ZM344.081 40.1968H350.284V38.1812H344.081V40.1968ZM370.206 33.478V41.2593H368.222V38.2905H365.972V36.6655H368.222V33.478H370.206ZM362.69 41.8062V43.1499H368.222V41.8062H370.206V47.5405H360.722V41.8062H362.69ZM362.69 45.9468H368.222V44.6812H362.69V45.9468ZM366.425 34.1187V35.7437H363.612C363.69 37.3296 364.706 38.978 366.862 39.6812L365.878 41.2124C364.3 40.689 363.214 39.6733 362.597 38.3843C361.972 39.814 360.839 40.9624 359.159 41.5093L358.144 39.9468C360.378 39.2046 361.448 37.478 361.565 35.7437H358.706V34.1187H366.425ZM385.019 40.3999V41.9937H372.05V40.3999H377.534V38.5093H379.503V40.3999H385.019ZM379.534 34.1812C379.534 35.8374 381.128 37.4155 384.331 37.8062L383.565 39.353C381.167 38.9937 379.401 37.9858 378.503 36.5562C377.589 37.9858 375.823 39.0015 373.425 39.353L372.722 37.8062C375.862 37.4155 377.503 35.7905 377.503 34.1812V33.7124H379.534V34.1812ZM383.44 42.9937V47.6968H381.456V44.5405H373.487V42.9937H383.44ZM397.831 33.478V47.6968H395.815V33.478H397.831ZM393.565 34.9624C393.565 39.2749 392.05 42.853 386.972 45.2593L385.925 43.6655C389.597 41.9312 391.214 39.6812 391.534 36.5249H386.69V34.9624H393.565ZM412.706 41.103V42.6968H399.69V41.103H405.206V40.0718H401.315V36.1655H409.128V35.2905H401.284V33.7437H411.128V37.603H403.3V38.5405H411.394V40.0718H407.19V41.103H412.706ZM411.206 43.5093V47.6343H409.19V45.0718H401.144V43.5093H411.206ZM425.19 34.5093V35.3999C425.19 36.3843 425.19 37.8062 424.862 39.5718L422.909 39.3843C423.159 38.0171 423.222 36.9858 423.237 36.1343H417.878V34.5093H425.19ZM421.659 37.7905V40.5093C423.073 40.4546 424.526 40.3452 425.862 40.1499L425.972 41.5874C423.019 42.1343 419.675 42.1812 417.206 42.1968L417.034 40.603C417.831 40.603 418.729 40.603 419.675 40.5718V37.7905H421.659ZM428.675 33.478V37.8062H430.394V39.478H428.675V44.1187H426.628V33.478H428.675ZM429.112 45.853V47.4468H419.128V43.1655H421.128V45.853H429.112ZM442.972 33.478V47.728H440.987V33.478H442.972ZM438.565 34.6655V40.1499H433.878V42.7593C436.042 42.7515 437.886 42.6265 439.972 42.2905L440.144 43.8999C437.8 44.3062 435.69 44.3999 433.097 44.3999H431.815V38.5718H436.534V36.2749H431.8V34.6655H438.565ZM461.534 40.603V42.1968H448.565V40.603H454.05V39.228H456.019V40.603H461.534ZM456.019 33.5249V34.7437H460.284V36.3218H456.19C456.456 37.3062 457.917 38.2202 460.956 38.3999L460.362 39.9155C457.737 39.728 455.925 38.9624 455.034 37.8218C454.136 38.9624 452.323 39.728 449.722 39.9155L449.112 38.3999C452.151 38.2202 453.597 37.3062 453.878 36.3218H449.815V34.7437H454.05V33.5249H456.019ZM455.034 42.8687C458.144 42.8687 459.972 43.7124 459.987 45.2749C459.972 46.853 458.144 47.6968 455.034 47.6968C451.909 47.6968 450.05 46.853 450.05 45.2749C450.05 43.7124 451.909 42.8687 455.034 42.8687ZM455.034 44.3374C453.05 44.3374 452.065 44.6343 452.081 45.2749C452.065 45.9312 453.05 46.228 455.034 46.228C456.972 46.228 457.972 45.9312 457.987 45.2749C457.972 44.6343 456.972 44.3374 455.034 44.3374ZM470.331 34.4155V36.0093H469.159V39.8062C469.636 39.7671 470.104 39.7202 470.55 39.6655L470.628 41.1343C467.956 41.5874 464.847 41.6343 462.597 41.6343L462.394 40.0249C462.862 40.0249 463.378 40.0171 463.909 40.0093V36.0093H462.753V34.4155H470.331ZM474.378 33.478V42.1655H472.394V40.0405H470.644V38.4468H472.394V37.353H470.644V35.7905H472.394V33.478H474.378ZM469.519 42.3843C472.581 42.3999 474.409 43.353 474.425 45.0562C474.409 46.7124 472.581 47.6968 469.519 47.6968C466.472 47.6968 464.628 46.7124 464.628 45.0562C464.628 43.353 466.472 42.3999 469.519 42.3843ZM469.519 43.9155C467.612 43.9155 466.612 44.2749 466.612 45.0562C466.612 45.8062 467.612 46.1812 469.519 46.1812C471.425 46.1812 472.44 45.8062 472.44 45.0562C472.44 44.2749 471.425 43.9155 469.519 43.9155ZM465.831 39.9624C466.3 39.9624 466.776 39.939 467.253 39.9155V36.0093H465.831V39.9624Z" fill="black"/>
<path d="M301.073 77.4429V78.814H303.171V77.4429H304.647V79.3413H306.616V76.9038H308.104V82.7397H306.616V80.5601H304.647V82.4351H299.573V77.4429H301.073ZM301.073 81.2397H303.171V79.9624H301.073V81.2397ZM302.468 83.1851V84.1694H306.616V83.1851H308.104V87.4272H300.991V83.1851H302.468ZM302.468 86.2319H306.616V85.3179H302.468V86.2319ZM317.96 77.4897V78.2046C317.96 79.0952 317.96 80.3257 317.679 82.0835H319.214V83.2905H316.905V87.5679H315.417V83.2905H313.202V87.5679H311.702V83.2905H309.487V82.0835H316.167C316.437 80.6421 316.483 79.5347 316.507 78.6968H310.647V77.4897H317.96ZM331.472 77.3608V78.5327H328.53C328.706 79.4116 329.808 80.3022 331.917 80.5366L331.366 81.7085C329.368 81.4858 328.032 80.6538 327.476 79.5522C326.913 80.6479 325.589 81.4858 323.597 81.7085L323.058 80.5366C325.167 80.3022 326.257 79.3999 326.433 78.5327H323.515V77.3608H331.472ZM332.374 82.2124V83.4077H328.354V85.2476H326.878V83.4077H322.612V82.2124H332.374ZM331.296 86.1851V87.3804H323.761V84.2983H325.249V86.1851H331.296ZM338.655 77.7358C338.655 78.9897 339.933 80.3843 342.382 80.689L341.796 81.896C339.933 81.6265 338.567 80.7651 337.87 79.6108C337.167 80.7651 335.813 81.6265 333.968 81.896L333.37 80.689C335.796 80.3843 337.085 78.9897 337.085 77.7358V77.2202H338.655V77.7358ZM342.722 82.7046V83.9233H338.573V87.5679H337.097V83.9233H332.995V82.7046H342.722ZM347.292 79.3179C347.28 81.228 348.101 83.1616 349.812 83.9819L348.909 85.1772C347.767 84.6147 346.999 83.5601 346.554 82.271C346.091 83.6538 345.265 84.7847 344.058 85.3765L343.132 84.1694C344.937 83.3374 345.792 81.2983 345.792 79.3179V77.7241H347.292V79.3179ZM351.78 76.9038V81.0171H353.351V82.2827H351.78V87.5679H350.28V76.9038H351.78ZM362.198 76.9038V79.6343H363.64V80.8765H362.198V83.6772H360.698V76.9038H362.198ZM358.718 83.771C360.909 83.771 362.315 84.4858 362.315 85.6812C362.315 86.853 360.909 87.5679 358.718 87.5679C356.479 87.5679 355.097 86.853 355.108 85.6812C355.097 84.4858 356.479 83.771 358.718 83.771ZM358.718 84.9077C357.323 84.9077 356.573 85.1538 356.585 85.6812C356.573 86.1851 357.323 86.4546 358.718 86.4546C360.077 86.4546 360.815 86.1851 360.815 85.6812C360.815 85.1538 360.077 84.9077 358.718 84.9077ZM360.065 77.9233V79.0835H353.737V77.9233H356.163V76.8452H357.651V77.9233H360.065ZM356.901 79.4468C358.448 79.4468 359.526 80.2319 359.526 81.3687C359.526 82.5171 358.448 83.2788 356.901 83.2788C355.331 83.2788 354.253 82.5171 354.253 81.3687C354.253 80.2319 355.331 79.4468 356.901 79.4468ZM356.901 80.5366C356.187 80.5366 355.706 80.8296 355.718 81.3687C355.706 81.896 356.187 82.1772 356.901 82.1655C357.616 82.1772 358.108 81.896 358.108 81.3687C358.108 80.8296 357.616 80.5366 356.901 80.5366Z" fill="black"/>
<path d="M308.315 160.904V171.568H306.874V166.142H305.901V171.099H304.507V161.185H305.901V164.947H306.874V160.904H308.315ZM303.757 162.216C303.745 165.193 302.854 167.63 299.854 169.376L298.987 168.345C301.161 167.068 302.093 165.503 302.304 163.412H299.526V162.216H303.757ZM318.417 160.916V168.58H316.917V160.916H318.417ZM318.698 170.185V171.38H311.269V167.806H312.78V170.185H318.698ZM312.569 161.595C314.21 161.595 315.487 162.72 315.487 164.279C315.487 165.873 314.21 166.986 312.569 166.986C310.929 166.986 309.651 165.873 309.651 164.279C309.651 162.72 310.929 161.595 312.569 161.595ZM312.569 162.896C311.737 162.884 311.104 163.412 311.116 164.279C311.104 165.169 311.737 165.685 312.569 165.685C313.378 165.685 314.011 165.169 314.011 164.279C314.011 163.412 313.378 162.884 312.569 162.896ZM328.847 160.904V167.232H327.358V164.712H325.694V163.505H327.358V160.904H328.847ZM325.202 167.466C327.476 167.478 328.87 168.228 328.882 169.529C328.87 170.818 327.476 171.58 325.202 171.58C322.929 171.58 321.534 170.818 321.534 169.529C321.534 168.228 322.929 167.478 325.202 167.466ZM325.202 168.615C323.784 168.615 323.022 168.908 323.022 169.529C323.022 170.138 323.784 170.443 325.202 170.443C326.62 170.443 327.394 170.138 327.394 169.529C327.394 168.908 326.62 168.615 325.202 168.615ZM326.011 161.548V162.744H323.89C323.925 163.986 324.675 165.24 326.339 165.791L325.601 166.962C324.423 166.582 323.614 165.808 323.151 164.841C322.677 165.931 321.827 166.81 320.562 167.244L319.788 166.06C321.54 165.474 322.325 164.08 322.366 162.744H320.222V161.548H326.011ZM339.991 169.107V170.326H330.229V169.107H334.343V167.138H331.261V161.583H332.761V163.236H337.413V161.583H338.901V167.138H335.831V169.107H339.991ZM332.761 165.943H337.413V164.431H332.761V165.943ZM353.128 169.107V170.326H343.366V169.107H347.479V167.138H344.397V161.583H345.897V163.236H350.55V161.583H352.038V167.138H348.968V169.107H353.128ZM345.897 165.943H350.55V164.431H345.897V165.943ZM363.03 162.251V163.447H354.159V162.251H357.851V161.009H359.327V162.251H363.03ZM363.499 169.283V170.478H353.737V169.283H357.851V168.052C356.034 167.9 354.933 167.15 354.944 165.978C354.933 164.689 356.339 163.904 358.589 163.916C360.804 163.904 362.222 164.689 362.222 165.978C362.222 167.15 361.114 167.9 359.327 168.052V169.283H363.499ZM358.589 165.076C357.206 165.076 356.468 165.369 356.479 165.978C356.468 166.611 357.206 166.892 358.589 166.892C359.937 166.892 360.687 166.611 360.687 165.978C360.687 165.369 359.937 165.076 358.589 165.076ZM366.065 161.443V162.814H368.163V161.443H369.64V163.341H371.608V160.904H373.097V166.74H371.608V164.56H369.64V166.435H364.565V161.443H366.065ZM366.065 165.24H368.163V163.962H366.065V165.24ZM367.46 167.185V168.169H371.608V167.185H373.097V171.427H365.983V167.185H367.46ZM367.46 170.232H371.608V169.318H367.46V170.232ZM377.866 167.255C377.866 165.052 378.546 163.224 379.671 161.642H381.323C380.515 162.814 379.671 165.158 379.671 167.255C379.671 169.365 380.515 171.708 381.323 172.88H379.671C378.546 171.298 377.866 169.458 377.866 167.255ZM383.878 161.443V162.814H385.976V161.443H387.452V163.341H389.421V160.904H390.909V166.74H389.421V164.56H387.452V166.435H382.378V161.443H383.878ZM383.878 165.24H385.976V163.962H383.878V165.24ZM385.272 167.185V168.169H389.421V167.185H390.909V171.427H383.796V167.185H385.272ZM385.272 170.232H389.421V169.318H385.272V170.232ZM402.042 167.162V168.333H399.792V171.568H398.28V168.333H396.054V171.568H394.565V168.333H392.28V167.162H402.042ZM400.917 161.22V164.326H394.952V165.193H401.163V166.388H393.44V163.236H399.382V162.439H393.405V161.22H400.917ZM414.651 160.904V171.568H413.233V160.904H414.651ZM412.472 161.08V171.076H411.065V165.767H409.659V164.56H411.065V161.08H412.472ZM408.804 163.763C408.804 165.533 409.354 167.326 410.913 168.216L410.034 169.318C409.085 168.755 408.458 167.8 408.101 166.658C407.731 167.9 407.087 168.955 406.108 169.552L405.206 168.451C406.776 167.49 407.362 165.568 407.362 163.763V163.189H405.616V161.994H410.421V163.189H408.804V163.763ZM419.808 162.005V170.49H418.038V163.681H417.991L416.046 164.9V163.341L418.144 162.005H419.808ZM421.636 168.99V167.595L425.222 162.005H427.437V167.572H428.515V168.99H427.437V170.49H425.761V168.99H421.636ZM423.417 167.572H425.784V163.939H425.702L423.417 167.501V167.572ZM432.851 170.607C430.917 170.607 429.522 169.587 429.522 168.205C429.522 167.138 430.343 166.271 431.397 166.107V166.048C430.483 165.873 429.851 165.099 429.851 164.173C429.851 162.849 431.116 161.888 432.851 161.888C434.585 161.888 435.851 162.849 435.862 164.173C435.851 165.111 435.206 165.873 434.315 166.048V166.107C435.347 166.271 436.179 167.138 436.179 168.205C436.179 169.587 434.784 170.607 432.851 170.607ZM432.851 169.259C433.741 169.259 434.339 168.755 434.339 168.029C434.339 167.291 433.718 166.751 432.851 166.751C431.983 166.751 431.351 167.291 431.362 168.029C431.351 168.755 431.948 169.259 432.851 169.259ZM432.851 165.509C433.601 165.509 434.14 165.029 434.14 164.349C434.14 163.693 433.612 163.224 432.851 163.224C432.089 163.224 431.573 163.681 431.573 164.349C431.573 165.029 432.101 165.509 432.851 165.509ZM440.526 170.607C438.663 170.607 437.327 169.576 437.292 168.099H439.073C439.108 168.732 439.718 169.154 440.538 169.154C441.382 169.154 441.991 168.673 441.979 167.994C441.991 167.302 441.37 166.81 440.374 166.81H439.589V165.509H440.374C441.206 165.509 441.792 165.052 441.792 164.384C441.792 163.74 441.3 163.294 440.55 163.294C439.8 163.294 439.179 163.716 439.155 164.361H437.468C437.491 162.896 438.815 161.888 440.55 161.888C442.319 161.888 443.503 162.931 443.491 164.279C443.503 165.228 442.835 165.908 441.886 166.072V166.142C443.128 166.294 443.819 167.056 443.808 168.111C443.819 169.564 442.437 170.607 440.526 170.607ZM448.144 161.888C449.901 161.9 451.565 162.943 451.565 166.025C451.577 168.908 450.206 170.607 448.073 170.607C446.362 170.607 445.202 169.541 445.026 168.099H446.761C446.901 168.72 447.394 169.095 448.073 169.095C449.233 169.095 449.843 168.064 449.843 166.365H449.772C449.374 167.115 448.542 167.56 447.593 167.56C446.069 167.56 444.944 166.412 444.933 164.83C444.933 163.119 446.222 161.876 448.144 161.888ZM448.155 163.271C447.288 163.271 446.644 163.939 446.655 164.783C446.655 165.615 447.276 166.271 448.144 166.271C448.999 166.271 449.667 165.591 449.667 164.771C449.655 163.962 449.022 163.271 448.155 163.271ZM461.702 162.251V163.447H452.831V162.251H456.522V161.009H457.999V162.251H461.702ZM462.171 169.283V170.478H452.409V169.283H456.522V168.052C454.706 167.9 453.604 167.15 453.616 165.978C453.604 164.689 455.011 163.904 457.261 163.916C459.476 163.904 460.894 164.689 460.894 165.978C460.894 167.15 459.786 167.9 457.999 168.052V169.283H462.171ZM457.261 165.076C455.878 165.076 455.14 165.369 455.151 165.978C455.14 166.611 455.878 166.892 457.261 166.892C458.608 166.892 459.358 166.611 459.358 165.978C459.358 165.369 458.608 165.076 457.261 165.076ZM466.202 167.255C466.202 169.458 465.522 171.298 464.397 172.88H462.745C463.554 171.708 464.397 169.365 464.397 167.255C464.397 165.158 463.554 162.814 462.745 161.642H464.397C465.522 163.224 466.202 165.052 466.202 167.255Z" fill="black"/>
<path d="M308.315 299.181V309.845H306.874V304.419H305.901V309.376H304.507V299.462H305.901V303.224H306.874V299.181H308.315ZM303.757 300.494C303.745 303.47 302.854 305.908 299.854 307.654L298.987 306.623C301.161 305.345 302.093 303.781 302.304 301.689H299.526V300.494H303.757ZM318.417 299.193V306.857H316.917V299.193H318.417ZM318.698 308.462V309.658H311.269V306.083H312.78V308.462H318.698ZM312.569 299.873C314.21 299.873 315.487 300.998 315.487 302.556C315.487 304.15 314.21 305.263 312.569 305.263C310.929 305.263 309.651 304.15 309.651 302.556C309.651 300.998 310.929 299.873 312.569 299.873ZM312.569 301.173C311.737 301.162 311.104 301.689 311.116 302.556C311.104 303.447 311.737 303.962 312.569 303.962C313.378 303.962 314.011 303.447 314.011 302.556C314.011 301.689 313.378 301.162 312.569 301.173ZM328.847 299.181V305.509H327.358V302.99H325.694V301.783H327.358V299.181H328.847ZM325.202 305.744C327.476 305.755 328.87 306.505 328.882 307.806C328.87 309.095 327.476 309.857 325.202 309.857C322.929 309.857 321.534 309.095 321.534 307.806C321.534 306.505 322.929 305.755 325.202 305.744ZM325.202 306.892C323.784 306.892 323.022 307.185 323.022 307.806C323.022 308.416 323.784 308.72 325.202 308.72C326.62 308.72 327.394 308.416 327.394 307.806C327.394 307.185 326.62 306.892 325.202 306.892ZM326.011 299.826V301.021H323.89C323.925 302.263 324.675 303.517 326.339 304.068L325.601 305.24C324.423 304.859 323.614 304.085 323.151 303.119C322.677 304.208 321.827 305.087 320.562 305.521L319.788 304.337C321.54 303.751 322.325 302.357 322.366 301.021H320.222V299.826H326.011ZM339.991 307.384V308.603H330.229V307.384H334.343V305.416H331.261V299.861H332.761V301.513H337.413V299.861H338.901V305.416H335.831V307.384H339.991ZM332.761 304.22H337.413V302.708H332.761V304.22ZM353.128 307.384V308.603H343.366V307.384H347.479V305.416H344.397V299.861H345.897V301.513H350.55V299.861H352.038V305.416H348.968V307.384H353.128ZM345.897 304.22H350.55V302.708H345.897V304.22ZM363.03 300.529V301.724H354.159V300.529H357.851V299.287H359.327V300.529H363.03ZM363.499 307.56V308.755H353.737V307.56H357.851V306.33C356.034 306.177 354.933 305.427 354.944 304.255C354.933 302.966 356.339 302.181 358.589 302.193C360.804 302.181 362.222 302.966 362.222 304.255C362.222 305.427 361.114 306.177 359.327 306.33V307.56H363.499ZM358.589 303.353C357.206 303.353 356.468 303.646 356.479 304.255C356.468 304.888 357.206 305.169 358.589 305.169C359.937 305.169 360.687 304.888 360.687 304.255C360.687 303.646 359.937 303.353 358.589 303.353ZM366.065 299.72V301.091H368.163V299.72H369.64V301.619H371.608V299.181H373.097V305.017H371.608V302.837H369.64V304.712H364.565V299.72H366.065ZM366.065 303.517H368.163V302.24H366.065V303.517ZM367.46 305.462V306.447H371.608V305.462H373.097V309.705H365.983V305.462H367.46ZM367.46 308.509H371.608V307.595H367.46V308.509ZM381.394 301.595C381.394 303.552 382.284 305.521 384.089 306.283L383.21 307.478C381.991 306.927 381.147 305.867 380.667 304.548C380.181 305.984 379.308 307.144 378.007 307.736L377.104 306.494C378.968 305.708 379.87 303.669 379.882 301.595V300.001H381.394V301.595ZM386.175 299.181V309.869H384.663V299.181H386.175ZM396.78 299.181V305.873H395.362V303.037H394.507V305.521H393.112V299.38H394.507V301.818H395.362V299.181H396.78ZM392.796 300.283V301.443H387.558V300.283H389.444V299.275H390.933V300.283H392.796ZM390.194 301.794C391.554 301.794 392.515 302.544 392.526 303.658C392.515 304.759 391.554 305.509 390.194 305.509C388.858 305.509 387.886 304.759 387.886 303.658C387.886 302.544 388.858 301.794 390.194 301.794ZM390.194 302.873C389.608 302.873 389.222 303.166 389.222 303.658C389.222 304.15 389.608 304.455 390.194 304.443C390.78 304.455 391.167 304.15 391.179 303.658C391.167 303.166 390.78 302.873 390.194 302.873ZM393.136 305.966C395.444 305.966 396.827 306.669 396.839 307.912C396.827 309.142 395.444 309.845 393.136 309.845C390.839 309.845 389.444 309.142 389.444 307.912C389.444 306.669 390.839 305.966 393.136 305.966ZM393.136 307.091C391.694 307.091 390.933 307.349 390.944 307.912C390.933 308.451 391.694 308.72 393.136 308.72C394.589 308.72 395.327 308.451 395.327 307.912C395.327 307.349 394.589 307.091 393.136 307.091ZM403.108 299.732V303.048H399.886V304.115C401.474 304.103 402.411 304.056 403.495 303.869L403.636 305.064C402.394 305.287 401.269 305.333 399.206 305.333H398.409V301.923H401.62V300.939H398.386V299.732H403.108ZM406.976 299.193V305.673H405.476V304.009H403.729V302.814H405.476V301.818H403.729V300.611H405.476V299.193H406.976ZM403.354 305.849C405.628 305.849 407.022 306.599 407.034 307.876C407.022 309.154 405.628 309.88 403.354 309.88C401.058 309.88 399.663 309.154 399.663 307.876C399.663 306.599 401.058 305.849 403.354 305.849ZM403.354 306.986C401.913 306.986 401.175 307.267 401.187 307.876C401.175 308.462 401.913 308.744 403.354 308.744C404.772 308.744 405.546 308.462 405.546 307.876C405.546 307.267 404.772 306.986 403.354 306.986ZM411.745 305.533C411.745 303.33 412.425 301.501 413.55 299.919H415.202C414.394 301.091 413.55 303.435 413.55 305.533C413.55 307.642 414.394 309.986 415.202 311.158H413.55C412.425 309.576 411.745 307.736 411.745 305.533ZM425.022 299.181V309.845H423.604V304.49H422.573V309.33H421.202V299.357H422.573V303.294H423.604V299.181H425.022ZM420.077 300.412V301.619H417.604V306.166C418.636 306.16 419.55 306.107 420.581 305.919L420.687 307.138C419.386 307.384 418.249 307.419 416.843 307.431H416.104V300.412H420.077ZM435.897 304.677V305.849H426.147V304.677H430.272V304.021H427.366V299.439H434.761V300.587H428.866V301.185H434.515V302.263H428.866V302.873H434.854V304.021H431.772V304.677H435.897ZM431.022 306.341C433.378 306.33 434.726 306.962 434.737 308.087C434.726 309.236 433.378 309.845 431.022 309.845C428.632 309.845 427.284 309.236 427.284 308.087C427.284 306.962 428.632 306.33 431.022 306.341ZM431.022 307.443C429.487 307.443 428.772 307.642 428.784 308.087C428.772 308.544 429.487 308.744 431.022 308.744C432.522 308.744 433.226 308.544 433.237 308.087C433.226 307.642 432.522 307.443 431.022 307.443ZM441.663 299.732V303.048H438.44V304.115C440.028 304.103 440.966 304.056 442.05 303.869L442.19 305.064C440.948 305.287 439.823 305.333 437.761 305.333H436.964V301.923H440.175V300.939H436.94V299.732H441.663ZM445.53 299.193V305.673H444.03V304.009H442.284V302.814H444.03V301.818H442.284V300.611H444.03V299.193H445.53ZM441.909 305.849C444.183 305.849 445.577 306.599 445.589 307.876C445.577 309.154 444.183 309.88 441.909 309.88C439.612 309.88 438.218 309.154 438.218 307.876C438.218 306.599 439.612 305.849 441.909 305.849ZM441.909 306.986C440.468 306.986 439.729 307.267 439.741 307.876C439.729 308.462 440.468 308.744 441.909 308.744C443.327 308.744 444.101 308.462 444.101 307.876C444.101 307.267 443.327 306.986 441.909 306.986ZM452.034 299.732V303.048H448.812V304.115C450.399 304.103 451.337 304.056 452.421 303.869L452.562 305.064C451.319 305.287 450.194 305.333 448.132 305.333H447.335V301.923H450.546V300.939H447.312V299.732H452.034ZM455.901 299.193V305.673H454.401V304.009H452.655V302.814H454.401V301.818H452.655V300.611H454.401V299.193H455.901ZM452.28 305.849C454.554 305.849 455.948 306.599 455.96 307.876C455.948 309.154 454.554 309.88 452.28 309.88C449.983 309.88 448.589 309.154 448.589 307.876C448.589 306.599 449.983 305.849 452.28 305.849ZM452.28 306.986C450.839 306.986 450.101 307.267 450.112 307.876C450.101 308.462 450.839 308.744 452.28 308.744C453.698 308.744 454.472 308.462 454.472 307.876C454.472 307.267 453.698 306.986 452.28 306.986ZM469.272 299.181V309.845H467.854V299.181H469.272ZM467.093 299.357V309.353H465.687V304.044H464.28V302.837H465.687V299.357H467.093ZM463.425 302.041C463.425 303.81 463.976 305.603 465.534 306.494L464.655 307.595C463.706 307.033 463.079 306.078 462.722 304.935C462.353 306.177 461.708 307.232 460.729 307.83L459.827 306.728C461.397 305.767 461.983 303.845 461.983 302.041V301.466H460.237V300.271H465.042V301.466H463.425V302.041ZM470.772 308.767L470.761 307.49L473.808 304.689C474.604 303.927 475.026 303.458 475.026 302.791C475.026 302.041 474.452 301.572 473.679 301.572C472.882 301.572 472.366 302.076 472.366 302.884H470.69C470.679 301.22 471.909 300.166 473.702 300.166C475.519 300.166 476.726 301.197 476.726 302.673C476.726 303.634 476.257 304.431 474.511 306.013L473.222 307.267V307.314H476.843V308.767H470.772ZM481.19 300.166C482.948 300.177 484.612 301.22 484.612 304.302C484.624 307.185 483.253 308.884 481.12 308.884C479.409 308.884 478.249 307.818 478.073 306.376H479.808C479.948 306.998 480.44 307.373 481.12 307.373C482.28 307.373 482.89 306.341 482.89 304.642H482.819C482.421 305.392 481.589 305.837 480.64 305.837C479.116 305.837 477.991 304.689 477.979 303.107C477.979 301.396 479.269 300.154 481.19 300.166ZM481.202 301.548C480.335 301.548 479.69 302.216 479.702 303.06C479.702 303.892 480.323 304.548 481.19 304.548C482.046 304.548 482.714 303.869 482.714 303.048C482.702 302.24 482.069 301.548 481.202 301.548ZM485.667 307.267V305.873L489.253 300.283H491.468V305.849H492.546V307.267H491.468V308.767H489.792V307.267H485.667ZM487.448 305.849H489.815V302.216H489.733L487.448 305.779V305.849ZM493.694 308.767L493.683 307.49L496.729 304.689C497.526 303.927 497.948 303.458 497.948 302.791C497.948 302.041 497.374 301.572 496.601 301.572C495.804 301.572 495.288 302.076 495.288 302.884H493.612C493.601 301.22 494.831 300.166 496.624 300.166C498.44 300.166 499.647 301.197 499.647 302.673C499.647 303.634 499.179 304.431 497.433 306.013L496.144 307.267V307.314H499.765V308.767H493.694ZM504.675 300.283V308.767H502.905V301.958H502.858L500.913 303.177V301.619L503.011 300.283H504.675ZM515.585 300.529V301.724H506.714V300.529H510.405V299.287H511.882V300.529H515.585ZM516.054 307.56V308.755H506.292V307.56H510.405V306.33C508.589 306.177 507.487 305.427 507.499 304.255C507.487 302.966 508.894 302.181 511.144 302.193C513.358 302.181 514.776 302.966 514.776 304.255C514.776 305.427 513.669 306.177 511.882 306.33V307.56H516.054ZM511.144 303.353C509.761 303.353 509.022 303.646 509.034 304.255C509.022 304.888 509.761 305.169 511.144 305.169C512.491 305.169 513.241 304.888 513.241 304.255C513.241 303.646 512.491 303.353 511.144 303.353ZM520.085 305.533C520.085 307.736 519.405 309.576 518.28 311.158H516.628C517.437 309.986 518.28 307.642 518.28 305.533C518.28 303.435 517.437 301.091 516.628 299.919H518.28C519.405 301.501 520.085 303.33 520.085 305.533Z" fill="black"/>
<path d="M308.315 415.488V426.152H306.874V420.727H305.901V425.684H304.507V415.77H305.901V419.531H306.874V415.488H308.315ZM303.757 416.801C303.745 419.777 302.854 422.215 299.854 423.961L298.987 422.93C301.161 421.652 302.093 420.088 302.304 417.996H299.526V416.801H303.757ZM318.417 415.5V423.164H316.917V415.5H318.417ZM318.698 424.77V425.965H311.269V422.391H312.78V424.77H318.698ZM312.569 416.18C314.21 416.18 315.487 417.305 315.487 418.863C315.487 420.457 314.21 421.57 312.569 421.57C310.929 421.57 309.651 420.457 309.651 418.863C309.651 417.305 310.929 416.18 312.569 416.18ZM312.569 417.48C311.737 417.469 311.104 417.996 311.116 418.863C311.104 419.754 311.737 420.27 312.569 420.27C313.378 420.27 314.011 419.754 314.011 418.863C314.011 417.996 313.378 417.469 312.569 417.48ZM328.847 415.488V421.816H327.358V419.297H325.694V418.09H327.358V415.488H328.847ZM325.202 422.051C327.476 422.062 328.87 422.812 328.882 424.113C328.87 425.402 327.476 426.164 325.202 426.164C322.929 426.164 321.534 425.402 321.534 424.113C321.534 422.812 322.929 422.062 325.202 422.051ZM325.202 423.199C323.784 423.199 323.022 423.492 323.022 424.113C323.022 424.723 323.784 425.027 325.202 425.027C326.62 425.027 327.394 424.723 327.394 424.113C327.394 423.492 326.62 423.199 325.202 423.199ZM326.011 416.133V417.328H323.89C323.925 418.57 324.675 419.824 326.339 420.375L325.601 421.547C324.423 421.166 323.614 420.393 323.151 419.426C322.677 420.516 321.827 421.395 320.562 421.828L319.788 420.645C321.54 420.059 322.325 418.664 322.366 417.328H320.222V416.133H326.011ZM339.991 423.691V424.91H330.229V423.691H334.343V421.723H331.261V416.168H332.761V417.82H337.413V416.168H338.901V421.723H335.831V423.691H339.991ZM332.761 420.527H337.413V419.016H332.761V420.527ZM344.058 416.203C345.745 416.191 347.011 417.293 347.011 418.816C347.011 420.352 345.745 421.441 344.058 421.441C342.37 421.441 341.093 420.352 341.093 418.816C341.093 417.293 342.37 416.191 344.058 416.203ZM344.058 417.492C343.214 417.492 342.569 417.984 342.581 418.816C342.569 419.66 343.214 420.141 344.058 420.141C344.901 420.141 345.546 419.66 345.558 418.816C345.546 417.984 344.913 417.492 344.058 417.492ZM349.565 415.488V426.176H348.077V415.488H349.565ZM340.647 422.777C342.546 422.789 345.183 422.754 347.468 422.438L347.585 423.516C345.218 423.973 342.687 423.996 340.823 423.996L340.647 422.777ZM362.198 415.488V418.547H363.64V419.789H362.198V423.258H360.698V415.488H362.198ZM362.585 424.77V425.965H355.284V422.438H356.772V424.77H362.585ZM356.737 416.18C358.366 416.18 359.644 417.305 359.644 418.887C359.644 420.445 358.366 421.594 356.737 421.594C355.097 421.594 353.808 420.445 353.808 418.887C353.808 417.305 355.097 416.18 356.737 416.18ZM356.737 417.48C355.929 417.469 355.272 417.996 355.284 418.887C355.272 419.754 355.929 420.293 356.737 420.293C357.558 420.293 358.179 419.754 358.19 418.887C358.179 417.996 357.558 417.469 356.737 417.48ZM373.097 415.488V421.816H371.608V419.297H369.944V418.09H371.608V415.488H373.097ZM369.452 422.051C371.726 422.062 373.12 422.812 373.132 424.113C373.12 425.402 371.726 426.164 369.452 426.164C367.179 426.164 365.784 425.402 365.784 424.113C365.784 422.812 367.179 422.062 369.452 422.051ZM369.452 423.199C368.034 423.199 367.272 423.492 367.272 424.113C367.272 424.723 368.034 425.027 369.452 425.027C370.87 425.027 371.644 424.723 371.644 424.113C371.644 423.492 370.87 423.199 369.452 423.199ZM370.261 416.133V417.328H368.14C368.175 418.57 368.925 419.824 370.589 420.375L369.851 421.547C368.673 421.166 367.864 420.393 367.401 419.426C366.927 420.516 366.077 421.395 364.812 421.828L364.038 420.645C365.79 420.059 366.575 418.664 366.616 417.328H364.472V416.133H370.261ZM378.511 416.941C378.499 418.371 379.237 419.684 380.948 420.211L380.163 421.383C379.015 420.984 378.235 420.246 377.796 419.285C377.315 420.398 376.454 421.277 375.171 421.711L374.386 420.516C376.214 419.93 376.987 418.5 376.999 417.012V416.039H378.511V416.941ZM383.468 415.488V421.734H381.979V418.664H379.976V417.445H381.979V415.488H383.468ZM379.823 422.016C382.097 422.016 383.491 422.777 383.503 424.09C383.491 425.402 382.097 426.152 379.823 426.152C377.55 426.152 376.155 425.402 376.155 424.09C376.155 422.777 377.55 422.016 379.823 422.016ZM379.823 423.176C378.405 423.176 377.644 423.48 377.644 424.09C377.644 424.676 378.405 424.992 379.823 424.992C381.241 424.992 382.015 424.676 382.015 424.09C382.015 423.48 381.241 423.176 379.823 423.176ZM396.147 415.5V418.547H397.507V419.777H396.147V422.742H394.647V415.5H396.147ZM387.499 421.371C388.278 421.371 389.169 421.371 390.089 421.348V420.75C388.929 420.586 388.202 420.023 388.214 419.203C388.202 418.219 389.245 417.609 390.827 417.609C392.397 417.609 393.429 418.219 393.44 419.203C393.429 420.023 392.72 420.58 391.577 420.738V421.289C392.456 421.254 393.329 421.184 394.155 421.078L394.261 422.109C392.011 422.508 389.538 422.531 387.651 422.531L387.499 421.371ZM396.147 423.176V426.152H394.647V424.324H388.858V423.176H396.147ZM393.886 416.273V417.363H387.78V416.273H390.089V415.406H391.577V416.273H393.886ZM390.827 418.605C390.065 418.605 389.632 418.793 389.644 419.203C389.632 419.59 390.065 419.812 390.827 419.812C391.577 419.812 391.999 419.59 392.011 419.203C391.999 418.793 391.577 418.605 390.827 418.605ZM407.749 423.691V424.91H397.987V423.691H402.101V421.723H399.019V416.168H400.519V417.82H405.171V416.168H406.659V421.723H403.589V423.691H407.749ZM400.519 420.527H405.171V419.016H400.519V420.527ZM418.12 423.703V424.91H408.358V423.703H412.483V421.324H413.983V423.703H418.12ZM417.265 416.297V417.504H414.019C414.142 418.91 415.466 420.217 417.757 420.551L417.171 421.734C415.302 421.406 413.919 420.492 413.233 419.227C412.554 420.516 411.183 421.453 409.343 421.793L408.757 420.609C410.972 420.252 412.302 418.916 412.425 417.504H409.167V416.297H417.265ZM427.647 415.488V426.152H426.147V415.488H427.647ZM422.901 418.828C422.901 420.375 423.78 422.121 425.55 422.848L424.741 423.996C423.528 423.498 422.661 422.479 422.175 421.254C421.7 422.555 420.827 423.645 419.585 424.16L418.788 423.012C420.546 422.25 421.413 420.457 421.413 418.828V418.418H419.14V417.223H421.401V415.723H422.89V417.223H425.116V418.418H422.901V418.828ZM440.831 415.488V426.152H439.319V415.488H440.831ZM437.632 416.602C437.632 419.836 436.495 422.52 432.687 424.324L431.901 423.129C434.655 421.828 435.868 420.141 436.108 417.773H432.476V416.602H437.632ZM451.085 415.945V417.117H448.144C448.319 417.996 449.421 418.887 451.53 419.121L450.979 420.293C448.981 420.07 447.646 419.238 447.089 418.137C446.526 419.232 445.202 420.07 443.21 420.293L442.671 419.121C444.78 418.887 445.87 417.984 446.046 417.117H443.128V415.945H451.085ZM451.987 420.797V421.992H447.968V423.832H446.491V421.992H442.226V420.797H451.987ZM450.909 424.77V425.965H443.374V422.883H444.862V424.77H450.909ZM455.995 421.84C455.995 419.637 456.675 417.809 457.8 416.227H459.452C458.644 417.398 457.8 419.742 457.8 421.84C457.8 423.949 458.644 426.293 459.452 427.465H457.8C456.675 425.883 455.995 424.043 455.995 421.84ZM469.214 415.488V422.18H467.796V419.344H466.94V421.828H465.546V415.688H466.94V418.125H467.796V415.488H469.214ZM465.229 416.59V417.75H459.991V416.59H461.878V415.582H463.366V416.59H465.229ZM462.628 418.102C463.987 418.102 464.948 418.852 464.96 419.965C464.948 421.066 463.987 421.816 462.628 421.816C461.292 421.816 460.319 421.066 460.319 419.965C460.319 418.852 461.292 418.102 462.628 418.102ZM462.628 419.18C462.042 419.18 461.655 419.473 461.655 419.965C461.655 420.457 462.042 420.762 462.628 420.75C463.214 420.762 463.601 420.457 463.612 419.965C463.601 419.473 463.214 419.18 462.628 419.18ZM465.569 422.273C467.878 422.273 469.261 422.977 469.272 424.219C469.261 425.449 467.878 426.152 465.569 426.152C463.272 426.152 461.878 425.449 461.878 424.219C461.878 422.977 463.272 422.273 465.569 422.273ZM465.569 423.398C464.128 423.398 463.366 423.656 463.378 424.219C463.366 424.758 464.128 425.027 465.569 425.027C467.022 425.027 467.761 424.758 467.761 424.219C467.761 423.656 467.022 423.398 465.569 423.398ZM479.409 415.488V421.816H477.921V419.297H476.257V418.09H477.921V415.488H479.409ZM475.765 422.051C478.038 422.062 479.433 422.812 479.444 424.113C479.433 425.402 478.038 426.164 475.765 426.164C473.491 426.164 472.097 425.402 472.097 424.113C472.097 422.812 473.491 422.062 475.765 422.051ZM475.765 423.199C474.347 423.199 473.585 423.492 473.585 424.113C473.585 424.723 474.347 425.027 475.765 425.027C477.183 425.027 477.956 424.723 477.956 424.113C477.956 423.492 477.183 423.199 475.765 423.199ZM476.573 416.133V417.328H474.452C474.487 418.57 475.237 419.824 476.901 420.375L476.163 421.547C474.985 421.166 474.177 420.393 473.714 419.426C473.239 420.516 472.39 421.395 471.124 421.828L470.351 420.645C472.103 420.059 472.888 418.664 472.929 417.328H470.784V416.133H476.573ZM489.253 415.488V418.547H490.694V419.789H489.253V423.258H487.753V415.488H489.253ZM489.64 424.77V425.965H482.339V422.438H483.827V424.77H489.64ZM483.792 416.18C485.421 416.18 486.698 417.305 486.698 418.887C486.698 420.445 485.421 421.594 483.792 421.594C482.151 421.594 480.862 420.445 480.862 418.887C480.862 417.305 482.151 416.18 483.792 416.18ZM483.792 417.48C482.983 417.469 482.327 417.996 482.339 418.887C482.327 419.754 482.983 420.293 483.792 420.293C484.612 420.293 485.233 419.754 485.245 418.887C485.233 417.996 484.612 417.469 483.792 417.48ZM500.151 415.5V423.281H498.663V419.461H496.917V418.254H498.663V415.5H500.151ZM500.409 424.77V425.965H493.073V422.602H494.573V424.77H500.409ZM495.194 417.586C495.194 418.816 495.944 420.141 497.644 420.691L496.905 421.875C495.722 421.494 494.913 420.715 494.444 419.742C493.976 420.82 493.126 421.676 491.866 422.098L491.104 420.879C492.862 420.328 493.659 418.934 493.671 417.574V417.41H491.526V416.215H497.315V417.41H495.194V417.586ZM511.284 421.641V422.812H507.112V426.152H505.636V422.812H501.522V421.641H511.284ZM504.147 415.898V417.129H508.624V415.898H510.124V420.609H502.671V415.898H504.147ZM504.147 419.414H508.624V418.301H504.147V419.414ZM520.694 416.414V417.422C520.694 418.758 520.694 420.258 520.261 422.52L518.761 422.367C519.165 420.352 519.183 418.852 519.194 417.598H512.913V416.414H520.694ZM521.632 423.633V424.852H511.905V423.633H515.386V419.965H516.874V423.633H521.632ZM526.425 417.902C526.425 419.859 527.315 421.828 529.12 422.59L528.241 423.785C527.022 423.234 526.179 422.174 525.698 420.855C525.212 422.291 524.339 423.451 523.038 424.043L522.136 422.801C523.999 422.016 524.901 419.977 524.913 417.902V416.309H526.425V417.902ZM531.206 415.488V426.176H529.694V415.488H531.206ZM544.636 415.488V426.152H543.218V415.488H544.636ZM542.456 415.664V425.66H541.05V420.352H539.644V419.145H541.05V415.664H542.456ZM538.788 418.348C538.788 420.117 539.339 421.91 540.897 422.801L540.019 423.902C539.069 423.34 538.442 422.385 538.085 421.242C537.716 422.484 537.071 423.539 536.093 424.137L535.19 423.035C536.761 422.074 537.347 420.152 537.347 418.348V417.773H535.601V416.578H540.405V417.773H538.788V418.348ZM546.136 425.074L546.124 423.797L549.171 420.996C549.968 420.234 550.39 419.766 550.39 419.098C550.39 418.348 549.815 417.879 549.042 417.879C548.245 417.879 547.729 418.383 547.729 419.191H546.054C546.042 417.527 547.272 416.473 549.065 416.473C550.882 416.473 552.089 417.504 552.089 418.98C552.089 419.941 551.62 420.738 549.874 422.32L548.585 423.574V423.621H552.206V425.074H546.136ZM556.753 425.191C554.632 425.191 553.343 423.609 553.343 420.832C553.343 418.055 554.632 416.473 556.753 416.473C558.874 416.473 560.163 418.066 560.163 420.832C560.163 423.621 558.874 425.191 556.753 425.191ZM556.753 423.738C557.737 423.738 558.37 422.789 558.358 420.832C558.358 418.898 557.737 417.914 556.753 417.914C555.769 417.914 555.147 418.898 555.147 420.832C555.136 422.789 555.769 423.738 556.753 423.738ZM565.038 416.59V425.074H563.269V418.266H563.222L561.276 419.484V417.926L563.374 416.59H565.038ZM567.335 425.074L570.909 418.09V418.031H566.749V416.59H572.737V418.055L569.163 425.074H567.335ZM576.979 421.84C576.979 424.043 576.3 425.883 575.175 427.465H573.522C574.331 426.293 575.175 423.949 575.175 421.84C575.175 419.742 574.331 417.398 573.522 416.227H575.175C576.3 417.809 576.979 419.637 576.979 421.84Z" fill="black"/>
<rect x="298.8" y="99.6284" width="140" height="8" fill="#D9D9D9"/>
<rect x="298.8" y="111.628" width="217" height="8" fill="#D9D9D9"/>
<rect x="298.8" y="123.628" width="217" height="8" fill="#D9D9D9"/>
<rect x="302.677" y="186.213" width="95.5487" height="8" rx="1" fill="#D9D9D9"/>
<rect x="402.226" y="186.213" width="95.5487" height="8" rx="1" fill="#D9D9D9"/>
<rect x="501.774" y="186.213" width="95.5487" height="8" rx="1" fill="#D9D9D9"/>
<rect x="302.677" y="324.49" width="95.5487" height="8" rx="1" fill="#D9D9D9"/>
<rect x="402.226" y="324.49" width="95.5487" height="8" rx="1" fill="#D9D9D9"/>
<rect x="501.774" y="324.49" width="95.5487" height="8" rx="1" fill="#D9D9D9"/>
<rect x="302.677" y="440.798" width="95.5487" height="14" rx="1" fill="#D9D9D9"/>
<rect x="402.226" y="440.798" width="95.5487" height="14" rx="1" fill="#D9D9D9"/>
<rect x="501.774" y="440.798" width="95.5487" height="14" rx="1" fill="#D9D9D9"/>
<rect x="302.677" y="200.428" width="94.3385" height="34.8923" rx="1" fill="#EEEEEE"/>
<rect x="302.677" y="338.706" width="94.3385" height="34.8923" rx="1" fill="#EEEEEE"/>
<rect x="302.677" y="239.197" width="94.3385" height="18.0923" rx="1" fill="#EEEEEE"/>
<rect x="302.677" y="377.475" width="94.3385" height="18.0923" rx="1" fill="#EEEEEE"/>
<rect x="302.677" y="261.167" width="94.3385" height="18.0923" rx="1" fill="#EEEEEE"/>
<rect x="402.185" y="200.428" width="95.6308" height="34.8923" rx="1" fill="#EEEEEE"/>
<rect x="402.185" y="338.706" width="95.6308" height="34.8923" rx="1" fill="#EEEEEE"/>
<rect x="402.185" y="377.475" width="95.6308" height="18.0923" rx="1" fill="#EEEEEE"/>
<rect x="402.185" y="239.197" width="95.6308" height="40.0615" rx="1" fill="#EEEEEE"/>
<rect x="503" y="200.336" width="66" height="35" rx="1" fill="#EEEEEE"/>
<rect x="572" y="200.336" width="25" height="35" rx="1" fill="#EEEEEE"/>
<rect x="503" y="338.336" width="66" height="35" rx="1" fill="#EEEEEE"/>
<rect x="572" y="338.336" width="25" height="35" rx="1" fill="#EEEEEE"/>
<rect x="503" y="377.336" width="66" height="18" rx="1" fill="#EEEEEE"/>
<rect x="572" y="377.336" width="25" height="18" rx="1" fill="#EEEEEE"/>
<rect x="503" y="239.336" width="66" height="40" rx="1" fill="#EEEEEE"/>
<rect x="572" y="239.336" width="25" height="40" rx="1" fill="#EEEEEE"/>
<path d="M583.51 214.445V223.146H582.738V214.445H583.51ZM578.891 215.119C580.18 215.129 581.107 216.301 581.107 218.146C581.107 219.992 580.18 221.164 578.891 221.164C577.592 221.164 576.674 219.992 576.674 218.146C576.674 216.301 577.592 215.129 578.891 215.119ZM578.891 215.803C578.021 215.812 577.416 216.73 577.416 218.146C577.416 219.562 578.021 220.48 578.891 220.48C579.76 220.48 580.365 219.562 580.365 218.146C580.365 216.73 579.76 215.812 578.891 215.803ZM592.367 214.445V219.943H591.635V217.453H590.473V219.631H589.75V214.621H590.473V216.818H591.635V214.445H592.367ZM589.398 215.49V216.105H584.945V215.49H586.801V214.514H587.562V215.49H589.398ZM587.182 216.574C588.285 216.574 589.037 217.15 589.047 218.059C589.037 218.947 588.285 219.533 587.182 219.533C586.088 219.533 585.316 218.947 585.326 218.059C585.316 217.15 586.088 216.574 587.182 216.574ZM587.182 217.141C586.488 217.141 586.01 217.512 586.01 218.059C586.01 218.596 586.488 218.957 587.182 218.957C587.875 218.957 588.354 218.596 588.354 218.059C588.354 217.512 587.875 217.141 587.182 217.141ZM589.496 220.09C591.322 220.09 592.416 220.637 592.416 221.613C592.416 222.561 591.322 223.107 589.496 223.107C587.67 223.107 586.576 222.561 586.586 221.613C586.576 220.637 587.67 220.09 589.496 220.09ZM589.496 220.695C588.148 220.686 587.338 221.018 587.348 221.613C587.338 222.18 588.148 222.512 589.496 222.512C590.844 222.512 591.645 222.18 591.654 221.613C591.645 221.018 590.844 220.686 589.496 220.695Z" fill="#DF0D0D"/>
<path d="M583.51 255.445V264.146H582.738V255.445H583.51ZM578.891 256.119C580.18 256.129 581.107 257.301 581.107 259.146C581.107 260.992 580.18 262.164 578.891 262.164C577.592 262.164 576.674 260.992 576.674 259.146C576.674 257.301 577.592 256.129 578.891 256.119ZM578.891 256.803C578.021 256.812 577.416 257.73 577.416 259.146C577.416 260.562 578.021 261.48 578.891 261.48C579.76 261.48 580.365 260.562 580.365 259.146C580.365 257.73 579.76 256.812 578.891 256.803ZM592.367 255.445V260.943H591.635V258.453H590.473V260.631H589.75V255.621H590.473V257.818H591.635V255.445H592.367ZM589.398 256.49V257.105H584.945V256.49H586.801V255.514H587.562V256.49H589.398ZM587.182 257.574C588.285 257.574 589.037 258.15 589.047 259.059C589.037 259.947 588.285 260.533 587.182 260.533C586.088 260.533 585.316 259.947 585.326 259.059C585.316 258.15 586.088 257.574 587.182 257.574ZM587.182 258.141C586.488 258.141 586.01 258.512 586.01 259.059C586.01 259.596 586.488 259.957 587.182 259.957C587.875 259.957 588.354 259.596 588.354 259.059C588.354 258.512 587.875 258.141 587.182 258.141ZM589.496 261.09C591.322 261.09 592.416 261.637 592.416 262.613C592.416 263.561 591.322 264.107 589.496 264.107C587.67 264.107 586.576 263.561 586.586 262.613C586.576 261.637 587.67 261.09 589.496 261.09ZM589.496 261.695C588.148 261.686 587.338 262.018 587.348 262.613C587.338 263.18 588.148 263.512 589.496 263.512C590.844 263.512 591.645 263.18 591.654 262.613C591.645 262.018 590.844 261.686 589.496 261.695Z" fill="#DF0D0D"/>
<path d="M583.51 352.445V361.146H582.738V352.445H583.51ZM578.891 353.119C580.18 353.129 581.107 354.301 581.107 356.146C581.107 357.992 580.18 359.164 578.891 359.164C577.592 359.164 576.674 357.992 576.674 356.146C576.674 354.301 577.592 353.129 578.891 353.119ZM578.891 353.803C578.021 353.812 577.416 354.73 577.416 356.146C577.416 357.562 578.021 358.48 578.891 358.48C579.76 358.48 580.365 357.562 580.365 356.146C580.365 354.73 579.76 353.812 578.891 353.803ZM592.367 352.445V357.943H591.635V355.453H590.473V357.631H589.75V352.621H590.473V354.818H591.635V352.445H592.367ZM589.398 353.49V354.105H584.945V353.49H586.801V352.514H587.562V353.49H589.398ZM587.182 354.574C588.285 354.574 589.037 355.15 589.047 356.059C589.037 356.947 588.285 357.533 587.182 357.533C586.088 357.533 585.316 356.947 585.326 356.059C585.316 355.15 586.088 354.574 587.182 354.574ZM587.182 355.141C586.488 355.141 586.01 355.512 586.01 356.059C586.01 356.596 586.488 356.957 587.182 356.957C587.875 356.957 588.354 356.596 588.354 356.059C588.354 355.512 587.875 355.141 587.182 355.141ZM589.496 358.09C591.322 358.09 592.416 358.637 592.416 359.613C592.416 360.561 591.322 361.107 589.496 361.107C587.67 361.107 586.576 360.561 586.586 359.613C586.576 358.637 587.67 358.09 589.496 358.09ZM589.496 358.695C588.148 358.686 587.338 359.018 587.348 359.613C587.338 360.18 588.148 360.512 589.496 360.512C590.844 360.512 591.645 360.18 591.654 359.613C591.645 359.018 590.844 358.686 589.496 358.695Z" fill="#DF0D0D"/>
<path d="M583.51 382.445V391.146H582.738V382.445H583.51ZM578.891 383.119C580.18 383.129 581.107 384.301 581.107 386.146C581.107 387.992 580.18 389.164 578.891 389.164C577.592 389.164 576.674 387.992 576.674 386.146C576.674 384.301 577.592 383.129 578.891 383.119ZM578.891 383.803C578.021 383.812 577.416 384.73 577.416 386.146C577.416 387.562 578.021 388.48 578.891 388.48C579.76 388.48 580.365 387.562 580.365 386.146C580.365 384.73 579.76 383.812 578.891 383.803ZM592.367 382.445V387.943H591.635V385.453H590.473V387.631H589.75V382.621H590.473V384.818H591.635V382.445H592.367ZM589.398 383.49V384.105H584.945V383.49H586.801V382.514H587.562V383.49H589.398ZM587.182 384.574C588.285 384.574 589.037 385.15 589.047 386.059C589.037 386.947 588.285 387.533 587.182 387.533C586.088 387.533 585.316 386.947 585.326 386.059C585.316 385.15 586.088 384.574 587.182 384.574ZM587.182 385.141C586.488 385.141 586.01 385.512 586.01 386.059C586.01 386.596 586.488 386.957 587.182 386.957C587.875 386.957 588.354 386.596 588.354 386.059C588.354 385.512 587.875 385.141 587.182 385.141ZM589.496 388.09C591.322 388.09 592.416 388.637 592.416 389.613C592.416 390.561 591.322 391.107 589.496 391.107C587.67 391.107 586.576 390.561 586.586 389.613C586.576 388.637 587.67 388.09 589.496 388.09ZM589.496 388.695C588.148 388.686 587.338 389.018 587.348 389.613C587.338 390.18 588.148 390.512 589.496 390.512C590.844 390.512 591.645 390.18 591.654 389.613C591.645 389.018 590.844 388.686 589.496 388.695Z" fill="#DF0D0D"/>
<defs>
<filter id="filter0_d_1597_15795" x="0" y="25.3359" width="296" height="341" filterUnits="userSpaceOnUse" color-interpolation-filters="sRGB">
<feFlood flood-opacity="0" result="BackgroundImageFix"/>
<feColorMatrix in="SourceAlpha" type="matrix" values="0 0 0 0 0 0 0 0 0 0 0 0 0 0 0 0 0 0 127 0" result="hardAlpha"/>
<feOffset dy="4"/>
<feGaussianBlur stdDeviation="9"/>
<feComposite in2="hardAlpha" operator="out"/>
<feColorMatrix type="matrix" values="0 0 0 0 0 0 0 0 0 0 0 0 0 0 0 0 0 0 0.1 0"/>
<feBlend mode="normal" in2="BackgroundImageFix" result="effect1_dropShadow_1597_15795"/>
<feBlend mode="normal" in="SourceGraphic" in2="effect1_dropShadow_1597_15795" result="shape"/>
</filter>
<filter id="filter1_d_1597_15795" x="72" y="63.3359" width="296" height="391" filterUnits="userSpaceOnUse" color-interpolation-filters="sRGB">
<feFlood flood-opacity="0" result="BackgroundImageFix"/>
<feColorMatrix in="SourceAlpha" type="matrix" values="0 0 0 0 0 0 0 0 0 0 0 0 0 0 0 0 0 0 127 0" result="hardAlpha"/>
<feOffset dy="4"/>
<feGaussianBlur stdDeviation="9"/>
<feComposite in2="hardAlpha" operator="out"/>
<feColorMatrix type="matrix" values="0 0 0 0 0 0 0 0 0 0 0 0 0 0 0 0 0 0 0.1 0"/>
<feBlend mode="normal" in2="BackgroundImageFix" result="effect1_dropShadow_1597_15795"/>
<feBlend mode="normal" in="SourceGraphic" in2="effect1_dropShadow_1597_15795" result="shape"/>
</filter>
<filter id="filter2_d_1597_15795" x="264" y="0.335938" width="372" height="494.77" filterUnits="userSpaceOnUse" color-interpolation-filters="sRGB">
<feFlood flood-opacity="0" result="BackgroundImageFix"/>
<feColorMatrix in="SourceAlpha" type="matrix" values="0 0 0 0 0 0 0 0 0 0 0 0 0 0 0 0 0 0 127 0" result="hardAlpha"/>
<feOffset dy="4"/>
<feGaussianBlur stdDeviation="9"/>
<feComposite in2="hardAlpha" operator="out"/>
<feColorMatrix type="matrix" values="0 0 0 0 0 0 0 0 0 0 0 0 0 0 0 0 0 0 0.1 0"/>
<feBlend mode="normal" in2="BackgroundImageFix" result="effect1_dropShadow_1597_15795"/>
<feBlend mode="normal" in="SourceGraphic" in2="effect1_dropShadow_1597_15795" result="shape"/>
</filter>
</defs>
</svg>
