<svg width="48" height="49" viewBox="0 0 48 49" fill="none" xmlns="http://www.w3.org/2000/svg">
<mask id="path-1-outside-1_1603_13544" maskUnits="userSpaceOnUse" x="2" y="0.524414" width="44" height="47" fill="black">
<rect fill="white" x="2" y="0.524414" width="44" height="47"/>
<path fill-rule="evenodd" clip-rule="evenodd" d="M29.8333 1.52441C29.8333 1.52441 32.9182 1.52441 35.7372 2.71676C35.7372 2.71676 38.4592 3.86807 40.5578 5.96663C40.5578 5.96663 42.6564 8.06519 43.8077 10.7872C43.8077 10.7872 45 13.6062 45 16.6911C45 16.6911 45 19.7759 43.8077 22.595C43.8077 22.595 42.6564 25.317 40.5578 27.4155C40.5578 27.4155 38.4592 29.5141 35.7372 30.6654C35.7372 30.6654 33.5259 31.6007 30.8771 31.8146C29.8995 38.69 25.1655 42.4936 25.1655 42.4936C23.2027 44.3038 20.7308 45.6106 20.7308 45.6106C19.1932 46.4235 17.7479 46.9046 17.7479 46.9046C17 47.1742 16.2521 46.9046 16.2521 46.9046C14.8068 46.4235 13.2692 45.6106 13.2692 45.6106C10.7973 44.3038 8.83445 42.4936 8.83445 42.4936C3 37.1129 3 28.7746 3 28.7746V20.196C3 19.2275 3.68342 18.5426 3.68342 18.5426C4.36684 17.8577 5.33333 17.8577 5.33333 17.8577H14.7203C14.6862 17.4768 14.6667 17.0861 14.6667 16.6911C14.6667 16.6911 14.6667 13.6062 15.859 10.7872C15.859 10.7872 17.0103 8.06519 19.1089 5.96663C19.1089 5.96663 21.2074 3.86807 23.9294 2.71676C23.9294 2.71676 26.7485 1.52441 29.8333 1.52441ZM15.1085 20.196L5.33333 20.196V28.7746C5.33333 36.087 10.4145 40.773 10.4145 40.773C12.1542 42.3774 14.3579 43.5424 14.3579 43.5424C15.7319 44.2688 17 44.6896 17 44.6896C18.2681 44.2688 19.6421 43.5424 19.6421 43.5424C21.8458 42.3774 23.5855 40.773 23.5855 40.773C27.2743 37.3711 28.2851 33.595 28.5621 31.781C27.4029 31.6662 25.6185 31.3798 23.9294 30.6654C23.9294 30.6654 21.2074 29.5141 19.1089 27.4155C19.1089 27.4155 17.0103 25.317 15.859 22.595C15.859 22.595 15.4479 21.623 15.1085 20.196ZM29.8333 3.85775C29.8333 3.85775 27.2216 3.85775 24.8384 4.86577C24.8384 4.86577 22.5356 5.83979 20.7588 7.61654C20.7588 7.61654 18.982 9.3933 18.008 11.6961C18.008 11.6961 17 14.0794 17 16.6911C17 16.6911 17 19.3028 18.008 21.686C18.008 21.686 18.982 23.9889 20.7588 25.7656C20.7588 25.7656 22.5356 27.5424 24.8384 28.5164C24.8384 28.5164 27.2216 29.5244 29.8333 29.5244C29.8333 29.5244 32.445 29.5244 34.8283 28.5164C34.8283 28.5164 37.1311 27.5424 38.9079 25.7656C38.9079 25.7656 40.6846 23.9889 41.6586 21.686C41.6586 21.686 42.6667 19.3028 42.6667 16.6911C42.6667 16.6911 42.6667 14.0794 41.6586 11.6961C41.6586 11.6961 40.6846 9.3933 38.9079 7.61654C38.9079 7.61654 37.1311 5.83979 34.8283 4.86578C34.8283 4.86578 32.445 3.85775 29.8333 3.85775ZM28.6667 9.69108V17.8577C28.6667 18.5021 29.189 19.0244 29.8333 19.0244C30.4777 19.0244 31 18.5021 31 17.8577V9.69108C31 9.04675 30.4777 8.52441 29.8333 8.52441C29.189 8.52441 28.6667 9.04675 28.6667 9.69108ZM29.8333 24.8577C30.7998 24.8577 31.5833 24.0743 31.5833 23.1077C31.5833 22.1412 30.7998 21.3577 29.8333 21.3577C28.8669 21.3577 28.0833 22.1412 28.0833 23.1077C28.0833 24.0743 28.8669 24.8577 29.8333 24.8577Z"/>
</mask>
<path fill-rule="evenodd" clip-rule="evenodd" d="M29.8333 1.52441C29.8333 1.52441 32.9182 1.52441 35.7372 2.71676C35.7372 2.71676 38.4592 3.86807 40.5578 5.96663C40.5578 5.96663 42.6564 8.06519 43.8077 10.7872C43.8077 10.7872 45 13.6062 45 16.6911C45 16.6911 45 19.7759 43.8077 22.595C43.8077 22.595 42.6564 25.317 40.5578 27.4155C40.5578 27.4155 38.4592 29.5141 35.7372 30.6654C35.7372 30.6654 33.5259 31.6007 30.8771 31.8146C29.8995 38.69 25.1655 42.4936 25.1655 42.4936C23.2027 44.3038 20.7308 45.6106 20.7308 45.6106C19.1932 46.4235 17.7479 46.9046 17.7479 46.9046C17 47.1742 16.2521 46.9046 16.2521 46.9046C14.8068 46.4235 13.2692 45.6106 13.2692 45.6106C10.7973 44.3038 8.83445 42.4936 8.83445 42.4936C3 37.1129 3 28.7746 3 28.7746V20.196C3 19.2275 3.68342 18.5426 3.68342 18.5426C4.36684 17.8577 5.33333 17.8577 5.33333 17.8577H14.7203C14.6862 17.4768 14.6667 17.0861 14.6667 16.6911C14.6667 16.6911 14.6667 13.6062 15.859 10.7872C15.859 10.7872 17.0103 8.06519 19.1089 5.96663C19.1089 5.96663 21.2074 3.86807 23.9294 2.71676C23.9294 2.71676 26.7485 1.52441 29.8333 1.52441ZM15.1085 20.196L5.33333 20.196V28.7746C5.33333 36.087 10.4145 40.773 10.4145 40.773C12.1542 42.3774 14.3579 43.5424 14.3579 43.5424C15.7319 44.2688 17 44.6896 17 44.6896C18.2681 44.2688 19.6421 43.5424 19.6421 43.5424C21.8458 42.3774 23.5855 40.773 23.5855 40.773C27.2743 37.3711 28.2851 33.595 28.5621 31.781C27.4029 31.6662 25.6185 31.3798 23.9294 30.6654C23.9294 30.6654 21.2074 29.5141 19.1089 27.4155C19.1089 27.4155 17.0103 25.317 15.859 22.595C15.859 22.595 15.4479 21.623 15.1085 20.196ZM29.8333 3.85775C29.8333 3.85775 27.2216 3.85775 24.8384 4.86577C24.8384 4.86577 22.5356 5.83979 20.7588 7.61654C20.7588 7.61654 18.982 9.3933 18.008 11.6961C18.008 11.6961 17 14.0794 17 16.6911C17 16.6911 17 19.3028 18.008 21.686C18.008 21.686 18.982 23.9889 20.7588 25.7656C20.7588 25.7656 22.5356 27.5424 24.8384 28.5164C24.8384 28.5164 27.2216 29.5244 29.8333 29.5244C29.8333 29.5244 32.445 29.5244 34.8283 28.5164C34.8283 28.5164 37.1311 27.5424 38.9079 25.7656C38.9079 25.7656 40.6846 23.9889 41.6586 21.686C41.6586 21.686 42.6667 19.3028 42.6667 16.6911C42.6667 16.6911 42.6667 14.0794 41.6586 11.6961C41.6586 11.6961 40.6846 9.3933 38.9079 7.61654C38.9079 7.61654 37.1311 5.83979 34.8283 4.86578C34.8283 4.86578 32.445 3.85775 29.8333 3.85775ZM28.6667 9.69108V17.8577C28.6667 18.5021 29.189 19.0244 29.8333 19.0244C30.4777 19.0244 31 18.5021 31 17.8577V9.69108C31 9.04675 30.4777 8.52441 29.8333 8.52441C29.189 8.52441 28.6667 9.04675 28.6667 9.69108ZM29.8333 24.8577C30.7998 24.8577 31.5833 24.0743 31.5833 23.1077C31.5833 22.1412 30.7998 21.3577 29.8333 21.3577C28.8669 21.3577 28.0833 22.1412 28.0833 23.1077C28.0833 24.0743 28.8669 24.8577 29.8333 24.8577Z" fill="#0965EE"/>
<path d="M35.7372 2.71676L35.932 2.25626L35.7372 2.71676ZM40.5578 5.96663L40.9113 5.61307V5.61307L40.5578 5.96663ZM43.8077 10.7872L43.3471 10.9819L43.8077 10.7872ZM45 16.6911L45.5 16.6911V16.6911H45ZM43.8077 22.595L44.2682 22.7898L43.8077 22.595ZM40.5578 27.4155L40.9113 27.7691L40.5578 27.4155ZM35.7372 30.6654L35.932 31.1259L35.7372 30.6654ZM30.8771 31.8146L30.8369 31.3162L30.4384 31.3484L30.3821 31.7442L30.8771 31.8146ZM25.1655 42.4936L24.8524 42.1038L24.8391 42.1145L24.8266 42.126L25.1655 42.4936ZM20.7308 45.6106L20.4971 45.1685H20.4971L20.7308 45.6106ZM17.7479 46.9046L17.5899 46.43L17.5783 46.4342L17.7479 46.9046ZM16.2521 46.9046L16.4217 46.4341L16.41 46.4302L16.2521 46.9046ZM13.2692 45.6106L13.5029 45.1685L13.2692 45.6106ZM8.83445 42.4936L9.17342 42.126L8.83445 42.4936ZM3.68342 18.5426L3.32949 18.1894H3.32949L3.68342 18.5426ZM14.7203 17.8577V18.3577H15.2671L15.2183 17.8132L14.7203 17.8577ZM15.859 10.7872L16.3195 10.9819L15.859 10.7872ZM19.1089 5.96663L19.4624 6.32018L19.1089 5.96663ZM23.9294 2.71676L24.1242 3.17727L23.9294 2.71676ZM5.33333 20.196V19.696H4.83333V20.196H5.33333ZM15.1085 20.196L15.5949 20.0803L15.5035 19.696H15.1085V20.196ZM10.4145 40.773L10.7535 40.4055L10.4145 40.773ZM14.3579 43.5424L14.1242 43.9844H14.1242L14.3579 43.5424ZM17 44.6896L16.8425 45.1642L17 45.2164L17.1575 45.1642L17 44.6896ZM19.6421 43.5424L19.8758 43.9844H19.8758L19.6421 43.5424ZM23.5855 40.773L23.9245 41.1406L23.5855 40.773ZM28.5621 31.781L29.0564 31.8564L29.136 31.3353L28.6114 31.2834L28.5621 31.781ZM23.9294 30.6654L23.7346 31.1259L23.9294 30.6654ZM19.1089 27.4155L19.4624 27.062L19.1089 27.4155ZM15.859 22.595L16.3195 22.4002L15.859 22.595ZM24.8384 4.86577L25.0332 5.32628V5.32628L24.8384 4.86577ZM29.8333 3.85775V3.35775V3.85775ZM20.7588 7.61654L21.1124 7.9701L20.7588 7.61654ZM18.008 11.6961L18.4685 11.8909V11.8909L18.008 11.6961ZM17 16.6911H16.5H17ZM18.008 21.686L18.4685 21.4913L18.008 21.686ZM20.7588 25.7656L20.4052 26.1192L20.7588 25.7656ZM24.8384 28.5164L24.6436 28.9769L24.8384 28.5164ZM29.8333 29.5244V29.0244V29.5244ZM34.8283 28.5164L35.0231 28.9769L34.8283 28.5164ZM38.9079 25.7656L39.2614 26.1192L38.9079 25.7656ZM41.6586 21.686L41.1981 21.4913L41.6586 21.686ZM42.6667 16.6911L42.1667 16.6911V16.6911H42.6667ZM41.6586 11.6961L41.1981 11.8909V11.8909L41.6586 11.6961ZM38.9079 7.61654L39.2614 7.26299V7.26299L38.9079 7.61654ZM34.8283 4.86578L35.0231 4.40527V4.40527L34.8283 4.86578ZM35.932 2.25626C34.4666 1.63645 32.9427 1.33019 31.7939 1.1778C31.2176 1.10135 30.7311 1.06304 30.3873 1.04382C30.2153 1.03421 30.0788 1.02936 29.9843 1.02691C29.9371 1.02569 29.9004 1.02506 29.8749 1.02474C29.8622 1.02459 29.8523 1.0245 29.8453 1.02446C29.8419 1.02444 29.8391 1.02443 29.8371 1.02442C29.8361 1.02442 29.8353 1.02442 29.8347 1.02442C29.8343 1.02441 29.8341 1.02441 29.8339 1.02441C29.8337 1.02441 29.8336 1.02441 29.8336 1.02441C29.8334 1.02441 29.8333 1.02441 29.8333 1.52441C29.8333 2.02441 29.8333 2.02441 29.8332 2.02441C29.8332 2.02441 29.8331 2.02441 29.8331 2.02441C29.8331 2.02441 29.8331 2.02441 29.8331 2.02441C29.8333 2.02441 29.8336 2.02441 29.8341 2.02442C29.835 2.02442 29.8368 2.02443 29.8392 2.02444C29.8441 2.02447 29.8519 2.02453 29.8624 2.02467C29.8835 2.02493 29.9158 2.02547 29.9584 2.02658C30.0437 2.02878 30.1702 2.03325 30.3315 2.04227C30.6542 2.06031 31.1151 2.09652 31.6624 2.16912C32.7607 2.31481 34.1888 2.60473 35.5425 3.17727L35.932 2.25626ZM40.9113 5.61307C39.8211 4.52284 38.5768 3.68551 37.6125 3.12288C37.1289 2.84066 36.712 2.62543 36.4149 2.48021C36.2662 2.40757 36.1473 2.35233 36.0647 2.3149C36.0233 2.29618 35.9911 2.2819 35.9687 2.27212C35.9575 2.26722 35.9488 2.26345 35.9426 2.26081C35.9396 2.25948 35.9371 2.25844 35.9354 2.25769C35.9345 2.25731 35.9338 2.257 35.9332 2.25676C35.9329 2.25664 35.9327 2.25654 35.9325 2.25646C35.9324 2.25642 35.9323 2.25637 35.9322 2.25635C35.9321 2.2563 35.932 2.25626 35.7372 2.71676C35.5425 3.17727 35.5424 3.17724 35.5423 3.17721C35.5423 3.17721 35.5423 3.17718 35.5423 3.17718C35.5422 3.17716 35.5422 3.17717 35.5423 3.17719C35.5424 3.17723 35.5427 3.17735 35.5431 3.17753C35.5439 3.17789 35.5454 3.17854 35.5476 3.17946C35.5519 3.1813 35.5587 3.18425 35.5679 3.1883C35.5865 3.1964 35.6147 3.20891 35.652 3.22577C35.7264 3.25949 35.8365 3.3106 35.9758 3.37868C36.2546 3.51491 36.6494 3.71866 37.1086 3.98659C38.03 4.52425 39.1959 5.31185 40.2042 6.32018L40.9113 5.61307ZM44.2682 10.5924C43.6698 9.17774 42.8302 7.93469 42.1466 7.05037C41.8037 6.60675 41.4973 6.24994 41.2758 6.00311C41.165 5.87962 41.0752 5.78347 41.0125 5.71754C40.9812 5.68457 40.9566 5.65914 40.9394 5.64161C40.9309 5.63285 40.9242 5.62606 40.9195 5.62129C40.9171 5.6189 40.9153 5.61702 40.9139 5.61565C40.9132 5.61496 40.9127 5.61441 40.9122 5.61398C40.912 5.61376 40.9118 5.61358 40.9117 5.61343C40.9116 5.61335 40.9115 5.61327 40.9115 5.61323C40.9114 5.61315 40.9113 5.61307 40.5578 5.96663C40.2042 6.32018 40.2042 6.32013 40.2041 6.32008C40.2041 6.32007 40.2041 6.32003 40.2041 6.32002C40.2041 6.32 40.2041 6.32 40.2041 6.32005C40.2042 6.32013 40.2044 6.32034 40.2047 6.32067C40.2054 6.32134 40.2066 6.32251 40.2082 6.32418C40.2115 6.32751 40.2167 6.33284 40.2238 6.34011C40.238 6.35465 40.2596 6.37697 40.2879 6.4067C40.3445 6.46616 40.4277 6.55523 40.5316 6.67101C40.7395 6.90272 41.0298 7.24068 41.3554 7.66195C42.0089 8.5074 42.7942 9.67462 43.3471 10.9819L44.2682 10.5924ZM45.5 16.6911C45.5 15.0887 45.191 13.5658 44.8861 12.4504C44.7332 11.891 44.5801 11.4299 44.4647 11.1074C44.407 10.9461 44.3587 10.8192 44.3243 10.7317C44.3072 10.688 44.2935 10.6541 44.284 10.6307C44.2792 10.619 44.2754 10.6099 44.2728 10.6035C44.2715 10.6003 44.2704 10.5977 44.2696 10.5959C44.2692 10.595 44.2689 10.5942 44.2687 10.5936C44.2685 10.5933 44.2684 10.5931 44.2684 10.5929C44.2683 10.5928 44.2683 10.5927 44.2682 10.5926C44.2682 10.5925 44.2682 10.5924 43.8077 10.7872C43.3471 10.9819 43.3471 10.9819 43.3471 10.9818C43.3471 10.9818 43.3471 10.9817 43.3471 10.9817C43.347 10.9817 43.347 10.9817 43.3471 10.9818C43.3471 10.9819 43.3472 10.9821 43.3474 10.9826C43.3478 10.9835 43.3484 10.985 43.3494 10.9873C43.3512 10.9917 43.3542 10.9988 43.3581 11.0085C43.366 11.0279 43.378 11.0576 43.3934 11.0969C43.4243 11.1757 43.4691 11.2931 43.5232 11.4443C43.6314 11.7467 43.7764 12.1832 43.9215 12.7142C44.2128 13.7796 44.5 15.2086 44.5 16.6911H45.5ZM44.2682 22.7898C44.888 21.3244 45.1942 19.8005 45.3466 18.6516C45.4231 18.0753 45.4614 17.5888 45.4806 17.245C45.4902 17.0731 45.4951 16.9366 45.4975 16.8421C45.4987 16.7949 45.4994 16.7581 45.4997 16.7327C45.4998 16.7199 45.4999 16.7101 45.5 16.7031C45.5 16.6996 45.5 16.6969 45.5 16.6949C45.5 16.6938 45.5 16.693 45.5 16.6924C45.5 16.6921 45.5 16.6918 45.5 16.6916C45.5 16.6915 45.5 16.6914 45.5 16.6913C45.5 16.6912 45.5 16.6911 45 16.6911C44.5 16.6911 44.5 16.691 44.5 16.6909C44.5 16.6909 44.5 16.6909 44.5 16.6908C44.5 16.6908 44.5 16.6908 44.5 16.6909C44.5 16.691 44.5 16.6913 44.5 16.6918C44.5 16.6928 44.5 16.6945 44.5 16.6969C44.4999 16.7018 44.4999 16.7096 44.4998 16.7202C44.4995 16.7413 44.4989 16.7736 44.4978 16.8162C44.4956 16.9014 44.4912 17.0279 44.4822 17.1892C44.4641 17.512 44.4279 17.9729 44.3553 18.5201C44.2096 19.6185 43.9197 21.0466 43.3471 22.4002L44.2682 22.7898ZM40.9113 27.7691C42.0016 26.6789 42.8389 25.4345 43.4015 24.4703C43.6838 23.9866 43.899 23.5698 44.0442 23.2726C44.1168 23.124 44.1721 23.005 44.2095 22.9224C44.2282 22.8811 44.2425 22.8488 44.2523 22.8265C44.2572 22.8153 44.261 22.8065 44.2636 22.8004C44.2649 22.7973 44.266 22.7949 44.2667 22.7931C44.2671 22.7922 44.2674 22.7915 44.2677 22.7909C44.2678 22.7907 44.2679 22.7904 44.268 22.7902C44.268 22.7901 44.268 22.79 44.2681 22.79C44.2681 22.7899 44.2682 22.7898 43.8077 22.595C43.3471 22.4002 43.3472 22.4001 43.3472 22.4001C43.3472 22.4001 43.3472 22.4 43.3472 22.4C43.3473 22.4 43.3472 22.4 43.3472 22.4C43.3472 22.4001 43.3471 22.4004 43.3469 22.4008C43.3465 22.4017 43.3459 22.4032 43.345 22.4053C43.3431 22.4096 43.3402 22.4164 43.3361 22.4257C43.328 22.4442 43.3155 22.4725 43.2986 22.5097C43.2649 22.5841 43.2138 22.6943 43.1457 22.8336C43.0095 23.1124 42.8058 23.5071 42.5378 23.9663C42.0002 24.8877 41.2126 26.0536 40.2042 27.062L40.9113 27.7691ZM35.932 31.1259C37.3467 30.5276 38.5897 29.6879 39.474 29.0043C39.9177 28.6614 40.2745 28.3551 40.5213 28.1335C40.6448 28.0227 40.741 27.933 40.8069 27.8703C40.8399 27.8389 40.8653 27.8143 40.8828 27.7972C40.8916 27.7886 40.8984 27.782 40.9031 27.7772C40.9055 27.7749 40.9074 27.773 40.9088 27.7717C40.9095 27.771 40.91 27.7704 40.9104 27.77C40.9107 27.7698 40.9108 27.7696 40.911 27.7694C40.9111 27.7694 40.9112 27.7693 40.9112 27.7692C40.9113 27.7692 40.9113 27.7691 40.5578 27.4155C40.2042 27.062 40.2043 27.0619 40.2043 27.0619C40.2043 27.0619 40.2044 27.0618 40.2044 27.0618C40.2044 27.0618 40.2044 27.0618 40.2044 27.0618C40.2043 27.0619 40.2041 27.0621 40.2038 27.0625C40.2031 27.0631 40.2019 27.0643 40.2002 27.0659C40.1969 27.0692 40.1916 27.0745 40.1843 27.0816C40.1698 27.0958 40.1475 27.1174 40.1177 27.1457C40.0583 27.2022 39.9692 27.2854 39.8534 27.3893C39.6217 27.5972 39.2837 27.8875 38.8625 28.2131C38.017 28.8667 36.8498 29.6519 35.5425 30.2049L35.932 31.1259ZM30.9174 32.3129C32.2863 32.2024 33.5366 31.9062 34.4419 31.6394C34.8955 31.5057 35.2649 31.3786 35.5222 31.2844C35.6509 31.2373 35.7517 31.1984 35.8211 31.1709C35.8559 31.1571 35.8827 31.1462 35.9014 31.1386C35.9107 31.1348 35.9179 31.1318 35.9231 31.1297C35.9256 31.1286 35.9277 31.1277 35.9291 31.1271C35.9299 31.1268 35.9305 31.1265 35.931 31.1263C35.9312 31.1262 35.9314 31.1262 35.9316 31.1261C35.9317 31.126 35.9318 31.126 35.9318 31.126C35.9319 31.1259 35.932 31.1259 35.7372 30.6654C35.5425 30.2049 35.5425 30.2049 35.5426 30.2048C35.5426 30.2048 35.5427 30.2048 35.5427 30.2048C35.5427 30.2048 35.5427 30.2048 35.5427 30.2048C35.5426 30.2048 35.5424 30.2049 35.5421 30.205C35.5415 30.2053 35.5403 30.2058 35.5386 30.2065C35.5352 30.2079 35.5297 30.2102 35.5222 30.2133C35.5071 30.2195 35.4839 30.2289 35.453 30.2411C35.3911 30.2656 35.2985 30.3014 35.1785 30.3453C34.9384 30.4332 34.5894 30.5533 34.1591 30.6802C33.2965 30.9345 32.1167 31.2129 30.8369 31.3162L30.9174 32.3129ZM25.1655 42.4936C25.4787 42.8834 25.4789 42.8832 25.4791 42.8831C25.4792 42.883 25.4794 42.8829 25.4795 42.8827C25.4799 42.8824 25.4803 42.8821 25.4808 42.8817C25.4818 42.8809 25.483 42.8799 25.4846 42.8787C25.4876 42.8761 25.4918 42.8727 25.4972 42.8683C25.5078 42.8596 25.5228 42.8471 25.5419 42.8309C25.5802 42.7985 25.6349 42.7513 25.7041 42.6895C25.8425 42.5658 26.0387 42.3833 26.2759 42.1435C26.7503 41.6641 27.39 40.9542 28.0602 40.0248C29.4002 38.167 30.8691 35.4225 31.3721 31.885L30.3821 31.7442C29.9075 35.0821 28.5207 37.677 27.2492 39.4399C26.6138 40.3209 26.0089 40.9916 25.5651 41.4402C25.3432 41.6644 25.162 41.8328 25.0376 41.944C24.9755 41.9996 24.9276 42.0408 24.896 42.0675C24.8802 42.0808 24.8685 42.0906 24.8612 42.0966C24.8575 42.0997 24.8549 42.1018 24.8534 42.103C24.8527 42.1036 24.8522 42.104 24.852 42.1041C24.852 42.1042 24.8519 42.1042 24.852 42.1041C24.852 42.1041 24.8521 42.104 24.8521 42.104C24.8522 42.1039 24.8524 42.1038 25.1655 42.4936ZM20.7308 45.6106C20.9645 46.0526 20.9646 46.0526 20.9646 46.0525C20.9647 46.0525 20.9648 46.0525 20.9648 46.0524C20.965 46.0523 20.9652 46.0522 20.9654 46.0521C20.9658 46.0519 20.9664 46.0516 20.9671 46.0512C20.9686 46.0504 20.9707 46.0493 20.9734 46.0479C20.9787 46.045 20.9863 46.0409 20.9962 46.0356C21.016 46.025 21.0448 46.0094 21.0818 45.989C21.1557 45.9483 21.2627 45.8887 21.3968 45.8116C21.665 45.6575 22.0423 45.4334 22.4818 45.1519C23.3582 44.5906 24.4935 43.7936 25.5045 42.8612L24.8266 42.126C23.8748 43.0038 22.7927 43.7652 21.9425 44.3098C21.5186 44.5813 21.1553 44.7971 20.8986 44.9446C20.7703 45.0183 20.6689 45.0749 20.6 45.1127C20.5655 45.1317 20.5393 45.1459 20.5219 45.1553C20.5132 45.16 20.5067 45.1634 20.5026 45.1656C20.5005 45.1667 20.499 45.1675 20.4981 45.168C20.4976 45.1683 20.4973 45.1684 20.4972 45.1685C20.4971 45.1686 20.497 45.1686 20.497 45.1686C20.497 45.1686 20.4971 45.1686 20.4971 45.1686C20.4971 45.1685 20.4971 45.1685 20.7308 45.6106ZM17.7479 46.9046C17.9058 47.379 17.9058 47.379 17.9059 47.3789C17.9059 47.3789 17.906 47.3789 17.906 47.3789C17.9061 47.3789 17.9063 47.3788 17.9064 47.3788C17.9067 47.3787 17.9071 47.3786 17.9075 47.3784C17.9085 47.3781 17.9098 47.3777 17.9114 47.3771C17.9146 47.376 17.9193 47.3745 17.9253 47.3724C17.9372 47.3684 17.9545 47.3625 17.9768 47.3547C18.0213 47.3393 18.086 47.3165 18.1681 47.2868C18.3322 47.2273 18.5661 47.1398 18.8488 47.0265C19.413 46.8003 20.1757 46.4696 20.9645 46.0526L20.4971 45.1685C19.7483 45.5644 19.0195 45.8807 18.4767 46.0983C18.2058 46.2069 17.9823 46.2905 17.8274 46.3466C17.7499 46.3747 17.6896 46.3959 17.6492 46.4099C17.6289 46.4169 17.6137 46.4221 17.6037 46.4255C17.5987 46.4272 17.595 46.4285 17.5927 46.4292C17.5916 46.4296 17.5908 46.4299 17.5903 46.4301C17.5901 46.4301 17.5899 46.4302 17.5899 46.4302C17.5898 46.4302 17.5898 46.4302 17.5898 46.4302C17.5898 46.4302 17.5899 46.4302 17.5899 46.4302C17.5899 46.4302 17.5899 46.4302 17.7479 46.9046ZM16.2521 46.9046C16.0825 47.3749 16.0827 47.375 16.0828 47.375C16.0829 47.3751 16.083 47.3751 16.0831 47.3752C16.0834 47.3752 16.0836 47.3753 16.0838 47.3754C16.0843 47.3756 16.0849 47.3758 16.0854 47.376C16.0866 47.3764 16.0879 47.3769 16.0895 47.3774C16.0925 47.3785 16.0964 47.3798 16.1009 47.3813C16.11 47.3844 16.1219 47.3883 16.1366 47.3929C16.1659 47.402 16.2062 47.4139 16.256 47.4267C16.3551 47.4522 16.494 47.4822 16.6599 47.5021C16.9872 47.5415 17.4459 47.5449 17.9174 47.3749L17.5783 46.4342C17.3019 46.5338 17.0127 46.5373 16.7792 46.5093C16.6646 46.4955 16.5698 46.4749 16.5053 46.4583C16.4733 46.45 16.4493 46.4429 16.4348 46.4384C16.4276 46.4361 16.4227 46.4345 16.4205 46.4338C16.4194 46.4334 16.4189 46.4332 16.4191 46.4333C16.4192 46.4333 16.4194 46.4334 16.4199 46.4336C16.4201 46.4336 16.4203 46.4337 16.4207 46.4338C16.4208 46.4339 16.421 46.4339 16.4211 46.434C16.4212 46.434 16.4214 46.4341 16.4214 46.4341C16.4216 46.4342 16.4217 46.4342 16.2521 46.9046ZM13.2692 45.6106C13.0355 46.0526 13.0355 46.0526 13.0356 46.0526C13.0356 46.0526 13.0357 46.0527 13.0357 46.0527C13.0358 46.0527 13.0359 46.0528 13.036 46.0529C13.0363 46.053 13.0367 46.0532 13.0371 46.0534C13.038 46.0539 13.0393 46.0546 13.041 46.0555C13.0443 46.0572 13.049 46.0597 13.0552 46.0629C13.0675 46.0694 13.0855 46.0787 13.1087 46.0907C13.1551 46.1147 13.2225 46.1491 13.3077 46.1919C13.4779 46.2774 13.7197 46.3962 14.0075 46.5303C14.5805 46.7974 15.3457 47.1298 16.0942 47.379L16.41 46.4302C15.7133 46.1982 14.987 45.8836 14.4299 45.6239C14.1525 45.4947 13.9196 45.3802 13.7564 45.2983C13.6748 45.2573 13.6108 45.2245 13.5675 45.2022C13.5458 45.191 13.5293 45.1824 13.5184 45.1767C13.513 45.1738 13.5089 45.1717 13.5063 45.1703C13.505 45.1697 13.5041 45.1692 13.5035 45.1689C13.5032 45.1687 13.503 45.1686 13.5029 45.1685C13.5028 45.1685 13.5028 45.1685 13.5028 45.1685C13.5028 45.1685 13.5028 45.1685 13.5028 45.1685C13.5028 45.1685 13.5029 45.1685 13.2692 45.6106ZM8.83445 42.4936C8.49548 42.8612 8.49553 42.8612 8.4956 42.8613C8.49563 42.8613 8.4957 42.8614 8.49576 42.8614C8.49588 42.8615 8.49604 42.8617 8.49622 42.8618C8.49659 42.8622 8.49708 42.8626 8.49769 42.8632C8.4989 42.8643 8.50059 42.8658 8.50275 42.8678C8.50707 42.8718 8.51327 42.8774 8.52131 42.8847C8.53739 42.8993 8.56082 42.9204 8.59126 42.9475C8.65211 43.0016 8.741 43.0797 8.85507 43.1771C9.08312 43.3718 9.41229 43.6443 9.81976 43.9582C10.633 44.5845 11.7662 45.3815 13.0355 46.0526L13.5029 45.1685C12.3003 44.5328 11.2161 43.7714 10.4299 43.1659C10.0377 42.8638 9.72168 42.6021 9.50446 42.4166C9.39589 42.3239 9.31212 42.2503 9.25598 42.2004C9.22791 42.1754 9.20676 42.1564 9.19288 42.1438C9.18594 42.1375 9.18082 42.1328 9.17756 42.1298C9.17593 42.1283 9.17477 42.1273 9.17408 42.1266C9.17373 42.1263 9.1735 42.1261 9.17339 42.126C9.17334 42.126 9.17331 42.1259 9.17332 42.1259C9.17332 42.1259 9.17335 42.126 9.17335 42.126C9.17338 42.126 9.17342 42.126 8.83445 42.4936ZM3 28.7746C2.5 28.7746 2.5 28.7748 2.5 28.775C2.5 28.7752 2.5 28.7754 2.5 28.7757C2.5 28.7761 2.5 28.7768 2.5 28.7775C2.50001 28.779 2.50002 28.7809 2.50003 28.7834C2.50006 28.7884 2.50011 28.7953 2.50021 28.8043C2.50041 28.8221 2.5008 28.8478 2.50155 28.881C2.50307 28.9473 2.50606 29.0437 2.51197 29.1673C2.52377 29.4144 2.54724 29.7707 2.59391 30.2139C2.6872 31.0998 2.87348 32.3361 3.24593 33.7442C3.98947 36.5552 5.48401 40.0839 8.49548 42.8612L9.17342 42.126C6.35044 39.5226 4.92776 36.1918 4.21268 33.4885C3.85583 32.1394 3.67746 30.9548 3.58841 30.1092C3.54392 29.6866 3.52181 29.3494 3.51083 29.1195C3.50533 29.0046 3.50263 28.9166 3.50129 28.8581C3.50063 28.8289 3.5003 28.8071 3.50015 28.7931C3.50007 28.7861 3.50003 28.781 3.50001 28.7779C3.50001 28.7763 3.5 28.7753 3.5 28.7747C3.5 28.7745 3.5 28.7743 3.5 28.7743C3.5 28.7743 3.5 28.7744 3.5 28.7743C3.5 28.7745 3.5 28.7746 3 28.7746ZM2.5 20.196V28.7746H3.5V20.196H2.5ZM3.68342 18.5426C3.32949 18.1894 3.32937 18.1896 3.32924 18.1897C3.32919 18.1897 3.32906 18.1899 3.32897 18.19C3.32879 18.1901 3.32859 18.1903 3.32839 18.1905C3.32798 18.191 3.32752 18.1914 3.32703 18.1919C3.32604 18.1929 3.32489 18.1941 3.32357 18.1954C3.32094 18.1981 3.31766 18.2015 3.31378 18.2056C3.30602 18.2137 3.29583 18.2246 3.28357 18.2382C3.25908 18.2652 3.22615 18.3029 3.18763 18.3506C3.11089 18.4457 3.01038 18.5822 2.91005 18.7538C2.7114 19.0936 2.5 19.5946 2.5 20.196H3.5C3.5 19.8289 3.63031 19.5032 3.77337 19.2584C3.84389 19.1378 3.91424 19.0425 3.96563 18.9789C3.99119 18.9472 4.01165 18.9239 4.02453 18.9097C4.03096 18.9026 4.03546 18.8978 4.03771 18.8955C4.03883 18.8943 4.03939 18.8937 4.03934 18.8938C4.03932 18.8938 4.03915 18.894 4.03882 18.8943C4.03865 18.8945 4.03845 18.8947 4.0382 18.8949C4.03808 18.8951 4.03795 18.8952 4.0378 18.8953C4.03773 18.8954 4.03762 18.8955 4.03758 18.8956C4.03747 18.8957 4.03735 18.8958 3.68342 18.5426ZM5.33333 17.8577C5.33333 17.3577 5.33316 17.3577 5.33298 17.3577C5.33291 17.3577 5.33273 17.3577 5.3326 17.3577C5.33233 17.3577 5.33206 17.3577 5.33177 17.3577C5.33118 17.3577 5.33054 17.3578 5.32983 17.3578C5.32843 17.3578 5.32678 17.3578 5.32489 17.3578C5.32112 17.3578 5.3164 17.3579 5.31078 17.358C5.29953 17.3583 5.28464 17.3588 5.26641 17.3597C5.22999 17.3614 5.18003 17.3648 5.11911 17.3712C4.99771 17.384 4.83022 17.4093 4.63804 17.4597C4.25753 17.5593 3.75416 17.7639 3.32949 18.1894L4.03735 18.8958C4.2961 18.6365 4.61768 18.4987 4.89127 18.4271C5.02615 18.3918 5.143 18.3743 5.22417 18.3657C5.26454 18.3614 5.29543 18.3594 5.31453 18.3585C5.32407 18.358 5.3306 18.3579 5.33385 18.3578C5.33547 18.3577 5.33626 18.3577 5.33619 18.3577C5.33615 18.3577 5.3359 18.3577 5.33543 18.3577C5.33519 18.3577 5.3349 18.3577 5.33455 18.3577C5.33437 18.3577 5.33419 18.3577 5.33398 18.3577C5.33388 18.3577 5.33372 18.3577 5.33367 18.3577C5.3335 18.3577 5.33333 18.3577 5.33333 17.8577ZM14.7203 17.3577H5.33333V18.3577H14.7203V17.3577ZM14.1667 16.6911C14.1667 17.1025 14.187 17.5081 14.2223 17.9023L15.2183 17.8132C15.1854 17.4454 15.1667 17.0697 15.1667 16.6911H14.1667ZM15.3985 10.5924C14.7787 12.0578 14.4724 13.5817 14.3201 14.7305C14.2436 15.3069 14.2053 15.7934 14.1861 16.1371C14.1765 16.3091 14.1716 16.4456 14.1692 16.5401C14.1679 16.5873 14.1673 16.6241 14.167 16.6495C14.1668 16.6622 14.1668 16.6721 14.1667 16.6791C14.1667 16.6826 14.1667 16.6853 14.1667 16.6873C14.1667 16.6883 14.1667 16.6891 14.1667 16.6898C14.1667 16.6901 14.1667 16.6903 14.1667 16.6906C14.1667 16.6907 14.1667 16.6908 14.1667 16.6909C14.1667 16.691 14.1667 16.6911 14.6667 16.6911C15.1667 16.6911 15.1667 16.6912 15.1667 16.6912C15.1667 16.6912 15.1667 16.6913 15.1667 16.6913C15.1667 16.6914 15.1667 16.6913 15.1667 16.6913C15.1667 16.6912 15.1667 16.6908 15.1667 16.6904C15.1667 16.6894 15.1667 16.6877 15.1667 16.6852C15.1667 16.6803 15.1668 16.6726 15.1669 16.662C15.1672 16.6409 15.1677 16.6086 15.1688 16.566C15.171 16.4807 15.1755 16.3542 15.1845 16.1929C15.2026 15.8702 15.2388 15.4093 15.3114 14.862C15.4571 13.7637 15.747 12.3356 16.3195 10.9819L15.3985 10.5924ZM18.7553 5.61307C17.6651 6.70331 16.8278 7.94765 16.2651 8.91187C15.9829 9.39552 15.7677 9.81238 15.6225 10.1095C15.5498 10.2582 15.4946 10.3771 15.4572 10.4598C15.4384 10.5011 15.4242 10.5333 15.4144 10.5557C15.4095 10.5669 15.4057 10.5756 15.4031 10.5818C15.4017 10.5848 15.4007 10.5873 15.3999 10.589C15.3996 10.5899 15.3993 10.5907 15.399 10.5912C15.3989 10.5915 15.3988 10.5917 15.3987 10.5919C15.3987 10.592 15.3986 10.5921 15.3986 10.5922C15.3986 10.5923 15.3985 10.5924 15.859 10.7872C16.3195 10.9819 16.3195 10.982 16.3195 10.9821C16.3195 10.9821 16.3194 10.9821 16.3194 10.9822C16.3194 10.9822 16.3194 10.9822 16.3194 10.9821C16.3195 10.982 16.3196 10.9818 16.3198 10.9813C16.3201 10.9805 16.3208 10.979 16.3217 10.9768C16.3236 10.9726 16.3265 10.9657 16.3306 10.9565C16.3387 10.9379 16.3512 10.9097 16.368 10.8725C16.4017 10.798 16.4529 10.6879 16.5209 10.5486C16.6572 10.2698 16.8609 9.87502 17.1288 9.41585C17.6665 8.49444 18.4541 7.32851 19.4624 6.32018L18.7553 5.61307ZM23.7346 2.25626C22.32 2.85461 21.0769 3.69427 20.1926 4.37784C19.749 4.72076 19.3922 5.0271 19.1454 5.24862C19.0219 5.35943 18.9257 5.4492 18.8598 5.5119C18.8268 5.54326 18.8014 5.56786 18.7839 5.58497C18.7751 5.59353 18.7683 5.60021 18.7635 5.60492C18.7612 5.60728 18.7593 5.60915 18.7579 5.61051C18.7572 5.61119 18.7567 5.61174 18.7562 5.61217C18.756 5.61239 18.7558 5.61257 18.7557 5.61272C18.7556 5.61279 18.7555 5.61288 18.7555 5.61292C18.7554 5.613 18.7553 5.61307 19.1089 5.96663C19.4624 6.32018 19.4624 6.32024 19.4623 6.32029C19.4623 6.32029 19.4623 6.32033 19.4623 6.32034C19.4622 6.32037 19.4623 6.32036 19.4623 6.32032C19.4624 6.32024 19.4626 6.32003 19.4629 6.3197C19.4636 6.31903 19.4648 6.31787 19.4664 6.31622C19.4698 6.31292 19.4751 6.30768 19.4824 6.30058C19.4969 6.28639 19.5192 6.26479 19.549 6.23651C19.6084 6.17995 19.6975 6.09677 19.8133 5.99286C20.045 5.78492 20.3829 5.49466 20.8042 5.16903C21.6497 4.51549 22.8169 3.73022 24.1242 3.17727L23.7346 2.25626ZM29.8333 1.02441C28.2309 1.02441 26.708 1.33337 25.5927 1.63829C25.0333 1.79122 24.5722 1.94431 24.2497 2.05968C24.0884 2.11739 23.9614 2.16576 23.874 2.20007C23.8302 2.21722 23.7963 2.23088 23.7729 2.24044C23.7612 2.24522 23.7521 2.24897 23.7457 2.25164C23.7425 2.25297 23.74 2.25402 23.7381 2.2548C23.7372 2.25518 23.7365 2.2555 23.7359 2.25575C23.7356 2.25587 23.7353 2.25597 23.7351 2.25606C23.735 2.2561 23.7349 2.25615 23.7349 2.25617C23.7347 2.25622 23.7346 2.25626 23.9294 2.71676C24.1242 3.17727 24.1241 3.1773 24.1241 3.17733C24.1241 3.17733 24.124 3.17735 24.124 3.17736C24.1239 3.17738 24.124 3.17737 24.124 3.17735C24.1241 3.1773 24.1244 3.17719 24.1248 3.177C24.1257 3.17663 24.1273 3.17598 24.1295 3.17505C24.134 3.1732 24.1411 3.17026 24.1508 3.16631C24.1701 3.1584 24.1998 3.14644 24.2392 3.13099C24.3179 3.1001 24.4354 3.05531 24.5865 3.00124C24.889 2.89305 25.3254 2.74804 25.8564 2.60289C26.9218 2.31163 28.3509 2.02441 29.8333 2.02441V1.02441ZM5.33333 20.696L15.1085 20.696V19.696L5.33333 19.696V20.696ZM5.83333 28.7746V20.196H4.83333V28.7746H5.83333ZM10.4145 40.773C10.7535 40.4055 10.7536 40.4056 10.7537 40.4057C10.7537 40.4057 10.7538 40.4058 10.7538 40.4058C10.7538 40.4058 10.7538 40.4058 10.7537 40.4056C10.7534 40.4054 10.7529 40.4049 10.752 40.4041C10.7504 40.4026 10.7475 40.3999 10.7434 40.396C10.7354 40.3884 10.7226 40.3763 10.7056 40.3598C10.6715 40.3267 10.6202 40.276 10.5541 40.2082C10.4218 40.0726 10.2304 39.8687 9.99957 39.6004C9.53766 39.0637 8.91948 38.2714 8.30095 37.2559C7.06282 35.2231 5.83333 32.3131 5.83333 28.7746H4.83333C4.83333 32.5485 6.14443 35.6377 7.4469 37.7761C8.09866 38.8461 8.75077 39.6824 9.24158 40.2527C9.48712 40.5381 9.69271 40.7573 9.83828 40.9065C9.91108 40.9812 9.96891 41.0383 10.0093 41.0775C10.0295 41.0971 10.0453 41.1121 10.0564 41.1227C10.062 41.128 10.0664 41.1321 10.0696 41.1351C10.0712 41.1366 10.0725 41.1378 10.0735 41.1387C10.074 41.1391 10.0744 41.1395 10.0747 41.1399C10.0749 41.14 10.0751 41.1402 10.0752 41.1403C10.0754 41.1404 10.0755 41.1406 10.4145 40.773ZM14.3579 43.5424C14.5916 43.1004 14.5916 43.1004 14.5917 43.1004C14.5917 43.1004 14.5917 43.1004 14.5917 43.1004C14.5917 43.1004 14.5917 43.1004 14.5916 43.1004C14.5915 43.1003 14.5912 43.1002 14.5908 43.1C14.59 43.0996 14.5887 43.0989 14.5869 43.0979C14.5833 43.096 14.5776 43.0929 14.5699 43.0888C14.5545 43.0805 14.5312 43.0678 14.5007 43.0511C14.4395 43.0175 14.3494 42.9672 14.2354 42.9018C14.0074 42.7708 13.6845 42.5791 13.3081 42.3382C12.5527 41.8547 11.5935 41.1802 10.7535 40.4055L10.0755 41.1406C10.9752 41.9702 11.9877 42.6804 12.769 43.1805C13.161 43.4314 13.4978 43.6313 13.7373 43.7689C13.8571 43.8377 13.9528 43.891 14.019 43.9274C14.0521 43.9456 14.0778 43.9596 14.0956 43.9691C14.1045 43.9739 14.1113 43.9776 14.1161 43.9802C14.1185 43.9814 14.1204 43.9824 14.1218 43.9832C14.1224 43.9835 14.123 43.9838 14.1234 43.984C14.1236 43.9841 14.1238 43.9842 14.1239 43.9843C14.124 43.9843 14.1241 43.9844 14.1241 43.9844C14.1242 43.9844 14.1242 43.9844 14.3579 43.5424ZM17 44.6896C17.1575 44.2151 17.1575 44.2151 17.1576 44.2151C17.1576 44.2151 17.1576 44.2151 17.1576 44.2151C17.1576 44.2151 17.1576 44.2151 17.1576 44.2151C17.1576 44.2151 17.1575 44.215 17.1573 44.215C17.1569 44.2149 17.1562 44.2146 17.1552 44.2143C17.1533 44.2137 17.1501 44.2126 17.1458 44.2111C17.1372 44.2082 17.1239 44.2037 17.1063 44.1976C17.0711 44.1854 17.0184 44.1669 16.9506 44.1424C16.8149 44.0932 16.6188 44.02 16.3803 43.9243C15.9025 43.7327 15.2588 43.4531 14.5916 43.1004L14.1242 43.9844C14.831 44.3581 15.5084 44.6521 16.0081 44.8525C16.2584 44.9528 16.4652 45.0302 16.6102 45.0827C16.6827 45.1089 16.7399 45.129 16.7793 45.1426C16.7991 45.1495 16.8144 45.1547 16.825 45.1583C16.8303 45.1601 16.8345 45.1615 16.8374 45.1624C16.8389 45.1629 16.84 45.1633 16.8409 45.1636C16.8413 45.1638 16.8417 45.1639 16.8419 45.164C16.8421 45.164 16.8422 45.1641 16.8423 45.1641C16.8423 45.1641 16.8424 45.1641 16.8424 45.1641C16.8425 45.1641 16.8425 45.1642 17 44.6896ZM19.6421 43.5424C19.4084 43.1004 19.4084 43.1004 19.4085 43.1004C19.4085 43.1004 19.4085 43.1004 19.4085 43.1004C19.4085 43.1004 19.4085 43.1004 19.4084 43.1004C19.4083 43.1004 19.4082 43.1005 19.4079 43.1007C19.4074 43.1009 19.4066 43.1013 19.4054 43.102C19.4031 43.1032 19.3995 43.105 19.3947 43.1076C19.385 43.1126 19.3704 43.1203 19.3511 43.1302C19.3126 43.1501 19.2557 43.1793 19.1831 43.2157C19.038 43.2886 18.8311 43.3904 18.5852 43.5051C18.091 43.7357 17.4502 44.0134 16.8425 44.2151L17.1575 45.1642C17.8179 44.945 18.4982 44.6491 19.008 44.4113C19.2642 44.2918 19.4799 44.1857 19.6321 44.1093C19.7082 44.071 19.7685 44.0402 19.81 44.0187C19.8308 44.008 19.8469 43.9996 19.858 43.9938C19.8635 43.9909 19.8678 43.9886 19.8708 43.9871C19.8723 43.9863 19.8735 43.9857 19.8743 43.9852C19.8747 43.985 19.875 43.9848 19.8753 43.9847C19.8754 43.9846 19.8755 43.9846 19.8756 43.9845C19.8756 43.9845 19.8757 43.9845 19.8757 43.9845C19.8757 43.9845 19.8758 43.9844 19.6421 43.5424ZM23.5855 40.773C23.2465 40.4055 23.2466 40.4054 23.2466 40.4054C23.2466 40.4054 23.2466 40.4054 23.2466 40.4054C23.2466 40.4054 23.2466 40.4054 23.2466 40.4054C23.2465 40.4055 23.2463 40.4057 23.246 40.4059C23.2454 40.4065 23.2444 40.4074 23.243 40.4087C23.2402 40.4112 23.2357 40.4153 23.2296 40.4208C23.2175 40.4319 23.1989 40.4486 23.1741 40.4707C23.1246 40.5147 23.0506 40.5797 22.9546 40.6616C22.7625 40.8256 22.4828 41.0571 22.1352 41.3246C21.4384 41.8609 20.477 42.5354 19.4084 43.1004L19.8758 43.9844C21.0109 43.3844 22.0212 42.6743 22.7451 42.1171C23.108 41.8378 23.4009 41.5955 23.6039 41.4222C23.7054 41.3355 23.7845 41.2661 23.8388 41.2178C23.8659 41.1937 23.8868 41.1749 23.9012 41.1618C23.9084 41.1553 23.9139 41.1502 23.9178 41.1467C23.9198 41.1449 23.9213 41.1435 23.9224 41.1425C23.923 41.142 23.9234 41.1415 23.9238 41.1412C23.9239 41.1411 23.9241 41.1409 23.9242 41.1408C23.9242 41.1408 23.9243 41.1407 23.9243 41.1407C23.9244 41.1406 23.9245 41.1406 23.5855 40.773ZM28.0678 31.7055C27.8023 33.4449 26.8277 37.1027 23.2465 40.4055L23.9245 41.1406C27.7209 37.6394 28.768 33.7451 29.0564 31.8564L28.0678 31.7055ZM23.7346 31.1259C25.4889 31.8679 27.3292 32.1613 28.5128 32.2785L28.6114 31.2834C27.4766 31.171 25.748 30.8917 24.1242 30.2049L23.7346 31.1259ZM18.7553 27.7691C19.8456 28.8593 21.0899 29.6967 22.0541 30.2593C22.5378 30.5415 22.9546 30.7567 23.2518 30.902C23.4005 30.9746 23.5194 31.0298 23.602 31.0673C23.6433 31.086 23.6756 31.1003 23.698 31.1101C23.7092 31.1149 23.7179 31.1187 23.724 31.1214C23.7271 31.1227 23.7295 31.1237 23.7313 31.1245C23.7322 31.1249 23.7329 31.1252 23.7335 31.1254C23.7338 31.1255 23.734 31.1256 23.7342 31.1257C23.7343 31.1257 23.7344 31.1258 23.7344 31.1258C23.7346 31.1259 23.7346 31.1259 23.9294 30.6654C24.1242 30.2049 24.1243 30.2049 24.1243 30.205C24.1243 30.205 24.1244 30.205 24.1244 30.205C24.1244 30.205 24.1244 30.205 24.1244 30.205C24.1243 30.2049 24.124 30.2048 24.1236 30.2046C24.1227 30.2043 24.1212 30.2036 24.1191 30.2027C24.1148 30.2009 24.108 30.1979 24.0987 30.1939C24.0802 30.1858 24.0519 30.1733 24.0147 30.1564C23.9403 30.1227 23.8302 30.0716 23.6909 30.0035C23.4121 29.8673 23.0173 29.6635 22.5581 29.3956C21.6367 28.8579 20.4708 28.0703 19.4624 27.062L18.7553 27.7691ZM15.3985 22.7898C15.9969 24.2044 16.8365 25.4475 17.5201 26.3318C17.863 26.7754 18.1694 27.1322 18.3909 27.3791C18.5017 27.5025 18.5914 27.5987 18.6542 27.6646C18.6855 27.6976 18.7101 27.723 18.7272 27.7406C18.7358 27.7493 18.7425 27.7561 18.7472 27.7609C18.7495 27.7633 18.7514 27.7651 18.7528 27.7665C18.7534 27.7672 18.754 27.7678 18.7544 27.7682C18.7546 27.7684 18.7548 27.7686 18.755 27.7687C18.755 27.7688 18.7551 27.7689 18.7552 27.7689C18.7553 27.769 18.7553 27.7691 19.1089 27.4155C19.4624 27.062 19.4625 27.062 19.4625 27.0621C19.4625 27.0621 19.4626 27.0621 19.4626 27.0621C19.4626 27.0622 19.4626 27.0622 19.4626 27.0621C19.4625 27.062 19.4623 27.0618 19.462 27.0615C19.4613 27.0608 19.4601 27.0597 19.4585 27.058C19.4552 27.0547 19.4499 27.0493 19.4428 27.0421C19.4286 27.0275 19.407 27.0052 19.3788 26.9755C19.3222 26.916 19.239 26.8269 19.1351 26.7111C18.9272 26.4794 18.6369 26.1415 18.3113 25.7202C17.6577 24.8748 16.8725 23.7075 16.3195 22.4002L15.3985 22.7898ZM14.6221 20.3117C14.7963 21.0441 14.9889 21.6598 15.1383 22.0935C15.2131 22.3106 15.2772 22.4825 15.3231 22.6011C15.3461 22.6605 15.3644 22.7065 15.3773 22.7383C15.3838 22.7542 15.3888 22.7665 15.3924 22.7751C15.3942 22.7794 15.3956 22.7828 15.3966 22.7853C15.3971 22.7865 15.3975 22.7875 15.3979 22.7882C15.398 22.7886 15.3982 22.7889 15.3983 22.7892C15.3983 22.7893 15.3984 22.7894 15.3984 22.7895C15.3984 22.7896 15.3985 22.7896 15.3985 22.7897C15.3985 22.7897 15.3985 22.7898 15.859 22.595C16.3195 22.4002 16.3195 22.4003 16.3196 22.4003C16.3196 22.4003 16.3196 22.4004 16.3196 22.4004C16.3196 22.4004 16.3196 22.4004 16.3196 22.4005C16.3196 22.4005 16.3196 22.4004 16.3196 22.4003C16.3195 22.4001 16.3193 22.3997 16.319 22.3991C16.3185 22.3977 16.3175 22.3955 16.3162 22.3923C16.3136 22.386 16.3095 22.3761 16.3041 22.3626C16.2931 22.3356 16.2768 22.2946 16.2558 22.2405C16.214 22.1324 16.1542 21.9721 16.0838 21.7677C15.9428 21.3587 15.7601 20.7749 15.5949 20.0803L14.6221 20.3117ZM25.0332 5.32628C26.1688 4.84592 27.3696 4.60208 28.2953 4.47942C28.7562 4.41834 29.1443 4.38788 29.4159 4.37272C29.5516 4.36514 29.6579 4.3614 29.7294 4.35955C29.7651 4.35862 29.7921 4.35817 29.8097 4.35795C29.8184 4.35784 29.8249 4.35779 29.8288 4.35777C29.8308 4.35776 29.8322 4.35775 29.833 4.35775C29.8333 4.35775 29.8336 4.35775 29.8336 4.35775C29.8336 4.35775 29.8336 4.35775 29.8336 4.35775C29.8336 4.35775 29.8335 4.35775 29.8335 4.35775C29.8334 4.35775 29.8333 4.35775 29.8333 3.85775C29.8333 3.35775 29.8332 3.35775 29.8331 3.35775C29.8331 3.35775 29.8329 3.35775 29.8328 3.35775C29.8326 3.35775 29.8324 3.35775 29.8321 3.35775C29.8315 3.35775 29.8308 3.35775 29.8299 3.35775C29.8281 3.35776 29.8257 3.35777 29.8227 3.35779C29.8167 3.35782 29.8081 3.35789 29.7972 3.35803C29.7753 3.3583 29.7439 3.35884 29.7035 3.35988C29.6229 3.36197 29.5065 3.3661 29.3601 3.37427C29.0676 3.39061 28.6538 3.42316 28.1639 3.48808C27.1878 3.61743 25.8912 3.8776 24.6436 4.40527L25.0332 5.32628ZM21.1124 7.9701C21.9598 7.12265 22.9405 6.45982 23.7169 6.00672C24.1035 5.78106 24.4359 5.60953 24.6703 5.49495C24.7875 5.4377 24.88 5.39478 24.9423 5.36653C24.9735 5.35241 24.9971 5.34196 25.0125 5.33524C25.0202 5.33187 25.0258 5.32944 25.0293 5.32795C25.031 5.3272 25.0322 5.32669 25.0329 5.32641C25.0332 5.32627 25.0334 5.32619 25.0334 5.32617C25.0334 5.32616 25.0334 5.32616 25.0334 5.32618C25.0334 5.32619 25.0333 5.32621 25.0333 5.32622C25.0332 5.32624 25.0332 5.32628 24.8384 4.86577C24.6436 4.40527 24.6435 4.40531 24.6434 4.40536C24.6434 4.40538 24.6433 4.40542 24.6432 4.40546C24.643 4.40554 24.6428 4.40563 24.6425 4.40574C24.642 4.40596 24.6413 4.40623 24.6406 4.40657C24.639 4.40724 24.6369 4.40815 24.6342 4.4093C24.6288 4.4116 24.6213 4.41485 24.6117 4.41906C24.5925 4.42747 24.5649 4.43968 24.5296 4.45567C24.4591 4.48763 24.3578 4.53468 24.2313 4.5965C23.9784 4.72007 23.624 4.90309 23.2129 5.14304C22.3936 5.62113 21.3346 6.33368 20.4052 7.26299L21.1124 7.9701ZM18.4685 11.8909C18.9328 10.7932 19.5933 9.81121 20.1442 9.09859C20.4186 8.74374 20.6631 8.45911 20.8381 8.26411C20.9255 8.16668 20.9954 8.09182 21.0429 8.04197C21.0666 8.01705 21.0846 7.9984 21.0964 7.98631C21.1023 7.98027 21.1066 7.97587 21.1093 7.97316C21.1107 7.9718 21.1116 7.97086 21.1121 7.97035C21.1124 7.97009 21.1125 7.96994 21.1125 7.9699C21.1126 7.96988 21.1126 7.96989 21.1125 7.96992C21.1125 7.96994 21.1125 7.96998 21.1125 7.96999C21.1124 7.97004 21.1124 7.9701 20.7588 7.61654C20.4052 7.26299 20.4052 7.26306 20.4051 7.26314C20.4051 7.26317 20.405 7.26326 20.4049 7.26333C20.4048 7.26347 20.4046 7.26364 20.4044 7.26383C20.404 7.26422 20.4035 7.26472 20.4029 7.26533C20.4017 7.26654 20.4001 7.26819 20.398 7.27026C20.3939 7.27441 20.3882 7.28027 20.3808 7.28781C20.3661 7.30287 20.345 7.32464 20.3183 7.3528C20.2647 7.40911 20.1882 7.49105 20.0939 7.59618C19.9053 7.80629 19.6447 8.10976 19.3531 8.48696C18.7721 9.23842 18.0572 10.2962 17.5475 11.5014L18.4685 11.8909ZM17.5 16.6911C17.5 15.4451 17.7412 14.2433 17.9863 13.346C18.1084 12.8991 18.2304 12.5319 18.3213 12.2777C18.3667 12.1507 18.4043 12.0521 18.4302 11.9862C18.4431 11.9533 18.4531 11.9285 18.4597 11.9124C18.4629 11.9044 18.4653 11.8986 18.4668 11.8949C18.4676 11.8931 18.4681 11.8919 18.4684 11.8912C18.4685 11.8909 18.4686 11.8907 18.4686 11.8906C18.4687 11.8906 18.4687 11.8906 18.4686 11.8907C18.4686 11.8907 18.4686 11.8907 18.4686 11.8908C18.4686 11.8908 18.4685 11.8909 18.008 11.6961C17.5475 11.5014 17.5475 11.5014 17.5474 11.5016C17.5474 11.5016 17.5474 11.5017 17.5473 11.5018C17.5473 11.502 17.5472 11.5022 17.547 11.5025C17.5468 11.503 17.5465 11.5037 17.5462 11.5045C17.5455 11.5062 17.5446 11.5084 17.5434 11.5111C17.5411 11.5167 17.5379 11.5246 17.5338 11.5346C17.5256 11.5547 17.5139 11.5837 17.4992 11.621C17.47 11.6957 17.4288 11.8037 17.3797 11.9409C17.2816 12.2152 17.1516 12.607 17.0217 13.0824C16.7629 14.0297 16.5 15.3253 16.5 16.6911H17.5ZM18.4685 21.4913C17.9882 20.3556 17.7443 19.1548 17.6217 18.2292C17.5606 17.7683 17.5301 17.3801 17.515 17.1085C17.5074 16.9728 17.5037 16.8665 17.5018 16.795C17.5009 16.7593 17.5004 16.7323 17.5002 16.7148C17.5001 16.706 17.5 16.6996 17.5 16.6956C17.5 16.6936 17.5 16.6922 17.5 16.6915C17.5 16.6911 17.5 16.6909 17.5 16.6908C17.5 16.6908 17.5 16.6908 17.5 16.6908C17.5 16.6908 17.5 16.6909 17.5 16.6909C17.5 16.691 17.5 16.6911 17 16.6911C16.5 16.6911 16.5 16.6912 16.5 16.6913C16.5 16.6914 16.5 16.6915 16.5 16.6916C16.5 16.6918 16.5 16.692 16.5 16.6923C16.5 16.6929 16.5 16.6936 16.5 16.6945C16.5 16.6963 16.5 16.6987 16.5 16.7017C16.5001 16.7078 16.5001 16.7163 16.5003 16.7272C16.5006 16.7491 16.5011 16.7806 16.5021 16.8209C16.5042 16.9016 16.5084 17.0179 16.5165 17.1643C16.5329 17.4568 16.5654 17.8706 16.6303 18.3605C16.7597 19.3366 17.0199 20.6332 17.5475 21.8808L18.4685 21.4913ZM21.1124 25.4121C20.2649 24.5646 19.6021 23.5839 19.149 22.8075C18.9233 22.4209 18.7518 22.0885 18.6372 21.8541C18.58 21.7369 18.537 21.6444 18.5088 21.5821C18.4947 21.5509 18.4842 21.5273 18.4775 21.5119C18.4741 21.5043 18.4717 21.4986 18.4702 21.4952C18.4695 21.4934 18.4689 21.4922 18.4687 21.4916C18.4685 21.4912 18.4684 21.491 18.4684 21.491C18.4684 21.491 18.4684 21.491 18.4684 21.491C18.4684 21.491 18.4685 21.4911 18.4685 21.4911C18.4685 21.4912 18.4685 21.4913 18.008 21.686C17.5475 21.8808 17.5476 21.8809 17.5476 21.881C17.5476 21.8811 17.5477 21.8812 17.5477 21.8813C17.5478 21.8814 17.5479 21.8817 17.548 21.8819C17.5482 21.8824 17.5485 21.8831 17.5488 21.8839C17.5495 21.8854 17.5504 21.8876 17.5516 21.8902C17.5539 21.8956 17.5571 21.9031 17.5613 21.9127C17.5697 21.9319 17.5819 21.9595 17.5979 21.9948C17.6299 22.0653 17.6769 22.1666 17.7388 22.2932C17.8623 22.546 18.0453 22.9004 18.2853 23.3116C18.7634 24.1308 19.4759 25.1899 20.4052 26.1192L21.1124 25.4121ZM25.0332 28.0559C23.9354 27.5916 22.9535 26.9311 22.2408 26.3802C21.886 26.1058 21.6014 25.8614 21.4064 25.6863C21.3089 25.5989 21.2341 25.529 21.1842 25.4816C21.1593 25.4579 21.1406 25.4398 21.1286 25.428C21.1225 25.4221 21.1181 25.4178 21.1154 25.4151C21.1141 25.4138 21.1131 25.4128 21.1126 25.4123C21.1123 25.4121 21.1122 25.4119 21.1122 25.4119C21.1121 25.4118 21.1121 25.4119 21.1122 25.4119C21.1122 25.4119 21.1122 25.4119 21.1122 25.412C21.1123 25.412 21.1124 25.4121 20.7588 25.7656C20.4052 26.1192 20.4053 26.1192 20.4054 26.1193C20.4054 26.1194 20.4055 26.1194 20.4056 26.1195C20.4057 26.1197 20.4059 26.1198 20.4061 26.12C20.4065 26.1204 20.407 26.1209 20.4076 26.1215C20.4088 26.1227 20.4104 26.1243 20.4125 26.1264C20.4167 26.1305 20.4225 26.1363 20.4301 26.1436C20.4451 26.1583 20.4669 26.1794 20.4951 26.2062C20.5514 26.2597 20.6333 26.3362 20.7384 26.4306C20.9485 26.6191 21.252 26.8797 21.6292 27.1713C22.3807 27.7523 23.4385 28.4672 24.6436 28.9769L25.0332 28.0559ZM29.8333 29.0244C28.5874 29.0244 27.3855 28.7833 26.4883 28.5381C26.0414 28.416 25.6742 28.294 25.4199 28.2031C25.2929 28.1577 25.1944 28.1201 25.1285 28.0942C25.0955 28.0813 25.0708 28.0713 25.0547 28.0648C25.0467 28.0615 25.0408 28.0591 25.0372 28.0576C25.0354 28.0568 25.0341 28.0563 25.0335 28.056C25.0331 28.0559 25.0329 28.0558 25.0329 28.0558C25.0329 28.0558 25.0329 28.0558 25.0329 28.0558C25.0329 28.0558 25.033 28.0558 25.033 28.0558C25.0331 28.0559 25.0332 28.0559 24.8384 28.5164C24.6436 28.9769 24.6437 28.9769 24.6438 28.977C24.6439 28.977 24.644 28.977 24.6441 28.9771C24.6443 28.9772 24.6445 28.9773 24.6448 28.9774C24.6453 28.9776 24.646 28.9779 24.6468 28.9782C24.6484 28.9789 24.6506 28.9798 24.6534 28.981C24.659 28.9833 24.6668 28.9865 24.6769 28.9906C24.697 28.9989 24.726 29.0105 24.7633 29.0252C24.8379 29.0544 24.946 29.0956 25.0832 29.1447C25.3575 29.2428 25.7493 29.3728 26.2247 29.5027C27.172 29.7616 28.4676 30.0244 29.8333 30.0244V29.0244ZM34.6335 28.0559C33.4978 28.5362 32.297 28.7801 31.3714 28.9027C30.9105 28.9638 30.5224 28.9943 30.2508 29.0094C30.1151 29.017 30.0087 29.0208 29.9373 29.0226C29.9016 29.0235 29.8746 29.024 29.857 29.0242C29.8482 29.0243 29.8418 29.0244 29.8378 29.0244C29.8358 29.0244 29.8345 29.0244 29.8337 29.0244C29.8333 29.0244 29.8331 29.0244 29.8331 29.0244C29.833 29.0244 29.833 29.0244 29.8331 29.0244C29.8331 29.0244 29.8332 29.0244 29.8332 29.0244C29.8333 29.0244 29.8333 29.0244 29.8333 29.5244C29.8333 30.0244 29.8334 30.0244 29.8336 30.0244C29.8336 30.0244 29.8337 30.0244 29.8338 30.0244C29.834 30.0244 29.8343 30.0244 29.8346 30.0244C29.8351 30.0244 29.8359 30.0244 29.8368 30.0244C29.8385 30.0244 29.8409 30.0244 29.844 30.0244C29.85 30.0243 29.8586 30.0243 29.8695 30.0241C29.8914 30.0239 29.9228 30.0233 29.9631 30.0223C30.0438 30.0202 30.1601 30.0161 30.3065 30.0079C30.5991 29.9916 31.0128 29.959 31.5028 29.8941C32.4788 29.7647 33.7755 29.5046 35.0231 28.9769L34.6335 28.0559ZM38.5543 25.4121C37.7069 26.2595 36.7262 26.9223 35.9498 27.3754C35.5631 27.6011 35.2308 27.7726 34.9963 27.8872C34.8792 27.9445 34.7867 27.9874 34.7244 28.0156C34.6932 28.0298 34.6696 28.0402 34.6542 28.0469C34.6465 28.0503 34.6409 28.0527 34.6374 28.0542C34.6357 28.055 34.6345 28.0555 34.6338 28.0558C34.6335 28.0559 34.6333 28.056 34.6333 28.056C34.6332 28.056 34.6332 28.056 34.6333 28.056C34.6333 28.056 34.6334 28.056 34.6334 28.0559C34.6334 28.0559 34.6335 28.0559 34.8283 28.5164C35.0231 28.9769 35.0232 28.9768 35.0233 28.9768C35.0233 28.9768 35.0234 28.9767 35.0235 28.9767C35.0237 28.9766 35.0239 28.9765 35.0242 28.9764C35.0247 28.9762 35.0253 28.9759 35.0261 28.9756C35.0277 28.9749 35.0298 28.974 35.0325 28.9729C35.0378 28.9706 35.0454 28.9673 35.055 28.9631C35.0742 28.9547 35.1018 28.9425 35.1371 28.9265C35.2076 28.8945 35.3089 28.8475 35.4354 28.7857C35.6883 28.6621 36.0427 28.4791 36.4538 28.2391C37.273 27.761 38.3321 27.0485 39.2614 26.1192L38.5543 25.4121ZM41.1981 21.4913C40.7338 22.589 40.0734 23.5709 39.5224 24.2836C39.2481 24.6384 39.0036 24.9231 38.8286 25.118C38.7412 25.2155 38.6712 25.2903 38.6238 25.3402C38.6001 25.3651 38.5821 25.3838 38.5703 25.3958C38.5644 25.4019 38.56 25.4063 38.5574 25.409C38.556 25.4104 38.5551 25.4113 38.5546 25.4118C38.5543 25.4121 38.5542 25.4122 38.5541 25.4123C38.5541 25.4123 38.5541 25.4123 38.5541 25.4122C38.5542 25.4122 38.5542 25.4122 38.5542 25.4122C38.5543 25.4121 38.5543 25.4121 38.9079 25.7656C39.2614 26.1192 39.2615 26.1191 39.2616 26.119C39.2616 26.119 39.2617 26.1189 39.2618 26.1188C39.2619 26.1187 39.2621 26.1185 39.2623 26.1183C39.2627 26.1179 39.2632 26.1174 39.2638 26.1168C39.265 26.1156 39.2666 26.114 39.2687 26.1119C39.2728 26.1077 39.2785 26.1019 39.2859 26.0944C39.3006 26.0793 39.3216 26.0575 39.3484 26.0294C39.402 25.973 39.4785 25.8911 39.5728 25.786C39.7614 25.5759 40.022 25.2724 40.3136 24.8952C40.8945 24.1437 41.6094 23.0859 42.1191 21.8808L41.1981 21.4913ZM42.1667 16.6911C42.1667 17.937 41.9255 19.1389 41.6803 20.0362C41.5582 20.4831 41.4363 20.8503 41.3453 21.1045C41.2999 21.2315 41.2623 21.33 41.2365 21.3959C41.2236 21.4289 41.2136 21.4537 41.207 21.4697C41.2037 21.4778 41.2013 21.4836 41.1998 21.4872C41.1991 21.489 41.1985 21.4903 41.1983 21.491C41.1981 21.4913 41.198 21.4915 41.198 21.4915C41.198 21.4916 41.198 21.4916 41.198 21.4915C41.198 21.4915 41.1981 21.4914 41.1981 21.4914C41.1981 21.4913 41.1981 21.4913 41.6586 21.686C42.1191 21.8808 42.1192 21.8807 42.1192 21.8806C42.1192 21.8806 42.1193 21.8804 42.1193 21.8804C42.1194 21.8802 42.1195 21.8799 42.1196 21.8797C42.1198 21.8791 42.1201 21.8785 42.1205 21.8776C42.1212 21.876 42.1221 21.8738 42.1232 21.871C42.1256 21.8654 42.1288 21.8576 42.1329 21.8475C42.1411 21.8274 42.1528 21.7984 42.1674 21.7611C42.1967 21.6865 42.2379 21.5784 42.2869 21.4412C42.385 21.1669 42.5151 20.7751 42.645 20.2997C42.9038 19.3525 43.1667 18.0569 43.1667 16.6911H42.1667ZM41.1981 11.8909C41.6785 13.0266 41.9223 14.2274 42.045 15.153C42.1061 15.6139 42.1365 16.002 42.1517 16.2736C42.1593 16.4093 42.163 16.5157 42.1649 16.5871C42.1658 16.6229 42.1662 16.6499 42.1665 16.6674C42.1666 16.6762 42.1666 16.6826 42.1666 16.6866C42.1667 16.6886 42.1667 16.6899 42.1667 16.6907C42.1667 16.6911 42.1667 16.6913 42.1667 16.6914C42.1667 16.6914 42.1667 16.6914 42.1667 16.6913C42.1667 16.6913 42.1667 16.6913 42.1667 16.6912C42.1667 16.6912 42.1667 16.6911 42.6667 16.6911C43.1667 16.6911 43.1667 16.691 43.1667 16.6909C43.1667 16.6908 43.1667 16.6907 43.1667 16.6906C43.1667 16.6904 43.1667 16.6901 43.1667 16.6898C43.1667 16.6893 43.1667 16.6885 43.1667 16.6877C43.1667 16.6859 43.1666 16.6835 43.1666 16.6805C43.1666 16.6744 43.1665 16.6659 43.1664 16.6549C43.1661 16.6331 43.1656 16.6016 43.1645 16.5613C43.1624 16.4806 43.1583 16.3643 43.1501 16.2179C43.1338 15.9253 43.1013 15.5116 43.0363 15.0216C42.907 14.0456 42.6468 12.7489 42.1191 11.5014L41.1981 11.8909ZM38.5543 7.9701C39.4018 8.81754 40.0646 9.79825 40.5177 10.5746C40.7434 10.9613 40.9149 11.2936 41.0295 11.5281C41.0867 11.6452 41.1296 11.7377 41.1579 11.8001C41.172 11.8312 41.1824 11.8548 41.1892 11.8702C41.1925 11.8779 41.195 11.8835 41.1965 11.887C41.1972 11.8887 41.1977 11.8899 41.198 11.8906C41.1981 11.8909 41.1982 11.8911 41.1982 11.8912C41.1983 11.8912 41.1983 11.8912 41.1982 11.8911C41.1982 11.8911 41.1982 11.8911 41.1982 11.891C41.1982 11.891 41.1981 11.8909 41.6586 11.6961C42.1191 11.5014 42.1191 11.5013 42.1191 11.5012C42.119 11.5011 42.119 11.501 42.119 11.5009C42.1189 11.5007 42.1188 11.5005 42.1187 11.5002C42.1185 11.4997 42.1182 11.4991 42.1178 11.4983C42.1172 11.4967 42.1163 11.4946 42.1151 11.4919C42.1128 11.4866 42.1096 11.4791 42.1054 11.4694C42.0969 11.4502 42.0847 11.4226 42.0687 11.3874C42.0368 11.3168 41.9897 11.2155 41.9279 11.089C41.8043 10.8362 41.6213 10.4817 41.3814 10.0706C40.9033 9.25138 40.1907 8.1923 39.2614 7.26299L38.5543 7.9701ZM34.6335 5.32628C35.7312 5.79057 36.7132 6.45106 37.4258 7.00199C37.7807 7.27632 38.0653 7.52081 38.2603 7.69582C38.3577 7.78326 38.4326 7.85318 38.4824 7.9006C38.5074 7.9243 38.526 7.94236 38.5381 7.95416C38.5441 7.96005 38.5485 7.96438 38.5513 7.96707C38.5526 7.96841 38.5536 7.96934 38.5541 7.96985C38.5543 7.9701 38.5545 7.97025 38.5545 7.97029C38.5545 7.97031 38.5545 7.97031 38.5545 7.97028C38.5545 7.97026 38.5544 7.97021 38.5544 7.97021C38.5544 7.97016 38.5543 7.9701 38.9079 7.61654C39.2614 7.26299 39.2614 7.26292 39.2613 7.26284C39.2612 7.2628 39.2612 7.26272 39.2611 7.26265C39.2609 7.26251 39.2608 7.26234 39.2606 7.26215C39.2602 7.26176 39.2597 7.26126 39.2591 7.26066C39.2579 7.25945 39.2562 7.25782 39.2542 7.25577C39.25 7.25167 39.2441 7.2459 39.2366 7.23855C39.2215 7.22384 39.1998 7.20278 39.1716 7.176C39.1153 7.12244 39.0334 7.04594 38.9282 6.9516C38.7181 6.76302 38.4146 6.50245 38.0375 6.21084C37.286 5.62989 36.2282 4.91499 35.0231 4.40527L34.6335 5.32628ZM29.8333 4.35775C31.0793 4.35775 32.2811 4.59891 33.1784 4.84408C33.6253 4.96619 33.9925 5.08815 34.2467 5.17907C34.3737 5.22449 34.4723 5.26208 34.5382 5.28793C34.5711 5.30086 34.5959 5.31084 34.612 5.3174C34.62 5.32067 34.6259 5.32309 34.6295 5.32459C34.6313 5.32534 34.6325 5.32587 34.6332 5.32615C34.6335 5.32629 34.6337 5.32637 34.6338 5.32639C34.6338 5.32641 34.6338 5.3264 34.6338 5.32638C34.6337 5.32637 34.6337 5.32635 34.6337 5.32634C34.6336 5.32631 34.6335 5.32628 34.8283 4.86578C35.0231 4.40527 35.023 4.40523 35.0229 4.40519C35.0228 4.40517 35.0227 4.40512 35.0226 4.40508C35.0224 4.405 35.0222 4.4049 35.0219 4.40479C35.0214 4.40457 35.0207 4.40428 35.0199 4.40394C35.0183 4.40326 35.0161 4.40233 35.0133 4.40117C35.0077 4.39886 34.9999 4.39562 34.9898 4.39151C34.9697 4.3833 34.9407 4.37163 34.9034 4.35699C34.8287 4.32772 34.7207 4.28655 34.5835 4.23747C34.3092 4.13938 33.9174 4.00934 33.442 3.87944C32.4947 3.6206 31.1991 3.35775 29.8333 3.35775V4.35775ZM29.1667 17.8577V9.69108H28.1667V17.8577H29.1667ZM29.8333 18.5244C29.4651 18.5244 29.1667 18.2259 29.1667 17.8577H28.1667C28.1667 18.7782 28.9129 19.5244 29.8333 19.5244V18.5244ZM30.5 17.8577C30.5 18.2259 30.2015 18.5244 29.8333 18.5244V19.5244C30.7538 19.5244 31.5 18.7782 31.5 17.8577H30.5ZM30.5 9.69108V17.8577H31.5V9.69108H30.5ZM29.8333 9.02441C30.2015 9.02441 30.5 9.32289 30.5 9.69108H31.5C31.5 8.77061 30.7538 8.02441 29.8333 8.02441V9.02441ZM29.1667 9.69108C29.1667 9.32289 29.4651 9.02441 29.8333 9.02441V8.02441C28.9129 8.02441 28.1667 8.77061 28.1667 9.69108H29.1667ZM31.0833 23.1077C31.0833 23.7981 30.5236 24.3577 29.8333 24.3577V25.3577C31.0759 25.3577 32.0833 24.3504 32.0833 23.1077H31.0833ZM29.8333 21.8577C30.5236 21.8577 31.0833 22.4174 31.0833 23.1077H32.0833C32.0833 21.8651 31.0759 20.8577 29.8333 20.8577V21.8577ZM28.5833 23.1077C28.5833 22.4174 29.143 21.8577 29.8333 21.8577V20.8577C28.5908 20.8577 27.5833 21.8651 27.5833 23.1077H28.5833ZM29.8333 24.3577C29.143 24.3577 28.5833 23.7981 28.5833 23.1077H27.5833C27.5833 24.3504 28.5908 25.3577 29.8333 25.3577V24.3577Z" fill="#0965EE" mask="url(#path-1-outside-1_1603_13544)"/>
</svg>
