<svg width="48" height="49" viewBox="0 0 48 49" fill="none" xmlns="http://www.w3.org/2000/svg">
<path fill-rule="evenodd" clip-rule="evenodd" d="M4 8.10775C4 8.10775 4 6.72704 4.97631 5.75072C4.97631 5.75072 5.95262 4.77441 7.33333 4.77441H40.6667C40.6667 4.77441 42.0474 4.77441 43.0237 5.75072C43.0237 5.75072 44 6.72703 44 8.10775V41.4411C44 41.4411 44 42.8218 43.0237 43.7981C43.0237 43.7981 42.0474 44.7744 40.6667 44.7744H7.33333C7.33333 44.7744 5.95262 44.7744 4.97631 43.7981C4.97631 43.7981 4 42.8218 4 41.4411V8.10775ZM7.33333 8.10775V41.4411H40.6667V8.10775H7.33333Z" fill="#0965EE"/>
<path d="M32.2404 23.891C32.553 23.5784 32.7292 23.1539 32.7292 22.7118C32.7292 22.2698 32.5536 21.8459 32.241 21.5333C31.9285 21.2208 31.5045 21.0452 31.0625 21.0452C30.6205 21.0452 30.1966 21.2208 29.884 21.5333L24 27.4173L18.1162 21.5335C17.8035 21.2208 17.3795 21.0452 16.9375 21.0452C16.4955 21.0452 16.0716 21.2208 15.759 21.5333C15.4464 21.8459 15.2709 22.2698 15.2709 22.7118C15.2709 23.1539 15.4464 23.5778 15.759 23.8903L22.8215 30.9528C23.4724 31.6037 24.5277 31.6037 25.1785 30.9528L32.2404 23.891Z" fill="#0965EE"/>
<path d="M22.3333 13.1077V29.7744C22.3333 30.6949 23.0795 31.4411 24 31.4411C24.9205 31.4411 25.6667 30.6949 25.6667 29.7744V13.1077C25.6667 12.1873 24.9205 11.4411 24 11.4411C23.0795 11.4411 22.3333 12.1873 22.3333 13.1077Z" fill="#0965EE"/>
<path d="M34.6903 33.1078H42.3333C43.2538 33.1078 44 32.3616 44 31.4411C44 30.5206 43.2538 29.7744 42.3333 29.7744H34.6875C34.0336 29.7721 33.4232 30.0228 33.4232 30.0228C32.8129 30.2735 32.3452 30.7388 32.3452 30.7388L28.3096 34.7744L19.6903 34.7744L15.6577 30.7418C15.1871 30.2735 14.5768 30.0228 14.5768 30.0228C13.9664 29.7721 13.3067 29.7744 13.3067 29.7744L5.66667 29.7744C4.74619 29.7744 4 30.5206 4 31.4411C4 32.3616 4.74619 33.1078 5.66667 33.1078L13.3096 33.1078L17.3452 37.1434C17.8129 37.6087 18.4232 37.8594 18.4232 37.8594C19.0336 38.1101 19.6875 38.1078 19.6875 38.1078L28.3067 38.1078C28.9664 38.1101 29.5768 37.8594 29.5768 37.8594C30.1871 37.6087 30.6577 37.1404 30.6577 37.1404L34.6903 33.1078Z" fill="#0965EE"/>
</svg>
