<svg width="48" height="49" viewBox="0 0 48 49" fill="none" xmlns="http://www.w3.org/2000/svg">
<path fill-rule="evenodd" clip-rule="evenodd" d="M24 21.7744C24 21.7744 26.1746 21.7744 27.7123 23.3121C27.7123 23.3121 29.25 24.8498 29.25 27.0244C29.25 27.0244 29.25 29.199 27.7123 30.7367C27.7123 30.7367 26.1746 32.2744 24 32.2744C24 32.2744 21.8254 32.2744 20.2877 30.7367C20.2877 30.7367 18.75 29.199 18.75 27.0244C18.75 27.0244 18.75 24.8498 20.2877 23.3121C20.2877 23.3121 21.8254 21.7744 24 21.7744ZM24 24.7744C24 24.7744 23.068 24.7744 22.409 25.4334C22.409 25.4334 21.75 26.0924 21.75 27.0244C21.75 27.0244 21.75 27.9564 22.409 28.6154C22.409 28.6154 23.068 29.2744 24 29.2744C24 29.2744 24.932 29.2744 25.591 28.6154C25.591 28.6154 26.25 27.9564 26.25 27.0244C26.25 27.0244 26.25 26.0924 25.591 25.4334C25.591 25.4334 24.932 24.7744 24 24.7744Z" fill="#0965EE"/>
<path d="M22.5 30.7744V35.2744C22.5 36.1028 23.1716 36.7744 24 36.7744C24.8284 36.7744 25.5 36.1028 25.5 35.2744V30.7744C25.5 29.946 24.8284 29.2744 24 29.2744C23.1716 29.2744 22.5 29.946 22.5 30.7744Z" fill="#0965EE"/>
<path fill-rule="evenodd" clip-rule="evenodd" d="M6 18.7744C6 18.7744 6 17.5318 6.87868 16.6531C6.87868 16.6531 7.75736 15.7744 9 15.7744H39C39 15.7744 40.2426 15.7744 41.1213 16.6531C41.1213 16.6531 42 17.5318 42 18.7744V39.7744C42 39.7744 42 41.0171 41.1213 41.8957C41.1213 41.8957 40.2426 42.7744 39 42.7744H9C9 42.7744 7.75736 42.7744 6.87868 41.8957C6.87868 41.8957 6 41.0171 6 39.7744V18.7744ZM9 18.7744V39.7744L39 39.7744V18.7744H9Z" fill="#0965EE"/>
<path d="M29.25 10.5244V17.2744C29.25 18.1028 29.9216 18.7744 30.75 18.7744C31.5784 18.7744 32.25 18.1028 32.25 17.2744V10.5244C32.25 7.10715 29.8336 4.69078 29.8336 4.69078C27.4173 2.27441 24 2.27441 24 2.27441C20.5827 2.27441 18.1664 4.69078 18.1664 4.69078C15.75 7.10715 15.75 10.5244 15.75 10.5244V17.2744C15.75 18.1028 16.4216 18.7744 17.25 18.7744C18.0784 18.7744 18.75 18.1028 18.75 17.2744V10.5244C18.75 8.34979 20.2877 6.8121 20.2877 6.8121C21.8254 5.27441 24 5.27441 24 5.27441C26.1746 5.27441 27.7123 6.8121 27.7123 6.8121C29.25 8.34979 29.25 10.5244 29.25 10.5244Z" fill="#0965EE"/>
</svg>
