<svg width="600" height="383" viewBox="0 0 600 383" fill="none" xmlns="http://www.w3.org/2000/svg">
<rect y="0.217773" width="600" height="381.818" rx="9.64059" fill="#EEEEEE"/>
<path d="M0 9.85837C0 4.53402 4.31624 0.217773 9.64059 0.217773H590.359C595.684 0.217773 600 4.53401 600 9.85836V31.9302H0V9.85837Z" fill="#0965EE"/>
<path d="M34.9669 19.2922V10.772H36.7321V17.833H40.4038V19.2922H34.9669ZM49.0065 15.0321C49.0065 17.8094 47.2765 19.4099 45.0288 19.4099C42.7575 19.4099 41.0393 17.7977 41.0393 15.0321C41.0393 12.2548 42.7575 10.6543 45.0288 10.6543C47.2765 10.6543 49.0065 12.2548 49.0065 15.0321ZM47.2059 15.0321C47.2059 13.208 46.3468 12.2195 45.0288 12.2195C43.7107 12.2195 42.8399 13.208 42.8399 15.0321C42.8399 16.8562 43.7107 17.8447 45.0288 17.8447C46.3468 17.8447 47.2059 16.8562 47.2059 15.0321ZM55.938 13.514C55.7026 12.7138 55.0554 12.2195 54.1257 12.2195C52.8076 12.2195 51.9132 13.2316 51.9132 15.0203C51.9132 16.8209 52.7841 17.8447 54.1375 17.8447C55.3555 17.8447 56.0792 17.1563 56.1028 16.0795H54.2551V14.7497H57.8092V15.8088C57.8092 18.0448 56.2793 19.4099 54.1257 19.4099C51.7367 19.4099 50.1127 17.7388 50.1127 15.0439C50.1127 12.2783 51.8426 10.6543 54.0904 10.6543C56.0086 10.6543 57.4914 11.8311 57.7268 13.514H55.938ZM67.5769 13.7376C67.4356 12.7961 66.706 12.2195 65.7175 12.2195C64.3876 12.2195 63.5168 13.2433 63.5168 15.0321C63.5168 16.868 64.3994 17.8447 65.7057 17.8447C66.6825 17.8447 67.4003 17.3034 67.5769 16.3855L69.3656 16.3972C69.1656 17.9742 67.8475 19.4099 65.6822 19.4099C63.3991 19.4099 61.7162 17.8094 61.7162 15.0321C61.7162 12.2548 63.4344 10.6543 65.6822 10.6543C67.6475 10.6543 69.1303 11.7841 69.3656 13.7376H67.5769ZM71.8723 19.2922H69.9658L72.9197 10.772H75.1909L78.133 19.2922H76.2383L75.6028 17.3269H72.5195L71.8723 19.2922ZM72.9667 15.95H75.1556L74.0847 12.6902H74.0259L72.9667 15.95ZM77.7211 12.2313V10.772H84.6997V12.2313H82.0872V19.2922H80.3337V12.2313H77.7211ZM91.1135 13.7376C90.9722 12.7961 90.2426 12.2195 89.2541 12.2195C87.9242 12.2195 87.0534 13.2433 87.0534 15.0321C87.0534 16.868 87.936 17.8447 89.2423 17.8447C90.2191 17.8447 90.9369 17.3034 91.1135 16.3855L92.9022 16.3972C92.7022 17.9742 91.3841 19.4099 89.2188 19.4099C86.9357 19.4099 85.2528 17.8094 85.2528 15.0321C85.2528 12.2548 86.971 10.6543 89.2188 10.6543C91.1841 10.6543 92.6669 11.7841 92.9022 13.7376H91.1135ZM94.1379 19.2922V10.772H95.9032V14.3025H99.5984V10.772H101.375V19.2922H99.5984V15.7617H95.9032V19.2922H94.1379Z" fill="white"/>
<path d="M19.6787 20.1347L24.5123 15.4402L26.8944 17.857L19.6787 24.9509L12.3936 17.857L14.8277 15.4402L19.6787 20.1347Z" fill="white"/>
<path d="M22.3536 16.5116L19.6065 19.2066L14.7381 14.5121L12.3213 16.9289L12.3908 6.86182L22.3536 16.5116Z" fill="white"/>
<path d="M27.3052 11.6055L22.7846 16.0739L20.333 13.6919L22.3847 11.6055H27.3052Z" fill="white"/>
<rect x="527.696" y="7.82935" width="16.4905" height="16.4905" rx="4.8203" fill="#D9D9D9"/>
<rect x="549.26" y="7.82935" width="16.4905" height="16.4905" rx="4.8203" fill="#D9D9D9"/>
<rect x="570.824" y="7.82935" width="16.4905" height="16.4905" rx="4.8203" fill="#D9D9D9"/>
<path d="M0 31.9319H26.6385V382.038H9.64059C4.31624 382.038 0 377.721 0 372.397V31.9319Z" fill="#F7F7F7"/>
<rect x="5.07422" y="43.3474" width="16.4905" height="16.4905" rx="4.8203" fill="#D9D9D9"/>
<rect x="5.07422" y="69.9858" width="16.4905" height="16.4905" rx="4.8203" fill="#D9D9D9"/>
<rect x="5.07422" y="96.6245" width="16.4905" height="16.4905" rx="4.8203" fill="#D9D9D9"/>
<rect x="39.3242" y="43.3474" width="547.992" height="53.277" rx="9.64059" fill="#F7F7F7"/>
<rect x="116.701" y="12.9033" width="26.6385" height="7.61099" rx="1.20507" fill="#D9D9D9"/>
<rect x="148.415" y="12.9033" width="26.6385" height="7.61099" rx="1.20507" fill="#D9D9D9"/>
<path d="M55.3441 53.4181C55.3441 56.219 53.5788 58.1608 50.4367 59.0316L49.8483 57.8666C52.1549 57.2428 53.4847 56.066 53.7436 54.6185H50.4249V53.4181H55.3441ZM58.8157 52.8062V58.7963H57.3211V56.5721H55.4147V55.3481H57.3211V52.8062H58.8157ZM58.8157 59.2199V63.3741H51.7194V59.2199H58.8157ZM53.1905 60.3968V62.1973H57.3329V60.3968H53.1905ZM63.6289 54.6538C63.6289 55.8424 64.2174 57.0075 65.6413 57.5724L64.8293 58.7257C63.929 58.3608 63.2994 57.7018 62.9228 56.8898C62.5227 57.8195 61.8519 58.5903 60.8516 59.0081L60.0514 57.843C61.5577 57.1958 62.1697 55.866 62.1697 54.6538V53.4181H63.6289V54.6538ZM69.4072 52.8062V59.2905H67.9832V56.6309H67.0888V59.2317H65.6884V52.971H67.0888V55.407H67.9832V52.8062H69.4072ZM69.4072 59.7613V63.5036H67.9126V60.9616H62.0049V59.7613H69.4072ZM83.1996 61.044V62.2561H73.3966V61.044H77.5391V58.655H79.0454V61.044H83.1996ZM82.3405 53.6064V54.8186H79.0807C79.2043 56.2308 80.5341 57.5429 82.8348 57.8783L82.2464 59.0669C80.3694 58.7374 78.9807 57.8195 78.2922 56.5485C77.6097 57.843 76.2328 58.7845 74.3852 59.1258L73.7968 57.9372C76.021 57.5782 77.3567 56.2367 77.4802 54.8186H74.2086V53.6064H82.3405ZM92.8379 52.8062V60.6321H91.3433V57.1369H89.4251V55.9013H91.3433V52.8062H92.8379ZM89.5192 53.5947C89.5192 56.4661 87.6951 58.5844 84.5648 59.5612L83.9528 58.3726C86.1711 57.6783 87.601 56.4014 87.8834 54.8186H84.5059V53.5947H89.5192ZM93.1085 62.1149V63.3153H85.7769V59.8436H87.3068V62.1149H93.1085Z" fill="#3F3F3F"/>
<rect x="49.4717" y="73.7908" width="72.3044" height="12.685" rx="2.41015" fill="#ECECEC"/>
<rect x="129.388" y="73.7908" width="72.3044" height="12.685" rx="2.41015" fill="#ECECEC"/>
<rect x="407.188" y="73.7908" width="72.3044" height="12.685" rx="2.41015" fill="#ECECEC"/>
<rect x="40.5928" y="156.244" width="177.59" height="102.748" rx="10.8457" fill="white"/>
<rect x="40.5928" y="269.14" width="177.59" height="102.748" rx="10.8457" fill="white"/>
<rect x="225.793" y="156.244" width="176.321" height="102.748" rx="10.8457" fill="white"/>
<rect x="225.793" y="269.14" width="176.321" height="102.748" rx="10.8457" fill="white"/>
<rect x="409.725" y="156.244" width="177.59" height="102.748" rx="10.8457" fill="white"/>
<rect x="409.725" y="269.14" width="177.59" height="102.748" rx="10.8457" fill="white"/>
<rect x="40.5928" y="108.04" width="83.7209" height="34.2495" rx="4.8203" fill="#D9D9D9"/>
<rect x="133.192" y="108.04" width="83.7209" height="34.2495" rx="4.8203" fill="#D9D9D9"/>
<rect x="225.793" y="108.04" width="83.7209" height="34.2495" rx="4.8203" fill="#D9D9D9"/>
<rect x="318.393" y="108.04" width="83.7209" height="34.2495" rx="4.8203" fill="#D9D9D9"/>
<rect x="410.994" y="108.04" width="83.7209" height="34.2495" rx="4.8203" fill="#D9D9D9"/>
<rect x="503.595" y="108.04" width="83.7209" height="34.2495" rx="4.8203" fill="#D9D9D9"/>
<path d="M200.187 199.337C205.7 221.036 192.579 243.095 170.881 248.608C149.183 254.121 127.123 241.001 121.61 219.302C116.097 197.604 129.218 175.544 150.916 170.031C172.615 164.518 194.674 177.639 200.187 199.337ZM143.219 213.812C145.7 223.576 155.626 229.481 165.391 227C175.155 224.519 181.059 214.592 178.579 204.828C176.098 195.063 166.171 189.159 156.407 191.64C146.642 194.121 140.738 204.048 143.219 213.812Z" fill="#FEB019"/>
<path d="M161.425 168.786C169.262 168.888 176.901 171.259 183.417 175.613C189.934 179.967 195.049 186.116 198.143 193.317C201.237 200.517 202.177 208.46 200.85 216.184C199.523 223.908 195.985 231.082 190.665 236.837C185.345 242.592 178.471 246.681 170.875 248.61C163.279 250.539 155.287 250.224 147.866 247.704C140.444 245.184 133.913 240.568 129.062 234.412C124.21 228.257 121.247 220.828 120.531 213.023L142.733 210.986C143.056 214.498 144.389 217.842 146.572 220.611C148.755 223.381 151.694 225.459 155.034 226.593C158.373 227.727 161.97 227.868 165.388 227C168.806 226.132 171.9 224.292 174.294 221.702C176.688 219.113 178.28 215.885 178.877 212.409C179.474 208.933 179.051 205.359 177.659 202.118C176.266 198.878 173.965 196.111 171.032 194.152C168.1 192.193 164.662 191.126 161.136 191.08L161.425 168.786Z" fill="#00E396"/>
<path d="M161.425 168.786C171.877 168.922 181.873 173.09 189.325 180.421C196.778 187.751 201.11 197.677 201.418 208.125C201.726 218.574 197.986 228.738 190.978 236.494C183.971 244.251 174.238 249.001 163.812 249.752L162.21 227.514C166.901 227.176 171.281 225.039 174.434 221.548C177.588 218.058 179.271 213.484 179.132 208.782C178.994 204.08 177.044 199.614 173.691 196.315C170.337 193.017 165.839 191.141 161.136 191.08L161.425 168.786Z" fill="#008FFB"/>
<path d="M120.204 338.079C118.527 344.027 115.162 349.361 110.516 353.436C105.871 357.511 100.143 360.152 94.0279 361.038C87.9123 361.925 81.6708 361.021 76.0588 358.434C70.4469 355.847 65.7052 351.688 62.4078 346.462C59.1104 341.236 57.3987 335.166 57.4799 328.987C57.5611 322.808 59.4317 316.785 62.8653 311.647C66.2989 306.509 71.1482 302.477 76.8262 300.038C82.5042 297.599 88.7673 296.859 94.8575 297.906L91.8779 315.231C89.1374 314.76 86.3189 315.093 83.7638 316.191C81.2088 317.288 79.0266 319.103 77.4815 321.415C75.9363 323.727 75.0946 326.437 75.058 329.218C75.0215 331.998 75.7918 334.73 77.2756 337.081C78.7594 339.433 80.8932 341.305 83.4185 342.469C85.9439 343.633 88.7526 344.04 91.5046 343.641C94.2566 343.242 96.8339 342.053 98.9245 340.22C101.015 338.386 102.529 335.986 103.284 333.309L120.204 338.079Z" fill="#00E396"/>
<path d="M89.8552 297.446C97.529 297.546 104.911 300.403 110.652 305.496C116.393 310.589 120.11 317.578 121.123 325.185C122.137 332.792 120.379 340.51 116.172 346.929C111.965 353.347 105.589 358.038 98.2087 360.143C90.8286 362.249 82.9374 361.628 75.977 358.396C69.0165 355.163 63.4515 349.534 60.2988 342.537C57.1461 335.54 56.6161 327.642 58.8058 320.287C60.9954 312.931 65.7585 306.609 72.2247 302.476L81.6932 317.288C78.7834 319.148 76.64 321.993 75.6546 325.303C74.6693 328.613 74.9078 332.167 76.3265 335.315C77.7452 338.464 80.2495 340.997 83.3817 342.452C86.5139 343.906 90.0649 344.185 93.386 343.238C96.707 342.291 99.5762 340.18 101.469 337.292C103.363 334.403 104.154 330.93 103.697 327.507C103.241 324.084 101.569 320.939 98.9853 318.647C96.4019 316.355 93.0801 315.069 89.6269 315.024L89.8552 297.446Z" fill="#008FFB"/>
<path d="M488.169 324.952C492.263 341.064 482.52 357.444 466.408 361.538C450.296 365.631 433.916 355.889 429.822 339.776C425.729 323.664 435.472 307.284 451.584 303.191C467.696 299.097 484.076 308.84 488.169 324.952ZM445.868 335.7C447.71 342.95 455.081 347.334 462.331 345.492C469.582 343.65 473.966 336.279 472.124 329.029C470.282 321.778 462.911 317.394 455.66 319.236C448.41 321.078 444.026 328.449 445.868 335.7Z" fill="#FEB019"/>
<path d="M459.387 302.266C465.206 302.342 470.878 304.103 475.717 307.335C480.556 310.568 484.354 315.134 486.651 320.481C488.949 325.828 489.647 331.726 488.662 337.461C487.676 343.197 485.049 348.523 481.099 352.797C477.149 357.07 472.044 360.107 466.404 361.539C460.763 362.971 454.829 362.737 449.318 360.866C443.808 358.995 438.958 355.567 435.356 350.996C431.753 346.426 429.553 340.909 429.021 335.114L445.507 333.602C445.747 336.209 446.737 338.692 448.358 340.749C449.979 342.805 452.161 344.348 454.641 345.19C457.121 346.032 459.791 346.137 462.329 345.493C464.868 344.848 467.165 343.482 468.942 341.559C470.72 339.636 471.902 337.239 472.345 334.658C472.789 332.077 472.475 329.423 471.441 327.017C470.407 324.611 468.698 322.556 466.52 321.101C464.343 319.646 461.79 318.854 459.172 318.82L459.387 302.266Z" fill="#00E396"/>
<path d="M433.126 316.977C437.094 310.306 443.485 305.425 450.966 303.355C458.447 301.284 466.438 302.183 473.272 305.864C480.105 309.546 485.252 315.724 487.639 323.11C490.025 330.496 489.466 338.519 486.078 345.502L471.183 338.276C472.707 335.134 472.959 331.524 471.885 328.2C470.811 324.876 468.495 322.096 465.42 320.439C462.345 318.783 458.749 318.378 455.382 319.31C452.016 320.242 449.14 322.438 447.354 325.44L433.126 316.977Z" fill="#008FFB"/>
<circle cx="53.9105" cy="217.765" r="3.17125" fill="#008FFB"/>
<circle cx="53.9105" cy="230.45" r="3.17125" fill="#00E396"/>
<circle cx="53.9105" cy="243.136" r="3.17125" fill="#FEB019"/>
<circle cx="154.122" cy="325.494" r="3.17125" fill="#008FFB"/>
<circle cx="154.122" cy="338.18" r="3.17125" fill="#00E396"/>
<circle cx="154.122" cy="350.864" r="3.17125" fill="#FEB019"/>
<circle cx="519.452" cy="319.245" r="3.17125" fill="#008FFB"/>
<circle cx="519.452" cy="331.931" r="3.17125" fill="#00E396"/>
<circle cx="519.452" cy="344.616" r="3.17125" fill="#FEB019"/>
<rect x="50.7402" y="114.382" width="64.6934" height="12.685" rx="2.41015" fill="#CCCCCC"/>
<rect x="143.341" y="114.382" width="64.6934" height="12.685" rx="2.41015" fill="#CCCCCC"/>
<rect x="235.941" y="114.382" width="64.6934" height="12.685" rx="2.41015" fill="#CCCCCC"/>
<rect x="328.54" y="114.382" width="64.6934" height="12.685" rx="2.41015" fill="#CCCCCC"/>
<rect x="421.142" y="114.382" width="64.6934" height="12.685" rx="2.41015" fill="#CCCCCC"/>
<rect x="513.743" y="114.382" width="64.6934" height="12.685" rx="2.41015" fill="#CCCCCC"/>
<rect x="58.3516" y="129.604" width="49.4715" height="6.34249" rx="2.41015" fill="#CCCCCC"/>
<rect x="150.951" y="129.604" width="49.4715" height="6.34249" rx="2.41015" fill="#CCCCCC"/>
<rect x="243.552" y="129.604" width="49.4715" height="6.34249" rx="2.41015" fill="#CCCCCC"/>
<rect x="336.152" y="129.604" width="49.4715" height="6.34249" rx="2.41015" fill="#CCCCCC"/>
<rect x="428.753" y="129.604" width="49.4715" height="6.34249" rx="2.41015" fill="#CCCCCC"/>
<rect x="521.353" y="129.604" width="49.4715" height="6.34249" rx="2.41015" fill="#CCCCCC"/>
<rect x="235.941" y="165.123" width="67.2304" height="13.6842" rx="4.8203" fill="#D9D9D9"/>
<rect x="48.2041" y="276.75" width="67.2304" height="13.6842" rx="4.8203" fill="#D9D9D9"/>
<rect x="421.142" y="276.75" width="67.2304" height="13.6842" rx="4.8203" fill="#D9D9D9"/>
<rect x="421.142" y="165.123" width="67.2304" height="13.6842" rx="4.8203" fill="#D9D9D9"/>
<rect x="48.4209" y="165.481" width="33.6842" height="11.5789" rx="4.8203" fill="#D9D9D9"/>
<rect x="48.4209" y="181.271" width="57.8947" height="11.5789" rx="4.8203" fill="#D9D9D9"/>
<rect x="280.339" y="191.761" width="29.1755" height="11.4165" rx="2.41015" fill="#FEB019"/>
<rect x="280" y="289.691" width="29.1755" height="11.4165" rx="2.41015" fill="#FEB019"/>
<rect x="280.339" y="206.983" width="52.0085" height="11.4165" rx="2.41015" fill="#008FFB"/>
<rect x="280" y="308.639" width="52.0085" height="11.4165" rx="2.41015" fill="#008FFB"/>
<rect x="280.339" y="223.473" width="97.6744" height="11.4165" rx="2.41015" fill="#26E7A6"/>
<rect x="280" y="327.586" width="97.6744" height="11.4165" rx="2.41015" fill="#26E7A6"/>
<rect x="280.339" y="239.964" width="73.5729" height="11.4165" rx="2.41015" fill="#FF6178"/>
<rect x="280" y="346.534" width="73.5729" height="11.4165" rx="2.41015" fill="#FF6178"/>
<rect x="483.299" y="204.446" width="32.981" height="8.87949" rx="2.41015" fill="#26E7A6"/>
<rect x="466.808" y="215.863" width="32.981" height="8.87949" rx="2.41015" fill="#008FFB"/>
<rect x="446.511" y="193.029" width="32.981" height="8.87949" rx="2.41015" fill="#26E7A6"/>
<rect x="504.863" y="191.761" width="32.981" height="8.87949" rx="2.41015" fill="#008FFB"/>
<rect x="523.891" y="222.206" width="32.981" height="8.87949" rx="2.41015" fill="#FF6178"/>
<rect x="459.197" y="228.547" width="32.981" height="8.87949" rx="2.41015" fill="#FF6178"/>
<rect x="426.215" y="215.863" width="32.981" height="8.87949" rx="2.41015" fill="#FEB019"/>
<rect x="507.399" y="238.695" width="32.981" height="8.87949" rx="2.41015" fill="#FEB019"/>
<rect x="59" y="206.218" width="41" height="9" rx="2" fill="#EEEEEE"/>
<rect x="154" y="308.218" width="41" height="9" rx="2" fill="#EEEEEE"/>
<rect x="228" y="280.218" width="28" height="9" rx="2" fill="#EEEEEE"/>
<rect x="228" y="316.218" width="28" height="9" rx="2" fill="#EEEEEE"/>
<rect x="59" y="218.218" width="41" height="9" rx="2" fill="#EEEEEE"/>
<rect x="154" y="320.218" width="41" height="9" rx="2" fill="#EEEEEE"/>
<rect x="228" y="298.218" width="28" height="9" rx="2" fill="#EEEEEE"/>
<rect x="228" y="334.218" width="28" height="9" rx="2" fill="#EEEEEE"/>
<rect x="59" y="230.218" width="41" height="9" rx="2" fill="#EEEEEE"/>
<rect x="154" y="332.218" width="41" height="9" rx="2" fill="#EEEEEE"/>
</svg>
