<svg width="46" height="47" viewBox="0 0 46 47" fill="none" xmlns="http://www.w3.org/2000/svg">
<path d="M24.4376 23.7744V6.52441C24.4376 5.7305 23.794 5.08691 23.0001 5.08691C22.2062 5.08691 21.5626 5.7305 21.5626 6.52441V23.7744C21.5626 24.5683 22.2062 25.2119 23.0001 25.2119C23.794 25.2119 24.4376 24.5683 24.4376 23.7744Z" fill="#0965EE"/>
<path d="M7.35018 31.154C7.02005 31.3447 6.77811 31.6594 6.67951 32.0276C6.64704 32.1489 6.6306 32.2739 6.6306 32.3994C6.6306 32.4146 6.63084 32.4298 6.63133 32.445C6.63884 32.6819 6.7048 32.9132 6.82333 33.1184C7.08016 33.563 7.55464 33.8369 8.0681 33.8369C8.09043 33.8369 8.11276 33.8364 8.13506 33.8354C8.36456 33.8246 8.58815 33.7591 8.7871 33.6442L38.6512 16.3942C39.0958 16.1374 39.3697 15.6629 39.3697 15.1494C39.3697 15.1271 39.3691 15.1048 39.3681 15.0825C39.3574 14.853 39.2918 14.6294 39.1769 14.4304C38.9862 14.1003 38.6722 13.8594 38.3039 13.7608C38.1827 13.7284 38.0577 13.7119 37.9322 13.7119C37.917 13.7119 37.9018 13.7122 37.8866 13.7126C37.6497 13.7202 37.4184 13.7861 37.2132 13.9046L7.35018 31.154Z" fill="#0965EE"/>
<path fill-rule="evenodd" clip-rule="evenodd" d="M17.97 21.6945L6.75748 28.1812C6.42747 28.3721 6.03515 28.4241 5.6668 28.3258C5.29846 28.2274 4.98427 27.9868 4.79335 27.6568C4.71192 27.516 4.65496 27.3625 4.6249 27.2026C4.6249 27.2026 4.30468 25.5001 4.31265 23.7678C4.31265 23.7678 4.30885 17.8344 7.73909 12.9838C7.73909 12.9838 11.1693 8.13324 16.772 6.15706C17.1315 6.03024 17.5267 6.05144 17.8706 6.216C18.2145 6.38056 18.479 6.67499 18.6058 7.03453C18.66 7.18813 18.6876 7.34982 18.6876 7.5127V20.4502C18.6876 20.9633 18.4141 21.4375 17.97 21.6945ZM7.20576 24.6004L15.8126 19.6211V9.68076C15.8126 9.68076 12.377 11.4048 10.0864 14.6438C10.0864 14.6438 7.18443 18.7474 7.18762 23.781C7.18762 23.781 7.18573 24.1917 7.20576 24.6004Z" fill="#0965EE"/>
<path d="M15.1785 37.5181C11.5027 35.4267 9.36168 31.7795 9.36168 31.7795C9.16867 31.4507 8.85296 31.2121 8.48399 31.1161C8.36579 31.0853 8.24414 31.0697 8.122 31.0697C8.10342 31.0697 8.08485 31.0701 8.06629 31.0708C7.82949 31.08 7.59863 31.1476 7.39426 31.2675C6.95457 31.5257 6.68449 31.9974 6.68449 32.5072L6.6845 32.5114C6.68523 32.7658 6.7535 33.0155 6.88231 33.235C9.41261 37.5453 13.7568 40.0169 13.7568 40.0169C18.101 42.4886 23.099 42.4616 23.099 42.4616C28.0971 42.4347 32.4143 39.9163 32.4143 39.9163C36.7316 37.3978 39.2152 33.0605 39.2152 33.0605C41.6988 28.7231 41.6856 23.7251 41.6856 23.7251C41.6724 18.727 39.1659 14.4028 39.1659 14.4028C36.6594 10.0786 32.3289 7.58305 32.3289 7.58305C27.9984 5.08748 23.0001 5.08691 23.0001 5.08691C22.9123 5.08691 22.8249 5.09494 22.7387 5.11088C22.0572 5.23691 21.5627 5.83139 21.5626 6.52441C21.5626 6.5475 21.5632 6.57036 21.5643 6.5933C21.5814 6.95026 21.7309 7.28804 21.9835 7.54076C22.2531 7.81038 22.6187 7.96187 23 7.96191C27.2288 7.96256 30.8934 10.074 30.8934 10.074C34.5577 12.1857 36.6786 15.8446 36.6786 15.8446C38.7994 19.5035 38.8106 23.7327 38.8106 23.7327C38.8218 27.9618 36.7202 31.6319 36.7202 31.6319C34.6187 35.3019 30.9657 37.4329 30.9657 37.4329C27.3126 39.5639 23.0835 39.5867 23.0835 39.5867C18.8544 39.6095 15.1785 37.5181 15.1785 37.5181Z" fill="#0965EE"/>
</svg>
