<svg width="48" height="49" viewBox="0 0 48 49" fill="none" xmlns="http://www.w3.org/2000/svg">
<path d="M34.5 38.2744V42.7744C34.5 43.6028 35.1716 44.2744 36 44.2744C36.8284 44.2744 37.5 43.6028 37.5 42.7744V38.2744C37.5 37.446 36.8284 36.7744 36 36.7744C35.1716 36.7744 34.5 37.446 34.5 38.2744Z" fill="#0965EE"/>
<path d="M10.5 38.2744V42.7744C10.5 43.6028 11.1716 44.2744 12 44.2744C12.8284 44.2744 13.5 43.6028 13.5 42.7744V38.2744C13.5 37.446 12.8284 36.7744 12 36.7744C11.1716 36.7744 10.5 37.446 10.5 38.2744Z" fill="#0965EE"/>
<path fill-rule="evenodd" clip-rule="evenodd" d="M4.5 11.2744C4.5 11.2744 4.5 10.0318 5.37868 9.15309C5.37868 9.15309 6.25736 8.27441 7.5 8.27441H40.5C40.5 8.27441 41.7426 8.27441 42.6213 9.15309C42.6213 9.15309 43.5 10.0318 43.5 11.2744V36.7744C43.5 36.7744 43.5 38.0171 42.6213 38.8957C42.6213 38.8957 41.7426 39.7744 40.5 39.7744H7.5C7.5 39.7744 6.25736 39.7744 5.37868 38.8957C5.37868 38.8957 4.5 38.0171 4.5 36.7744V11.2744ZM7.5 11.2744V36.7744H40.5V11.2744H7.5Z" fill="#0965EE"/>
<path d="M31.5 24.7744C31.5 26.4312 30.1567 27.7744 28.5 27.7744C26.8433 27.7744 25.5 26.4312 25.5 24.7744C25.5 23.1176 26.8433 21.7744 28.5 21.7744C30.1567 21.7744 31.5 23.1176 31.5 24.7744Z" fill="#0965EE"/>
<path d="M28.5 26.2744H42C42.8284 26.2744 43.5 25.6028 43.5 24.7744C43.5 23.946 42.8284 23.2744 42 23.2744H28.5C27.6716 23.2744 27 23.946 27 24.7744C27 25.6028 27.6716 26.2744 28.5 26.2744Z" fill="#0965EE"/>
<path fill-rule="evenodd" clip-rule="evenodd" d="M28.5 15.7744C28.5 15.7744 32.2279 15.7744 34.864 18.4105C34.864 18.4105 37.5 21.0465 37.5 24.7744C37.5 24.7744 37.5 28.5023 34.864 31.1384C34.864 31.1384 32.2279 33.7744 28.5 33.7744C28.5 33.7744 24.7721 33.7744 22.136 31.1384C22.136 31.1384 19.5 28.5023 19.5 24.7744C19.5 24.7744 19.5 21.0465 22.136 18.4105C22.136 18.4105 24.7721 15.7744 28.5 15.7744ZM28.5 18.7744C28.5 18.7744 26.0147 18.7744 24.2574 20.5318C24.2574 20.5318 22.5 22.2891 22.5 24.7744C22.5 24.7744 22.5 27.2597 24.2574 29.0171C24.2574 29.0171 26.0147 30.7744 28.5 30.7744C28.5 30.7744 30.9853 30.7744 32.7426 29.0171C32.7426 29.0171 34.5 27.2597 34.5 24.7744C34.5 24.7744 34.5 22.2891 32.7426 20.5318C32.7426 20.5318 30.9853 18.7744 28.5 18.7744Z" fill="#0965EE"/>
</svg>
