<svg width="122" height="40" viewBox="0 0 122 40" fill="none" xmlns="http://www.w3.org/2000/svg">
<path d="M0 9.28823L9.31249 18.5674L13.9779 13.9278L0 0V9.29278" fill="#222222"/>
<path d="M58.3483 37.9874H55.833L50.209 25.3742H53.1488L57.0701 34.4259L61.0279 25.3742H63.9495L58.3437 37.9874H58.3483Z" fill="#222222"/>
<path d="M66.0233 35.4948L65.0419 37.9101H62.1934L67.6165 25.2968H70.1318L75.5367 37.9101H72.7064L71.725 35.4948H66.0233ZM68.8536 28.49L67.0048 33.0795H70.7435L68.8582 28.49H68.8536Z" fill="#222222"/>
<path d="M86.1904 37.9101H77.0879V25.3696H79.7721V35.5312H86.195V37.9101H86.1904Z" fill="#222222"/>
<path d="M96.9365 37.9101H87.834V25.3696H90.5182V35.5312H96.941V37.9101H96.9365Z" fill="#222222"/>
<path d="M101.264 30.5186H107.148V32.9339H101.264V35.4948H107.906V37.9101H98.5801V25.3696H107.906V27.7849H101.264V30.5141V30.5186Z" fill="#222222"/>
<path d="M116.196 33.8755V37.9147H113.493V33.8755L108.477 25.3742H111.439L114.826 31.1827L118.214 25.3742H121.176L116.2 33.8755H116.196Z" fill="#222222"/>
<path d="M65.1004 21.9445H62.4938L59.7366 13.9617L56.9976 21.9445H54.3682L50.2598 9.33127H53.0718L55.7194 17.778L58.6227 9.33127H60.8596L63.7629 17.778L66.4105 9.33127H69.2225L65.0958 21.9445H65.1004Z" fill="#222222"/>
<path d="M71.8515 19.4564L70.87 21.8717H68.0215L73.4446 9.25848H75.9599L81.3648 21.8717H78.5346L77.5531 19.4564H71.856H71.8515ZM74.6817 12.4516L72.8329 17.0411H76.5716L74.6863 12.4516H74.6817Z" fill="#222222"/>
<path d="M85.5982 17.9827V21.8717H82.9141V9.33127H88.2779C89.7478 9.33127 90.9438 9.727 91.875 10.523C92.8063 11.3145 93.2719 12.3561 93.2719 13.6479C93.2719 14.4985 93.0574 15.2444 92.6328 15.8994C92.2083 16.5499 91.624 17.0593 90.8844 17.4323L94.0845 21.8763H90.8844L88.1272 17.9872H85.5937L85.5982 17.9827ZM88.1866 15.531C88.8759 15.531 89.4556 15.3582 89.9258 15.017C90.396 14.6713 90.6288 14.2165 90.6288 13.6524C90.6288 13.0884 90.396 12.6335 89.9258 12.2879C89.4556 11.9422 88.8759 11.7739 88.1866 11.7739H85.5982V15.5356H88.1866V15.531Z" fill="#222222"/>
<path d="M98.1783 14.4757H104.063V16.891H98.1783V19.4519H104.82V21.8672H95.4941V9.32672H104.82V11.742H98.1783V14.4712V14.4757Z" fill="#222222"/>
<path d="M41.9251 26.1131L37.2415 21.4508L27.9564 30.73L18.6257 21.4508L13.9648 26.0858L27.9473 40L41.9251 26.1131Z" fill="#222222"/>
<path d="M0 11.3054L9.31249 20.5799L18.625 11.3054L27.9466 20.5799L37.2408 11.3327V19.4655L27.9466 28.7083L18.625 19.4292L9.32618 28.7128L0 19.4292V11.3054Z" fill="#222222"/>
</svg>
