<svg width="49" height="48" viewBox="0 0 49 48" fill="none" xmlns="http://www.w3.org/2000/svg">
<path fill-rule="evenodd" clip-rule="evenodd" d="M16.0789 33.1789C16.3849 32.4766 16.8234 31.8297 17.3756 31.2775C18.5368 30.1163 20.1118 29.4636 21.7539 29.4636H27.5818C29.2238 29.4636 30.7988 30.1163 31.96 31.2775C32.5122 31.8297 32.9508 32.4766 33.2567 33.1789C33.4986 33.7311 34.1426 33.9846 34.6962 33.7427C35.2484 33.5023 35.502 32.8569 35.2601 32.3047C34.8449 31.3533 34.2533 30.4791 33.5059 29.7316C31.9353 28.161 29.8037 27.2781 27.5818 27.2781C25.6877 27.2781 23.6479 27.2781 21.7539 27.2781C19.532 27.2781 17.4004 28.161 15.8298 29.7316C15.0823 30.4791 14.4908 31.3533 14.0755 32.3047C13.8337 32.8569 14.0872 33.5023 14.6394 33.7427C15.193 33.9846 15.837 33.7311 16.0789 33.1789Z" fill="#0965EE"/>
<path fill-rule="evenodd" clip-rule="evenodd" d="M24.6653 12.7081C20.0408 12.7081 16.2876 16.4613 16.2876 21.0858C16.2876 25.7103 20.0408 29.4635 24.6653 29.4635C29.2897 29.4635 33.0429 25.7103 33.0429 21.0858C33.0429 16.4613 29.2897 12.7081 24.6653 12.7081ZM24.6653 14.8936C28.0833 14.8936 30.8574 17.6677 30.8574 21.0858C30.8574 24.5039 28.0833 27.278 24.6653 27.278C21.2472 27.278 18.4731 24.5039 18.4731 21.0858C18.4731 17.6677 21.2472 14.8936 24.6653 14.8936Z" fill="#0965EE"/>
<path fill-rule="evenodd" clip-rule="evenodd" d="M41.0567 24C41.0567 33.0464 33.712 40.391 24.6656 40.391C17.5337 40.391 11.461 35.8278 9.20847 29.4637C9.0074 28.8954 8.38236 28.5968 7.81413 28.7978C7.24445 28.9989 6.94723 29.6239 7.14829 30.1921C9.70093 37.4042 16.5837 42.5765 24.6656 42.5765C34.9184 42.5765 43.2422 34.2528 43.2422 24C43.2422 23.3968 42.7526 22.9072 42.1494 22.9072C41.5462 22.9072 41.0567 23.3968 41.0567 24Z" fill="#0965EE"/>
<path fill-rule="evenodd" clip-rule="evenodd" d="M8.27581 23.9999C8.27581 14.9535 15.6205 7.60882 24.6669 7.60882C31.7988 7.60882 37.8715 12.1721 40.124 18.5362C40.3251 19.1044 40.9501 19.4031 41.5184 19.202C42.088 19.001 42.3853 18.3759 42.1842 17.8077C39.6316 10.5956 32.7488 5.42334 24.6669 5.42334C14.4141 5.42334 6.09033 13.7471 6.09033 23.9999C6.09033 24.6031 6.57988 25.0926 7.18307 25.0926C7.78626 25.0926 8.27581 24.6031 8.27581 23.9999Z" fill="#0965EE"/>
<path fill-rule="evenodd" clip-rule="evenodd" d="M3.49644 21.8581L6.41041 24.7721C6.83731 25.199 7.52792 25.199 7.95481 24.7721L10.8688 21.8581C11.2957 21.4327 11.2957 20.7391 10.8688 20.3137C10.4433 19.8868 9.74982 19.8868 9.32438 20.3137L7.18261 22.454L5.04085 20.3137C4.61541 19.8868 3.92188 19.8868 3.49644 20.3137C3.06955 20.7391 3.06955 21.4327 3.49644 21.8581Z" fill="#0965EE"/>
<path fill-rule="evenodd" clip-rule="evenodd" d="M40.0081 27.686L42.1499 25.5457L44.2917 27.686C44.7171 28.1129 45.4106 28.1129 45.8361 27.686C46.263 27.2606 46.263 26.567 45.8361 26.1416L42.9221 23.2276C42.4952 22.8007 41.8046 22.8007 41.3777 23.2276L38.4637 26.1416C38.0368 26.567 38.0368 27.2606 38.4637 27.686C38.8892 28.1129 39.5827 28.1129 40.0081 27.686Z" fill="#0965EE"/>
</svg>
