<svg width="48" height="48" viewBox="0 0 48 48" fill="none" xmlns="http://www.w3.org/2000/svg">
<path d="M21.375 18.75H5.625C4.17775 18.75 3 17.5723 3 16.125V5.625C3 4.17775 4.17775 3 5.625 3H21.375C22.8223 3 24 4.17775 24 5.625V16.125C24 17.5723 22.8223 18.75 21.375 18.75ZM5.625 4.75C5.142 4.75 4.75 5.142 4.75 5.625V16.125C4.75 16.608 5.142 17 5.625 17H21.375C21.858 17 22.25 16.608 22.25 16.125V5.625C22.25 5.142 21.858 4.75 21.375 4.75H5.625Z" fill="#0965EE"/>
<path d="M16.1257 22.2506H10.8757C10.3927 22.2506 10.0007 21.8586 10.0007 21.3756C10.0007 20.8926 10.3927 20.5006 10.8757 20.5006H16.1257C16.6087 20.5006 17.0007 20.8926 17.0007 21.3756C17.0007 21.8586 16.6087 22.2506 16.1257 22.2506Z" fill="#0965EE"/>
<path d="M13.5007 22.2494C13.0177 22.2494 12.6257 21.8574 12.6257 21.3744V17.8744C12.6257 17.3914 13.0177 16.9994 13.5007 16.9994C13.9837 16.9994 14.3757 17.3914 14.3757 17.8744V21.3744C14.3757 21.8574 13.9837 22.2494 13.5007 22.2494Z" fill="#0965EE"/>
<path d="M42.375 41.5006H26.625C25.1777 41.5006 24 40.3229 24 38.8756V28.3756C24 26.9284 25.1777 25.7506 26.625 25.7506H42.375C43.8223 25.7506 45 26.9284 45 28.3756V38.8756C45 40.3229 43.8223 41.5006 42.375 41.5006ZM26.625 27.5006C26.142 27.5006 25.75 27.8926 25.75 28.3756V38.8756C25.75 39.3586 26.142 39.7506 26.625 39.7506H42.375C42.858 39.7506 43.25 39.3586 43.25 38.8756V28.3756C43.25 27.8926 42.858 27.5006 42.375 27.5006H26.625Z" fill="#0965EE"/>
<path d="M37.1257 44.9994H31.8757C31.3927 44.9994 31.0007 44.6074 31.0007 44.1244C31.0007 43.6414 31.3927 43.2494 31.8757 43.2494H37.1257C37.6087 43.2494 38.0007 43.6414 38.0007 44.1244C38.0007 44.6074 37.6087 44.9994 37.1257 44.9994Z" fill="#0965EE"/>
<path d="M34.5007 45C34.0177 45 33.6257 44.608 33.6257 44.125V40.625C33.6257 40.142 34.0177 39.75 34.5007 39.75C34.9837 39.75 35.3757 40.142 35.3757 40.625V44.125C35.3757 44.608 34.9837 45 34.5007 45Z" fill="#0965EE"/>
<path d="M30.9993 11.7506H28.3743C27.8895 11.7506 27.4993 11.3586 27.4993 10.8756C27.4993 10.3926 27.8895 10.0006 28.3743 10.0006H30.9993C31.4823 10.0006 31.8743 10.3926 31.8743 10.8756C31.8743 11.3586 31.4823 11.7506 30.9993 11.7506Z" fill="#0965EE"/>
<path d="M37.1238 16.0504C36.6408 16.0504 36.2488 15.6584 36.2488 15.1754V14.3739C36.2488 13.1979 35.4578 12.1567 34.3255 11.8434C33.86 11.7139 33.587 11.2327 33.7148 10.7672C33.8443 10.2999 34.3308 10.0304 34.791 10.1564C36.681 10.6797 37.9988 12.4139 37.9988 14.3739V15.1754C37.9988 15.6584 37.6068 16.0504 37.1238 16.0504Z" fill="#0965EE"/>
<path d="M37.1257 22.2506C36.6427 22.2506 36.2507 21.8586 36.2507 21.3756V18.7506C36.2507 18.2676 36.6427 17.8756 37.1257 17.8756C37.6087 17.8756 38.0007 18.2676 38.0007 18.7506V21.3756C38.0007 21.8586 37.6087 22.2506 37.1257 22.2506Z" fill="#0965EE"/>
<path d="M19.625 38.0006H17C16.517 38.0006 16.125 37.6086 16.125 37.1256C16.125 36.6426 16.517 36.2506 17 36.2506H19.625C20.108 36.2506 20.5 36.6426 20.5 37.1256C20.5 37.6086 20.1098 38.0006 19.625 38.0006Z" fill="#0965EE"/>
<path d="M13.4412 37.8751C13.3642 37.8751 13.2855 37.8646 13.2067 37.8436C11.3185 37.3203 10.0007 35.5861 10.0007 33.6261V32.8246C10.0007 32.3416 10.3927 31.9496 10.8757 31.9496C11.3587 31.9496 11.7507 32.3416 11.7507 32.8246V33.6261C11.7507 34.8021 12.5417 35.8433 13.674 36.1566C14.1395 36.2861 14.4125 36.7673 14.2847 37.2328C14.1762 37.6213 13.8245 37.8751 13.4412 37.8751Z" fill="#0965EE"/>
<path d="M10.8757 30.1256C10.3927 30.1256 10.0007 29.7336 10.0007 29.2506V26.6256C10.0007 26.1426 10.3927 25.7506 10.8757 25.7506C11.3587 25.7506 11.7507 26.1426 11.7507 26.6256V29.2506C11.7507 29.7336 11.3587 30.1256 10.8757 30.1256Z" fill="#0965EE"/>
</svg>
