<svg width="49" height="48" viewBox="0 0 49 48" fill="none" xmlns="http://www.w3.org/2000/svg">
<path d="M28.6665 8C28.6665 5.8 30.4665 4 32.6665 4M40.6665 4C42.8665 4 44.6665 5.8 44.6665 8M44.6665 16C44.6665 18.2 42.8665 20 40.6665 20M32.6665 20C30.4665 20 28.6665 18.2 28.6665 16M6.6665 14L12.6665 20M12.6665 20L18.6665 14M12.6665 20V10C12.6665 6.6 15.2665 4 18.6665 4H20.6665M28.6665 28C30.8665 28 32.6665 29.8 32.6665 32V40C32.6665 42.2 30.8665 44 28.6665 44M40.6665 28C42.8665 28 44.6665 29.8 44.6665 32V40C44.6665 42.2 42.8665 44 40.6665 44M8.6665 28H16.6665C18.8756 28 20.6665 29.7909 20.6665 32V40C20.6665 42.2091 18.8756 44 16.6665 44H8.6665C6.45736 44 4.6665 42.2091 4.6665 40V32C4.6665 29.7909 6.45736 28 8.6665 28Z" stroke="#0965EE" stroke-width="3" stroke-linecap="round" stroke-linejoin="round"/>
</svg>
