<svg width="49" height="48" viewBox="0 0 49 48" fill="none" xmlns="http://www.w3.org/2000/svg">
<path d="M41.6418 29.4141H7.02466C4.98922 29.4141 3.33325 31.07 3.33325 33.1055V41.3086C3.33325 43.344 4.98922 45 7.02466 45H41.6418C43.6773 45 45.3333 43.344 45.3333 41.3086V33.1055C45.3333 31.07 43.6773 29.4141 41.6418 29.4141ZM42.8723 41.3086C42.8723 41.9871 42.3203 42.5391 41.6418 42.5391H7.02466C6.34618 42.5391 5.79419 41.9871 5.79419 41.3086V33.1055C5.79419 32.427 6.34618 31.875 7.02466 31.875H41.6418C42.3203 31.875 42.8723 32.427 42.8723 33.1055V41.3086Z" fill="#0965EE"/>
<path d="M22.7424 34.6964C22.2618 34.2159 21.4827 34.2159 21.0023 34.6964L20.2316 35.4669L19.4611 34.6963C18.9806 34.2158 18.2015 34.2158 17.721 34.6963C17.2405 35.1769 17.2405 35.9559 17.721 36.4365L18.4915 37.2071L17.721 37.9777C17.2405 38.4582 17.2405 39.2373 17.721 39.7178C18.2015 40.1983 18.9806 40.1983 19.4611 39.7178L20.2316 38.9472L21.0022 39.7178C21.4827 40.1983 22.2618 40.1983 22.7423 39.7178C23.2228 39.2373 23.2228 38.4582 22.7423 37.9777L21.9718 37.2071L22.7423 36.4365C23.2229 35.956 23.2229 35.1769 22.7424 34.6964Z" fill="#0965EE"/>
<path d="M14.5393 34.6964C14.0587 34.2159 13.2796 34.2159 12.7991 34.6964L12.0285 35.4669L11.258 34.6963C10.7775 34.2158 9.99841 34.2158 9.51787 34.6963C9.03734 35.1769 9.03734 35.9559 9.51787 36.4365L10.2884 37.2071L9.51787 37.9777C9.03734 38.4582 9.03734 39.2373 9.51787 39.7178C9.99841 40.1983 10.7775 40.1983 11.258 39.7178L12.0285 38.9472L12.799 39.7178C13.2796 40.1983 14.0586 40.1983 14.5392 39.7178C15.0197 39.2373 15.0197 38.4582 14.5392 37.9777L13.7687 37.2071L14.5392 36.4365C15.0198 35.956 15.0198 35.1769 14.5393 34.6964Z" fill="#0965EE"/>
<path d="M39.1486 34.6963C38.6681 34.2158 37.889 34.2158 37.4085 34.6963L36.6379 35.4669L35.8674 34.6963C35.3868 34.2158 34.6078 34.2158 34.1272 34.6963C33.6467 35.1769 33.6467 35.9559 34.1272 36.4365L34.8978 37.2071L34.1272 37.9777C33.6467 38.4582 33.6467 39.2373 34.1272 39.7178C34.6078 40.1983 35.3868 40.1983 35.8674 39.7178L36.6379 38.9473L37.4084 39.7178C37.889 40.1983 38.668 40.1983 39.1485 39.7178C39.6291 39.2373 39.6291 38.4582 39.1485 37.9777L38.378 37.207L39.1485 36.4364C39.6291 35.9559 39.6291 35.1768 39.1486 34.6963Z" fill="#0965EE"/>
<path d="M30.9455 34.6963C30.465 34.2158 29.6859 34.2158 29.2054 34.6963L28.4348 35.4669L27.6643 34.6963C27.1837 34.2158 26.4047 34.2158 25.9241 34.6963C25.4436 35.1769 25.4436 35.9559 25.9241 36.4365L26.6946 37.2071L25.9241 37.9777C25.4436 38.4582 25.4436 39.2373 25.9241 39.7178C26.4047 40.1983 27.1837 40.1983 27.6643 39.7178L28.4348 38.9473L29.2053 39.7178C29.6858 40.1983 30.4649 40.1983 30.9454 39.7178C31.426 39.2373 31.426 38.4582 30.9454 37.9777L30.1749 37.207L30.9454 36.4364C31.426 35.9559 31.426 35.1768 30.9455 34.6963Z" fill="#0965EE"/>
<path d="M18.5911 26.7891H30.0754C32.1109 26.7891 33.7668 25.1331 33.7668 23.0977V16.5352C33.7668 14.931 32.7381 13.5633 31.3059 13.0554V9.97266C31.3059 6.12793 28.178 3 24.3333 3C20.4885 3 17.3606 6.12793 17.3606 9.97266V13.0554C15.9284 13.5633 14.8997 14.931 14.8997 16.5352V23.0977C14.8997 25.1331 16.5556 26.7891 18.5911 26.7891ZM19.8215 9.97266C19.8215 7.48489 21.8455 5.46094 24.3333 5.46094C26.821 5.46094 28.845 7.48489 28.845 9.97266V12.8438H19.8215V9.97266ZM17.3606 16.5352C17.3606 15.8567 17.9126 15.3047 18.5911 15.3047H30.0754C30.7539 15.3047 31.3059 15.8567 31.3059 16.5352V23.0977C31.3059 23.7761 30.7539 24.3281 30.0754 24.3281H18.5911C17.9126 24.3281 17.3606 23.7761 17.3606 23.0977V16.5352Z" fill="#0965EE"/>
<path d="M24.3333 21.8672C25.0128 21.8672 25.5637 21.3163 25.5637 20.6367V18.9961C25.5637 18.3165 25.0128 17.7656 24.3333 17.7656C23.6537 17.7656 23.1028 18.3165 23.1028 18.9961V20.6367C23.1028 21.3163 23.6537 21.8672 24.3333 21.8672Z" fill="#0965EE"/>
</svg>
