<svg width="49" height="48" viewBox="0 0 49 48" fill="none" xmlns="http://www.w3.org/2000/svg">
<path d="M6.33325 6V42H42.3333M16.3333 20H20.3333C21.4378 20 22.3333 20.8954 22.3333 22V32C22.3333 33.1046 21.4378 34 20.3333 34H16.3333C15.2287 34 14.3333 33.1046 14.3333 32V22C14.3333 20.8954 15.2287 20 16.3333 20ZM32.3333 10H36.3333C37.4378 10 38.3333 10.8954 38.3333 12V32C38.3333 33.1046 37.4378 34 36.3333 34H32.3333C31.2287 34 30.3333 33.1046 30.3333 32V12C30.3333 10.8954 31.2287 10 32.3333 10Z" stroke="#0965EE" stroke-width="3" stroke-linecap="round" stroke-linejoin="round"/>
</svg>
