<svg width="624" height="575" viewBox="0 0 624 575" fill="none" xmlns="http://www.w3.org/2000/svg">
<rect x="188.661" y="5" width="354.932" height="489.022" rx="11.9326" fill="#EEEEEE"/>
<path d="M188.661 16.9326C188.661 10.3424 194.004 5 200.594 5H531.66C538.25 5 543.593 10.3424 543.593 16.9326V46.1506H188.661V16.9326Z" fill="#0965EE"/>
<rect x="509.383" y="14.9294" width="24.0322" height="21.5127" rx="5.96629" fill="white"/>
<rect x="203.629" y="14.5696" width="131.496" height="22.0108" rx="5.96629" fill="white"/>
<path d="M188.648 45.4514H226.648V494.095H200.581C193.991 494.095 188.648 488.752 188.648 482.162V45.4514Z" fill="#F7F7F7"/>
<rect x="196.056" y="61.2644" width="24.0322" height="21.5127" rx="5.96629" fill="#E6E6E6"/>
<rect x="196.056" y="96.0164" width="24.0322" height="21.5127" rx="5.96629" fill="#D9D9D9"/>
<rect x="196.056" y="130.768" width="24.0322" height="21.5127" rx="5.96629" fill="#D9D9D9"/>
<rect x="226.648" y="45.4514" width="317.35" height="26.6612" fill="#F7F7F7"/>
<rect x="234.631" y="77.7183" width="17.2517" height="17.2517" rx="1.72517" fill="#E7E7E7"/>
<rect x="257.058" y="78.1494" width="106.098" height="16.3891" fill="#E7E7E7"/>
<rect x="254.943" y="106.428" width="17.2517" height="17.2517" rx="1.72517" fill="#D9D9D9"/>
<rect x="277.37" y="106.859" width="138.013" height="16.3891" fill="#E7E7E7"/>
<rect x="278.463" y="135.138" width="17.2517" height="17.2517" rx="1.72517" fill="#D9D9D9"/>
<rect x="300.89" y="135.569" width="138.013" height="16.3891" fill="#E7E7E7"/>
<rect x="278.463" y="159.063" width="17.2517" height="17.2517" rx="1.72517" fill="#D9D9D9"/>
<rect x="300.89" y="159.494" width="133.7" height="16.3891" fill="#E7E7E7"/>
<rect x="278.463" y="182.987" width="17.2517" height="17.2517" rx="1.72517" fill="#D9D9D9"/>
<rect x="300.89" y="183.418" width="88.8461" height="16.3891" fill="#E7E7E7"/>
<rect x="278.463" y="206.912" width="17.2517" height="17.2517" rx="1.72517" fill="#D9D9D9"/>
<rect x="300.89" y="207.343" width="43.9918" height="16.3891" fill="#D9D9D9"/>
<rect x="307.328" y="239.45" width="17.2517" height="17.2517" rx="1.72517" fill="#D9D9D9"/>
<rect x="329.755" y="239.881" width="85.3958" height="16.3891" fill="#E7E7E7"/>
<rect x="307.328" y="405.967" width="17.2517" height="17.2517" rx="1.72517" fill="#D9D9D9"/>
<rect x="329.755" y="406.398" width="85.3958" height="16.3891" fill="#E7E7E7"/>
<rect x="307.328" y="263.375" width="17.2517" height="17.2517" rx="1.72517" fill="#D9D9D9"/>
<rect x="329.755" y="263.806" width="96.6094" height="16.3891" fill="#E7E7E7"/>
<rect x="307.328" y="429.891" width="17.2517" height="17.2517" rx="1.72517" fill="#D9D9D9"/>
<rect x="329.755" y="430.322" width="96.6094" height="16.3891" fill="#E7E7E7"/>
<rect x="278.463" y="465.3" width="17.2517" height="17.2517" rx="1.72517" fill="#D9D9D9"/>
<rect x="300.89" y="465.731" width="96.6094" height="16.3891" fill="#E7E7E7"/>
<rect x="334.055" y="298.783" width="17.2517" height="17.2517" rx="1.72517" fill="#D9D9D9"/>
<rect x="356.481" y="299.215" width="124.212" height="16.3891" fill="#E7E7E7"/>
<rect x="334.055" y="322.708" width="17.2517" height="17.2517" rx="1.72517" fill="#D9D9D9"/>
<rect x="356.481" y="323.139" width="124.212" height="16.3891" fill="#E7E7E7"/>
<rect x="334.055" y="346.633" width="17.2517" height="17.2517" rx="1.72517" fill="#D9D9D9"/>
<rect x="356.481" y="347.064" width="124.212" height="16.3891" fill="#E7E7E7"/>
<rect x="334.055" y="370.558" width="17.2517" height="17.2517" rx="1.72517" fill="#D9D9D9"/>
<rect x="356.481" y="370.989" width="124.212" height="16.3891" fill="#E7E7E7"/>
<rect x="239.978" y="100.699" width="2.13814" height="384.71" fill="#D9D9D9"/>
<rect x="259.22" y="129.409" width="2.13814" height="356.001" fill="#D9D9D9"/>
<rect x="281.67" y="231.807" width="2.13814" height="222.022" fill="#D9D9D9"/>
<rect x="311.604" y="286.355" width="2.13814" height="111.011" fill="#D9D9D9"/>
<rect x="234.631" y="49.9785" width="204.193" height="17.2258" rx="3.45033" fill="#D9D9D9"/>
<rect x="444.17" y="49.9785" width="19.2433" height="17.2258" rx="3.45033" fill="#D9D9D9"/>
<g filter="url(#filter0_d_1544_14358)">
<rect x="88" y="89.5803" width="380.253" height="464.596" rx="11.2672" fill="white"/>
</g>
<rect x="117.952" y="111.557" width="20.8733" height="20.8733" rx="2.08733" fill="#0965EE"/>
<rect x="145.088" y="112.079" width="166.987" height="19.8297" rx="3.07702" fill="#D9D9D9"/>
<rect x="117.952" y="140.504" width="20.8733" height="20.8733" rx="2.08733" fill="#0965EE"/>
<rect x="145.088" y="141.026" width="161.768" height="19.8297" rx="3.07702" fill="#D9D9D9"/>
<rect x="117.952" y="169.451" width="20.8733" height="20.8733" rx="2.08733" fill="#0965EE"/>
<rect x="145.088" y="169.973" width="107.498" height="19.8297" rx="3.07702" fill="#D9D9D9"/>
<rect x="117.952" y="198.399" width="20.8733" height="20.8733" rx="2.08733" fill="#0965EE"/>
<rect x="145.088" y="198.921" width="53.227" height="19.8297" rx="3.07702" fill="#D9D9D9"/>
<rect x="157.035" y="237.767" width="20.8733" height="20.8733" rx="2.08733" fill="#D9D9D9"/>
<rect x="184.171" y="238.289" width="103.323" height="19.8297" rx="3.07702" fill="#D9D9D9"/>
<rect x="157.035" y="439.24" width="20.8733" height="20.8733" rx="2.08733" fill="#D9D9D9"/>
<rect x="184.171" y="439.762" width="103.323" height="19.8297" rx="3.07702" fill="#D9D9D9"/>
<rect x="157.035" y="266.714" width="20.8733" height="20.8733" rx="2.08733" fill="#D9D9D9"/>
<rect x="184.171" y="267.236" width="116.891" height="19.8297" rx="3.07702" fill="#D9D9D9"/>
<rect x="157.035" y="468.187" width="20.8733" height="20.8733" rx="2.08733" fill="#D9D9D9"/>
<rect x="184.171" y="468.709" width="116.891" height="19.8297" rx="3.07702" fill="#D9D9D9"/>
<rect x="117.952" y="511.03" width="20.8733" height="20.8733" rx="2.08733" fill="#0965EE"/>
<rect x="145.088" y="511.551" width="116.891" height="19.8297" rx="3.07702" fill="#D9D9D9"/>
<rect x="193.222" y="309.556" width="20.8733" height="20.8733" rx="2.08733" fill="#D9D9D9"/>
<rect x="220.357" y="310.078" width="150.288" height="19.8297" rx="3.07702" fill="#D9D9D9"/>
<rect x="193.222" y="338.504" width="20.8733" height="20.8733" rx="2.08733" fill="#D9D9D9"/>
<rect x="220.357" y="339.025" width="150.288" height="19.8297" rx="3.07702" fill="#D9D9D9"/>
<rect x="193.222" y="367.451" width="20.8733" height="20.8733" rx="2.08733" fill="#D9D9D9"/>
<rect x="220.357" y="367.972" width="150.288" height="19.8297" rx="3.07702" fill="#D9D9D9"/>
<rect x="193.222" y="396.398" width="20.8733" height="20.8733" rx="2.08733" fill="#D9D9D9"/>
<rect x="220.357" y="396.92" width="150.288" height="19.8297" rx="3.07702" fill="#D9D9D9"/>
<rect x="122.294" y="228.52" width="2.89499" height="268.631" fill="#0965EE"/>
<rect x="162.824" y="294.519" width="2.89499" height="134.315" fill="#0965EE"/>
<defs>
<filter id="filter0_d_1544_14358" x="71.0992" y="76.4353" width="414.054" height="498.397" filterUnits="userSpaceOnUse" color-interpolation-filters="sRGB">
<feFlood flood-opacity="0" result="BackgroundImageFix"/>
<feColorMatrix in="SourceAlpha" type="matrix" values="0 0 0 0 0 0 0 0 0 0 0 0 0 0 0 0 0 0 127 0" result="hardAlpha"/>
<feOffset dy="3.75573"/>
<feGaussianBlur stdDeviation="8.45039"/>
<feComposite in2="hardAlpha" operator="out"/>
<feColorMatrix type="matrix" values="0 0 0 0 0 0 0 0 0 0 0 0 0 0 0 0 0 0 0.1 0"/>
<feBlend mode="normal" in2="BackgroundImageFix" result="effect1_dropShadow_1544_14358"/>
<feBlend mode="normal" in="SourceGraphic" in2="effect1_dropShadow_1544_14358" result="shape"/>
</filter>
</defs>
</svg>
