<svg width="48" height="48" viewBox="0 0 48 48" fill="none" xmlns="http://www.w3.org/2000/svg">
<g clip-path="url(#clip0_1316_6556)">
<path fill-rule="evenodd" clip-rule="evenodd" d="M41.4891 3.23345L40.2675 4.46819L39.9312 4.11773L39.9312 4.1177C39.5796 3.75155 39.2441 3.4021 38.9109 3.0496C38.5589 2.67729 38.1377 2.54923 37.6697 2.7499C37.199 2.9519 37.0177 3.35722 37.0177 3.86419C37.0195 4.75599 37.0192 5.64805 37.0188 6.54026C37.0184 7.65573 37.018 8.77143 37.0217 9.88713C37.0243 10.6846 37.4415 11.0938 38.2329 11.0938C38.9122 11.0947 39.5917 11.0941 40.2712 11.0934H40.2712C41.5624 11.0922 42.8537 11.0909 44.1444 11.1004C44.6659 11.1044 45.0779 10.9618 45.3009 10.4614C45.5395 9.92805 45.3204 9.50954 44.9397 9.13987C44.6534 8.86191 44.3682 8.58339 44.0795 8.30148C43.9212 8.14688 43.7619 7.99126 43.6007 7.83415C44.0268 7.40348 44.4474 6.97928 44.8639 6.55924L44.864 6.55921C45.7906 5.62464 46.6969 4.71062 47.5982 3.79157C48.1341 3.24632 48.1315 2.64957 47.6047 2.10167C47.2616 1.74496 46.9121 1.39413 46.5624 1.04321L46.5624 1.04318L46.5614 1.04217C46.4145 0.894691 46.2675 0.747193 46.121 0.599233C45.3309 -0.196873 44.8876 -0.199513 44.1053 0.589991C43.2407 1.46275 42.3773 2.33551 41.4892 3.23328L41.4891 3.23345ZM45.1157 2.56507L41.3347 6.39377C40.5224 7.21496 40.1273 7.22288 39.2825 6.44526C39.2709 6.43523 39.2515 6.4342 39.225 6.43278C39.2096 6.43195 39.1917 6.431 39.1716 6.4281V8.94447H41.6815C41.6687 8.91668 41.6592 8.89271 41.651 8.87194C41.6365 8.83548 41.6259 8.80887 41.6085 8.78869C40.8731 7.92921 40.8888 7.56218 41.6958 6.74627C42.9045 5.52505 44.1131 4.30251 45.3204 3.07997C45.3487 3.05131 45.3692 3.01598 45.3917 2.97727C45.4024 2.95889 45.4135 2.93976 45.4261 2.92022C45.3682 2.85331 45.3156 2.79298 45.2577 2.7266L45.257 2.72572L45.2567 2.72541C45.2143 2.67686 45.1692 2.62506 45.1171 2.56507H45.1157ZM26.066 27.4671H21.9355V28.155V33.9838C21.9355 34.9753 21.5652 35.3503 20.5704 35.3516C16.5951 35.3543 12.6197 35.3556 8.64311 35.3516C7.65351 35.3516 7.29235 34.974 7.29235 33.9706C7.29105 32.0444 7.28974 30.1169 7.29235 28.1906C7.29496 26.1535 8.59356 24.8214 10.608 24.7884C10.9003 24.784 11.1926 24.7854 11.4838 24.7869C11.629 24.7876 11.7739 24.7884 11.9183 24.7884C12.0578 24.4359 11.99 24.2867 11.621 24.2391C10.0421 24.0371 8.88692 22.7671 8.86606 21.1603C8.83868 19.0202 8.83737 16.8788 8.86606 14.7387C8.88953 13.0131 10.2507 11.6401 11.9561 11.611C13.6333 11.5836 15.3104 11.5962 16.9876 11.6088L17.2835 11.611C17.488 11.6128 17.6924 11.6496 17.9102 11.6887C18.0174 11.708 18.1279 11.7278 18.2431 11.7444C18.2431 11.3845 18.2424 11.0249 18.2417 10.6655L18.2417 10.6632V10.6631V10.663V10.663C18.2401 9.82328 18.2384 8.98468 18.2457 8.14673C18.2467 8.02838 18.2466 7.90962 18.2465 7.79072C18.246 7.2995 18.2455 6.80577 18.3252 6.32744C18.5743 4.81708 19.8077 3.73448 21.3136 3.70676C23.105 3.67507 24.8991 3.66979 26.6905 3.70676C28.4129 3.7424 29.7362 5.14714 29.7545 6.9123C29.7664 8.03143 29.7635 9.15057 29.7608 10.2351V10.2361V10.237V10.2379C29.7596 10.6993 29.7584 11.1543 29.7584 11.6005C30.4379 11.6005 31.1144 11.6 31.789 11.5996H31.7903H31.7904H31.7906C33.1337 11.5987 34.4693 11.5978 35.8055 11.6005C37.7951 11.6044 39.142 12.9696 39.1459 14.9856C39.1498 16.962 39.1498 18.9371 39.1459 20.9135C39.142 22.7288 38.1015 23.9685 36.3309 24.2418C35.9946 24.2933 35.9802 24.4557 36.0676 24.7857C36.1995 24.7857 36.3332 24.7854 36.468 24.7851H36.4689H36.4692H36.4696H36.4699C36.7435 24.7846 37.0219 24.784 37.301 24.7857C39.4106 24.8016 40.7092 26.1165 40.7118 28.2408C40.7131 30.167 40.7144 32.0946 40.7118 34.0208C40.7118 34.9529 40.3311 35.3477 39.4067 35.349C35.3987 35.3543 31.3908 35.3543 27.3816 35.349C26.4324 35.349 26.0686 34.9582 26.0686 33.9799C26.0677 32.5495 26.068 31.1197 26.0683 29.6758V29.6724V29.669V29.6656L26.0686 27.4658L26.066 27.4671ZM19.8081 31.7358V31.7304C19.8086 30.5083 19.8092 29.3019 19.8064 28.0956C19.8038 27.3272 19.3983 26.9113 18.6264 26.91C15.9549 26.9034 13.2834 26.9034 10.6106 26.91C9.81393 26.9113 9.42148 27.3232 9.42018 28.1352C9.41692 29.4387 9.41819 30.7414 9.41945 32.0447L9.42018 32.8273C9.42018 32.9102 9.42928 32.993 9.43884 33.08C9.44376 33.1247 9.44879 33.1706 9.45278 33.2181H19.8077V33.2168C19.8077 32.7217 19.8079 32.2302 19.8081 31.7412V31.7358ZM38.5826 33.2168C38.5826 32.7183 38.5829 32.2234 38.5831 31.7309V31.7277C38.5836 30.506 38.5841 29.2998 38.5813 28.0942C38.5787 27.3259 38.1732 26.9113 37.4014 26.9087C34.7299 26.9021 32.0583 26.9021 29.3855 26.9087C28.5889 26.91 28.1964 27.3219 28.1951 28.1339C28.1919 29.4376 28.1931 30.7405 28.1944 32.0439L28.1951 32.826C28.1951 32.9092 28.2043 32.9924 28.2139 33.0794L28.2139 33.0795C28.2188 33.1236 28.2238 33.1688 28.2277 33.2155H38.5813L38.5826 33.2168ZM27.6306 10.065C27.6306 9.7588 27.6309 9.45267 27.6313 9.1466V9.14554V9.1454V9.14526C27.6321 8.43179 27.6329 7.71858 27.6293 7.00472C27.6254 6.23766 27.246 5.85083 26.4897 5.84819C24.8287 5.84291 23.1689 5.84291 21.5079 5.84819C20.753 5.85083 20.3748 6.23766 20.3735 7.00868C20.3696 9.03261 20.3696 11.0565 20.3735 13.0805C20.3748 13.8264 20.7764 14.2502 21.5131 14.2555C23.1741 14.2674 24.8339 14.2674 26.495 14.2555C27.229 14.2502 27.6267 13.8238 27.6306 13.0752C27.6342 12.3731 27.6334 11.6711 27.6326 10.9686V10.9683V10.9681V10.9678C27.6322 10.6666 27.6319 10.3652 27.6319 10.0637L27.6306 10.065ZM18.2431 17.9733C18.2431 17.667 18.2435 17.3609 18.2438 17.0548V17.0538V17.0536V17.0535C18.2446 16.34 18.2455 15.6268 18.2418 14.913C18.2379 14.1446 17.8598 13.7564 17.1049 13.7538C15.4438 13.7485 13.7841 13.7485 12.123 13.7538C11.3668 13.7564 10.9874 14.1433 10.9861 14.9116C10.9822 16.9356 10.9822 18.9595 10.9861 20.9834C10.9874 21.7307 11.3876 22.1558 12.123 22.1611C13.7841 22.173 15.4438 22.173 17.1049 22.1611C17.8402 22.1558 18.2379 21.7307 18.2431 20.9834C18.2468 20.2814 18.2459 19.5794 18.2451 18.877V18.8767V18.8765V18.8762C18.2448 18.5749 18.2444 18.2735 18.2444 17.972L18.2431 17.9733ZM29.7597 17.9139C29.7597 18.2328 29.7592 18.5517 29.7587 18.8706C29.7576 19.5881 29.7565 20.3056 29.761 21.023C29.7662 21.7135 30.16 22.1518 30.8393 22.1584C32.5316 22.1756 34.2253 22.1743 35.9189 22.1584C36.6034 22.1518 37.0141 21.7228 37.0155 21.0415C37.022 18.9846 37.022 16.9277 37.0155 14.872C37.0128 14.1433 36.6204 13.7551 35.889 13.7525C34.2279 13.7472 32.5681 13.7472 30.9071 13.7525C30.1456 13.7551 29.7649 14.138 29.7597 14.9011C29.7548 15.6535 29.7565 16.406 29.7582 17.159C29.7588 17.4101 29.7594 17.6613 29.7597 17.9125V17.9139ZM30.6789 24.3049C30.6928 24.3122 30.7089 24.3206 30.7285 24.3296V24.8214C30.5445 24.8214 30.3619 24.8196 30.1801 24.8178H30.1799H30.1797H30.1795C29.739 24.8134 29.3038 24.8091 28.8692 24.8306C28.5837 24.8451 28.2655 24.8979 28.0296 25.0445C27.5664 25.3328 27.0786 25.3313 26.5746 25.3298L26.5289 25.3297C25.1372 25.3257 23.7463 25.3262 22.355 25.3267H22.3549H22.3548H22.3529C21.8887 25.3269 21.4245 25.327 20.9603 25.327C20.9196 25.327 20.876 25.3305 20.8321 25.334C20.7186 25.3431 20.6026 25.3524 20.5274 25.3019C19.7334 24.7738 18.8554 24.7792 17.9772 24.7847C17.8171 24.7856 17.6569 24.7866 17.4973 24.7844C17.4541 24.7835 17.4109 24.7766 17.3657 24.7693C17.3441 24.7659 17.3219 24.7623 17.2991 24.7593C17.1701 24.4398 17.2326 24.2867 17.6029 24.2391C19.204 24.0319 20.3318 22.7512 20.367 21.1181C20.3769 20.6464 20.3744 20.1741 20.3719 19.693C20.3708 19.4739 20.3696 19.253 20.3696 19.0295H27.6306V20.6983C27.6306 22.7988 28.5798 23.9355 30.6137 24.2787C30.634 24.2813 30.6526 24.2911 30.6788 24.3048L30.6789 24.3049ZM21.3697 16.8603C21.3697 16.3514 21.1154 16.331 20.8513 16.3098C20.6858 16.2966 20.5165 16.283 20.4035 16.1487V16.8603H21.3697ZM26.6436 16.8418H27.5915V16.1183C27.4777 16.2787 27.2915 16.2936 27.1138 16.3079C26.8498 16.329 26.6046 16.3486 26.6436 16.8418ZM23.5053 16.8484H24.5027C24.4909 16.7189 24.4806 16.6096 24.4706 16.5042L24.461 16.4022H23.5249L23.5178 16.5636L23.5178 16.5651C23.514 16.6524 23.5102 16.7413 23.5053 16.8484ZM15.1113 24.7646C15.1002 24.6185 15.0901 24.4916 15.0809 24.3764L15.0761 24.317H14.1113C14.1194 24.4134 14.1263 24.4988 14.1328 24.5804L14.1329 24.5808C14.1379 24.6432 14.1427 24.7034 14.1478 24.7646H15.11H15.1113ZM32.9163 24.3065V24.7567H33.885L33.8739 24.5962C33.867 24.4955 33.8606 24.403 33.8537 24.3065H32.9163ZM4.40171 40.188C4.23795 40.0274 4.07781 39.8711 3.92032 39.7174C3.60509 39.4098 3.3005 39.1125 2.9988 38.8123C2.64546 38.4611 2.48249 38.0505 2.69762 37.562C2.90753 37.0841 3.29998 36.9006 3.79934 36.9006C4.34175 36.9006 4.88406 36.9003 5.42633 36.9H5.42942H5.42955H5.42968C6.8741 36.8992 8.3182 36.8984 9.763 36.9032C10.5453 36.9058 10.9782 37.3376 10.9821 38.1231C10.9877 39.5582 10.9866 40.9926 10.9855 42.4273V42.4275V42.4276V42.4277L10.9855 42.4314C10.9851 43.0042 10.9847 43.5771 10.9847 44.15C10.9847 44.6728 10.7969 45.0795 10.2937 45.2867C9.79951 45.4914 9.40706 45.2973 9.06415 44.9435C8.77373 44.645 8.48506 44.3453 8.17355 44.0219C8.01937 43.8618 7.85959 43.696 7.69123 43.5216C7.53879 43.6843 7.38998 43.8447 7.24311 44.0031L7.24305 44.0031C6.92392 44.3472 6.61401 44.6814 6.29615 45.0068C5.47344 45.8518 4.64291 46.6888 3.80977 47.5232C3.17351 48.1596 2.62852 48.1556 1.99877 47.5232C1.47855 47.0017 0.95963 46.4776 0.444623 45.9508C-0.139487 45.3527 -0.148614 44.7864 0.434192 44.1936C1.45378 43.157 2.47821 42.1253 3.53341 41.0626L3.53415 41.0619L4.40171 40.188ZM8.82425 41.6561V39.0512H6.26747C6.3373 39.1353 6.40083 39.2081 6.45887 39.2747C6.5677 39.3995 6.65725 39.5022 6.73293 39.615C7.04585 40.0797 6.9637 40.6052 6.49955 41.0752C5.49779 42.0885 4.49298 43.0996 3.47515 44.1237L2.53855 45.0663C2.6379 45.1579 2.72035 45.2348 2.80355 45.3125L2.80389 45.3128L2.80515 45.314L2.80562 45.3144L2.92318 45.424C3.26449 45.0774 3.60324 44.7331 3.94019 44.3907L3.9421 44.3887L3.94338 44.3874L3.94544 44.3853L3.94745 44.3833C4.92347 43.3913 5.88442 42.4146 6.84897 41.4409C7.41743 40.8679 7.95982 40.8652 8.55567 41.4105C8.58479 41.4373 8.61392 41.4638 8.64711 41.494C8.69415 41.5369 8.74934 41.5872 8.82425 41.6561ZM39.8464 44.0067L39.868 43.9843L39.8735 43.9786C40.017 43.8296 40.1662 43.6746 40.324 43.5113C40.377 43.5796 40.4233 43.6428 40.4664 43.7016C40.5485 43.8134 40.6187 43.9093 40.7008 43.9932C41.8833 45.196 43.0672 46.3987 44.2602 47.5909C44.8078 48.1375 45.3867 48.1361 45.9304 47.6001C46.5027 47.0377 47.0686 46.4687 47.624 45.8891C48.1143 45.3768 48.1156 44.7972 47.6397 44.2691C47.4974 44.1108 47.3457 43.9607 47.1942 43.811L47.1935 43.8102C47.1355 43.753 47.0776 43.6957 47.0204 43.6381C46.0301 42.6411 45.0388 41.6441 44.0297 40.6293L43.6083 40.2054C43.7727 40.0416 43.9332 39.8825 44.091 39.7261L44.0924 39.7247L44.0927 39.7243C44.4036 39.4162 44.7036 39.1188 45.0007 38.8179C45.3502 38.464 45.5171 38.0548 45.3032 37.5663C45.0946 37.0897 44.7022 36.9022 44.2028 36.9022C43.4933 36.9027 42.7835 36.9023 42.0737 36.9019H42.0737H42.0736C40.7958 36.9013 39.5179 36.9006 38.2405 36.9048C37.4556 36.9062 37.0227 37.3366 37.0201 38.1208C37.0159 39.4116 37.0166 40.7029 37.0172 41.9941V41.9941C37.0176 42.7116 37.0179 43.4291 37.0175 44.1464C37.0175 44.6692 37.2026 45.0758 37.7046 45.2857C38.1974 45.4917 38.5912 45.2989 38.9354 44.9478C39.2311 44.6456 39.5244 44.341 39.8464 44.0067ZM39.1935 39.0793V41.6366C40.161 40.7758 40.513 40.7864 41.3761 41.659C42.5717 42.8684 43.7686 44.0764 44.9655 45.2844C44.9919 45.3111 45.024 45.3325 45.0611 45.3573C45.0828 45.3718 45.1061 45.3874 45.1311 45.4059L45.2213 45.305L45.2214 45.305C45.2977 45.2197 45.3737 45.1347 45.4714 45.0243C45.4232 44.9833 45.3764 44.9452 45.3312 44.9084L45.3311 44.9083L45.3309 44.9082C45.2393 44.8336 45.1544 44.7645 45.0777 44.6877C43.8912 43.4928 42.7047 42.2967 41.5235 41.0966C40.9328 40.4959 40.9302 39.9691 41.5 39.3367C41.5085 39.3272 41.517 39.3176 41.5256 39.3078C41.5488 39.2815 41.5728 39.2539 41.6005 39.2222L41.6007 39.2219L41.6008 39.2219C41.635 39.1826 41.6749 39.1368 41.7256 39.0793H39.1935ZM8.15827 4.03099C8.02405 4.17129 7.88772 4.31379 7.74866 4.45977C7.68576 4.39918 7.63062 4.34643 7.58078 4.29877C7.48186 4.20415 7.40383 4.12952 7.32753 4.05314C6.9441 3.66615 6.56121 3.27861 6.17829 2.89106C5.3646 2.06752 4.55082 1.24387 3.7316 0.425114C3.16835 -0.135988 2.62858 -0.134668 2.06533 0.419833C1.50469 0.970374 0.953171 1.53016 0.406872 2.0939C-0.142035 2.66028 -0.134212 3.24119 0.430341 3.81681C1.28956 4.69345 2.15268 5.56745 3.02102 6.43485C3.33505 6.74913 3.65744 7.05559 3.99902 7.3803C4.14388 7.51801 4.2922 7.659 4.44479 7.80526C4.27376 7.9713 4.10921 8.13011 3.94941 8.28433C3.6073 8.6145 3.28697 8.92366 2.97148 9.23772C2.62988 9.57702 2.48907 9.9797 2.69507 10.4471C2.89586 10.9012 3.2505 11.0979 3.74464 11.0966C4.89872 11.0921 6.05279 11.0927 7.20686 11.0934C8.0724 11.0939 8.93794 11.0944 9.80348 11.0927C10.5584 11.0913 10.9782 10.6741 10.9808 9.89916C10.9853 8.75167 10.9847 7.60417 10.984 6.45667C10.9835 5.59608 10.9831 4.73549 10.9847 3.8749C10.986 3.37057 10.8126 2.95998 10.3433 2.75402C9.85433 2.54014 9.42667 2.68669 9.06552 3.07484C8.76944 3.39217 8.46955 3.70563 8.15827 4.03099ZM6.54785 6.26982C7.51006 7.24416 7.7278 7.25868 8.83865 6.38072V6.38204V8.93803H6.36662C6.36491 8.92595 6.36196 8.91318 6.35916 8.90108C6.35339 8.87612 6.34828 8.85404 6.35619 8.84693C7.16846 8.11552 7.02896 7.41711 6.26101 6.68174C5.37888 5.83688 4.52396 4.96449 3.65789 4.08073C3.29508 3.7105 2.93032 3.33828 2.56078 2.96526C2.67682 2.83719 2.77851 2.72497 2.9089 2.58239L2.99016 2.66476C4.1927 3.88374 5.36965 5.07678 6.54785 6.26982Z" fill="#0965EE"/>
</g>
<defs>
<clipPath id="clip0_1316_6556">
<rect width="48" height="48" fill="white"/>
</clipPath>
</defs>
</svg>
