<svg width="49" height="48" viewBox="0 0 49 48" fill="none" xmlns="http://www.w3.org/2000/svg">
<path d="M4.59961 44H44.5996M18.5996 4H30.5996C32.8087 4 34.5996 5.79086 34.5996 8V12C34.5996 14.2091 32.8087 16 30.5996 16H18.5996C16.3905 16 14.5996 14.2091 14.5996 12V8C14.5996 5.79086 16.3905 4 18.5996 4Z" stroke="#0965EE" stroke-width="3" stroke-linecap="round" stroke-linejoin="round"/>
<path d="M18.5996 24H8.59961C7.49504 24 6.59961 25.7909 6.59961 28V32C6.59961 34.2091 7.49504 36 8.59961 36H18.5996C19.7042 36 20.5996 34.2091 20.5996 32V28C20.5996 25.7909 19.7042 24 18.5996 24Z" stroke="#0965EE" stroke-width="3" stroke-linecap="round" stroke-linejoin="round"/>
<path d="M40.5996 24H30.5996C29.495 24 28.5996 25.7909 28.5996 28V32C28.5996 34.2091 29.495 36 30.5996 36H40.5996C41.7042 36 42.5996 34.2091 42.5996 32V28C42.5996 25.7909 41.7042 24 40.5996 24Z" stroke="#0965EE" stroke-width="3" stroke-linecap="round" stroke-linejoin="round"/>
<rect x="23.5996" y="17" width="2" height="3" fill="#0965EE"/>
<rect x="35.5996" y="37" width="2" height="6" fill="#0965EE"/>
<rect x="12.5996" y="37" width="2" height="6" fill="#0965EE"/>
<rect x="12.5996" y="19" width="25" height="2" fill="#0965EE"/>
<rect x="35.5996" y="20" width="2" height="3" fill="#0965EE"/>
<rect x="12.5996" y="20" width="2" height="3" fill="#0965EE"/>
</svg>
