<svg width="465" height="329" viewBox="0 0 465 329" fill="none" xmlns="http://www.w3.org/2000/svg">
<path d="M236.299 40.425L236.299 87.6846" stroke="#CCCCCC" stroke-width="1.88748"/>
<path d="M237.355 94.7542L240.563 89.0936C240.919 88.4645 240.465 87.6846 239.742 87.6846L232.949 87.6846C232.205 87.6846 231.754 88.5049 232.152 89.1333L235.737 94.7939C236.118 95.396 237.004 95.3743 237.355 94.7542Z" fill="#CCCCCC" stroke="#CCCCCC" stroke-width="0.943738"/>
<path d="M164.566 153.51L164.566 166.169" stroke="#CCCCCC" stroke-width="1.88748"/>
<path d="M165.623 173.239L168.83 167.578C169.187 166.949 168.733 166.169 168.009 166.169L161.217 166.169C160.473 166.169 160.021 166.989 160.419 167.618L164.004 173.278C164.386 173.88 165.271 173.859 165.623 173.239Z" fill="#CCCCCC" stroke="#CCCCCC" stroke-width="0.943738"/>
<path d="M299.379 280.612L296.171 286.273C295.815 286.902 296.269 287.682 296.993 287.682L303.785 287.682C304.529 287.682 304.981 286.861 304.583 286.233L300.998 280.572C300.616 279.97 299.731 279.992 299.379 280.612Z" fill="#CCCCCC" stroke="#CCCCCC" stroke-width="0.943738"/>
<path d="M50.6348 153.511L50.6348 166.169" stroke="#CCCCCC" stroke-width="1.88748"/>
<path d="M51.6931 173.239L54.9008 167.578C55.2573 166.949 54.8028 166.169 54.0797 166.169L47.287 166.169C46.5432 166.169 46.0917 166.99 46.4897 167.618L50.0747 173.279C50.4561 173.881 51.3417 173.859 51.6931 173.239Z" fill="#CCCCCC" stroke="#CCCCCC" stroke-width="0.943738"/>
<path d="M298.75 153.51L298.75 166.168" stroke="#CCCCCC" stroke-width="1.88748"/>
<path d="M299.806 173.238L303.014 167.577C303.371 166.948 302.916 166.168 302.193 166.168L295.4 166.168C294.656 166.168 294.205 166.989 294.603 167.617L298.188 173.278C298.569 173.88 299.455 173.858 299.806 173.238Z" fill="#CCCCCC" stroke="#CCCCCC" stroke-width="0.943738"/>
<path d="M414.367 153.51L414.367 166.169" stroke="#CCCCCC" stroke-width="1.88748"/>
<path d="M415.424 173.239L418.631 167.578C418.988 166.949 418.533 166.169 417.81 166.169L411.017 166.169C410.274 166.169 409.822 166.989 410.22 167.618L413.805 173.278C414.187 173.88 415.072 173.859 415.424 173.239Z" fill="#CCCCCC" stroke="#CCCCCC" stroke-width="0.943738"/>
<rect x="156.971" y="0.760742" width="158.657" height="30.3811" rx="3.77495" fill="#EEEEEE"/>
<path d="M183.574 17.8413V11.3924H184.812V17.938C184.812 19.9781 183.284 21.467 180.954 21.467C178.614 21.467 177.096 19.9781 177.096 17.938V11.3924H178.324V17.8413C178.324 19.2819 179.32 20.3164 180.954 20.3164C182.588 20.3164 183.574 19.2819 183.574 17.8413ZM192.129 15.8013H190.969C190.814 15.1825 190.34 14.7764 189.47 14.7764C188.552 14.7764 187.904 15.2695 187.904 15.8883C187.904 16.3814 188.3 16.7198 189.17 16.9325L190.282 17.2032C191.607 17.5223 192.255 18.1797 192.255 19.2142C192.255 20.5002 191.21 21.4477 189.344 21.4477C187.681 21.4477 186.685 20.7032 186.492 19.3496H187.72C187.855 20.0747 188.387 20.4228 189.325 20.4228C190.379 20.4228 191.046 19.9781 191.046 19.2819C191.046 18.7598 190.669 18.4118 189.828 18.2184L188.706 17.9573C187.411 17.6576 186.724 16.9518 186.724 15.956C186.724 14.6894 187.836 13.7709 189.47 13.7709C191.007 13.7709 191.974 14.5927 192.129 15.8013ZM200.002 17.4836V17.9767H194.622C194.675 19.543 195.589 20.4035 196.908 20.4035C197.798 20.4035 198.359 20.0167 198.629 19.5526H199.886C199.538 20.6839 198.436 21.4477 196.908 21.4477C194.762 21.4477 193.437 19.92 193.437 17.6383C193.437 15.3565 194.781 13.7709 196.792 13.7709C198.359 13.7709 200.002 14.7281 200.002 17.4836ZM194.622 16.9711H198.803C198.803 15.7336 198.02 14.8151 196.802 14.8151C195.511 14.8151 194.699 15.8303 194.622 16.9711ZM202.703 21.293H201.524V13.8676H202.665V14.9988H202.742C203.013 14.2543 203.786 13.7515 204.666 13.7515C204.84 13.7515 205.14 13.7612 205.275 13.7709V14.9601C205.188 14.9408 204.869 14.8827 204.569 14.8827C203.496 14.8827 202.703 15.6176 202.703 16.6134V21.293ZM210.087 21.293V11.3924H211.566L214.902 19.543H215.018L218.353 11.3924H219.833V21.293H218.672V13.8192H218.576L215.501 21.293H214.409L211.334 13.8095H211.247V21.293H210.087ZM224.903 21.4477C222.883 21.4477 221.519 19.92 221.519 17.6189C221.519 15.2985 222.883 13.7709 224.903 13.7709C226.924 13.7709 228.278 15.2985 228.278 17.6189C228.278 19.92 226.924 21.4477 224.903 21.4477ZM224.903 20.4035C226.402 20.4035 227.098 19.0982 227.098 17.6189C227.098 16.1397 226.402 14.8151 224.903 14.8151C223.395 14.8151 222.699 16.1397 222.699 17.6189C222.699 19.0982 223.395 20.4035 224.903 20.4035ZM232.615 21.4477C230.768 21.4477 229.463 19.9587 229.463 17.5996C229.463 15.2502 230.768 13.7709 232.634 13.7709C234.075 13.7709 234.529 14.6507 234.781 15.0471H234.868V11.3924H236.047V21.293H234.906V20.1521H234.781C234.519 20.5678 234.036 21.4477 232.615 21.4477ZM232.789 20.3938C234.142 20.3938 234.897 19.2432 234.897 17.5803C234.897 15.9269 234.162 14.8247 232.789 14.8247C231.358 14.8247 230.652 16.0236 230.652 17.5803C230.652 19.1562 231.377 20.3938 232.789 20.3938ZM244.299 17.4836V17.9767H238.919C238.972 19.543 239.886 20.4035 241.205 20.4035C242.095 20.4035 242.656 20.0167 242.926 19.5526H244.183C243.835 20.6839 242.733 21.4477 241.205 21.4477C239.059 21.4477 237.734 19.92 237.734 17.6383C237.734 15.3565 239.078 13.7709 241.089 13.7709C242.656 13.7709 244.299 14.7281 244.299 17.4836ZM238.919 16.9711H243.1C243.1 15.7336 242.317 14.8151 241.099 14.8151C239.808 14.8151 238.996 15.8303 238.919 16.9711ZM252.061 12.485H248.948V11.3924H256.402V12.485H253.298V21.293H252.061V12.485ZM259.072 16.8358V21.293H257.893V11.3924H259.072V15.0374H259.169C259.517 14.264 260.184 13.7709 261.354 13.7709C262.872 13.7709 263.887 14.67 263.887 16.5747V21.293H262.708V16.6618C262.708 15.4919 262.07 14.8247 261.006 14.8247C259.894 14.8247 259.072 15.5499 259.072 16.8358ZM266.947 21.293H265.768V13.8676H266.909V14.9988H266.986C267.257 14.2543 268.03 13.7515 268.91 13.7515C269.084 13.7515 269.384 13.7612 269.519 13.7709V14.9601C269.432 14.9408 269.113 14.8827 268.814 14.8827C267.74 14.8827 266.947 15.6176 266.947 16.6134V21.293ZM276.647 17.4836V17.9767H271.266C271.32 19.543 272.233 20.4035 273.553 20.4035C274.442 20.4035 275.003 20.0167 275.274 19.5526H276.531C276.183 20.6839 275.081 21.4477 273.553 21.4477C271.407 21.4477 270.082 19.92 270.082 17.6383C270.082 15.3565 271.426 13.7709 273.437 13.7709C275.003 13.7709 276.647 14.7281 276.647 17.4836ZM271.266 16.9711H275.448C275.448 15.7336 274.665 14.8151 273.447 14.8151C272.156 14.8151 271.344 15.8303 271.266 16.9711ZM280.992 13.7709C281.958 13.7709 283.786 14.0609 283.786 16.4007V21.293H282.616V20.2874H282.558C282.316 20.7805 281.639 21.467 280.353 21.467C278.942 21.467 277.82 20.6355 277.82 19.1852C277.82 17.4836 279.319 17.0968 280.605 17.0002C281.088 16.9663 282.287 16.8986 282.616 16.889V16.2847C282.616 15.3468 282.055 14.7957 280.934 14.7957C279.996 14.7957 279.435 15.2308 279.261 15.8013H278.043C278.188 14.6024 279.348 13.7709 280.992 13.7709ZM280.547 20.4228C281.881 20.4228 282.616 19.5333 282.616 18.6051V17.8558C282.268 17.8752 281.103 17.9622 280.75 17.9863C279.677 18.054 279 18.4311 279 19.2432C279 20.0264 279.648 20.4228 280.547 20.4228ZM288.464 21.4477C286.618 21.4477 285.312 19.9587 285.312 17.5996C285.312 15.2502 286.618 13.7709 288.484 13.7709C289.924 13.7709 290.379 14.6507 290.63 15.0471H290.717V11.3924H291.897V21.293H290.756V20.1521H290.63C290.369 20.5678 289.886 21.4477 288.464 21.4477ZM288.638 20.3938C289.992 20.3938 290.746 19.2432 290.746 17.5803C290.746 15.9269 290.011 14.8247 288.638 14.8247C287.207 14.8247 286.502 16.0236 286.502 17.5803C286.502 19.1562 287.227 20.3938 288.638 20.3938Z" fill="#666666"/>
<rect x="155.281" y="105.408" width="158.657" height="30.3811" rx="3.77495" fill="#F7F7F7"/>
<path d="M187.513 123.939H181.692V114.038H182.92V122.846H187.513V123.939ZM189.602 115.286C189.147 115.286 188.77 114.938 188.77 114.503C188.77 114.067 189.147 113.719 189.602 113.719C190.046 113.719 190.424 114.067 190.424 114.503C190.424 114.938 190.046 115.286 189.602 115.286ZM190.182 123.939H189.002V116.514H190.182V123.939ZM197.34 118.447H196.18C196.025 117.828 195.551 117.422 194.681 117.422C193.762 117.422 193.115 117.915 193.115 118.534C193.115 119.027 193.511 119.366 194.381 119.578L195.493 119.849C196.818 120.168 197.465 120.826 197.465 121.86C197.465 123.146 196.421 124.094 194.555 124.094C192.892 124.094 191.896 123.349 191.703 121.996H192.931C193.066 122.721 193.598 123.069 194.536 123.069C195.59 123.069 196.257 122.624 196.257 121.928C196.257 121.406 195.88 121.058 195.039 120.864L193.917 120.603C192.622 120.304 191.935 119.598 191.935 118.602C191.935 117.335 193.047 116.417 194.681 116.417C196.218 116.417 197.185 117.239 197.34 118.447ZM201.655 122.914C201.868 122.914 202.177 122.895 202.351 122.885V123.978C202.168 124.007 201.878 124.036 201.53 124.036C200.543 124.036 199.499 123.417 199.499 122.112V117.5H198.378V116.514H199.499V114.735H200.679V116.514H202.245V117.5H200.679V121.802C200.679 122.759 201.153 122.914 201.655 122.914ZM209.889 120.13V120.623H204.509C204.562 122.189 205.475 123.049 206.795 123.049C207.685 123.049 208.245 122.663 208.516 122.199H209.773C209.425 123.33 208.323 124.094 206.795 124.094C204.649 124.094 203.324 122.566 203.324 120.284C203.324 118.003 204.668 116.417 206.679 116.417C208.245 116.417 209.889 117.374 209.889 120.13ZM204.509 119.617H208.69C208.69 118.38 207.907 117.461 206.689 117.461C205.398 117.461 204.586 118.476 204.509 119.617ZM212.59 119.482V123.939H211.411V116.514H212.551V117.683H212.648C212.996 116.92 213.692 116.417 214.814 116.417C216.322 116.417 217.328 117.335 217.328 119.221V123.939H216.148V119.308C216.148 118.157 215.52 117.471 214.466 117.471C213.383 117.471 212.59 118.196 212.59 119.482ZM225.42 120.13V120.623H220.04C220.093 122.189 221.007 123.049 222.326 123.049C223.216 123.049 223.777 122.663 224.047 122.199H225.304C224.956 123.33 223.854 124.094 222.326 124.094C220.18 124.094 218.855 122.566 218.855 120.284C218.855 118.003 220.199 116.417 222.21 116.417C223.777 116.417 225.42 117.374 225.42 120.13ZM220.04 119.617H224.221C224.221 118.38 223.438 117.461 222.22 117.461C220.929 117.461 220.117 118.476 220.04 119.617ZM228.121 123.939H226.942V116.514H228.083V117.645H228.16C228.431 116.9 229.204 116.398 230.084 116.398C230.258 116.398 230.558 116.407 230.693 116.417V117.606C230.606 117.587 230.287 117.529 229.987 117.529C228.914 117.529 228.121 118.264 228.121 119.259V123.939ZM238.076 115.131H234.963V114.038H242.418V115.131H239.314V123.939H238.076V115.131ZM245.088 119.482V123.939H243.909V114.038H245.088V117.683H245.185C245.533 116.91 246.2 116.417 247.37 116.417C248.888 116.417 249.903 117.316 249.903 119.221V123.939H248.723V119.308C248.723 118.138 248.085 117.471 247.022 117.471C245.91 117.471 245.088 118.196 245.088 119.482ZM252.963 123.939H251.784V116.514H252.924V117.645H253.002C253.272 116.9 254.046 116.398 254.926 116.398C255.1 116.398 255.4 116.407 255.535 116.417V117.606C255.448 117.587 255.129 117.529 254.829 117.529C253.756 117.529 252.963 118.264 252.963 119.259V123.939ZM262.663 120.13V120.623H257.282C257.335 122.189 258.249 123.049 259.569 123.049C260.458 123.049 261.019 122.663 261.29 122.199H262.546C262.198 123.33 261.096 124.094 259.569 124.094C257.422 124.094 256.098 122.566 256.098 120.284C256.098 118.003 257.442 116.417 259.453 116.417C261.019 116.417 262.663 117.374 262.663 120.13ZM257.282 119.617H261.464C261.464 118.38 260.68 117.461 259.462 117.461C258.171 117.461 257.359 118.476 257.282 119.617ZM267.007 116.417C267.974 116.417 269.801 116.707 269.801 119.047V123.939H268.631V122.933H268.573C268.332 123.427 267.655 124.113 266.369 124.113C264.957 124.113 263.836 123.282 263.836 121.831C263.836 120.13 265.334 119.743 266.62 119.646C267.104 119.612 268.303 119.545 268.631 119.535V118.931C268.631 117.993 268.071 117.442 266.949 117.442C266.011 117.442 265.451 117.877 265.276 118.447H264.058C264.203 117.248 265.363 116.417 267.007 116.417ZM266.562 123.069C267.897 123.069 268.631 122.179 268.631 121.251V120.502C268.283 120.521 267.118 120.608 266.765 120.632C265.692 120.7 265.015 121.077 265.015 121.889C265.015 122.672 265.663 123.069 266.562 123.069ZM274.48 124.094C272.633 124.094 271.328 122.605 271.328 120.246C271.328 117.896 272.633 116.417 274.499 116.417C275.94 116.417 276.394 117.297 276.646 117.693H276.733V114.038H277.912V123.939H276.771V122.798H276.646C276.385 123.214 275.901 124.094 274.48 124.094ZM274.654 123.04C276.008 123.04 276.762 121.889 276.762 120.226C276.762 118.573 276.027 117.471 274.654 117.471C273.223 117.471 272.517 118.67 272.517 120.226C272.517 121.802 273.242 123.04 274.654 123.04Z" fill="#666666"/>
<rect y="181.36" width="101.27" height="30.3811" rx="3.77495" fill="#F7F7F7"/>
<path d="M31.327 192.486H30.1281C30.0217 191.509 29.1226 190.948 27.9333 190.948C26.6281 190.948 25.7676 191.635 25.7676 192.573C25.7676 193.617 26.9278 194.003 27.6723 194.197L28.6682 194.468C29.722 194.738 31.4624 195.347 31.4624 197.194C31.4624 198.809 30.1668 200.066 27.8753 200.066C25.7386 200.066 24.414 198.963 24.298 197.32H25.5646C25.6612 198.432 26.6958 198.954 27.8753 198.954C29.2386 198.954 30.2635 198.248 30.2635 197.175C30.2635 196.208 29.3449 195.84 28.3007 195.55L27.0922 195.212C25.5356 194.767 24.5687 193.974 24.5687 192.631C24.5687 190.958 26.0577 189.856 27.972 189.856C29.8961 189.856 31.2786 190.977 31.327 192.486ZM39.2895 196.082V196.575H33.9089C33.9621 198.142 34.8758 199.002 36.1955 199.002C37.085 199.002 37.6458 198.615 37.9165 198.151H39.1734C38.8254 199.282 37.7232 200.046 36.1955 200.046C34.0491 200.046 32.7245 198.519 32.7245 196.237C32.7245 193.955 34.0685 192.37 36.0795 192.37C37.6458 192.37 39.2895 193.327 39.2895 196.082ZM33.9089 195.57H38.0906C38.0906 194.332 37.3074 193.414 36.0892 193.414C34.7984 193.414 33.9863 194.429 33.9089 195.57ZM46.0996 194.4H44.9393C44.7846 193.781 44.3109 193.375 43.4407 193.375C42.5222 193.375 41.8744 193.868 41.8744 194.487C41.8744 194.98 42.2708 195.318 43.141 195.531L44.2529 195.802C45.5775 196.121 46.2253 196.778 46.2253 197.813C46.2253 199.099 45.1811 200.046 43.315 200.046C41.6521 200.046 40.6562 199.302 40.4628 197.948H41.6907C41.8261 198.673 42.3579 199.021 43.2957 199.021C44.3496 199.021 45.0167 198.577 45.0167 197.881C45.0167 197.358 44.6396 197.01 43.7985 196.817L42.6769 196.556C41.3813 196.256 40.6949 195.55 40.6949 194.555C40.6949 193.288 41.8067 192.37 43.4407 192.37C44.978 192.37 45.9449 193.191 46.0996 194.4ZM53.0449 194.4H51.8847C51.73 193.781 51.2562 193.375 50.386 193.375C49.4675 193.375 48.8197 193.868 48.8197 194.487C48.8197 194.98 49.2161 195.318 50.0863 195.531L51.1982 195.802C52.5228 196.121 53.1706 196.778 53.1706 197.813C53.1706 199.099 52.1264 200.046 50.2603 200.046C48.5974 200.046 47.6015 199.302 47.4081 197.948H48.636C48.7714 198.673 49.3032 199.021 50.241 199.021C51.2949 199.021 51.962 198.577 51.962 197.881C51.962 197.358 51.5849 197.01 50.7438 196.817L49.6222 196.556C48.3266 196.256 47.6402 195.55 47.6402 194.555C47.6402 193.288 48.7521 192.37 50.386 192.37C51.9233 192.37 52.8902 193.191 53.0449 194.4ZM55.301 191.238C54.8465 191.238 54.4695 190.89 54.4695 190.455C54.4695 190.02 54.8465 189.672 55.301 189.672C55.7457 189.672 56.1228 190.02 56.1228 190.455C56.1228 190.89 55.7457 191.238 55.301 191.238ZM55.8811 199.892H54.7015V192.466H55.8811V199.892ZM60.7863 200.046C58.7655 200.046 57.4023 198.519 57.4023 196.218C57.4023 193.897 58.7655 192.37 60.7863 192.37C62.807 192.37 64.1606 193.897 64.1606 196.218C64.1606 198.519 62.807 200.046 60.7863 200.046ZM60.7863 199.002C62.2849 199.002 62.981 197.697 62.981 196.218C62.981 194.738 62.2849 193.414 60.7863 193.414C59.278 193.414 58.5818 194.738 58.5818 196.218C58.5818 197.697 59.278 199.002 60.7863 199.002ZM66.8733 195.434V199.892H65.6937V192.466H66.8346V193.636H66.9313C67.2793 192.872 67.9755 192.37 69.097 192.37C70.6053 192.37 71.6108 193.288 71.6108 195.173V199.892H70.4313V195.26C70.4313 194.11 69.8028 193.423 68.749 193.423C67.6661 193.423 66.8733 194.149 66.8733 195.434Z" fill="#666666"/>
<rect x="113.928" y="181.36" width="101.27" height="30.3811" rx="3.77495" fill="#F7F7F7"/>
<path d="M145.255 192.486H144.056C143.949 191.509 143.05 190.948 141.861 190.948C140.556 190.948 139.695 191.635 139.695 192.573C139.695 193.617 140.856 194.003 141.6 194.197L142.596 194.468C143.65 194.738 145.39 195.347 145.39 197.194C145.39 198.809 144.095 200.066 141.803 200.066C139.666 200.066 138.342 198.963 138.226 197.32H139.492C139.589 198.432 140.624 198.954 141.803 198.954C143.166 198.954 144.191 198.248 144.191 197.175C144.191 196.208 143.273 195.84 142.228 195.55L141.02 195.212C139.463 194.767 138.496 193.974 138.496 192.631C138.496 190.958 139.985 189.856 141.9 189.856C143.824 189.856 145.206 190.977 145.255 192.486ZM153.217 196.082V196.575H147.837C147.89 198.142 148.804 199.002 150.123 199.002C151.013 199.002 151.574 198.615 151.844 198.151H153.101C152.753 199.282 151.651 200.046 150.123 200.046C147.977 200.046 146.652 198.519 146.652 196.237C146.652 193.955 147.996 192.37 150.007 192.37C151.574 192.37 153.217 193.327 153.217 196.082ZM147.837 195.57H152.018C152.018 194.332 151.235 193.414 150.017 193.414C148.726 193.414 147.914 194.429 147.837 195.57ZM160.027 194.4H158.867C158.712 193.781 158.239 193.375 157.368 193.375C156.45 193.375 155.802 193.868 155.802 194.487C155.802 194.98 156.199 195.318 157.069 195.531L158.181 195.802C159.505 196.121 160.153 196.778 160.153 197.813C160.153 199.099 159.109 200.046 157.243 200.046C155.58 200.046 154.584 199.302 154.391 197.948H155.618C155.754 198.673 156.286 199.021 157.223 199.021C158.277 199.021 158.944 198.577 158.944 197.881C158.944 197.358 158.567 197.01 157.726 196.817L156.605 196.556C155.309 196.256 154.623 195.55 154.623 194.555C154.623 193.288 155.734 192.37 157.368 192.37C158.906 192.37 159.873 193.191 160.027 194.4ZM166.973 194.4H165.812C165.658 193.781 165.184 193.375 164.314 193.375C163.395 193.375 162.747 193.868 162.747 194.487C162.747 194.98 163.144 195.318 164.014 195.531L165.126 195.802C166.451 196.121 167.098 196.778 167.098 197.813C167.098 199.099 166.054 200.046 164.188 200.046C162.525 200.046 161.529 199.302 161.336 197.948H162.564C162.699 198.673 163.231 199.021 164.169 199.021C165.223 199.021 165.89 198.577 165.89 197.881C165.89 197.358 165.513 197.01 164.672 196.817L163.55 196.556C162.254 196.256 161.568 195.55 161.568 194.555C161.568 193.288 162.68 192.37 164.314 192.37C165.851 192.37 166.818 193.191 166.973 194.4ZM169.229 191.238C168.774 191.238 168.397 190.89 168.397 190.455C168.397 190.02 168.774 189.672 169.229 189.672C169.673 189.672 170.051 190.02 170.051 190.455C170.051 190.89 169.673 191.238 169.229 191.238ZM169.809 199.892H168.629V192.466H169.809V199.892ZM174.714 200.046C172.693 200.046 171.33 198.519 171.33 196.218C171.33 193.897 172.693 192.37 174.714 192.37C176.735 192.37 178.088 193.897 178.088 196.218C178.088 198.519 176.735 200.046 174.714 200.046ZM174.714 199.002C176.213 199.002 176.909 197.697 176.909 196.218C176.909 194.738 176.213 193.414 174.714 193.414C173.206 193.414 172.51 194.738 172.51 196.218C172.51 197.697 173.206 199.002 174.714 199.002ZM180.801 195.434V199.892H179.621V192.466H180.762V193.636H180.859C181.207 192.872 181.903 192.37 183.025 192.37C184.533 192.37 185.539 193.288 185.539 195.173V199.892H184.359V195.26C184.359 194.11 183.731 193.423 182.677 193.423C181.594 193.423 180.801 194.149 180.801 195.434Z" fill="#666666"/>
<rect x="248.111" y="181.36" width="101.27" height="30.3811" rx="3.77495" fill="#F7F7F7"/>
<path d="M279.438 192.486H278.239C278.133 191.509 277.234 190.949 276.045 190.949C274.739 190.949 273.879 191.635 273.879 192.573C273.879 193.617 275.039 194.004 275.784 194.197L276.779 194.468C277.833 194.739 279.574 195.348 279.574 197.195C279.574 198.809 278.278 200.066 275.987 200.066C273.85 200.066 272.525 198.964 272.409 197.32H273.676C273.773 198.432 274.807 198.954 275.987 198.954C277.35 198.954 278.375 198.248 278.375 197.175C278.375 196.208 277.456 195.841 276.412 195.551L275.204 195.213C273.647 194.768 272.68 193.975 272.68 192.631C272.68 190.958 274.169 189.856 276.083 189.856C278.007 189.856 279.39 190.978 279.438 192.486ZM287.401 196.083V196.576H282.02C282.073 198.142 282.987 199.003 284.307 199.003C285.196 199.003 285.757 198.616 286.028 198.152H287.285C286.937 199.283 285.834 200.047 284.307 200.047C282.16 200.047 280.836 198.519 280.836 196.237C280.836 193.956 282.18 192.37 284.191 192.37C285.757 192.37 287.401 193.327 287.401 196.083ZM282.02 195.57H286.202C286.202 194.333 285.419 193.414 284.201 193.414C282.91 193.414 282.098 194.429 282.02 195.57ZM294.211 194.4H293.051C292.896 193.782 292.422 193.376 291.552 193.376C290.634 193.376 289.986 193.869 289.986 194.487C289.986 194.98 290.382 195.319 291.252 195.532L292.364 195.802C293.689 196.121 294.337 196.779 294.337 197.813C294.337 199.099 293.292 200.047 291.426 200.047C289.763 200.047 288.768 199.302 288.574 197.949H289.802C289.937 198.674 290.469 199.022 291.407 199.022C292.461 199.022 293.128 198.577 293.128 197.881C293.128 197.359 292.751 197.011 291.91 196.818L290.788 196.556C289.493 196.257 288.806 195.551 288.806 194.555C288.806 193.288 289.918 192.37 291.552 192.37C293.089 192.37 294.056 193.192 294.211 194.4ZM301.156 194.4H299.996C299.841 193.782 299.368 193.376 298.497 193.376C297.579 193.376 296.931 193.869 296.931 194.487C296.931 194.98 297.327 195.319 298.198 195.532L299.31 195.802C300.634 196.121 301.282 196.779 301.282 197.813C301.282 199.099 300.238 200.047 298.372 200.047C296.709 200.047 295.713 199.302 295.519 197.949H296.747C296.883 198.674 297.414 199.022 298.352 199.022C299.406 199.022 300.073 198.577 300.073 197.881C300.073 197.359 299.696 197.011 298.855 196.818L297.734 196.556C296.438 196.257 295.752 195.551 295.752 194.555C295.752 193.288 296.863 192.37 298.497 192.37C300.035 192.37 301.002 193.192 301.156 194.4ZM303.412 191.239C302.958 191.239 302.581 190.891 302.581 190.456C302.581 190.021 302.958 189.672 303.412 189.672C303.857 189.672 304.234 190.021 304.234 190.456C304.234 190.891 303.857 191.239 303.412 191.239ZM303.992 199.892H302.813V192.467H303.992V199.892ZM308.898 200.047C306.877 200.047 305.514 198.519 305.514 196.218C305.514 193.898 306.877 192.37 308.898 192.37C310.918 192.37 312.272 193.898 312.272 196.218C312.272 198.519 310.918 200.047 308.898 200.047ZM308.898 199.003C310.396 199.003 311.092 197.697 311.092 196.218C311.092 194.739 310.396 193.414 308.898 193.414C307.389 193.414 306.693 194.739 306.693 196.218C306.693 197.697 307.389 199.003 308.898 199.003ZM314.985 195.435V199.892H313.805V192.467H314.946V193.637H315.043C315.391 192.873 316.087 192.37 317.208 192.37C318.717 192.37 319.722 193.288 319.722 195.174V199.892H318.543V195.261C318.543 194.11 317.914 193.424 316.86 193.424C315.777 193.424 314.985 194.149 314.985 195.435Z" fill="#666666"/>
<rect x="363.729" y="181.36" width="101.27" height="30.3811" rx="3.77495" fill="#F7F7F7"/>
<path d="M395.056 192.485H393.857C393.75 191.509 392.851 190.948 391.662 190.948C390.357 190.948 389.496 191.634 389.496 192.572C389.496 193.616 390.656 194.003 391.401 194.196L392.397 194.467C393.451 194.738 395.191 195.347 395.191 197.194C395.191 198.808 393.895 200.065 391.604 200.065C389.467 200.065 388.143 198.963 388.027 197.319H389.293C389.39 198.431 390.424 198.953 391.604 198.953C392.967 198.953 393.992 198.247 393.992 197.174C393.992 196.207 393.073 195.84 392.029 195.55L390.821 195.212C389.264 194.767 388.297 193.974 388.297 192.63C388.297 190.957 389.786 189.855 391.701 189.855C393.625 189.855 395.007 190.977 395.056 192.485ZM403.018 196.082V196.575H397.637C397.691 198.141 398.604 199.002 399.924 199.002C400.814 199.002 401.374 198.615 401.645 198.151H402.902C402.554 199.282 401.452 200.046 399.924 200.046C397.778 200.046 396.453 198.518 396.453 196.236C396.453 193.955 397.797 192.369 399.808 192.369C401.374 192.369 403.018 193.326 403.018 196.082ZM397.637 195.569H401.819C401.819 194.332 401.036 193.413 399.818 193.413C398.527 193.413 397.715 194.428 397.637 195.569ZM409.828 194.399H408.668C408.513 193.781 408.039 193.375 407.169 193.375C406.251 193.375 405.603 193.868 405.603 194.486C405.603 194.98 405.999 195.318 406.87 195.531L407.981 195.801C409.306 196.12 409.954 196.778 409.954 197.812C409.954 199.098 408.91 200.046 407.044 200.046C405.381 200.046 404.385 199.301 404.191 197.948H405.419C405.555 198.673 406.086 199.021 407.024 199.021C408.078 199.021 408.745 198.576 408.745 197.88C408.745 197.358 408.368 197.01 407.527 196.817L406.405 196.555C405.11 196.256 404.423 195.55 404.423 194.554C404.423 193.288 405.535 192.369 407.169 192.369C408.707 192.369 409.673 193.191 409.828 194.399ZM416.773 194.399H415.613C415.458 193.781 414.985 193.375 414.115 193.375C413.196 193.375 412.548 193.868 412.548 194.486C412.548 194.98 412.945 195.318 413.815 195.531L414.927 195.801C416.251 196.12 416.899 196.778 416.899 197.812C416.899 199.098 415.855 200.046 413.989 200.046C412.326 200.046 411.33 199.301 411.137 197.948H412.365C412.5 198.673 413.032 199.021 413.97 199.021C415.023 199.021 415.691 198.576 415.691 197.88C415.691 197.358 415.313 197.01 414.472 196.817L413.351 196.555C412.055 196.256 411.369 195.55 411.369 194.554C411.369 193.288 412.481 192.369 414.115 192.369C415.652 192.369 416.619 193.191 416.773 194.399ZM419.029 191.238C418.575 191.238 418.198 190.89 418.198 190.455C418.198 190.02 418.575 189.671 419.029 189.671C419.474 189.671 419.851 190.02 419.851 190.455C419.851 190.89 419.474 191.238 419.029 191.238ZM419.61 199.891H418.43V192.466H419.61V199.891ZM424.515 200.046C422.494 200.046 421.131 198.518 421.131 196.217C421.131 193.897 422.494 192.369 424.515 192.369C426.535 192.369 427.889 193.897 427.889 196.217C427.889 198.518 426.535 200.046 424.515 200.046ZM424.515 199.002C426.013 199.002 426.71 197.696 426.71 196.217C426.71 194.738 426.013 193.413 424.515 193.413C423.006 193.413 422.31 194.738 422.31 196.217C422.31 197.696 423.006 199.002 424.515 199.002ZM430.602 195.434V199.891H429.422V192.466H430.563V193.636H430.66C431.008 192.872 431.704 192.369 432.826 192.369C434.334 192.369 435.339 193.288 435.339 195.173V199.891H434.16V195.26C434.16 194.109 433.531 193.423 432.477 193.423C431.395 193.423 430.602 194.148 430.602 195.434Z" fill="#666666"/>
<rect x="248.111" y="244.642" width="101.27" height="30.3811" rx="3.77495" fill="#F7F7F7"/>
<path d="M274.372 255.767H273.173C273.067 254.791 272.167 254.23 270.978 254.23C269.673 254.23 268.813 254.916 268.813 255.854C268.813 256.898 269.973 257.285 270.717 257.479L271.713 257.749C272.767 258.02 274.507 258.629 274.507 260.476C274.507 262.09 273.212 263.347 270.92 263.347C268.784 263.347 267.459 262.245 267.343 260.602H268.609C268.706 261.713 269.741 262.235 270.92 262.235C272.284 262.235 273.308 261.53 273.308 260.456C273.308 259.49 272.39 259.122 271.346 258.832L270.137 258.494C268.58 258.049 267.614 257.256 267.614 255.912C267.614 254.24 269.103 253.137 271.017 253.137C272.941 253.137 274.324 254.259 274.372 255.767ZM279.153 263.328C277.055 263.328 275.769 261.723 275.769 259.499C275.769 257.237 277.113 255.651 279.134 255.651C280.71 255.651 281.899 256.589 282.083 257.991H280.913C280.739 257.314 280.149 256.695 279.153 256.695C277.829 256.695 276.949 257.788 276.949 259.461C276.949 261.172 277.81 262.274 279.153 262.274C280.033 262.274 280.7 261.8 280.913 260.988H282.083C281.899 262.313 280.807 263.328 279.153 263.328ZM284.707 258.716V263.173H283.528V253.273H284.707V256.918H284.804C285.152 256.144 285.819 255.651 286.989 255.651C288.507 255.651 289.522 256.55 289.522 258.455V263.173H288.343V258.542C288.343 257.372 287.704 256.705 286.641 256.705C285.529 256.705 284.707 257.43 284.707 258.716ZM297.62 259.364V259.857H292.239C292.292 261.423 293.206 262.284 294.526 262.284C295.415 262.284 295.976 261.897 296.247 261.433H297.504C297.155 262.564 296.053 263.328 294.526 263.328C292.379 263.328 291.055 261.8 291.055 259.519C291.055 257.237 292.399 255.651 294.41 255.651C295.976 255.651 297.62 256.608 297.62 259.364ZM292.239 258.852H296.421C296.421 257.614 295.637 256.695 294.419 256.695C293.129 256.695 292.316 257.711 292.239 258.852ZM301.945 263.328C300.098 263.328 298.793 261.839 298.793 259.48C298.793 257.131 300.098 255.651 301.964 255.651C303.405 255.651 303.859 256.531 304.111 256.927H304.198V253.273H305.377V263.173H304.236V262.032H304.111C303.85 262.448 303.366 263.328 301.945 263.328ZM302.119 262.274C303.472 262.274 304.227 261.124 304.227 259.461C304.227 257.807 303.492 256.705 302.119 256.705C300.688 256.705 299.982 257.904 299.982 259.461C299.982 261.037 300.707 262.274 302.119 262.274ZM312.102 260.128V255.748H313.272V263.173H312.102V261.916H312.024C311.676 262.671 310.941 263.27 309.82 263.27C308.418 263.27 307.412 262.352 307.412 260.466V255.748H308.592V260.379C308.592 261.452 309.259 262.139 310.207 262.139C311.048 262.139 312.102 261.51 312.102 260.128ZM315.151 253.273H316.33V263.173H315.151V253.273ZM324.416 259.364V259.857H319.036C319.089 261.423 320.003 262.284 321.322 262.284C322.212 262.284 322.773 261.897 323.043 261.433H324.3C323.952 262.564 322.85 263.328 321.322 263.328C319.176 263.328 317.851 261.8 317.851 259.519C317.851 257.237 319.195 255.651 321.206 255.651C322.773 255.651 324.416 256.608 324.416 259.364ZM319.036 258.852H323.218C323.218 257.614 322.434 256.695 321.216 256.695C319.925 256.695 319.113 257.711 319.036 258.852Z" fill="#666666"/>
<rect x="363.729" y="244.643" width="101.27" height="30.3811" rx="3.77495" fill="#F7F7F7"/>
<path d="M389.991 255.767H388.792C388.686 254.791 387.787 254.23 386.597 254.23C385.292 254.23 384.432 254.916 384.432 255.854C384.432 256.898 385.592 257.285 386.336 257.479L387.332 257.749C388.386 258.02 390.126 258.629 390.126 260.476C390.126 262.09 388.831 263.347 386.539 263.347C384.403 263.347 383.078 262.245 382.962 260.602H384.229C384.325 261.713 385.36 262.235 386.539 262.235C387.903 262.235 388.928 261.53 388.928 260.456C388.928 259.49 388.009 259.122 386.965 258.832L385.756 258.494C384.2 258.049 383.233 257.256 383.233 255.912C383.233 254.24 384.722 253.137 386.636 253.137C388.56 253.137 389.943 254.259 389.991 255.767ZM394.773 263.328C392.675 263.328 391.389 261.723 391.389 259.499C391.389 257.237 392.733 255.651 394.753 255.651C396.329 255.651 397.518 256.589 397.702 257.991H396.532C396.358 257.314 395.768 256.695 394.773 256.695C393.448 256.695 392.568 257.788 392.568 259.461C392.568 261.172 393.429 262.274 394.773 262.274C395.652 262.274 396.32 261.8 396.532 260.988H397.702C397.518 262.313 396.426 263.328 394.773 263.328ZM400.326 258.716V263.173H399.147V253.273H400.326V256.918H400.423C400.771 256.144 401.438 255.651 402.608 255.651C404.126 255.651 405.141 256.55 405.141 258.455V263.173H403.962V258.542C403.962 257.372 403.324 256.705 402.26 256.705C401.148 256.705 400.326 257.43 400.326 258.716ZM413.239 259.364V259.857H407.858C407.911 261.423 408.825 262.284 410.145 262.284C411.034 262.284 411.595 261.897 411.866 261.433H413.123C412.775 262.564 411.672 263.328 410.145 263.328C407.998 263.328 406.674 261.8 406.674 259.519C406.674 257.237 408.018 255.651 410.029 255.651C411.595 255.651 413.239 256.608 413.239 259.364ZM407.858 258.852H412.04C412.04 257.614 411.257 256.695 410.038 256.695C408.748 256.695 407.936 257.711 407.858 258.852ZM417.564 263.328C415.717 263.328 414.412 261.839 414.412 259.48C414.412 257.131 415.717 255.651 417.583 255.651C419.024 255.651 419.478 256.531 419.73 256.927H419.817V253.273H420.996V263.173H419.855V262.032H419.73C419.469 262.448 418.985 263.328 417.564 263.328ZM417.738 262.274C419.092 262.274 419.846 261.124 419.846 259.461C419.846 257.807 419.111 256.705 417.738 256.705C416.307 256.705 415.601 257.904 415.601 259.461C415.601 261.037 416.326 262.274 417.738 262.274ZM427.721 260.128V255.748H428.891V263.173H427.721V261.916H427.643C427.295 262.671 426.561 263.27 425.439 263.27C424.037 263.27 423.032 262.352 423.032 260.466V255.748H424.211V260.379C424.211 261.452 424.878 262.139 425.826 262.139C426.667 262.139 427.721 261.51 427.721 260.128ZM430.77 253.273H431.949V263.173H430.77V253.273ZM440.036 259.364V259.857H434.655C434.708 261.423 435.622 262.284 436.942 262.284C437.831 262.284 438.392 261.897 438.663 261.433H439.92C439.571 262.564 438.469 263.328 436.942 263.328C434.795 263.328 433.471 261.8 433.471 259.519C433.471 257.237 434.815 255.651 436.826 255.651C438.392 255.651 440.036 256.608 440.036 259.364ZM434.655 258.852H438.837C438.837 257.614 438.054 256.695 436.835 256.695C435.545 256.695 434.732 257.711 434.655 258.852Z" fill="#666666"/>
<rect x="54.8555" y="244.643" width="101.27" height="30.3811" rx="3.77495" fill="#F7F7F7"/>
<path d="M81.118 255.768H79.9191C79.8128 254.791 78.9136 254.23 77.7244 254.23C76.4191 254.23 75.5586 254.917 75.5586 255.855C75.5586 256.899 76.7188 257.286 77.4633 257.479L78.4592 257.75C79.513 258.021 81.2534 258.63 81.2534 260.476C81.2534 262.091 79.9578 263.348 77.6664 263.348C75.5296 263.348 74.205 262.246 74.089 260.602H75.3556C75.4523 261.714 76.4868 262.236 77.6664 262.236C79.0296 262.236 80.0545 261.53 80.0545 260.457C80.0545 259.49 79.136 259.123 78.0918 258.833L76.8832 258.494C75.3266 258.05 74.3597 257.257 74.3597 255.913C74.3597 254.24 75.8487 253.138 77.763 253.138C79.6871 253.138 81.0697 254.259 81.118 255.768ZM85.8995 263.329C83.8015 263.329 82.5156 261.724 82.5156 259.5C82.5156 257.237 83.8595 255.652 85.8802 255.652C87.4562 255.652 88.6454 256.59 88.8291 257.992H87.6592C87.4852 257.315 86.8954 256.696 85.8995 256.696C84.575 256.696 83.6951 257.788 83.6951 259.461C83.6951 261.172 84.5556 262.275 85.8995 262.275C86.7794 262.275 87.4465 261.801 87.6592 260.989H88.8291C88.6454 262.313 87.5529 263.329 85.8995 263.329ZM91.4533 258.717V263.174H90.2738V253.273H91.4533V256.918H91.55C91.8981 256.145 92.5652 255.652 93.7351 255.652C95.2531 255.652 96.2683 256.551 96.2683 258.456V263.174H95.0887V258.543C95.0887 257.373 94.4506 256.706 93.387 256.706C92.2752 256.706 91.4533 257.431 91.4533 258.717ZM104.366 259.364V259.858H98.9851C99.0383 261.424 99.952 262.284 101.272 262.284C102.161 262.284 102.722 261.898 102.993 261.433H104.25C103.902 262.565 102.799 263.329 101.272 263.329C99.1253 263.329 97.8007 261.801 97.8007 259.519C97.8007 257.237 99.1446 255.652 101.156 255.652C102.722 255.652 104.366 256.609 104.366 259.364ZM98.9851 258.852H103.167C103.167 257.614 102.384 256.696 101.165 256.696C99.8746 256.696 99.0625 257.711 98.9851 258.852ZM108.691 263.329C106.844 263.329 105.539 261.84 105.539 259.48C105.539 257.131 106.844 255.652 108.71 255.652C110.151 255.652 110.605 256.532 110.857 256.928H110.944V253.273H112.123V263.174H110.982V262.033H110.857C110.596 262.449 110.112 263.329 108.691 263.329ZM108.865 262.275C110.219 262.275 110.973 261.124 110.973 259.461C110.973 257.808 110.238 256.706 108.865 256.706C107.434 256.706 106.728 257.904 106.728 259.461C106.728 261.037 107.453 262.275 108.865 262.275ZM118.848 260.128V255.748H120.018V263.174H118.848V261.917H118.77C118.422 262.671 117.688 263.271 116.566 263.271C115.164 263.271 114.159 262.352 114.159 260.467V255.748H115.338V260.38C115.338 261.453 116.005 262.139 116.953 262.139C117.794 262.139 118.848 261.511 118.848 260.128ZM121.897 253.273H123.076V263.174H121.897V253.273ZM131.163 259.364V259.858H125.782C125.835 261.424 126.749 262.284 128.069 262.284C128.958 262.284 129.519 261.898 129.79 261.433H131.046C130.698 262.565 129.596 263.329 128.069 263.329C125.922 263.329 124.598 261.801 124.598 259.519C124.598 257.237 125.942 255.652 127.953 255.652C129.519 255.652 131.163 256.609 131.163 259.364ZM125.782 258.852H129.964C129.964 257.614 129.18 256.696 127.962 256.696C126.671 256.696 125.859 257.711 125.782 258.852Z" fill="#666666"/>
<path d="M263.362 63.5373H265.199V65.0118H263.362V71.19H261.616V58.7369H263.362V63.5373ZM258.126 59.6989V61.5601C258.116 63.7887 259.069 66.0366 261.065 67.0035L260.011 68.3909C258.682 67.7335 257.778 66.5056 257.261 65.007C256.719 66.6168 255.757 67.9317 254.346 68.6326L253.277 67.2162C255.38 66.2494 256.376 63.8709 256.381 61.5601V59.6989H258.126ZM274.378 63.1603V64.6444H276.998V66.0366H265.648V64.6444H268.2V63.1458C267.296 62.7445 266.779 62.1209 266.784 61.3233C266.779 59.8246 268.548 58.9255 271.313 58.9206C274.069 58.9255 275.833 59.8246 275.838 61.3233C275.833 62.1354 275.306 62.759 274.378 63.1603ZM271.313 60.2645C269.559 60.2645 268.587 60.6271 268.597 61.3233C268.587 62.0145 269.559 62.3578 271.313 62.3578C273.054 62.3578 274.04 62.0145 274.04 61.3233C274.04 60.6271 273.054 60.2645 271.313 60.2645ZM269.965 63.5953V64.6444H272.643V63.5953C272.232 63.6485 271.787 63.6727 271.313 63.6727C270.83 63.6727 270.38 63.6485 269.965 63.5953ZM271.299 66.6844C273.992 66.6796 275.626 67.4821 275.635 68.9227C275.626 70.3826 273.992 71.1755 271.299 71.1706C268.577 71.1755 266.943 70.3826 266.943 68.9227C266.943 67.4821 268.577 66.6796 271.299 66.6844ZM271.299 69.8702C272.991 69.875 273.88 69.5512 273.885 68.9227C273.88 68.2991 272.991 68.009 271.299 67.9994C269.578 68.009 268.713 68.2991 268.722 68.9227C268.713 69.5512 269.578 69.875 271.299 69.8702ZM287.561 63.4938H289.398V64.9489H287.561V71.19H285.816V58.7369H287.561V63.4938ZM282.34 61.3668V62.1306C282.33 64.0304 283.34 66.2203 285.385 67.163L284.414 68.5311C283.026 67.893 282.04 66.6264 281.489 65.1326C280.928 66.7811 279.903 68.1734 278.472 68.8502L277.457 67.4724C279.531 66.5056 280.575 64.19 280.585 62.1306V61.3668H277.95V59.9407H284.844V61.3668H282.34ZM301.925 65.2245V68.3087H304.453V69.73H293.073V68.3087H295.611V65.2535C294.649 64.6734 294.069 63.7887 294.074 62.6913C294.069 60.6803 296.042 59.3509 298.739 59.3509C301.437 59.3509 303.428 60.6803 303.428 62.6913C303.428 63.7742 302.863 64.6444 301.925 65.2245ZM298.739 60.7286C296.96 60.719 295.79 61.4441 295.79 62.6913C295.79 63.9144 296.96 64.6637 298.739 64.6686C300.504 64.6637 301.703 63.9144 301.707 62.6913C301.703 61.4441 300.504 60.719 298.739 60.7286ZM297.337 65.8868V68.3087H300.16V65.8868C299.716 65.969 299.242 66.0173 298.739 66.0173C298.246 66.0173 297.777 65.9738 297.337 65.8868ZM308.915 63.692C308.373 64.8426 307.377 65.7514 305.903 66.172L305.086 64.8087C307.078 64.2383 308.001 62.8267 308.016 61.4151H305.511V60.0422H308.016V58.6934H309.775V60.0422H312.26V61.4151H309.756C309.77 62.6913 310.708 63.9869 312.71 64.5042L311.893 65.8481C310.476 65.4855 309.485 64.7024 308.915 63.692ZM311.893 63.4793V62.0822H313.918V58.7369H315.659V66.2687H313.918V63.4793H311.893ZM311.404 66.4766C314.054 66.4766 315.688 67.3177 315.692 68.8115C315.688 70.315 314.054 71.19 311.404 71.1851C308.765 71.19 307.126 70.315 307.131 68.8115C307.126 67.3177 308.765 66.4766 311.404 66.4766ZM311.404 69.8605C313.087 69.8557 313.957 69.4931 313.962 68.8115C313.957 68.1444 313.087 67.806 311.404 67.8108C309.756 67.806 308.862 68.1444 308.866 68.8115C308.862 69.4931 309.756 69.8557 311.404 69.8605Z" fill="#666666"/>
<path d="M190.188 312.347H194.065C196.318 312.347 197.608 313.735 197.608 315.693C197.608 317.66 196.298 319.024 194.021 319.024H192.242V322.248H190.188V312.347ZM192.242 317.365H193.688C194.906 317.365 195.496 316.684 195.496 315.693C195.496 314.697 194.906 314.035 193.683 314.035H192.242V317.365ZM199.877 313.851C199.273 313.851 198.775 313.392 198.775 312.821C198.775 312.256 199.273 311.792 199.877 311.792C200.482 311.792 200.98 312.256 200.98 312.821C200.98 313.392 200.482 313.851 199.877 313.851ZM200.888 322.248H198.862V314.823H200.888V322.248ZM204.483 325.033H202.458V314.823H204.454V316.07H204.546C204.822 315.47 205.412 314.726 206.659 314.726C208.303 314.726 209.675 316.002 209.675 318.545C209.675 321.025 208.356 322.369 206.659 322.369C205.45 322.369 204.832 321.673 204.546 321.064H204.483V325.033ZM204.44 318.535C204.44 319.87 205.015 320.754 206.026 320.754C207.05 320.754 207.606 319.845 207.606 318.535C207.606 317.235 207.06 316.345 206.026 316.345C205.006 316.345 204.44 317.196 204.44 318.535ZM217.748 318.492V319.057H212.672C212.672 320.184 213.339 320.875 214.379 320.875C215.075 320.875 215.568 320.575 215.771 320.135H217.695C217.405 321.504 216.177 322.393 214.345 322.393C212.068 322.393 210.671 320.923 210.671 318.569C210.671 316.278 212.087 314.726 214.263 314.726C216.211 314.726 217.748 315.959 217.748 318.492ZM212.672 317.791H215.839C215.829 316.892 215.205 316.239 214.301 316.239C213.368 316.239 212.721 316.94 212.672 317.791Z" fill="#666666"/>
<path d="M49.791 153.511L415.208 153.511" stroke="#CCCCCC" stroke-width="1.88748"/>
<path d="M236.297 140.43V153.51" stroke="#CCCCCC" stroke-width="1.88748"/>
<path d="M105.49 281.774V298.453C105.49 299.495 106.335 300.34 107.378 300.34H298.548C299.591 300.34 300.436 299.495 300.436 298.453V281.774" stroke="#CCCCCC" stroke-width="1.88748"/>
<path d="M165.408 216.805L107 236.302" stroke="#CCCCCC" stroke-width="1.88748" stroke-linecap="round"/>
<path d="M50.6348 216.805L106 236.802" stroke="#CCCCCC" stroke-width="1.88748" stroke-linecap="round"/>
<path d="M300 216.805V236.215M415 216.805V236.215" stroke="#CCCCCC" stroke-width="1.88748"/>
</svg>
