<svg width="49" height="48" viewBox="0 0 49 48" fill="none" xmlns="http://www.w3.org/2000/svg">
<path d="M10.2623 41.8824H36.9604L37.2066 40.8152C37.3963 39.9934 37.8323 39.2491 38.4564 38.6817C39.1139 38.084 39.9463 37.7135 40.8305 37.6251L41.2607 37.5821V11.0632L40.6824 11.0187C39.5721 10.9333 38.5559 10.3625 37.9052 9.45876C37.5209 8.925 37.2825 8.30019 37.2137 7.64608L37.1395 6.94202H10.2623L10.0032 8.10818C9.93727 8.40471 9.83525 8.69204 9.6994 8.96373C9.15419 10.0542 8.10869 10.8077 6.90181 10.9801L6.32031 11.0632V37.4029L7.26384 37.6602C7.93715 37.8438 8.55089 38.2 9.04438 38.6935C9.71509 39.3642 10.1264 40.2509 10.2051 41.1962L10.2623 41.8824Z" stroke="#0965EE" stroke-width="3"/>
<path d="M10.2624 7.03159C10.2624 9.25702 8.45624 11.0632 6.2308 11.0632C4.00537 11.0632 2.19922 9.25702 2.19922 7.03159C2.19922 4.80615 4.00537 3 6.2308 3C8.45624 3 10.2624 4.80615 10.2624 7.03159Z" stroke="#0965EE" stroke-width="3"/>
<path d="M45.1999 7.03159C45.1999 9.25702 43.3937 11.0632 41.1683 11.0632C38.9429 11.0632 37.1367 9.25702 37.1367 7.03159C37.1367 4.80615 38.9429 3 41.1683 3C43.3937 3 45.1999 4.80615 45.1999 7.03159Z" stroke="#0965EE" stroke-width="3"/>
<path d="M10.2624 41.6566C10.2624 43.8821 8.45624 45.6882 6.2308 45.6882C4.00537 45.6882 2.19922 43.8821 2.19922 41.6566C2.19922 39.4312 4.00537 37.6251 6.2308 37.6251C8.45624 37.6251 10.2624 39.4312 10.2624 41.6566Z" stroke="#0965EE" stroke-width="3"/>
<path d="M45.1999 41.6566C45.1999 43.8821 43.3937 45.6882 41.1683 45.6882C38.9429 45.6882 37.1367 43.8821 37.1367 41.6566C37.1367 39.4312 38.9429 37.6251 41.1683 37.6251C43.3937 37.6251 45.1999 39.4312 45.1999 41.6566Z" stroke="#0965EE" stroke-width="3"/>
<path d="M18.195 24.3441H12.8984C12.8984 30.3073 17.7328 35.1416 23.6959 35.1416C20.657 35.1416 18.195 30.3073 18.195 24.3441Z" stroke="#0965EE" stroke-width="2.5"/>
<path d="M23.694 13.5466C17.7308 13.5466 12.8965 18.381 12.8965 24.3405H18.1931C18.1931 18.3774 20.655 13.5466 23.694 13.5466Z" stroke="#0965EE" stroke-width="2.5"/>
<path d="M23.6953 13.5466C26.7342 13.5466 29.1962 18.381 29.1962 24.3405H34.4928C34.4928 18.3774 29.6585 13.5466 23.6953 13.5466Z" stroke="#0965EE" stroke-width="2.5"/>
<path d="M23.6953 35.1416C29.6585 35.1416 34.4928 30.3073 34.4928 24.3441H29.1962C29.1962 30.3073 26.7342 35.1416 23.6953 35.1416Z" stroke="#0965EE" stroke-width="2.5"/>
<path d="M29.1962 24.3441C29.1962 18.381 26.7342 13.5502 23.6953 13.5502V24.3441H29.1962Z" stroke="#0965EE" stroke-width="2.5"/>
<path d="M29.1962 24.3441H23.6953V35.1416C26.7342 35.1416 29.1962 30.3073 29.1962 24.3441Z" stroke="#0965EE" stroke-width="2.5"/>
<path d="M18.1953 24.3441H23.6962V13.5502C20.6573 13.5502 18.1953 18.3846 18.1953 24.3441Z" stroke="#0965EE" stroke-width="2.5"/>
<path d="M18.1953 24.3441C18.1953 30.3073 20.6573 35.1416 23.6962 35.1416V24.3441H18.1953Z" stroke="#0965EE" stroke-width="2.5"/>
</svg>
