<svg width="49" height="48" viewBox="0 0 49 48" fill="none" xmlns="http://www.w3.org/2000/svg">
<path fill-rule="evenodd" clip-rule="evenodd" d="M34.4516 21.6824C34.2302 21.461 34.2425 21.0898 34.479 20.8534L36.7583 18.574C36.9948 18.3375 37.366 18.3252 37.5873 18.5466L48.5991 29.5584C48.8205 29.7798 48.8082 30.1509 48.5717 30.3874L46.2924 32.6667C46.0559 32.9032 45.6847 32.9155 45.4634 32.6941L34.4516 21.6824ZM35.7088 21.2267L45.919 31.4369L47.3419 30.014L37.1317 19.8038L35.7088 21.2267Z" fill="#0965EE" stroke="#0965EE" stroke-width="0.5" stroke-linecap="round" stroke-linejoin="round"/>
<path fill-rule="evenodd" clip-rule="evenodd" d="M30.1732 22.822C30.4438 22.8111 33.174 22.2691 33.2583 22.5264L37.9529 36.9027C38.0571 37.2205 37.8839 37.5626 37.5661 37.6667C37.2483 37.7709 36.9062 37.5977 36.802 37.2799L31.8848 22.822H28.1496L23.7686 40.5963C23.7063 40.8551 23.4823 41.0428 23.2167 41.059C22.951 41.0752 22.7059 40.916 22.6126 40.6667L16.5778 24.5299L10.7353 34.4345C10.621 34.6284 10.4086 34.7428 10.1839 34.7317C9.95914 34.7206 9.75907 34.5858 9.66439 34.3817L3.18526 20.4122C3.04454 20.1088 3.17642 19.7488 3.47983 19.6081C3.78323 19.4673 4.14326 19.5992 4.28398 19.9026L10.278 32.8261L16.1791 22.822C16.2977 22.621 16.5212 22.506 16.7537 22.5264C16.9861 22.5468 17.1862 22.6989 17.2679 22.9175L23.0541 38.3895L26.7501 22.5264L30.1732 22.822Z" fill="#0965EE" stroke="#0965EE" stroke-width="0.5" stroke-linecap="round" stroke-linejoin="round"/>
<path fill-rule="evenodd" clip-rule="evenodd" d="M29.3009 11.4522C28.1489 11.4522 27.215 12.386 27.215 13.538C27.215 14.69 28.1489 15.6239 29.3009 15.6239C30.4529 15.6239 31.3868 14.69 31.3868 13.538C31.3868 12.386 30.4529 11.4522 29.3009 11.4522ZM26.0039 13.538C26.0039 11.7171 27.48 10.241 29.3009 10.241C31.1218 10.241 32.5979 11.7171 32.5979 13.538C32.5979 15.3589 31.1218 16.835 29.3009 16.835C27.48 16.835 26.0039 15.3589 26.0039 13.538Z" fill="#0965EE" stroke="#0965EE" stroke-width="0.5" stroke-linecap="round" stroke-linejoin="round"/>
<path fill-rule="evenodd" clip-rule="evenodd" d="M3.73645 18.1803C2.58447 18.1803 1.6506 19.1142 1.6506 20.2662C1.6506 21.4182 2.58447 22.352 3.73645 22.352C4.88844 22.352 5.82231 21.4182 5.82231 20.2662C5.82231 19.1142 4.88844 18.1803 3.73645 18.1803ZM0.439453 20.2662C0.439453 18.4453 1.91557 16.9692 3.73645 16.9692C5.55733 16.9692 7.03345 18.4453 7.03345 20.2662C7.03345 22.0871 5.55733 23.5632 3.73645 23.5632C1.91557 23.5632 0.439453 22.0871 0.439453 20.2662Z" fill="#0965EE" stroke="#0965EE" stroke-width="0.5" stroke-linecap="round" stroke-linejoin="round"/>
<path fill-rule="evenodd" clip-rule="evenodd" d="M10.465 31.6366C9.31298 31.6366 8.37911 32.5705 8.37911 33.7225C8.37911 34.8745 9.31298 35.8083 10.465 35.8083C11.617 35.8083 12.5508 34.8745 12.5508 33.7225C12.5508 32.5705 11.617 31.6366 10.465 31.6366ZM7.16797 33.7225C7.16797 31.9016 8.64409 30.4255 10.465 30.4255C12.2858 30.4255 13.762 31.9016 13.762 33.7225C13.762 35.5434 12.2858 37.0195 10.465 37.0195C8.64409 37.0195 7.16797 35.5434 7.16797 33.7225Z" fill="#0965EE" stroke="#0965EE" stroke-width="0.5" stroke-linecap="round" stroke-linejoin="round"/>
<path fill-rule="evenodd" clip-rule="evenodd" d="M16.5236 20.874C15.3716 20.874 14.4377 21.8079 14.4377 22.9598C14.4377 24.1118 15.3716 25.0457 16.5236 25.0457C17.6755 25.0457 18.6094 24.1118 18.6094 22.9598C18.6094 21.8079 17.6755 20.874 16.5236 20.874ZM13.2266 22.9598C13.2266 21.139 14.7027 19.6628 16.5236 19.6628C18.3444 19.6628 19.8206 21.139 19.8206 22.9598C19.8206 24.7807 18.3444 26.2568 16.5236 26.2568C14.7027 26.2568 13.2266 24.7807 13.2266 22.9598Z" fill="#0965EE" stroke="#0965EE" stroke-width="0.5" stroke-linecap="round" stroke-linejoin="round"/>
<path fill-rule="evenodd" clip-rule="evenodd" d="M23.2482 38.3688C22.0962 38.3688 21.1623 39.3027 21.1623 40.4547C21.1623 41.6066 22.0962 42.5405 23.2482 42.5405C24.4002 42.5405 25.334 41.6066 25.334 40.4547C25.334 39.3027 24.4002 38.3688 23.2482 38.3688ZM19.9512 40.4547C19.9512 38.6338 21.4273 37.1577 23.2482 37.1577C25.0691 37.1577 26.5452 38.6338 26.5452 40.4547C26.5452 42.2755 25.0691 43.7517 23.2482 43.7517C21.4273 43.7517 19.9512 42.2755 19.9512 40.4547Z" fill="#0965EE" stroke="#0965EE" stroke-width="0.5" stroke-linecap="round" stroke-linejoin="round"/>
<path fill-rule="evenodd" clip-rule="evenodd" d="M37.0436 35.0007C35.6368 35.0007 34.6213 35.9996 34.6213 37.0866C34.6213 38.1735 35.6368 39.1724 37.0436 39.1724C38.4504 39.1724 39.4659 38.1735 39.4659 37.0866C39.4659 35.9996 38.4504 35.0007 37.0436 35.0007ZM33.4102 37.0866C33.4102 35.2006 35.1059 33.7896 37.0436 33.7896C38.9812 33.7896 40.677 35.2006 40.677 37.0866C40.677 38.9725 38.9812 40.3835 37.0436 40.3835C35.1059 40.3835 33.4102 38.9725 33.4102 37.0866Z" fill="#0965EE" stroke="#0965EE" stroke-width="0.5" stroke-linecap="round" stroke-linejoin="round"/>
<path fill-rule="evenodd" clip-rule="evenodd" d="M22.2144 6.44803C26.128 2.53449 32.4817 2.53449 36.3953 6.44803C40.3088 10.3616 40.3088 16.7153 36.3953 20.6289C32.4817 24.5424 26.128 24.5424 22.2144 20.6289C18.3009 16.7153 18.3009 10.3616 22.2144 6.44803ZM35.5389 7.30444C32.0983 3.86388 26.5114 3.86388 23.0709 7.30444C19.6303 10.745 19.6303 16.3319 23.0709 19.7725C26.5114 23.213 32.0983 23.213 35.5389 19.7725C38.9794 16.3319 38.9794 10.745 35.5389 7.30444ZM33.0668 9.77653C30.9944 7.70418 27.6231 7.70418 25.5507 9.77653C23.4784 11.8489 23.4784 15.2202 25.5507 17.2926C27.6231 19.3649 30.9944 19.3649 33.0668 17.2926C35.1391 15.2202 35.1391 11.8489 33.0668 9.77653ZM24.6943 8.92012C27.2396 6.37479 31.3779 6.37479 33.9232 8.92012C36.4685 11.4655 36.4685 15.6037 33.9232 18.149C31.3779 20.6943 27.2396 20.6943 24.6943 18.149C22.149 15.6037 22.149 11.4655 24.6943 8.92012Z" fill="#0965EE" stroke="#0965EE" stroke-width="0.5" stroke-linecap="round" stroke-linejoin="round"/>
</svg>
