<svg width="53" height="64" viewBox="0 0 53 64" fill="none" xmlns="http://www.w3.org/2000/svg">
<path d="M34.4004 52C34.4004 54.2091 32.9677 56 31.2004 56H5.60039C3.83308 56 2.40039 54.2091 2.40039 52V28C2.40039 25.7909 3.83308 24 5.60039 24H31.2004C32.9677 24 34.4004 25.7909 34.4004 28V36M15.2004 24V32M2.40039 32H34.4004M8.80039 24V32" stroke="#0965EE" stroke-width="3" stroke-linecap="round" stroke-linejoin="round"/>
<g clip-path="url(#clip0_1627_6221)">
<path d="M13.6512 41.4643V44.6786M12.245 43.875L15.0575 42.2679M12.245 42.2679L15.0575 43.875M10.8387 39.4554H16.4637C16.9075 39.4554 17.2673 39.8152 17.2673 40.259V45.884C17.2673 46.3278 16.9075 46.6875 16.4637 46.6875H10.8387C10.3949 46.6875 10.0352 46.3278 10.0352 45.884V40.259C10.0352 39.8152 10.3949 39.4554 10.8387 39.4554Z" stroke="#0965EE" stroke-width="1.5" stroke-linecap="round" stroke-linejoin="round"/>
</g>
<g clip-path="url(#clip1_1627_6221)">
<path d="M23.2919 41.4643V44.6786M21.8856 43.875L24.6981 42.2679M21.8856 42.2679L24.6981 43.875M20.4794 39.4554H26.1044C26.5482 39.4554 26.9079 39.8152 26.9079 40.259V45.884C26.9079 46.3278 26.5482 46.6875 26.1044 46.6875H20.4794C20.0356 46.6875 19.6758 46.3278 19.6758 45.884V40.259C19.6758 39.8152 20.0356 39.4554 20.4794 39.4554Z" stroke="#0965EE" stroke-width="1.5" stroke-linecap="round" stroke-linejoin="round"/>
</g>
<g clip-path="url(#clip2_1627_6221)">
<path d="M32.9344 41.4643V44.6786M31.5282 43.875L34.3407 42.2679M31.5282 42.2679L34.3407 43.875M30.1219 39.4554H35.7469C36.1907 39.4554 36.5505 39.8152 36.5505 40.259V45.884C36.5505 46.3278 36.1907 46.6875 35.7469 46.6875H30.1219C29.6781 46.6875 29.3184 46.3278 29.3184 45.884V40.259C29.3184 39.8152 29.6781 39.4554 30.1219 39.4554Z" stroke="#0965EE" stroke-width="1.5" stroke-linecap="round" stroke-linejoin="round"/>
</g>
<g clip-path="url(#clip3_1627_6221)">
<path d="M42.579 41.4643V44.6786M41.1727 43.875L43.9852 42.2679M41.1727 42.2679L43.9852 43.875M39.7665 39.4554H45.3915C45.8353 39.4554 46.195 39.8152 46.195 40.259V45.884C46.195 46.3278 45.8353 46.6875 45.3915 46.6875H39.7665C39.3227 46.6875 38.9629 46.3278 38.9629 45.884V40.259C38.9629 39.8152 39.3227 39.4554 39.7665 39.4554Z" stroke="#0965EE" stroke-width="1.5" stroke-linecap="round" stroke-linejoin="round"/>
</g>
<path d="M10.4004 6V42H46.4004M20.4004 20H24.4004C25.505 20 26.4004 20.8954 26.4004 22V32C26.4004 33.1046 25.505 34 24.4004 34H20.4004C19.2958 34 18.4004 33.1046 18.4004 32V22C18.4004 20.8954 19.2958 20 20.4004 20ZM36.4004 10H40.4004C41.505 10 42.4004 10.8954 42.4004 12V32C42.4004 33.1046 41.505 34 40.4004 34H36.4004C35.2958 34 34.4004 33.1046 34.4004 32V12C34.4004 10.8954 35.2958 10 36.4004 10Z" stroke="#0965EE" stroke-width="3" stroke-linecap="round" stroke-linejoin="round"/>
<defs>
<clipPath id="clip0_1627_6221">
<rect width="9.64286" height="9.64286" fill="white" transform="translate(8.83008 38.25)"/>
</clipPath>
<clipPath id="clip1_1627_6221">
<rect width="9.64286" height="9.64286" fill="white" transform="translate(18.4707 38.25)"/>
</clipPath>
<clipPath id="clip2_1627_6221">
<rect width="9.64286" height="9.64286" fill="white" transform="translate(28.1133 38.25)"/>
</clipPath>
<clipPath id="clip3_1627_6221">
<rect width="9.64286" height="9.64286" fill="white" transform="translate(37.7578 38.25)"/>
</clipPath>
</defs>
</svg>
