<svg width="49" height="48" viewBox="0 0 49 48" fill="none" xmlns="http://www.w3.org/2000/svg">
<path fill-rule="evenodd" clip-rule="evenodd" d="M18.3008 1.5C18.3008 1.5 21.6567 1.5 24.7238 2.79727C24.7238 2.79727 27.6851 4.0498 29.968 6.33274C29.968 6.33274 32.251 8.61567 33.5035 11.577C33.5035 11.577 34.8008 14.6441 34.8008 18C34.8008 18 34.8008 21.3559 33.5035 24.423C33.5035 24.423 32.251 27.3843 29.968 29.6673C29.968 29.6673 27.6851 31.9502 24.7238 33.2027C24.7238 33.2027 21.6567 34.5 18.3008 34.5C18.3008 34.5 14.9449 34.5 11.8778 33.2027C11.8778 33.2027 8.91646 31.9502 6.63352 29.6673C6.63352 29.6673 4.35058 27.3843 3.09805 24.423C3.09805 24.423 1.80078 21.3559 1.80078 18C1.80078 18 1.80078 14.6441 3.09805 11.577C3.09805 11.577 4.35058 8.61567 6.63352 6.33274C6.63352 6.33274 8.91645 4.0498 11.8778 2.79727C11.8778 2.79727 14.9449 1.5 18.3008 1.5ZM18.3008 4.5C18.3008 4.5 15.5532 4.5 13.0464 5.56028C13.0464 5.56028 10.624 6.58488 8.75484 8.45406C8.75484 8.45406 6.88565 10.3232 5.86106 12.7457C5.86106 12.7457 4.80078 15.2524 4.80078 18C4.80078 18 4.80078 20.7476 5.86106 23.2543C5.86106 23.2543 6.88566 25.6768 8.75484 27.5459C8.75484 27.5459 10.624 29.4151 13.0464 30.4397C13.0464 30.4397 15.5532 31.5 18.3008 31.5C18.3008 31.5 21.0483 31.5 23.5551 30.4397C23.5551 30.4397 25.9775 29.4151 27.8467 27.5459C27.8467 27.5459 29.7159 25.6767 30.7405 23.2543C30.7405 23.2543 31.8008 20.7476 31.8008 18C31.8008 18 31.8008 15.2524 30.7405 12.7457C30.7405 12.7457 29.7159 10.3232 27.8467 8.45406C27.8467 8.45406 25.9775 6.58487 23.5551 5.56028C23.5551 5.56028 21.0483 4.5 18.3008 4.5Z" fill="#0965EE"/>
<path fill-rule="evenodd" clip-rule="evenodd" d="M18.3008 7.5C18.3008 7.5 22.65 7.5 25.7254 10.5754C25.7254 10.5754 28.8008 13.6508 28.8008 18C28.8008 18 28.8008 22.3492 25.7254 25.4246C25.7254 25.4246 22.65 28.5 18.3008 28.5C18.3008 28.5 13.9515 28.5 10.8762 25.4246C10.8762 25.4246 7.80078 22.3492 7.80078 18C7.80078 18 7.80078 13.6508 10.8762 10.5754C10.8762 10.5754 13.9515 7.5 18.3008 7.5ZM18.3008 10.5C18.3008 10.5 15.1942 10.5 12.9975 12.6967C12.9975 12.6967 10.8008 14.8934 10.8008 18C10.8008 18 10.8008 21.1066 12.9975 23.3033C12.9975 23.3033 15.1942 25.5 18.3008 25.5C18.3008 25.5 21.4074 25.5 23.6041 23.3033C23.6041 23.3033 25.8008 21.1066 25.8008 18C25.8008 18 25.8008 14.8934 23.6041 12.6967C23.6041 12.6967 21.4074 10.5 18.3008 10.5Z" fill="#0965EE"/>
<path d="M10.8008 42.5729V30C10.8008 29.1716 10.1292 28.5 9.30078 28.5C8.47235 28.5 7.80078 29.1716 7.80078 30V45C7.80078 45.8284 8.47235 46.5 9.30078 46.5C9.53365 46.5 9.76332 46.4458 9.9716 46.3416L18.3008 42.177L26.63 46.3416C27.3709 46.7121 28.2719 46.4118 28.6424 45.6708C28.7466 45.4625 28.8008 45.2329 28.8008 45V30C28.8008 29.1716 28.1292 28.5 27.3008 28.5C26.4724 28.5 25.8008 29.1716 25.8008 30V42.5729L18.9716 39.1584C18.5493 38.9472 18.0523 38.9472 17.63 39.1584L10.8008 42.5729Z" fill="#0965EE"/>
<rect x="29.8008" y="3" width="16" height="17" rx="3" fill="white" stroke="#0965EE" stroke-width="2"/>
<path d="M39.8008 6V17H37.6462V7.92956H37.5804L35.8008 9V7.19199L37.7449 6H39.8008Z" fill="#0965EE"/>
</svg>
