<svg width="48" height="48" viewBox="0 0 48 48" fill="none" xmlns="http://www.w3.org/2000/svg">
<path fill-rule="evenodd" clip-rule="evenodd" d="M23.2558 6.19764C23.7169 5.93412 24.2831 5.93412 24.7442 6.19764L45.7442 18.1976C45.9768 18.3305 46.1695 18.5232 46.3024 18.7558C46.4997 19.1012 46.5518 19.5109 46.4472 19.8947C46.3425 20.2785 46.0896 20.605 45.7442 20.8024L24.7442 32.8024C24.2831 33.0659 23.7169 33.0659 23.2558 32.8024L2.2558 20.8024C2.02325 20.6695 1.83052 20.4768 1.69764 20.2442C1.50026 19.8988 1.44818 19.4891 1.55286 19.1053C1.65753 18.7215 1.91039 18.395 2.2558 18.1976L23.2558 6.19764ZM6.02335 19.5L24 9.22763L41.9767 19.5L24 29.7724L6.02335 19.5Z" fill="white"/>
<path d="M24.7442 40.3024L45.7442 28.3024C46.0896 28.105 46.3425 27.7785 46.4471 27.3947C46.4822 27.2661 46.5 27.1333 46.5 27L46.4995 26.9594C46.4928 26.7122 46.4251 26.4705 46.3024 26.2558C46.0353 25.7884 45.5383 25.5 45 25.5C44.979 25.5 44.9581 25.5004 44.9371 25.5013C44.6976 25.5114 44.4639 25.5787 44.2558 25.6976L24 37.2724L3.74421 25.6976C3.51756 25.5681 3.26104 25.5 3 25.5C2.97006 25.5 2.94012 25.5009 2.91023 25.5027C2.40484 25.533 1.94883 25.8162 1.69764 26.2558C1.56812 26.4824 1.5 26.739 1.5 27C1.5 27.0299 1.5009 27.0599 1.50269 27.0898C1.53299 27.5952 1.8162 28.0512 2.25579 28.3024L23.2558 40.3024C23.7169 40.5659 24.2831 40.5659 24.7442 40.3024Z" fill="white"/>
</svg>
