<svg width="48" height="48" viewBox="0 0 48 48" fill="none" xmlns="http://www.w3.org/2000/svg">
<path d="M15 9V10.5C15 11.3284 15.6716 12 16.5 12C17.3284 12 18 11.3284 18 10.5V9H39V28.5H15C14.1716 28.5 13.5 29.1716 13.5 30C13.5 30.8284 14.1716 31.5 15 31.5H39C40.2426 31.5 41.1213 30.6213 41.1213 30.6213C42 29.7426 42 28.5 42 28.5V9C42 7.75736 41.1213 6.87868 41.1213 6.87868C40.2426 6 39 6 39 6H18C16.7574 6 15.8787 6.87868 15.8787 6.87868C15 7.75736 15 9 15 9Z" fill="white"/>
<path d="M13.9393 31.0607L18.4389 35.5602C18.7202 35.8415 19.1022 36 19.5 36C19.8978 36 20.2794 35.842 20.5607 35.5607C20.842 35.2794 21 34.8978 21 34.5C21 34.1022 20.842 33.7206 20.5607 33.4393L17.1213 30L20.5607 26.5607C20.842 26.2794 21 25.8978 21 25.5C21 25.1022 20.842 24.7206 20.5607 24.4393C20.2794 24.158 19.8978 24 19.5 24C19.1022 24 18.7206 24.158 18.4393 24.4393L13.9393 28.9393C13.3536 29.5251 13.3536 30.4749 13.9393 31.0607Z" fill="white"/>
<path d="M33 39V37.5C33 36.6716 32.3284 36 31.5 36C30.6716 36 30 36.6716 30 37.5V39H9V19.5H33C33.8284 19.5 34.5 18.8284 34.5 18C34.5 17.1716 33.8284 16.5 33 16.5H9C7.75736 16.5 6.87868 17.3787 6.87868 17.3787C6 18.2574 6 19.5 6 19.5V39C6 40.2426 6.87868 41.1213 6.87868 41.1213C7.75736 42 9 42 9 42H30C31.2426 42 32.1213 41.1213 32.1213 41.1213C33 40.2426 33 39 33 39Z" fill="white"/>
<path d="M29.5607 12.4393C29.2794 12.158 28.8978 12 28.5 12C28.1022 12 27.7206 12.158 27.4393 12.4393C27.158 12.7206 27 13.1022 27 13.5C27 13.8978 27.158 14.2794 27.4393 14.5607L30.8787 18L27.4399 21.4388C27.1586 21.7201 27 22.1022 27 22.5C27 22.524 27.0006 22.5481 27.0017 22.5721C27.0196 22.9445 27.1757 23.297 27.4393 23.5607C27.7206 23.842 28.1022 24 28.5 24C28.8978 24 29.2794 23.842 29.5607 23.5607L34.0607 19.0607C34.6464 18.4749 34.6464 17.5251 34.0607 16.9393L29.5607 12.4393Z" fill="white"/>
</svg>
