<svg width="33" height="32" viewBox="0 0 33 32" fill="none" xmlns="http://www.w3.org/2000/svg">
<path fill-rule="evenodd" clip-rule="evenodd" d="M13.101 28.7378C13.101 28.7378 14.419 29.4331 15.6578 29.8446C15.6578 29.8446 16.2988 30.0752 16.9399 29.8446C16.9399 29.8446 18.1787 29.4331 19.4967 28.7378C19.4967 28.7378 21.6155 27.6201 23.2979 26.0718C23.2979 26.0718 28.2988 21.4695 28.2988 14.3375V7C28.2988 7 28.2988 6.17157 27.713 5.58579C27.713 5.58579 27.1273 5 26.2988 5H6.29883C6.29883 5 5.4704 5 4.88461 5.58579C4.88461 5.58579 4.29883 6.17157 4.29883 7V14.3375C4.29883 14.3375 4.29883 21.4695 9.29979 26.0718C9.29979 26.0718 10.9822 27.62 13.101 28.7378ZM18.5635 26.9689C18.5635 26.9689 17.3858 27.5901 16.2988 27.9501C16.2988 27.9501 15.2119 27.5901 14.0342 26.9689C14.0342 26.9689 12.1453 25.9724 10.6541 24.6001C10.6541 24.6001 6.29883 20.592 6.29883 14.3375V7H26.2988V14.3375C26.2988 14.3375 26.2988 20.592 21.9435 24.6001C21.9435 24.6001 20.4524 25.9724 18.5635 26.9689Z" fill="#666666"/>
<path d="M5.37378 17H27.2238C27.7761 17 28.2238 16.5523 28.2238 16C28.2238 15.4477 27.7761 15 27.2238 15H5.37378C4.82149 15 4.37378 15.4477 4.37378 16C4.37378 16.5523 4.82149 17 5.37378 17Z" fill="#666666"/>
<path d="M15.2988 6V28.95C15.2988 29.5023 15.7465 29.95 16.2988 29.95C16.8511 29.95 17.2988 29.5023 17.2988 28.95V6C17.2988 5.44772 16.8511 5 16.2988 5C15.7465 5 15.2988 5.44772 15.2988 6Z" fill="#666666"/>
</svg>
