<svg width="33" height="32" viewBox="0 0 33 32" fill="none" xmlns="http://www.w3.org/2000/svg">
<path fill-rule="evenodd" clip-rule="evenodd" d="M4.19922 19C4.19922 19 4.19922 18.1716 4.78501 17.5858C4.78501 17.5858 5.37079 17 6.19922 17H26.1992C26.1992 17 27.0276 17 27.6134 17.5858C27.6134 17.5858 28.1992 18.1716 28.1992 19V25C28.1992 25 28.1992 25.8284 27.6134 26.4142C27.6134 26.4142 27.0276 27 26.1992 27H6.19922C6.19922 27 5.37079 27 4.785 26.4142C4.785 26.4142 4.19922 25.8284 4.19922 25V19ZM6.19922 19V25L26.1992 25V19H6.19922Z" fill="#666666"/>
<path fill-rule="evenodd" clip-rule="evenodd" d="M4.19922 7C4.19922 7 4.19922 6.17157 4.78501 5.58579C4.78501 5.58579 5.37079 5 6.19922 5H26.1992C26.1992 5 27.0276 5 27.6134 5.58579C27.6134 5.58579 28.1992 6.17157 28.1992 7V13C28.1992 13 28.1992 13.8284 27.6134 14.4142C27.6134 14.4142 27.0276 15 26.1992 15H6.19922C6.19922 15 5.37079 15 4.785 14.4142C4.785 14.4142 4.19922 13.8284 4.19922 13V7ZM6.19922 7V13L26.1992 13V7H6.19922Z" fill="#666666"/>
<path d="M24.1992 10C24.1992 10.8284 23.5276 11.5 22.6992 11.5C21.8708 11.5 21.1992 10.8284 21.1992 10C21.1992 9.17163 21.8708 8.5 22.6992 8.5C23.5276 8.5 24.1992 9.17163 24.1992 10Z" fill="#666666"/>
<path d="M24.1992 22C24.1992 22.8284 23.5276 23.5 22.6992 23.5C21.8708 23.5 21.1992 22.8284 21.1992 22C21.1992 21.1716 21.8708 20.5 22.6992 20.5C23.5276 20.5 24.1992 21.1716 24.1992 22Z" fill="#666666"/>
</svg>
