<svg width="48" height="48" viewBox="0 0 48 48" fill="none" xmlns="http://www.w3.org/2000/svg">
<path fill-rule="evenodd" clip-rule="evenodd" d="M19.2032 43.1067C19.2032 43.1067 21.1802 44.1496 23.0384 44.7669C23.0384 44.7669 24 45.1128 24.9615 44.7669C24.9615 44.7669 26.8198 44.1496 28.7968 43.1067C28.7968 43.1067 31.975 41.4301 34.4986 39.1076C34.4986 39.1076 42 32.2042 42 21.5062V10.5C42 10.5 42 9.25736 41.1213 8.37868C41.1213 8.37868 40.2426 7.5 39 7.5H9C9 7.5 7.75736 7.5 6.87868 8.37868C6.87868 8.37868 6 9.25736 6 10.5V21.5062C6 21.5062 6 32.2042 13.5014 39.1076C13.5014 39.1076 16.025 41.4301 19.2032 43.1067ZM27.397 40.4533C27.397 40.4533 25.6305 41.3852 24 41.9251C24 41.9251 22.3696 41.3852 20.603 40.4533C20.603 40.4533 17.7697 38.9586 15.5329 36.9002C15.5329 36.9002 9 30.888 9 21.5062V10.5H39V21.5062C39 21.5062 39 30.888 32.4671 36.9002C32.4671 36.9002 30.2303 38.9586 27.397 40.4533Z" fill="white"/>
<path d="M16.7863 23.6656C16.5072 23.3988 16.136 23.25 15.75 23.25C15.7497 23.25 15.716 23.2504 15.716 23.2504C15.3183 23.2594 14.9404 23.4261 14.6656 23.7137C14.3988 23.9928 14.25 24.364 14.25 24.75L14.2504 24.784C14.2594 25.1817 14.4261 25.5596 14.7137 25.8344L20.2074 31.0844C20.7869 31.6382 21.6992 31.6386 22.2792 31.0853L33.285 20.5857C33.5729 20.3111 33.7402 19.933 33.7496 19.5353C33.7502 19.5113 33.7501 19.4872 33.7495 19.4632C33.7404 19.0904 33.5927 18.7344 33.3353 18.4646C33.0523 18.1679 32.6601 18 32.25 18L32.2077 18.0006C31.8368 18.0111 31.483 18.1586 31.2146 18.4147L21.2446 27.9261L16.7863 23.6656Z" fill="white"/>
</svg>
