<svg width="33" height="32" viewBox="0 0 33 32" fill="none" xmlns="http://www.w3.org/2000/svg">
<path fill-rule="evenodd" clip-rule="evenodd" d="M15.9043 4.13176C16.2117 3.95608 16.5891 3.95608 16.8965 4.13176L30.8965 12.1318C31.0516 12.2203 31.18 12.3488 31.2686 12.5039C31.4002 12.7341 31.4349 13.0072 31.3652 13.2631C31.2954 13.519 31.1268 13.7367 30.8965 13.8682L16.8965 21.8682C16.5891 22.0439 16.2117 22.0439 15.9043 21.8682L1.90425 13.8682C1.74922 13.7797 1.62074 13.6512 1.53215 13.4961C1.40057 13.2659 1.36585 12.9928 1.43563 12.7369C1.50541 12.481 1.67398 12.2633 1.90425 12.1318L15.9043 4.13176ZM4.41596 13L16.4004 6.15175L28.3848 13L16.4004 19.8482L4.41596 13Z" fill="#666666"/>
<path d="M16.8965 26.8682L30.8965 18.8682C31.1268 18.7367 31.2954 18.519 31.3652 18.2631C31.3885 18.1774 31.4004 18.0889 31.4004 18L31.4 17.9729C31.3956 17.8081 31.3504 17.647 31.2686 17.5039C31.0906 17.1923 30.7592 17 30.4004 17C30.3864 17 30.3724 17.0003 30.3585 17.0009C30.1988 17.0076 30.043 17.0525 29.9043 17.1318L16.4004 24.8482L2.89653 17.1318C2.74543 17.0454 2.57442 17 2.40039 17C2.38043 17 2.36047 17.0006 2.34055 17.0018C2.00362 17.022 1.69961 17.2108 1.53215 17.5039C1.44581 17.655 1.40039 17.826 1.40039 18C1.40039 18.02 1.40099 18.0399 1.40218 18.0598C1.42238 18.3968 1.61119 18.7008 1.90425 18.8682L15.9043 26.8682C16.2117 27.0439 16.5891 27.0439 16.8965 26.8682Z" fill="#666666"/>
</svg>
