<svg width="48" height="48" viewBox="0 0 48 48" fill="none" xmlns="http://www.w3.org/2000/svg">
<path fill-rule="evenodd" clip-rule="evenodd" d="M19.2032 43.1067C19.2032 43.1067 21.1802 44.1496 23.0384 44.7669C23.0384 44.7669 24 45.1129 24.9615 44.7669C24.9615 44.7669 26.8198 44.1496 28.7968 43.1067C28.7968 43.1067 31.975 41.4301 34.4986 39.1077C34.4986 39.1077 42 32.2042 42 21.5063V10.5C42 10.5 42 9.25736 41.1213 8.37868C41.1213 8.37868 40.2426 7.5 39 7.5H9C9 7.5 7.75736 7.5 6.87868 8.37868C6.87868 8.37868 6 9.25736 6 10.5V21.5063C6 21.5063 6 32.2042 13.5014 39.1077C13.5014 39.1077 16.025 41.4301 19.2032 43.1067ZM27.397 40.4533C27.397 40.4533 25.6305 41.3852 24 41.9251C24 41.9251 22.3696 41.3852 20.603 40.4533C20.603 40.4533 17.7697 38.9586 15.5329 36.9002C15.5329 36.9002 9 30.888 9 21.5063V10.5H39V21.5063C39 21.5063 39 30.888 32.4671 36.9002C32.4671 36.9002 30.2303 38.9586 27.397 40.4533Z" fill="white"/>
<path d="M7.61243 25.5H40.3874C41.2159 25.5 41.8874 24.8284 41.8874 24C41.8874 23.1716 41.2159 22.5 40.3874 22.5H7.61243C6.784 22.5 6.11243 23.1716 6.11243 24C6.11243 24.8284 6.784 25.5 7.61243 25.5Z" fill="white"/>
<path d="M22.5 9V43.425C22.5 44.2534 23.1716 44.925 24 44.925C24.8284 44.925 25.5 44.2534 25.5 43.425V9C25.5 8.17157 24.8284 7.5 24 7.5C23.1716 7.5 22.5 8.17157 22.5 9Z" fill="white"/>
</svg>
