<svg width="48" height="48" viewBox="0 0 48 48" fill="none" xmlns="http://www.w3.org/2000/svg">
<path d="M6 25.5H15C15.8284 25.5 16.5 24.8284 16.5 24C16.5 23.1716 15.8284 22.5 15 22.5H6C4.75736 22.5 3.87868 23.3787 3.87868 23.3787C3 24.2574 3 25.5 3 25.5V37.5C3 38.7426 3.87868 39.6213 3.87868 39.6213C4.75736 40.5 6 40.5 6 40.5H42C43.2426 40.5 44.1213 39.6213 44.1213 39.6213C45 38.7426 45 37.5 45 37.5V25.5C45 24.2574 44.1213 23.3787 44.1213 23.3787C43.2426 22.5 42 22.5 42 22.5H33C32.1716 22.5 31.5 23.1716 31.5 24C31.5 24.8284 32.1716 25.5 33 25.5H42V37.5H6V25.5Z" fill="white"/>
<path d="M22.5 4.5V24C22.5 24.8284 23.1716 25.5 24 25.5C24.8284 25.5 25.5 24.8284 25.5 24V4.5C25.5 3.67157 24.8284 3 24 3C23.1716 3 22.5 3.67157 22.5 4.5Z" fill="white"/>
<path d="M34.0601 16.0612C34.3414 15.7799 34.5 15.3978 34.5 15C34.5 14.6022 34.342 14.2206 34.0607 13.9393C33.7794 13.658 33.3978 13.5 33 13.5C32.6022 13.5 32.2206 13.658 31.9393 13.9393L24 21.8787L16.0608 13.9395C15.7794 13.658 15.3978 13.5 15 13.5C14.6022 13.5 14.2206 13.658 13.9393 13.9393C13.658 14.2206 13.5 14.6022 13.5 15C13.5 15.3978 13.658 15.7794 13.9393 16.0607L22.9393 25.0607C23.2206 25.342 23.6022 25.5 24 25.5C24.3978 25.5 24.7794 25.342 25.0607 25.0607L34.0601 16.0612Z" fill="white"/>
<path d="M37.5 31.5C37.5 32.7426 36.4926 33.75 35.25 33.75C34.0074 33.75 33 32.7426 33 31.5C33 30.2574 34.0074 29.25 35.25 29.25C36.4926 29.25 37.5 30.2574 37.5 31.5Z" fill="white"/>
</svg>
