<svg width="33" height="32" viewBox="0 0 33 32" fill="none" xmlns="http://www.w3.org/2000/svg">
<path d="M10.5996 6V7C10.5996 7.55228 11.0473 8 11.5996 8C12.1519 8 12.5996 7.55228 12.5996 7V6H26.5996V19H10.5996C10.0473 19 9.59961 19.4477 9.59961 20C9.59961 20.5523 10.0473 21 10.5996 21H26.5996C27.428 21 28.0138 20.4142 28.0138 20.4142C28.5996 19.8284 28.5996 19 28.5996 19V6C28.5996 5.17157 28.0138 4.58579 28.0138 4.58579C27.428 4 26.5996 4 26.5996 4H12.5996C11.7712 4 11.1854 4.58579 11.1854 4.58579C10.5996 5.17157 10.5996 6 10.5996 6Z" fill="#666666"/>
<path d="M9.8925 20.7071L12.8922 23.7068C13.0797 23.8943 13.3344 24 13.5996 24C13.8648 24 14.1192 23.8946 14.3067 23.7071C14.4943 23.5196 14.5996 23.2652 14.5996 23C14.5996 22.7348 14.4943 22.4804 14.3067 22.2929L12.0138 20L14.3067 17.7071C14.4943 17.5196 14.5996 17.2652 14.5996 17C14.5996 16.7348 14.4943 16.4804 14.3067 16.2929C14.1192 16.1054 13.8648 16 13.5996 16C13.3344 16 13.08 16.1054 12.8925 16.2929L9.8925 19.2929C9.50198 19.6834 9.50198 20.3166 9.8925 20.7071Z" fill="#666666"/>
<path d="M22.5996 26V25C22.5996 24.4477 22.1519 24 21.5996 24C21.0473 24 20.5996 24.4477 20.5996 25V26H6.59961V13H22.5996C23.1519 13 23.5996 12.5523 23.5996 12C23.5996 11.4477 23.1519 11 22.5996 11H6.59961C5.77118 11 5.1854 11.5858 5.1854 11.5858C4.59961 12.1716 4.59961 13 4.59961 13V26C4.59961 26.8284 5.1854 27.4142 5.1854 27.4142C5.77118 28 6.59961 28 6.59961 28H20.5996C21.428 28 22.0138 27.4142 22.0138 27.4142C22.5996 26.8284 22.5996 26 22.5996 26Z" fill="#666666"/>
<path d="M20.3067 8.29289C20.1192 8.10536 19.8648 8 19.5996 8C19.3344 8 19.08 8.10536 18.8925 8.29289C18.705 8.48043 18.5996 8.73478 18.5996 9C18.5996 9.26522 18.705 9.51957 18.8925 9.70711L21.1854 12L18.8929 14.2925C18.7053 14.4801 18.5996 14.7348 18.5996 15C18.5996 15.016 18.6 15.032 18.6008 15.048C18.6127 15.2964 18.7167 15.5313 18.8925 15.7071C19.08 15.8946 19.3344 16 19.5996 16C19.8648 16 20.1192 15.8946 20.3067 15.7071L23.3067 12.7071C23.6972 12.3166 23.6972 11.6834 23.3067 11.2929L20.3067 8.29289Z" fill="#666666"/>
</svg>
