<svg width="33" height="32" viewBox="0 0 33 32" fill="none" xmlns="http://www.w3.org/2000/svg">
<path fill-rule="evenodd" clip-rule="evenodd" d="M13.3022 28.7378C13.3022 28.7378 14.6202 29.4331 15.859 29.8446C15.859 29.8446 16.5 30.0752 17.141 29.8446C17.141 29.8446 18.3799 29.4331 19.6978 28.7378C19.6978 28.7378 21.8166 27.62 23.499 26.0718C23.499 26.0718 28.5 21.4695 28.5 14.3375V7C28.5 7 28.5 6.17157 27.9142 5.58579C27.9142 5.58579 27.3284 5 26.5 5H6.5C6.5 5 5.67157 5 5.08579 5.58579C5.08579 5.58579 4.5 6.17157 4.5 7V14.3375C4.5 14.3375 4.5 21.4695 9.50096 26.0718C9.50096 26.0718 11.1834 27.62 13.3022 28.7378ZM18.7647 26.9688C18.7647 26.9688 17.587 27.5901 16.5 27.9501C16.5 27.9501 15.413 27.5901 14.2353 26.9688C14.2353 26.9688 12.3464 25.9724 10.8553 24.6001C10.8553 24.6001 6.5 20.592 6.5 14.3375V7H26.5V14.3375C26.5 14.3375 26.5 20.592 22.1447 24.6001C22.1447 24.6001 20.6536 25.9724 18.7647 26.9688Z" fill="#666666"/>
<path d="M11.6909 15.777C11.5048 15.5992 11.2574 15.5 11 15.5C10.9998 15.5 10.9773 15.5003 10.9773 15.5003C10.7122 15.5063 10.4603 15.6174 10.277 15.8091C10.0992 15.9952 10 16.2426 10 16.5L10.0003 16.5227C10.0063 16.7878 10.1174 17.0397 10.3091 17.223L13.9716 20.723C14.3579 21.0921 14.9662 21.0924 15.3528 20.7236L22.69 13.7238C22.8819 13.5407 22.9935 13.2887 22.9997 13.0235C23.0001 13.0075 23.0001 12.9915 22.9997 12.9755C22.9936 12.727 22.8952 12.4896 22.7236 12.3097C22.5348 12.1119 22.2734 12 22 12L21.9718 12.0004C21.7245 12.0074 21.4887 12.1057 21.3097 12.2764L14.6631 18.6174L11.6909 15.777Z" fill="#666666"/>
</svg>
