<svg width="33" height="32" viewBox="0 0 33 32" fill="none" xmlns="http://www.w3.org/2000/svg">
<path d="M4.09961 17H10.0996C10.6519 17 11.0996 16.5523 11.0996 16C11.0996 15.4477 10.6519 15 10.0996 15H4.09961C3.27118 15 2.6854 15.5858 2.6854 15.5858C2.09961 16.1716 2.09961 17 2.09961 17V25C2.09961 25.8284 2.6854 26.4142 2.6854 26.4142C3.27118 27 4.09961 27 4.09961 27H28.0996C28.928 27 29.5138 26.4142 29.5138 26.4142C30.0996 25.8284 30.0996 25 30.0996 25V17C30.0996 16.1716 29.5138 15.5858 29.5138 15.5858C28.928 15 28.0996 15 28.0996 15H22.0996C21.5473 15 21.0996 15.4477 21.0996 16C21.0996 16.5523 21.5473 17 22.0996 17H28.0996V25H4.09961V17Z" fill="#666666"/>
<path d="M15.0996 3V16C15.0996 16.5523 15.5473 17 16.0996 17C16.6519 17 17.0996 16.5523 17.0996 16V3C17.0996 2.44772 16.6519 2 16.0996 2C15.5473 2 15.0996 2.44772 15.0996 3Z" fill="#666666"/>
<path d="M22.8063 10.7075C22.9939 10.5199 23.0996 10.2652 23.0996 10C23.0996 9.73478 22.9943 9.48043 22.8067 9.29289C22.6192 9.10536 22.3648 9 22.0996 9C21.8344 9 21.58 9.10536 21.3925 9.29289L16.0996 14.5858L10.8068 9.29301C10.6192 9.10536 10.3648 9 10.0996 9C9.83439 9 9.58004 9.10536 9.3925 9.29289C9.20497 9.48043 9.09961 9.73478 9.09961 10C9.09961 10.2652 9.20497 10.5196 9.3925 10.7071L15.3925 16.7071C15.58 16.8946 15.8344 17 16.0996 17C16.3648 17 16.6192 16.8946 16.8067 16.7071L22.8063 10.7075Z" fill="#666666"/>
<path d="M25.0996 21C25.0996 21.8284 24.428 22.5 23.5996 22.5C22.7712 22.5 22.0996 21.8284 22.0996 21C22.0996 20.1716 22.7712 19.5 23.5996 19.5C24.428 19.5 25.0996 20.1716 25.0996 21Z" fill="#666666"/>
</svg>
