<svg width="446" height="50" viewBox="0 0 446 50" fill="none" xmlns="http://www.w3.org/2000/svg">
<path fill-rule="evenodd" clip-rule="evenodd" d="M4.6875 15.625C4.6875 15.625 4.6875 14.3306 5.60279 13.4153C5.60279 13.4153 6.51808 12.5 7.8125 12.5L42.1875 12.5C42.1875 12.5 43.4819 12.5 44.3972 13.4153C44.3972 13.4153 45.3125 14.3306 45.3125 15.625V40.625C45.3125 40.625 45.3125 41.9194 44.3972 42.8347C44.3972 42.8347 43.4819 43.75 42.1875 43.75H7.8125C7.8125 43.75 6.51808 43.75 5.60279 42.8347C5.60279 42.8347 4.6875 41.9194 4.6875 40.625L4.6875 15.625ZM7.8125 15.625L7.8125 40.625H42.1875V15.625L7.8125 15.625Z" fill="black"/>
<path d="M31.25 14.0625V20.3125C31.25 21.1754 31.9496 21.875 32.8125 21.875C33.6754 21.875 34.375 21.1754 34.375 20.3125V14.0625C34.375 10.1792 31.6291 7.43337 31.6291 7.43337C28.8833 4.6875 25 4.6875 25 4.6875C21.1167 4.6875 18.3709 7.43337 18.3709 7.43337C15.625 10.1792 15.625 14.0625 15.625 14.0625V20.3125C15.625 21.1754 16.3246 21.875 17.1875 21.875C18.0504 21.875 18.75 21.1754 18.75 20.3125V14.0625C18.75 11.4737 20.5806 9.64308 20.5806 9.64308C22.4112 7.8125 25 7.8125 25 7.8125C27.5888 7.8125 29.4194 9.64308 29.4194 9.64308C31.25 11.4737 31.25 14.0625 31.25 14.0625Z" fill="black"/>
<path d="M103.041 21.4182C103.335 21.1251 103.5 20.7269 103.5 20.3125C103.5 19.8981 103.335 19.5007 103.042 19.2076C102.749 18.9146 102.352 18.75 101.937 18.75C101.523 18.75 101.126 18.9146 100.833 19.2076L85.2076 34.8326C84.9146 35.1257 84.75 35.5231 84.75 35.9375C84.75 36.3519 84.9146 36.7493 85.2076 37.0424C85.5006 37.3354 85.8981 37.5 86.3125 37.5C86.7269 37.5 87.1243 37.3354 87.4173 37.0424L103.041 21.4182Z" fill="white"/>
<path d="M102.926 29.013C102.633 28.72 102.235 28.5547 101.82 28.5547C101.406 28.5547 101.009 28.7193 100.715 29.0123L100.702 29.0258C100.418 29.3176 100.258 29.7098 100.258 30.1172L100.258 30.1258C100.26 30.5372 100.425 30.9311 100.715 31.222L106.809 37.3153C107.102 37.6083 107.5 37.7734 107.914 37.7734C107.939 37.7734 107.964 37.7728 107.989 37.7716C108.377 37.753 108.744 37.5904 109.019 37.3158C109.312 37.0227 109.477 36.6253 109.477 36.2109C109.477 35.7965 109.312 35.3991 109.019 35.1061L102.926 29.013Z" fill="white"/>
<path d="M97.4571 34.4817C97.1641 34.1887 96.766 34.0234 96.3516 34.0234C95.9372 34.0234 95.5398 34.188 95.2467 34.4811L95.2334 34.4946C94.9491 34.7863 94.7891 35.1785 94.7891 35.5859L94.7891 35.5946C94.7914 36.006 94.9558 36.3999 95.2467 36.6908L101.34 42.784C101.633 43.0771 102.031 43.2422 102.445 43.2422C102.47 43.2422 102.495 43.2416 102.52 43.2404C102.908 43.2217 103.276 43.0592 103.55 42.7845C103.843 42.4915 104.008 42.0941 104.008 41.6797C104.008 41.2653 103.843 40.8678 103.55 40.5748L97.4571 34.4817Z" fill="white"/>
<path fill-rule="evenodd" clip-rule="evenodd" d="M81.1648 26.3756L82.9618 24.5786L71.0114 13.8584C70.9904 13.8396 70.9699 13.8201 70.9499 13.8002C70.9499 13.8002 69.1169 11.9672 69.1169 9.375C69.1169 9.375 69.1169 6.7828 70.9499 4.94983C70.9499 4.94983 72.7829 3.11687 75.3751 3.11687C75.3751 3.11687 77.9673 3.11687 79.8002 4.94984C79.8202 4.9698 79.8396 4.9903 79.8585 5.01132L90.5788 16.9616L92.3839 15.1565C92.3839 15.1565 93.7582 13.8024 95.6876 13.8024C95.6876 13.8024 97.6169 13.8024 98.9995 15.1647L113.98 30.1451C114.59 30.7553 114.59 31.7447 113.98 32.3549L98.3549 47.9799C97.7447 48.59 96.7554 48.59 96.1452 47.9799L81.1566 32.9912C81.1566 32.9912 79.8025 31.6169 79.8025 29.6875C79.8025 29.6875 79.8025 27.7581 81.1648 26.3756ZM85.054 22.2573C85.054 22.2573 85.5314 22.6877 85.8003 23.2715C85.8003 23.2715 86.0691 23.8553 86.0857 24.4978C86.0857 24.4978 86.1023 25.1403 85.864 25.7372C85.864 25.7372 85.6257 26.3342 85.1712 26.7886L83.3745 28.5853C83.3745 28.5853 82.9275 29.039 82.9275 29.6875C82.9275 29.6875 82.9275 30.336 83.3826 30.7979L97.2501 44.6653L110.665 31.25L96.7897 17.3744C96.7897 17.3744 96.336 16.9274 95.6876 16.9274C95.6876 16.9274 95.0391 16.9274 94.5772 17.3825L92.7885 19.1713C92.7885 19.1713 92.3342 19.6257 91.7373 19.864C91.7373 19.864 91.1404 20.1023 90.4979 20.0857C90.4979 20.0857 89.8554 20.069 89.2715 19.8002C89.2715 19.8002 88.6877 19.5314 88.2574 19.0539L77.5631 7.13237C77.5631 7.13237 76.6535 6.24187 75.3751 6.24187C75.3751 6.24187 74.0773 6.24187 73.1596 7.15954C73.1596 7.15954 72.2419 8.07722 72.2419 9.375C72.2419 9.375 72.2419 10.6535 73.1325 11.563L85.054 22.2573Z" fill="white"/>
<path fill-rule="evenodd" clip-rule="evenodd" d="M157 9.375C155.757 9.375 154.565 9.86886 153.685 10.7479C152.806 11.627 152.312 12.8193 152.312 14.0625C152.312 14.9254 151.613 15.625 150.75 15.625C149.887 15.625 149.188 14.9254 149.188 14.0625C149.188 11.9905 150.011 10.0034 151.476 8.53823C152.941 7.0731 154.928 6.25 157 6.25C159.072 6.25 161.059 7.0731 162.524 8.53823C163.989 10.0034 164.812 11.9905 164.812 14.0625C164.812 14.5543 164.581 15.0174 164.188 15.3125L159.604 18.75L179.188 33.4375C179.712 33.831 180.1 34.3797 180.295 35.0057C180.491 35.6318 180.485 36.3035 180.277 36.9257C180.07 37.5479 179.672 38.0891 179.14 38.4726C178.608 38.8561 177.968 39.0625 177.312 39.0625H136.688C136.032 39.0625 135.392 38.8561 134.86 38.4726C134.328 38.0891 133.93 37.5479 133.723 36.9257C133.515 36.3035 133.509 35.6318 133.705 35.0057C133.9 34.3797 134.288 33.831 134.813 33.4375L156.035 17.5209C156.053 17.5062 156.072 17.492 156.091 17.4783L161.629 13.325C161.475 12.3551 161.018 11.4513 160.315 10.7479C159.435 9.86886 158.243 9.375 157 9.375ZM157 20.7031L136.688 35.9375H177.312L157 20.7031Z" fill="black"/>
<path d="M243.77 10.4794C244.063 10.7724 244.461 10.9375 244.875 10.9375C244.902 10.9375 244.929 10.9368 244.956 10.9354C245.342 10.9154 245.707 10.7531 245.98 10.4799C246.273 10.1868 246.437 9.7894 246.437 9.375C246.437 8.9606 246.273 8.56317 245.98 8.27015L239.73 2.02015C239.437 1.72712 239.039 1.5625 238.625 1.5625C238.211 1.5625 237.813 1.72712 237.52 2.02015C237.227 2.31317 237.062 2.7106 237.062 3.125C237.062 3.5394 237.227 3.93683 237.52 4.22985L243.77 10.4794Z" fill="black"/>
<path d="M244.562 8.75C244.765 8.47954 244.875 8.15058 244.875 7.8125C244.875 7.79248 244.874 7.77246 244.874 7.75246C244.856 7.28209 244.626 6.84493 244.25 6.5625C243.979 6.35966 243.65 6.25 243.312 6.25L243.299 6.25006C243.229 6.25067 243.16 6.2559 243.091 6.2657C242.681 6.32431 242.311 6.54348 242.062 6.875L232.687 19.375C232.547 19.5617 232.451 19.7773 232.405 20.0061L230.935 27.3547L214.727 43.5631C214.273 44.0101 213.625 44.0101 213.625 44.0101C212.976 44.0101 212.514 43.555 212.514 43.555L204.437 35.4772C203.99 35.0235 203.99 34.375 203.99 34.375C203.99 33.7265 204.445 33.2646 204.445 33.2646L220.645 17.0644L227.994 15.5947C228.223 15.5489 228.438 15.4525 228.625 15.3125L241.125 5.9375C241.518 5.64242 241.75 5.17931 241.75 4.6875L241.75 4.667C241.745 4.33596 241.636 4.01485 241.437 3.75C241.189 3.41848 240.819 3.19931 240.408 3.1407C240.335 3.13025 240.261 3.125 240.187 3.125L240.182 3.12501C239.846 3.12616 239.519 3.23575 239.25 3.4375L227.033 12.5999L219.568 14.0928C219.266 14.1533 218.988 14.302 218.77 14.5201L202.219 31.0713C200.865 32.4456 200.865 34.375 200.865 34.375C200.865 36.3044 202.227 37.6869 202.227 37.6869L210.321 45.781C211.695 47.1351 213.625 47.1351 213.625 47.1351C215.554 47.1351 216.937 45.7728 216.937 45.7728L233.48 29.2299C233.698 29.0117 233.847 28.7339 233.907 28.4314L235.4 20.9665L244.562 8.75Z" fill="black"/>
<path d="M228.144 32.354C228.437 32.6471 228.836 32.8125 229.25 32.8125C229.664 32.8125 230.062 32.6479 230.355 32.3549C230.648 32.0618 230.812 31.6644 230.812 31.25C230.812 30.8356 230.648 30.4382 230.355 30.1451L217.855 17.6453C217.562 17.3521 217.164 17.1875 216.75 17.1875C216.336 17.1875 215.938 17.3521 215.645 17.6451C215.352 17.9382 215.187 18.3356 215.187 18.75C215.187 19.1644 215.352 19.5618 215.645 19.8549L228.144 32.354Z" fill="black"/>
<path d="M206.917 28.5826C206.624 28.2896 206.227 28.125 205.812 28.125C205.398 28.125 205.001 28.2896 204.708 28.5826C204.415 28.8757 204.25 29.2731 204.25 29.6875C204.25 30.1019 204.415 30.4993 204.708 30.7924L217.208 43.2924C217.501 43.5854 217.898 43.75 218.312 43.75C218.727 43.75 219.124 43.5854 219.417 43.2924C219.71 42.9993 219.875 42.6019 219.875 42.1875C219.875 41.7731 219.71 41.3757 219.417 41.0826L206.917 28.5826Z" fill="black"/>
<path fill-rule="evenodd" clip-rule="evenodd" d="M309.312 34.6373L309.312 34.6419C309.312 34.6419 309.307 35.4833 308.881 36.2097C308.881 36.2097 308.455 36.938 307.721 37.3548L290.528 47.0259C290.528 47.0259 289.827 47.4307 289 47.4307C289 47.4307 288.173 47.4307 287.457 47.0172L270.285 37.3579C270.285 37.3579 269.545 36.938 269.119 36.2097C269.119 36.2097 268.692 35.4813 268.688 34.6373L268.688 15.3711C268.688 15.3711 268.692 14.5187 269.119 13.7903C269.119 13.7903 269.545 13.062 270.279 12.6452L287.472 2.9741C287.472 2.9741 288.173 2.56934 289 2.56934C289 2.56934 289.827 2.56934 290.543 2.98277L307.715 12.6421C307.715 12.6421 308.455 13.062 308.881 13.7903C308.881 13.7903 309.308 14.5187 309.312 15.3627L309.312 34.6289L309.312 34.6373ZM306.188 15.3795L306.188 34.6205C306.188 34.6205 306.187 34.6261 306.185 34.6303C306.185 34.6303 306.184 34.6318 306.182 34.6336C306.181 34.6349 306.18 34.6363 306.178 34.6374L289 44.2999L271.817 34.6343C271.817 34.6343 271.817 34.6341 271.815 34.6303C271.815 34.6303 271.813 34.6258 271.812 34.6205L271.812 15.3711C271.812 15.3711 271.813 15.3726 271.815 15.3697C271.815 15.3697 271.818 15.3652 271.822 15.3626L289 5.70015L306.183 15.3657C306.183 15.3663 306.184 15.3681 306.185 15.3697C306.185 15.3697 306.187 15.3742 306.188 15.3795Z" fill="white"/>
<path d="M280.38 7.81144C280.149 7.68398 279.889 7.61713 279.625 7.61713L279.605 7.61726C279.465 7.61906 279.326 7.63968 279.191 7.67858C278.793 7.79364 278.457 8.06214 278.257 8.42501C278.129 8.65611 278.062 8.91572 278.062 9.17963L278.063 9.19968C278.064 9.33974 278.085 9.47893 278.124 9.61349C278.239 10.0116 278.508 10.3477 278.87 10.5478L297.008 20.5515V29.7851C297.008 30.648 297.707 31.3476 298.57 31.3476C299.433 31.3476 300.133 30.648 300.133 29.7851V19.6289C300.133 19.0597 299.823 18.5355 299.325 18.2607L280.38 7.81144Z" fill="white"/>
<path d="M289.168 23.207L271.226 13.2054C270.993 13.0757 270.731 13.0077 270.465 13.0077L270.452 13.0077C270.312 13.0089 270.172 13.0289 270.038 13.0672C269.639 13.1805 269.302 13.4475 269.1 13.8094C268.97 14.042 268.902 14.3039 268.902 14.5702L268.902 14.5832C268.903 14.7233 268.923 14.8626 268.962 14.9973C269.075 15.3959 269.342 15.7332 269.704 15.935L288.415 26.3647C288.892 26.6305 289.473 26.6281 289.947 26.3585L308.307 15.9288C308.667 15.7241 308.931 15.3846 309.041 14.9851C309.079 14.8499 309.098 14.7104 309.098 14.5702L309.097 14.5318C309.091 14.2743 309.021 14.0224 308.894 13.7984C308.616 13.3096 308.097 13.0077 307.535 13.0077C307.515 13.0077 307.494 13.0081 307.473 13.0089C307.224 13.0187 306.98 13.0882 306.763 13.2116L289.168 23.207Z" fill="white"/>
<path d="M287.438 45.8462L287.438 45.8593C287.438 45.9503 287.445 46.0411 287.461 46.1307C287.592 46.8725 288.234 47.4154 288.987 47.4218C289.012 47.422 289.037 47.4216 289.062 47.4206C289.45 47.4052 289.819 47.2458 290.096 46.9734C290.391 46.6829 290.559 46.2869 290.562 45.8725L290.738 25.0134L290.738 24.9999C290.738 24.9793 290.738 24.9587 290.737 24.938C290.722 24.5499 290.562 24.1814 290.29 23.9044C289.999 23.609 289.603 23.441 289.189 23.4375L289.176 23.4374C289.155 23.4374 289.135 23.4379 289.114 23.4387C288.726 23.4541 288.357 23.6135 288.08 23.8858C287.785 24.1764 287.617 24.5724 287.613 24.9868L287.438 45.8462Z" fill="white"/>
<path fill-rule="evenodd" clip-rule="evenodd" d="M355 4.6875C355 4.6875 359.132 4.6875 362.907 6.2844C362.907 6.2844 366.553 7.82632 369.363 10.6369C369.363 10.6369 372.174 13.4475 373.716 17.093C373.716 17.093 375.312 20.8685 375.312 25C375.312 25 375.312 29.1315 373.716 32.907C373.716 32.907 372.174 36.5525 369.363 39.3631C369.363 39.3631 366.553 42.1737 362.907 43.7156C362.907 43.7156 359.132 45.3125 355 45.3125C355 45.3125 350.868 45.3125 347.093 43.7156C347.093 43.7156 343.447 42.1737 340.637 39.3631C340.637 39.3631 337.826 36.5525 336.284 32.907C336.284 32.907 334.688 29.1315 334.688 25C334.688 25 334.688 20.8685 336.284 17.093C336.284 17.093 337.826 13.4475 340.637 10.6369C340.637 10.6369 343.447 7.82632 347.093 6.2844C347.093 6.2844 350.868 4.6875 355 4.6875ZM355 7.8125C355 7.8125 351.502 7.8125 348.31 9.16254C348.31 9.16254 345.226 10.467 342.847 12.8466C342.847 12.8466 340.467 15.2262 339.163 18.3103C339.163 18.3103 337.813 21.5022 337.812 25C337.812 25 337.812 28.4978 339.163 31.6897C339.163 31.6897 340.467 34.7738 342.847 37.1534C342.847 37.1534 345.226 39.533 348.31 40.8375C348.31 40.8375 351.502 42.1875 355 42.1875C355 42.1875 358.498 42.1875 361.69 40.8375C361.69 40.8375 364.774 39.533 367.153 37.1534C367.153 37.1534 369.533 34.7738 370.837 31.6897C370.837 31.6897 372.188 28.4978 372.188 25C372.188 25 372.188 21.5022 370.837 18.3103C370.837 18.3103 369.533 15.2262 367.153 12.8466C367.153 12.8466 364.774 10.467 361.69 9.16254C361.69 9.16254 358.498 7.8125 355 7.8125Z" fill="white"/>
<path d="M336.25 23.3984L336.248 23.3984C335.386 23.3993 334.688 24.0986 334.688 24.9609C334.688 25.3756 334.853 25.7742 335.146 26.0669C335.439 26.3593 335.836 26.5234 336.25 26.5234H336.252C340.282 26.519 344.006 24.9747 344.006 24.9747C347.729 23.4301 350.58 20.5798 350.58 20.5798C353.43 17.7294 354.975 14.006 354.975 14.006C356.519 10.2833 356.523 6.2531 356.523 6.2531L356.523 6.25C356.523 6.22551 356.523 6.20103 356.522 6.17657C356.503 5.78856 356.341 5.42125 356.067 5.1463C355.774 4.85297 355.377 4.68793 354.963 4.6875L354.961 4.6875C354.866 4.6875 354.771 4.69613 354.678 4.71329C353.937 4.84959 353.399 5.49508 353.398 6.24837L353.398 6.25C353.395 9.65939 352.088 12.8086 352.088 12.8086C350.781 15.9586 348.37 18.3701 348.37 18.3701C345.959 20.7815 342.809 22.0882 342.809 22.0882C339.659 23.3946 336.25 23.3984 336.25 23.3984Z" fill="white"/>
<path d="M355.025 35.9938C353.481 39.7172 353.477 43.7482 353.477 43.7482L353.477 43.7498C353.477 43.8447 353.485 43.9393 353.502 44.0326C353.639 44.7734 354.284 45.3116 355.037 45.3123L355.039 45.3123C355.064 45.3123 355.088 45.3118 355.112 45.3106C355.5 45.2924 355.868 45.1302 356.143 44.8559C356.436 44.5631 356.601 44.1659 356.602 43.7515V43.7498C356.605 40.3405 357.912 37.1912 357.912 37.1912C359.219 34.0412 361.63 31.6298 361.63 31.6298C364.041 29.2184 367.191 27.9117 367.191 27.9117C370.341 26.6053 373.75 26.6014 373.75 26.6014H373.752C374.166 26.601 374.563 26.4359 374.856 26.1426C375.148 25.8497 375.312 25.4527 375.312 25.0389L375.312 25.0373C375.312 24.175 374.612 23.4764 373.75 23.4764C369.719 23.4806 365.994 25.0252 365.994 25.0252C362.271 26.5697 359.42 29.4201 359.42 29.4201C356.57 32.2704 355.025 35.9938 355.025 35.9938Z" fill="white"/>
<path fill-rule="evenodd" clip-rule="evenodd" d="M402.463 25.7884C402.463 25.7884 401.382 25.5665 400.691 24.7423C400.691 24.7423 400.062 23.9921 399.971 23.0019C399.971 23.0019 399.88 22.0077 400.366 21.1568C400.366 21.1568 400.901 20.2196 401.933 19.8151L437.994 5.65248C437.994 5.65248 438.8 5.33986 439.653 5.48632C439.653 5.48632 440.505 5.63278 441.161 6.19664C441.161 6.19664 441.817 6.7605 442.089 7.58129C442.089 7.58129 442.362 8.40209 442.172 9.25498L434.828 41.3261C434.828 41.3261 434.643 42.1322 434.083 42.7412C434.083 42.7412 433.523 43.3502 432.736 43.6027C432.736 43.6027 431.948 43.8552 431.139 43.6851C431.139 43.6851 430.33 43.515 429.714 42.9699L412.47 27.7972L402.47 25.7897L402.463 25.7884ZM403.085 22.7258L413.495 24.8157C413.764 24.8696 414.014 24.9934 414.22 25.1745L431.778 40.6238L431.782 40.6269L439.123 8.56619L403.075 22.7238L403.085 22.7258Z" fill="black"/>
<path d="M440.684 8.41527C441.091 8.12151 441.332 7.64995 441.332 7.14824C441.332 7.12403 441.331 7.09982 441.33 7.07563C441.316 6.77226 441.214 6.47958 441.036 6.23338C440.794 5.89744 440.427 5.67164 440.018 5.60567C439.936 5.5924 439.853 5.58574 439.77 5.58574C439.752 5.58574 439.734 5.58605 439.716 5.58667C439.406 5.59738 439.106 5.70004 438.855 5.88158L412.274 25.0801C411.938 25.3228 411.711 25.6896 411.645 26.0987C411.632 26.181 411.625 26.2641 411.625 26.3475C411.625 26.3654 411.625 26.3834 411.626 26.4014C411.637 26.7113 411.739 27.011 411.921 27.2623C412.215 27.669 412.686 27.91 413.187 27.91C413.212 27.91 413.236 27.9094 413.26 27.9083C413.563 27.8942 413.856 27.7919 414.102 27.6141L440.684 8.41527Z" fill="black"/>
<path d="M414.75 39.0598V26.3476C414.75 25.4847 414.05 24.7851 413.187 24.7851C412.325 24.7851 411.625 25.4845 411.625 26.3475V39.0625C411.627 40.0156 412.157 40.8042 412.157 40.8042C412.688 41.5929 413.568 41.9525 413.568 41.9525C414.447 42.3122 415.379 42.121 415.379 42.121C416.31 41.9298 416.977 41.2526 416.977 41.2526L423.062 35.1673C423.355 34.8743 423.52 34.4769 423.52 34.0625C423.52 33.6481 423.355 33.2506 423.062 32.9576C422.769 32.6646 422.371 32.5 421.957 32.5C421.543 32.5 421.145 32.6646 420.852 32.9576L414.75 39.0598Z" fill="black"/>
</svg>
