<svg width="48" height="48" viewBox="0 0 48 48" fill="none" xmlns="http://www.w3.org/2000/svg">
<path d="M41.6476 30.4551C41.6476 31.8366 41.0356 33.1277 39.9684 33.9976L27.9864 43.7639C25.7414 45.6473 22.2487 45.6473 20.0038 43.7639L8.0218 33.9976C5.79725 32.2494 5.79758 28.6606 8.0218 26.9127L11.5954 23.9999L8.0218 21.0871C5.79725 19.339 5.79758 15.7501 8.0218 14.0023L20.0037 4.23601C22.2487 2.35266 25.7415 2.35266 27.9863 4.23593L39.9683 14.0023C42.1929 15.7504 42.1926 19.3392 39.9683 21.0871C38.2142 22.4039 36.2446 19.9687 37.8877 18.5178C38.5051 18.0058 38.506 17.0845 37.8877 16.5715L25.9059 6.80536C24.7988 5.90295 23.1917 5.90295 22.0843 6.80536L10.1024 16.5716C9.48506 17.0836 9.48416 18.0049 10.1024 18.5179L22.0843 28.2841C23.1914 29.1864 24.7985 29.1866 25.906 28.2841C25.9124 28.2789 25.9189 28.2736 25.9254 28.2685L27.8412 26.7548C28.5571 26.1892 29.5943 26.3131 30.1581 27.0311C30.7218 27.7493 30.5985 28.79 29.8826 29.3556L27.9763 30.8618C25.7311 32.7373 22.2453 32.7338 20.0039 30.8535L14.2119 26.1326L10.1025 29.4821C9.48515 29.9941 9.48424 30.9155 10.1025 31.4284L22.0843 41.1946C23.1914 42.0969 24.7985 42.0971 25.906 41.1946L37.8878 31.4283C38.5052 30.9164 38.5061 29.995 37.8878 29.4821L25.9059 19.7158C24.7988 18.8134 23.1917 18.8134 22.0843 19.7158C22.0778 19.721 22.0713 19.7263 22.0648 19.7314L20.149 21.2451C19.4332 21.8108 18.396 21.6869 17.8322 20.9688C17.2684 20.2506 17.3917 19.2099 18.1076 18.6443L20.0139 17.1381C22.2591 15.2626 25.7449 15.2662 27.9863 17.1464L39.9683 26.9127C41.0356 27.7826 41.6476 29.0737 41.6476 30.4551Z" fill="#0965EE"/>
</svg>
