<svg width="48" height="48" viewBox="0 0 48 48" fill="none" xmlns="http://www.w3.org/2000/svg">
<path fill-rule="evenodd" clip-rule="evenodd" d="M10 7.25C9.27065 7.25 8.57118 7.53973 8.05546 8.05546C7.53973 8.57118 7.25 9.27065 7.25 10V14C7.25 14.6904 6.69036 15.25 6 15.25C5.30964 15.25 4.75 14.6904 4.75 14V10C4.75 8.60761 5.30312 7.27226 6.28769 6.28769C7.27226 5.30312 8.60761 4.75 10 4.75H14C14.6904 4.75 15.25 5.30964 15.25 6C15.25 6.69036 14.6904 7.25 14 7.25H10ZM32.75 6C32.75 5.30964 33.3096 4.75 34 4.75H38C39.3924 4.75 40.7277 5.30312 41.7123 6.28769C42.6969 7.27225 43.25 8.60761 43.25 10V14C43.25 14.6904 42.6904 15.25 42 15.25C41.3096 15.25 40.75 14.6904 40.75 14V10C40.75 9.27066 40.4603 8.57118 39.9445 8.05546C39.4288 7.53973 38.7293 7.25 38 7.25H34C33.3096 7.25 32.75 6.69036 32.75 6ZM11.4268 24C11.5636 24.2354 11.745 24.5352 11.9699 24.8813C12.5492 25.7724 13.4092 26.958 14.5312 28.1391C16.7944 30.5213 19.9886 32.75 24 32.75C28.0114 32.75 31.2056 30.5213 33.4688 28.1391C34.5908 26.958 35.4508 25.7724 36.0301 24.8813C36.255 24.5352 36.4364 24.2354 36.5732 24C36.4364 23.7646 36.255 23.4648 36.0301 23.1187C35.4508 22.2276 34.5908 21.042 33.4688 19.8609C31.2056 17.4787 28.0114 15.25 24 15.25C19.9886 15.25 16.7944 17.4787 14.5312 19.8609C13.4092 21.042 12.5492 22.2276 11.9699 23.1187C11.745 23.4648 11.5636 23.7646 11.4268 24ZM38 24C39.118 23.441 39.1176 23.4401 39.1176 23.4401L39.1155 23.436L39.1112 23.4274L39.0969 23.3994C39.0849 23.3761 39.068 23.3435 39.0461 23.3023C39.0024 23.2199 38.9391 23.1028 38.8562 22.956C38.6906 22.6626 38.4467 22.2494 38.1262 21.7563C37.4867 20.7724 36.5342 19.458 35.2812 18.1391C32.7944 15.5213 28.9886 12.75 24 12.75C19.0114 12.75 15.2056 15.5213 12.7188 18.1391C11.4658 19.458 10.5133 20.7724 9.87382 21.7563C9.55331 22.2494 9.30937 22.6626 9.14378 22.956C9.06094 23.1028 8.99757 23.2199 8.95388 23.3023C8.93204 23.3435 8.9151 23.3761 8.90311 23.3994L8.88883 23.4274L8.88447 23.436L8.88242 23.4401C8.88242 23.4401 8.88197 23.441 10 24L8.88197 23.441C8.70601 23.7929 8.70601 24.2071 8.88197 24.559L10 24C8.88197 24.559 8.88242 24.5599 8.88242 24.5599L8.88447 24.564L8.88883 24.5726L8.90311 24.6006C8.9151 24.6239 8.93204 24.6565 8.95388 24.6977C8.99757 24.7801 9.06094 24.8972 9.14378 25.044C9.30937 25.3374 9.55331 25.7506 9.87382 26.2437C10.5133 27.2276 11.4658 28.542 12.7188 29.8609C15.2056 32.4787 19.0114 35.25 24 35.25C28.9886 35.25 32.7944 32.4787 35.2812 29.8609C36.5342 28.542 37.4867 27.2276 38.1262 26.2437C38.4467 25.7506 38.6906 25.3374 38.8562 25.044C38.9391 24.8972 39.0024 24.7801 39.0461 24.6977C39.068 24.6565 39.0849 24.6239 39.0969 24.6006L39.1112 24.5726L39.1155 24.564L39.1176 24.5599C39.1176 24.5599 39.118 24.559 38 24ZM38 24L39.118 24.559C39.294 24.2071 39.294 23.7929 39.118 23.441L38 24ZM24 23.25C23.5858 23.25 23.25 23.5858 23.25 24C23.25 24.4142 23.5858 24.75 24 24.75C24.4142 24.75 24.75 24.4142 24.75 24C24.75 23.5858 24.4142 23.25 24 23.25ZM20.75 24C20.75 22.2051 22.2051 20.75 24 20.75C25.7949 20.75 27.25 22.2051 27.25 24C27.25 25.7949 25.7949 27.25 24 27.25C22.2051 27.25 20.75 25.7949 20.75 24ZM6 32.75C6.69036 32.75 7.25 33.3096 7.25 34V38C7.25 38.7293 7.53973 39.4288 8.05546 39.9445C8.57118 40.4603 9.27066 40.75 10 40.75H14C14.6904 40.75 15.25 41.3096 15.25 42C15.25 42.6904 14.6904 43.25 14 43.25H10C8.60761 43.25 7.27225 42.6969 6.28769 41.7123C5.30312 40.7277 4.75 39.3924 4.75 38V34C4.75 33.3096 5.30964 32.75 6 32.75ZM42 32.75C42.6904 32.75 43.25 33.3096 43.25 34V38C43.25 39.3924 42.6969 40.7277 41.7123 41.7123C40.7277 42.6969 39.3924 43.25 38 43.25H34C33.3096 43.25 32.75 42.6904 32.75 42C32.75 41.3096 33.3096 40.75 34 40.75H38C38.7293 40.75 39.4288 40.4603 39.9445 39.9445C40.4603 39.4288 40.75 38.7293 40.75 38V34C40.75 33.3096 41.3096 32.75 42 32.75Z" fill="#0965EE"/>
</svg>
