<svg width="48" height="48" viewBox="0 0 48 48" fill="none" xmlns="http://www.w3.org/2000/svg">
<path d="M28 8C28 5.8 29.8 4 32 4M40 4C42.2 4 44 5.8 44 8M44 16C44 18.2 42.2 20 40 20M32 20C29.8 20 28 18.2 28 16M6 14L12 20M12 20L18 14M12 20V10C12 6.6 14.6 4 18 4H20M28 28C30.2 28 32 29.8 32 32V40C32 42.2 30.2 44 28 44M40 28C42.2 28 44 29.8 44 32V40C44 42.2 42.2 44 40 44M8 28H16C18.2091 28 20 29.7909 20 32V40C20 42.2091 18.2091 44 16 44H8C5.79086 44 4 42.2091 4 40V32C4 29.7909 5.79086 28 8 28Z" stroke="#0965EE" stroke-width="3" stroke-linecap="round" stroke-linejoin="round"/>
</svg>
