<svg width="48" height="48" viewBox="0 0 48 48" fill="none" xmlns="http://www.w3.org/2000/svg">
<path d="M6 4V16M6 16H18M6 16L12 10.6002C14.5889 8.28463 17.7925 6.76754 21.2243 6.23192C24.6561 5.6963 28.1696 6.16504 31.341 7.58159C34.5124 8.99814 37.2062 11.302 39.0975 14.2153C40.9888 17.1286 41.9968 20.5268 42 24.0002M42 44V32M42 32H30M42 32L36 37.4C33.4111 39.7156 30.2075 41.2327 26.7757 41.7683C23.3439 42.3039 19.8304 41.8352 16.659 40.4186C13.4876 39.0021 10.7938 36.6982 8.90251 33.7849C7.0112 30.8716 6.00316 27.4734 6 24M26 24C26 25.1046 25.1046 26 24 26C22.8954 26 22 25.1046 22 24C22 22.8954 22.8954 22 24 22C25.1046 22 26 22.8954 26 24Z" stroke="#0965EE" stroke-width="3" stroke-linecap="round" stroke-linejoin="round"/>
</svg>
