<svg width="48" height="48" viewBox="0 0 48 48" fill="none" xmlns="http://www.w3.org/2000/svg">
<path d="M5.99991 21.9999L40.3999 11.9999L38.7999 6.79991C38.1999 4.79991 35.9999 3.59991 33.7999 4.19991L6.79991 12.1999C4.79991 12.7999 3.59991 14.9999 4.19991 17.1999L5.99991 21.9999ZM5.99991 21.9999L42 22V38C42 39.0609 41.5786 40.0783 40.8284 40.8284C40.0783 41.5786 39.0609 42 38 42H10C8.93913 42 7.92172 41.5786 7.17157 40.8284C6.42143 40.0783 6 39.0609 6 38L5.99991 21.9999ZM12.4004 10.6001L18.6004 18.4001M24.7998 6.80005L30.9998 14.8" stroke="#0965EE" stroke-width="3" stroke-linecap="round" stroke-linejoin="round"/>
</svg>
