<svg width="48" height="48" viewBox="0 0 48 48" fill="none" xmlns="http://www.w3.org/2000/svg">
<path d="M4 4L44 44M11.5641 11.564C8.77661 13.0052 6.55418 15.3412 5.25347 18.1969C3.95275 21.0527 3.64918 24.2627 4.39147 27.3116C5.13376 30.3606 6.87887 33.0718 9.34672 35.01C11.8146 36.9483 14.8621 38.0013 18.0001 38H35.0001C35.8857 38.0006 36.7665 37.8705 37.6141 37.614M43.064 32.9999C43.7448 31.6276 44.0641 30.1042 43.9917 28.5741C43.9192 27.0439 43.4573 25.5575 42.6498 24.2557C41.8423 22.9539 40.7159 21.8798 39.3772 21.1351C38.0385 20.3903 36.5319 19.9996 35 19.9999H31.42C30.655 17.4384 29.1733 15.1492 27.1499 13.4022C25.1265 11.6551 22.6456 10.5232 20 10.1399" stroke="#0965EE" stroke-width="3" stroke-linecap="round" stroke-linejoin="round"/>
</svg>
